  0
SECTION
  2
HEADER
  9
$ACADVER
  1
AC1009
  9
$EXTMIN
 10
0.0
 20
0.0
 30
0.0
  9
$EXTMAX
 10
1000.0
 20
1000.0
 30
0.0
  9
$FILLMODE
 70
 0
  9
$SPLFRAME
 70
 1
  0
ENDSEC
  0
SECTION
  2
TABLES
  0
TABLE
  2
LAYER
 70
1
  0
LAYER
  2
0
 70
     0
 62
     7
  6
CONTINUOUS
  0
ENDTAB
  0
ENDSEC
  0
SECTION
  2
ENTITIES
  0
LINE
  8
0
 62
     0
 10
407.621
 20
141.155
 30
0.0
 11
408.012
 21
141.14
 31
0.0
  0
LINE
  8
0
 62
     0
 10
408.012
 20
141.14
 30
0.0
 11
408.404
 21
141.095
 31
0.0
  0
LINE
  8
0
 62
     0
 10
408.404
 20
141.095
 30
0.0
 11
408.788
 21
141.017
 31
0.0
  0
LINE
  8
0
 62
     0
 10
408.788
 20
141.017
 30
0.0
 11
409.166
 21
140.911
 31
0.0
  0
LINE
  8
0
 62
     0
 10
409.166
 20
140.911
 30
0.0
 11
409.533
 21
140.775
 31
0.0
  0
LINE
  8
0
 62
     0
 10
409.533
 20
140.775
 30
0.0
 11
409.889
 21
140.611
 31
0.0
  0
LINE
  8
0
 62
     0
 10
409.889
 20
140.611
 30
0.0
 11
410.231
 21
140.419
 31
0.0
  0
LINE
  8
0
 62
     0
 10
410.231
 20
140.419
 30
0.0
 11
410.559
 21
140.202
 31
0.0
  0
LINE
  8
0
 62
     0
 10
410.559
 20
140.202
 30
0.0
 11
410.866
 21
139.959
 31
0.0
  0
LINE
  8
0
 62
     0
 10
410.866
 20
139.959
 30
0.0
 11
411.155
 21
139.692
 31
0.0
  0
LINE
  8
0
 62
     0
 10
411.155
 20
139.692
 30
0.0
 11
411.424
 21
139.404
 31
0.0
  0
LINE
  8
0
 62
     0
 10
411.424
 20
139.404
 30
0.0
 11
411.667
 21
139.095
 31
0.0
  0
LINE
  8
0
 62
     0
 10
411.667
 20
139.095
 30
0.0
 11
411.882
 21
138.768
 31
0.0
  0
LINE
  8
0
 62
     0
 10
411.882
 20
138.768
 30
0.0
 11
412.076
 21
138.425
 31
0.0
  0
LINE
  8
0
 62
     0
 10
412.076
 20
138.425
 30
0.0
 11
412.238
 21
138.07
 31
0.0
  0
LINE
  8
0
 62
     0
 10
412.238
 20
138.07
 30
0.0
 11
412.376
 21
137.702
 31
0.0
  0
LINE
  8
0
 62
     0
 10
412.376
 20
137.702
 30
0.0
 11
412.482
 21
137.323
 31
0.0
  0
LINE
  8
0
 62
     0
 10
412.482
 20
137.323
 30
0.0
 11
412.559
 21
136.938
 31
0.0
  0
LINE
  8
0
 62
     0
 10
412.559
 20
136.938
 30
0.0
 11
412.605
 21
136.548
 31
0.0
  0
LINE
  8
0
 62
     0
 10
412.605
 20
136.548
 30
0.0
 11
412.619
 21
136.156
 31
0.0
  0
LINE
  8
0
 62
     0
 10
412.619
 20
136.156
 30
0.0
 11
412.619
 21
5.09323
 31
0.0
  0
LINE
  8
0
 62
     0
 10
412.619
 20
5.09323
 30
0.0
 11
412.605
 21
4.70048
 31
0.0
  0
LINE
  8
0
 62
     0
 10
412.605
 20
4.70048
 30
0.0
 11
412.559
 21
4.31052
 31
0.0
  0
LINE
  8
0
 62
     0
 10
412.559
 20
4.31052
 30
0.0
 11
412.482
 21
3.92603
 31
0.0
  0
LINE
  8
0
 62
     0
 10
412.482
 20
3.92603
 30
0.0
 11
412.376
 21
3.54707
 31
0.0
  0
LINE
  8
0
 62
     0
 10
412.376
 20
3.54707
 30
0.0
 11
412.238
 21
3.17913
 31
0.0
  0
LINE
  8
0
 62
     0
 10
412.238
 20
3.17913
 30
0.0
 11
412.076
 21
2.82222
 31
0.0
  0
LINE
  8
0
 62
     0
 10
412.076
 20
2.82222
 30
0.0
 11
411.882
 21
2.48047
 31
0.0
  0
LINE
  8
0
 62
     0
 10
411.882
 20
2.48047
 30
0.0
 11
411.667
 21
2.15387
 31
0.0
  0
LINE
  8
0
 62
     0
 10
411.667
 20
2.15387
 30
0.0
 11
411.424
 21
1.84519
 31
0.0
  0
LINE
  8
0
 62
     0
 10
411.424
 20
1.84519
 30
0.0
 11
411.155
 21
1.55718
 31
0.0
  0
LINE
  8
0
 62
     0
 10
411.155
 20
1.55718
 30
0.0
 11
410.866
 21
1.29122
 31
0.0
  0
LINE
  8
0
 62
     0
 10
410.866
 20
1.29122
 30
0.0
 11
410.559
 21
1.04731
 31
0.0
  0
LINE
  8
0
 62
     0
 10
410.559
 20
1.04731
 30
0.0
 11
410.231
 21
0.829578
 31
0.0
  0
LINE
  8
0
 62
     0
 10
410.231
 20
0.829578
 30
0.0
 11
409.889
 21
0.63803
 31
0.0
  0
LINE
  8
0
 62
     0
 10
409.889
 20
0.63803
 30
0.0
 11
409.533
 21
0.474045
 31
0.0
  0
LINE
  8
0
 62
     0
 10
409.533
 20
0.474045
 30
0.0
 11
409.166
 21
0.337619
 31
0.0
  0
LINE
  8
0
 62
     0
 10
409.166
 20
0.337619
 30
0.0
 11
408.788
 21
0.230132
 31
0.0
  0
LINE
  8
0
 62
     0
 10
408.788
 20
0.230132
 30
0.0
 11
408.404
 21
0.15434
 31
0.0
  0
LINE
  8
0
 62
     0
 10
408.404
 20
0.15434
 30
0.0
 11
408.012
 21
0.107487
 31
0.0
  0
LINE
  8
0
 62
     0
 10
408.012
 20
0.107487
 30
0.0
 11
407.621
 21
0.0923286
 31
0.0
  0
LINE
  8
0
 62
     0
 10
407.621
 20
0.0923286
 30
0.0
 11
5.0946
 21
0.0923286
 31
0.0
  0
LINE
  8
0
 62
     0
 10
5.0946
 20
0.0923286
 30
0.0
 11
4.70186
 21
0.107487
 31
0.0
  0
LINE
  8
0
 62
     0
 10
4.70186
 20
0.107487
 30
0.0
 11
4.3119
 21
0.15434
 31
0.0
  0
LINE
  8
0
 62
     0
 10
4.3119
 20
0.15434
 30
0.0
 11
3.9274
 21
0.230132
 31
0.0
  0
LINE
  8
0
 62
     0
 10
3.9274
 20
0.230132
 30
0.0
 11
3.54845
 21
0.337619
 31
0.0
  0
LINE
  8
0
 62
     0
 10
3.54845
 20
0.337619
 30
0.0
 11
3.18051
 21
0.474045
 31
0.0
  0
LINE
  8
0
 62
     0
 10
3.18051
 20
0.474045
 30
0.0
 11
2.82498
 21
0.63803
 31
0.0
  0
LINE
  8
0
 62
     0
 10
2.82498
 20
0.63803
 30
0.0
 11
2.48185
 21
0.829578
 31
0.0
  0
LINE
  8
0
 62
     0
 10
2.48185
 20
0.829578
 30
0.0
 11
2.15525
 21
1.04731
 31
0.0
  0
LINE
  8
0
 62
     0
 10
2.15525
 20
1.04731
 30
0.0
 11
1.84657
 21
1.29122
 31
0.0
  0
LINE
  8
0
 62
     0
 10
1.84657
 20
1.29122
 30
0.0
 11
1.55856
 21
1.55718
 31
0.0
  0
LINE
  8
0
 62
     0
 10
1.55856
 20
1.55718
 30
0.0
 11
1.29122
 21
1.84519
 31
0.0
  0
LINE
  8
0
 62
     0
 10
1.29122
 20
1.84519
 30
0.0
 11
1.04869
 21
2.15387
 31
0.0
  0
LINE
  8
0
 62
     0
 10
1.04869
 20
2.15387
 30
0.0
 11
0.830957
 21
2.48047
 31
0.0
  0
LINE
  8
0
 62
     0
 10
0.830957
 20
2.48047
 30
0.0
 11
0.63941
 21
2.82222
 31
0.0
  0
LINE
  8
0
 62
     0
 10
0.63941
 20
2.82222
 30
0.0
 11
0.475424
 21
3.17913
 31
0.0
  0
LINE
  8
0
 62
     0
 10
0.475424
 20
3.17913
 30
0.0
 11
0.338998
 21
3.54707
 31
0.0
  0
LINE
  8
0
 62
     0
 10
0.338998
 20
3.54707
 30
0.0
 11
0.232888
 21
3.92603
 31
0.0
  0
LINE
  8
0
 62
     0
 10
0.232888
 20
3.92603
 30
0.0
 11
0.155718
 21
4.31052
 31
0.0
  0
LINE
  8
0
 62
     0
 10
0.155718
 20
4.31052
 30
0.0
 11
0.110243
 21
4.70048
 31
0.0
  0
LINE
  8
0
 62
     0
 10
0.110243
 20
4.70048
 30
0.0
 11
0.0937066
 21
5.09323
 31
0.0
  0
LINE
  8
0
 62
     0
 10
0.0937066
 20
5.09323
 30
0.0
 11
0.0950846
 21
136.156
 31
0.0
  0
LINE
  8
0
 62
     0
 10
0.0950846
 20
136.156
 30
0.0
 11
0.110243
 21
136.548
 31
0.0
  0
LINE
  8
0
 62
     0
 10
0.110243
 20
136.548
 30
0.0
 11
0.155718
 21
136.938
 31
0.0
  0
LINE
  8
0
 62
     0
 10
0.155718
 20
136.938
 30
0.0
 11
0.232888
 21
137.323
 31
0.0
  0
LINE
  8
0
 62
     0
 10
0.232888
 20
137.323
 30
0.0
 11
0.338998
 21
137.702
 31
0.0
  0
LINE
  8
0
 62
     0
 10
0.338998
 20
137.702
 30
0.0
 11
0.475424
 21
138.07
 31
0.0
  0
LINE
  8
0
 62
     0
 10
0.475424
 20
138.07
 30
0.0
 11
0.63941
 21
138.425
 31
0.0
  0
LINE
  8
0
 62
     0
 10
0.63941
 20
138.425
 30
0.0
 11
0.830957
 21
138.768
 31
0.0
  0
LINE
  8
0
 62
     0
 10
0.830957
 20
138.768
 30
0.0
 11
1.04869
 21
139.095
 31
0.0
  0
LINE
  8
0
 62
     0
 10
1.04869
 20
139.095
 30
0.0
 11
1.29122
 21
139.404
 31
0.0
  0
LINE
  8
0
 62
     0
 10
1.29122
 20
139.404
 30
0.0
 11
1.55856
 21
139.692
 31
0.0
  0
LINE
  8
0
 62
     0
 10
1.55856
 20
139.692
 30
0.0
 11
1.84657
 21
139.959
 31
0.0
  0
LINE
  8
0
 62
     0
 10
1.84657
 20
139.959
 30
0.0
 11
2.15525
 21
140.202
 31
0.0
  0
LINE
  8
0
 62
     0
 10
2.15525
 20
140.202
 30
0.0
 11
2.48185
 21
140.419
 31
0.0
  0
LINE
  8
0
 62
     0
 10
2.48185
 20
140.419
 30
0.0
 11
2.82498
 21
140.611
 31
0.0
  0
LINE
  8
0
 62
     0
 10
2.82498
 20
140.611
 30
0.0
 11
3.18051
 21
140.775
 31
0.0
  0
LINE
  8
0
 62
     0
 10
3.18051
 20
140.775
 30
0.0
 11
3.54845
 21
140.911
 31
0.0
  0
LINE
  8
0
 62
     0
 10
3.54845
 20
140.911
 30
0.0
 11
3.9274
 21
141.017
 31
0.0
  0
LINE
  8
0
 62
     0
 10
3.9274
 20
141.017
 30
0.0
 11
4.3119
 21
141.095
 31
0.0
  0
LINE
  8
0
 62
     0
 10
4.3119
 20
141.095
 30
0.0
 11
4.70186
 21
141.14
 31
0.0
  0
LINE
  8
0
 62
     0
 10
4.70186
 20
141.14
 30
0.0
 11
5.0946
 21
141.157
 31
0.0
  0
LINE
  8
0
 62
     0
 10
5.0946
 20
141.157
 30
0.0
 11
407.621
 21
141.155
 31
0.0
  0
LINE
  8
0
 62
     0
 10
407.081
 20
6.75651
 30
0.0
 11
406.591
 21
6.50847
 31
0.0
  0
LINE
  8
0
 62
     0
 10
406.591
 20
6.50847
 30
0.0
 11
406.206
 21
6.12126
 31
0.0
  0
LINE
  8
0
 62
     0
 10
406.206
 20
6.12126
 30
0.0
 11
405.955
 21
5.63344
 31
0.0
  0
LINE
  8
0
 62
     0
 10
405.955
 20
5.63344
 30
0.0
 11
405.871
 21
5.09323
 31
0.0
  0
LINE
  8
0
 62
     0
 10
405.871
 20
5.09323
 30
0.0
 11
405.955
 21
4.55164
 31
0.0
  0
LINE
  8
0
 62
     0
 10
405.955
 20
4.55164
 30
0.0
 11
406.206
 21
4.06382
 31
0.0
  0
LINE
  8
0
 62
     0
 10
406.206
 20
4.06382
 30
0.0
 11
406.591
 21
3.67661
 31
0.0
  0
LINE
  8
0
 62
     0
 10
406.591
 20
3.67661
 30
0.0
 11
407.081
 21
3.42856
 31
0.0
  0
LINE
  8
0
 62
     0
 10
407.081
 20
3.42856
 30
0.0
 11
407.621
 21
3.34312
 31
0.0
  0
LINE
  8
0
 62
     0
 10
407.621
 20
3.34312
 30
0.0
 11
408.16
 21
3.42856
 31
0.0
  0
LINE
  8
0
 62
     0
 10
408.16
 20
3.42856
 30
0.0
 11
408.651
 21
3.67661
 31
0.0
  0
LINE
  8
0
 62
     0
 10
408.651
 20
3.67661
 30
0.0
 11
409.035
 21
4.06382
 31
0.0
  0
LINE
  8
0
 62
     0
 10
409.035
 20
4.06382
 30
0.0
 11
409.286
 21
4.55164
 31
0.0
  0
LINE
  8
0
 62
     0
 10
409.286
 20
4.55164
 30
0.0
 11
409.37
 21
5.09323
 31
0.0
  0
LINE
  8
0
 62
     0
 10
409.37
 20
5.09323
 30
0.0
 11
409.286
 21
5.63344
 31
0.0
  0
LINE
  8
0
 62
     0
 10
409.286
 20
5.63344
 30
0.0
 11
409.035
 21
6.12126
 31
0.0
  0
LINE
  8
0
 62
     0
 10
409.035
 20
6.12126
 30
0.0
 11
408.651
 21
6.50847
 31
0.0
  0
LINE
  8
0
 62
     0
 10
408.651
 20
6.50847
 30
0.0
 11
408.16
 21
6.75651
 31
0.0
  0
LINE
  8
0
 62
     0
 10
408.16
 20
6.75651
 30
0.0
 11
407.621
 21
6.84195
 31
0.0
  0
LINE
  8
0
 62
     0
 10
407.621
 20
6.84195
 30
0.0
 11
407.081
 21
6.75651
 31
0.0
  0
LINE
  8
0
 62
     0
 10
306.448
 20
6.75651
 30
0.0
 11
305.96
 21
6.50847
 31
0.0
  0
LINE
  8
0
 62
     0
 10
305.96
 20
6.50847
 30
0.0
 11
305.573
 21
6.12126
 31
0.0
  0
LINE
  8
0
 62
     0
 10
305.573
 20
6.12126
 30
0.0
 11
305.325
 21
5.63344
 31
0.0
  0
LINE
  8
0
 62
     0
 10
305.325
 20
5.63344
 30
0.0
 11
305.238
 21
5.09323
 31
0.0
  0
LINE
  8
0
 62
     0
 10
305.238
 20
5.09323
 30
0.0
 11
305.325
 21
4.55164
 31
0.0
  0
LINE
  8
0
 62
     0
 10
305.325
 20
4.55164
 30
0.0
 11
305.573
 21
4.06382
 31
0.0
  0
LINE
  8
0
 62
     0
 10
305.573
 20
4.06382
 30
0.0
 11
305.96
 21
3.67661
 31
0.0
  0
LINE
  8
0
 62
     0
 10
305.96
 20
3.67661
 30
0.0
 11
306.448
 21
3.42856
 31
0.0
  0
LINE
  8
0
 62
     0
 10
306.448
 20
3.42856
 30
0.0
 11
306.988
 21
3.34312
 31
0.0
  0
LINE
  8
0
 62
     0
 10
306.988
 20
3.34312
 30
0.0
 11
307.53
 21
3.42856
 31
0.0
  0
LINE
  8
0
 62
     0
 10
307.53
 20
3.42856
 30
0.0
 11
308.018
 21
3.67661
 31
0.0
  0
LINE
  8
0
 62
     0
 10
308.018
 20
3.67661
 30
0.0
 11
308.405
 21
4.06382
 31
0.0
  0
LINE
  8
0
 62
     0
 10
308.405
 20
4.06382
 30
0.0
 11
308.653
 21
4.55164
 31
0.0
  0
LINE
  8
0
 62
     0
 10
308.653
 20
4.55164
 30
0.0
 11
308.738
 21
5.09323
 31
0.0
  0
LINE
  8
0
 62
     0
 10
308.738
 20
5.09323
 30
0.0
 11
308.653
 21
5.63344
 31
0.0
  0
LINE
  8
0
 62
     0
 10
308.653
 20
5.63344
 30
0.0
 11
308.405
 21
6.12126
 31
0.0
  0
LINE
  8
0
 62
     0
 10
308.405
 20
6.12126
 30
0.0
 11
308.018
 21
6.50847
 31
0.0
  0
LINE
  8
0
 62
     0
 10
308.018
 20
6.50847
 30
0.0
 11
307.53
 21
6.75651
 31
0.0
  0
LINE
  8
0
 62
     0
 10
307.53
 20
6.75651
 30
0.0
 11
306.988
 21
6.84195
 31
0.0
  0
LINE
  8
0
 62
     0
 10
306.988
 20
6.84195
 30
0.0
 11
306.448
 21
6.75651
 31
0.0
  0
LINE
  8
0
 62
     0
 10
205.817
 20
6.75651
 30
0.0
 11
205.329
 21
6.50847
 31
0.0
  0
LINE
  8
0
 62
     0
 10
205.329
 20
6.50847
 30
0.0
 11
204.942
 21
6.12126
 31
0.0
  0
LINE
  8
0
 62
     0
 10
204.942
 20
6.12126
 30
0.0
 11
204.692
 21
5.63344
 31
0.0
  0
LINE
  8
0
 62
     0
 10
204.692
 20
5.63344
 30
0.0
 11
204.608
 21
5.09323
 31
0.0
  0
LINE
  8
0
 62
     0
 10
204.608
 20
5.09323
 30
0.0
 11
204.692
 21
4.55164
 31
0.0
  0
LINE
  8
0
 62
     0
 10
204.692
 20
4.55164
 30
0.0
 11
204.942
 21
4.06382
 31
0.0
  0
LINE
  8
0
 62
     0
 10
204.942
 20
4.06382
 30
0.0
 11
205.329
 21
3.67661
 31
0.0
  0
LINE
  8
0
 62
     0
 10
205.329
 20
3.67661
 30
0.0
 11
205.817
 21
3.42856
 31
0.0
  0
LINE
  8
0
 62
     0
 10
205.817
 20
3.42856
 30
0.0
 11
206.357
 21
3.34312
 31
0.0
  0
LINE
  8
0
 62
     0
 10
206.357
 20
3.34312
 30
0.0
 11
206.897
 21
3.42856
 31
0.0
  0
LINE
  8
0
 62
     0
 10
206.897
 20
3.42856
 30
0.0
 11
207.385
 21
3.67661
 31
0.0
  0
LINE
  8
0
 62
     0
 10
207.385
 20
3.67661
 30
0.0
 11
207.772
 21
4.06382
 31
0.0
  0
LINE
  8
0
 62
     0
 10
207.772
 20
4.06382
 30
0.0
 11
208.022
 21
4.55164
 31
0.0
  0
LINE
  8
0
 62
     0
 10
208.022
 20
4.55164
 30
0.0
 11
208.107
 21
5.09323
 31
0.0
  0
LINE
  8
0
 62
     0
 10
208.107
 20
5.09323
 30
0.0
 11
208.022
 21
5.63344
 31
0.0
  0
LINE
  8
0
 62
     0
 10
208.022
 20
5.63344
 30
0.0
 11
207.772
 21
6.12126
 31
0.0
  0
LINE
  8
0
 62
     0
 10
207.772
 20
6.12126
 30
0.0
 11
207.385
 21
6.50847
 31
0.0
  0
LINE
  8
0
 62
     0
 10
207.385
 20
6.50847
 30
0.0
 11
206.897
 21
6.75651
 31
0.0
  0
LINE
  8
0
 62
     0
 10
206.897
 20
6.75651
 30
0.0
 11
206.357
 21
6.84195
 31
0.0
  0
LINE
  8
0
 62
     0
 10
206.357
 20
6.84195
 30
0.0
 11
205.817
 21
6.75651
 31
0.0
  0
LINE
  8
0
 62
     0
 10
105.184
 20
6.75651
 30
0.0
 11
104.696
 21
6.50847
 31
0.0
  0
LINE
  8
0
 62
     0
 10
104.696
 20
6.50847
 30
0.0
 11
104.309
 21
6.12126
 31
0.0
  0
LINE
  8
0
 62
     0
 10
104.309
 20
6.12126
 30
0.0
 11
104.061
 21
5.63344
 31
0.0
  0
LINE
  8
0
 62
     0
 10
104.061
 20
5.63344
 30
0.0
 11
103.976
 21
5.09323
 31
0.0
  0
LINE
  8
0
 62
     0
 10
103.976
 20
5.09323
 30
0.0
 11
104.061
 21
4.55164
 31
0.0
  0
LINE
  8
0
 62
     0
 10
104.061
 20
4.55164
 30
0.0
 11
104.309
 21
4.06382
 31
0.0
  0
LINE
  8
0
 62
     0
 10
104.309
 20
4.06382
 30
0.0
 11
104.696
 21
3.67661
 31
0.0
  0
LINE
  8
0
 62
     0
 10
104.696
 20
3.67661
 30
0.0
 11
105.184
 21
3.42856
 31
0.0
  0
LINE
  8
0
 62
     0
 10
105.184
 20
3.42856
 30
0.0
 11
105.726
 21
3.34312
 31
0.0
  0
LINE
  8
0
 62
     0
 10
105.726
 20
3.34312
 30
0.0
 11
106.267
 21
3.42856
 31
0.0
  0
LINE
  8
0
 62
     0
 10
106.267
 20
3.42856
 30
0.0
 11
106.755
 21
3.67661
 31
0.0
  0
LINE
  8
0
 62
     0
 10
106.755
 20
3.67661
 30
0.0
 11
107.141
 21
4.06382
 31
0.0
  0
LINE
  8
0
 62
     0
 10
107.141
 20
4.06382
 30
0.0
 11
107.389
 21
4.55164
 31
0.0
  0
LINE
  8
0
 62
     0
 10
107.389
 20
4.55164
 30
0.0
 11
107.476
 21
5.09323
 31
0.0
  0
LINE
  8
0
 62
     0
 10
107.476
 20
5.09323
 30
0.0
 11
107.389
 21
5.63344
 31
0.0
  0
LINE
  8
0
 62
     0
 10
107.389
 20
5.63344
 30
0.0
 11
107.141
 21
6.12126
 31
0.0
  0
LINE
  8
0
 62
     0
 10
107.141
 20
6.12126
 30
0.0
 11
106.755
 21
6.50847
 31
0.0
  0
LINE
  8
0
 62
     0
 10
106.755
 20
6.50847
 30
0.0
 11
106.267
 21
6.75651
 31
0.0
  0
LINE
  8
0
 62
     0
 10
106.267
 20
6.75651
 30
0.0
 11
105.726
 21
6.84195
 31
0.0
  0
LINE
  8
0
 62
     0
 10
105.726
 20
6.84195
 30
0.0
 11
105.184
 21
6.75651
 31
0.0
  0
LINE
  8
0
 62
     0
 10
4.55443
 20
6.75651
 30
0.0
 11
4.0652
 21
6.50847
 31
0.0
  0
LINE
  8
0
 62
     0
 10
4.0652
 20
6.50847
 30
0.0
 11
3.67937
 21
6.12126
 31
0.0
  0
LINE
  8
0
 62
     0
 10
3.67937
 20
6.12126
 30
0.0
 11
3.42994
 21
5.63344
 31
0.0
  0
LINE
  8
0
 62
     0
 10
3.42994
 20
5.63344
 30
0.0
 11
3.34312
 21
5.09323
 31
0.0
  0
LINE
  8
0
 62
     0
 10
3.34312
 20
5.09323
 30
0.0
 11
3.42994
 21
4.55164
 31
0.0
  0
LINE
  8
0
 62
     0
 10
3.42994
 20
4.55164
 30
0.0
 11
3.67937
 21
4.06382
 31
0.0
  0
LINE
  8
0
 62
     0
 10
3.67937
 20
4.06382
 30
0.0
 11
4.0652
 21
3.67661
 31
0.0
  0
LINE
  8
0
 62
     0
 10
4.0652
 20
3.67661
 30
0.0
 11
4.55443
 21
3.42856
 31
0.0
  0
LINE
  8
0
 62
     0
 10
4.55443
 20
3.42856
 30
0.0
 11
5.09323
 21
3.34312
 31
0.0
  0
LINE
  8
0
 62
     0
 10
5.09323
 20
3.34312
 30
0.0
 11
5.63481
 21
3.42856
 31
0.0
  0
LINE
  8
0
 62
     0
 10
5.63481
 20
3.42856
 30
0.0
 11
6.12263
 21
3.67661
 31
0.0
  0
LINE
  8
0
 62
     0
 10
6.12263
 20
3.67661
 30
0.0
 11
6.50984
 21
4.06382
 31
0.0
  0
LINE
  8
0
 62
     0
 10
6.50984
 20
4.06382
 30
0.0
 11
6.75929
 21
4.55164
 31
0.0
  0
LINE
  8
0
 62
     0
 10
6.75929
 20
4.55164
 30
0.0
 11
6.84332
 21
5.09323
 31
0.0
  0
LINE
  8
0
 62
     0
 10
6.84332
 20
5.09323
 30
0.0
 11
6.75929
 21
5.63344
 31
0.0
  0
LINE
  8
0
 62
     0
 10
6.75929
 20
5.63344
 30
0.0
 11
6.50984
 21
6.12126
 31
0.0
  0
LINE
  8
0
 62
     0
 10
6.50984
 20
6.12126
 30
0.0
 11
6.12263
 21
6.50847
 31
0.0
  0
LINE
  8
0
 62
     0
 10
6.12263
 20
6.50847
 30
0.0
 11
5.63481
 21
6.75651
 31
0.0
  0
LINE
  8
0
 62
     0
 10
5.63481
 20
6.75651
 30
0.0
 11
5.09323
 21
6.84195
 31
0.0
  0
LINE
  8
0
 62
     0
 10
5.09323
 20
6.84195
 30
0.0
 11
4.55443
 21
6.75651
 31
0.0
  0
LINE
  8
0
 62
     0
 10
105.184
 20
137.82
 30
0.0
 11
104.696
 21
137.571
 31
0.0
  0
LINE
  8
0
 62
     0
 10
104.696
 20
137.571
 30
0.0
 11
104.309
 21
137.185
 31
0.0
  0
LINE
  8
0
 62
     0
 10
104.309
 20
137.185
 30
0.0
 11
104.061
 21
136.696
 31
0.0
  0
LINE
  8
0
 62
     0
 10
104.061
 20
136.696
 30
0.0
 11
103.976
 21
136.156
 31
0.0
  0
LINE
  8
0
 62
     0
 10
103.976
 20
136.156
 30
0.0
 11
104.061
 21
135.616
 31
0.0
  0
LINE
  8
0
 62
     0
 10
104.061
 20
135.616
 30
0.0
 11
104.309
 21
135.128
 31
0.0
  0
LINE
  8
0
 62
     0
 10
104.309
 20
135.128
 30
0.0
 11
104.696
 21
134.74
 31
0.0
  0
LINE
  8
0
 62
     0
 10
104.696
 20
134.74
 30
0.0
 11
105.184
 21
134.491
 31
0.0
  0
LINE
  8
0
 62
     0
 10
105.184
 20
134.491
 30
0.0
 11
105.726
 21
134.406
 31
0.0
  0
LINE
  8
0
 62
     0
 10
105.726
 20
134.406
 30
0.0
 11
106.267
 21
134.491
 31
0.0
  0
LINE
  8
0
 62
     0
 10
106.267
 20
134.491
 30
0.0
 11
106.755
 21
134.74
 31
0.0
  0
LINE
  8
0
 62
     0
 10
106.755
 20
134.74
 30
0.0
 11
107.141
 21
135.128
 31
0.0
  0
LINE
  8
0
 62
     0
 10
107.141
 20
135.128
 30
0.0
 11
107.389
 21
135.616
 31
0.0
  0
LINE
  8
0
 62
     0
 10
107.389
 20
135.616
 30
0.0
 11
107.476
 21
136.156
 31
0.0
  0
LINE
  8
0
 62
     0
 10
107.476
 20
136.156
 30
0.0
 11
107.389
 21
136.696
 31
0.0
  0
LINE
  8
0
 62
     0
 10
107.389
 20
136.696
 30
0.0
 11
107.141
 21
137.185
 31
0.0
  0
LINE
  8
0
 62
     0
 10
107.141
 20
137.185
 30
0.0
 11
106.755
 21
137.571
 31
0.0
  0
LINE
  8
0
 62
     0
 10
106.755
 20
137.571
 30
0.0
 11
106.267
 21
137.82
 31
0.0
  0
LINE
  8
0
 62
     0
 10
106.267
 20
137.82
 30
0.0
 11
105.726
 21
137.906
 31
0.0
  0
LINE
  8
0
 62
     0
 10
105.726
 20
137.906
 30
0.0
 11
105.184
 21
137.82
 31
0.0
  0
LINE
  8
0
 62
     0
 10
205.817
 20
137.82
 30
0.0
 11
205.329
 21
137.571
 31
0.0
  0
LINE
  8
0
 62
     0
 10
205.329
 20
137.571
 30
0.0
 11
204.942
 21
137.185
 31
0.0
  0
LINE
  8
0
 62
     0
 10
204.942
 20
137.185
 30
0.0
 11
204.692
 21
136.696
 31
0.0
  0
LINE
  8
0
 62
     0
 10
204.692
 20
136.696
 30
0.0
 11
204.608
 21
136.156
 31
0.0
  0
LINE
  8
0
 62
     0
 10
204.608
 20
136.156
 30
0.0
 11
204.692
 21
135.616
 31
0.0
  0
LINE
  8
0
 62
     0
 10
204.692
 20
135.616
 30
0.0
 11
204.942
 21
135.128
 31
0.0
  0
LINE
  8
0
 62
     0
 10
204.942
 20
135.128
 30
0.0
 11
205.329
 21
134.74
 31
0.0
  0
LINE
  8
0
 62
     0
 10
205.329
 20
134.74
 30
0.0
 11
205.817
 21
134.491
 31
0.0
  0
LINE
  8
0
 62
     0
 10
205.817
 20
134.491
 30
0.0
 11
206.357
 21
134.406
 31
0.0
  0
LINE
  8
0
 62
     0
 10
206.357
 20
134.406
 30
0.0
 11
206.897
 21
134.491
 31
0.0
  0
LINE
  8
0
 62
     0
 10
206.897
 20
134.491
 30
0.0
 11
207.385
 21
134.74
 31
0.0
  0
LINE
  8
0
 62
     0
 10
207.385
 20
134.74
 30
0.0
 11
207.772
 21
135.128
 31
0.0
  0
LINE
  8
0
 62
     0
 10
207.772
 20
135.128
 30
0.0
 11
208.022
 21
135.616
 31
0.0
  0
LINE
  8
0
 62
     0
 10
208.022
 20
135.616
 30
0.0
 11
208.107
 21
136.156
 31
0.0
  0
LINE
  8
0
 62
     0
 10
208.107
 20
136.156
 30
0.0
 11
208.022
 21
136.696
 31
0.0
  0
LINE
  8
0
 62
     0
 10
208.022
 20
136.696
 30
0.0
 11
207.772
 21
137.185
 31
0.0
  0
LINE
  8
0
 62
     0
 10
207.772
 20
137.185
 30
0.0
 11
207.385
 21
137.571
 31
0.0
  0
LINE
  8
0
 62
     0
 10
207.385
 20
137.571
 30
0.0
 11
206.897
 21
137.82
 31
0.0
  0
LINE
  8
0
 62
     0
 10
206.897
 20
137.82
 30
0.0
 11
206.357
 21
137.906
 31
0.0
  0
LINE
  8
0
 62
     0
 10
206.357
 20
137.906
 30
0.0
 11
205.817
 21
137.82
 31
0.0
  0
LINE
  8
0
 62
     0
 10
306.448
 20
137.82
 30
0.0
 11
305.96
 21
137.571
 31
0.0
  0
LINE
  8
0
 62
     0
 10
305.96
 20
137.571
 30
0.0
 11
305.573
 21
137.185
 31
0.0
  0
LINE
  8
0
 62
     0
 10
305.573
 20
137.185
 30
0.0
 11
305.325
 21
136.696
 31
0.0
  0
LINE
  8
0
 62
     0
 10
305.325
 20
136.696
 30
0.0
 11
305.238
 21
136.156
 31
0.0
  0
LINE
  8
0
 62
     0
 10
305.238
 20
136.156
 30
0.0
 11
305.325
 21
135.616
 31
0.0
  0
LINE
  8
0
 62
     0
 10
305.325
 20
135.616
 30
0.0
 11
305.573
 21
135.128
 31
0.0
  0
LINE
  8
0
 62
     0
 10
305.573
 20
135.128
 30
0.0
 11
305.96
 21
134.74
 31
0.0
  0
LINE
  8
0
 62
     0
 10
305.96
 20
134.74
 30
0.0
 11
306.448
 21
134.491
 31
0.0
  0
LINE
  8
0
 62
     0
 10
306.448
 20
134.491
 30
0.0
 11
306.988
 21
134.406
 31
0.0
  0
LINE
  8
0
 62
     0
 10
306.988
 20
134.406
 30
0.0
 11
307.53
 21
134.491
 31
0.0
  0
LINE
  8
0
 62
     0
 10
307.53
 20
134.491
 30
0.0
 11
308.018
 21
134.74
 31
0.0
  0
LINE
  8
0
 62
     0
 10
308.018
 20
134.74
 30
0.0
 11
308.405
 21
135.128
 31
0.0
  0
LINE
  8
0
 62
     0
 10
308.405
 20
135.128
 30
0.0
 11
308.653
 21
135.616
 31
0.0
  0
LINE
  8
0
 62
     0
 10
308.653
 20
135.616
 30
0.0
 11
308.738
 21
136.156
 31
0.0
  0
LINE
  8
0
 62
     0
 10
308.738
 20
136.156
 30
0.0
 11
308.653
 21
136.696
 31
0.0
  0
LINE
  8
0
 62
     0
 10
308.653
 20
136.696
 30
0.0
 11
308.405
 21
137.185
 31
0.0
  0
LINE
  8
0
 62
     0
 10
308.405
 20
137.185
 30
0.0
 11
308.018
 21
137.571
 31
0.0
  0
LINE
  8
0
 62
     0
 10
308.018
 20
137.571
 30
0.0
 11
307.53
 21
137.82
 31
0.0
  0
LINE
  8
0
 62
     0
 10
307.53
 20
137.82
 30
0.0
 11
306.988
 21
137.906
 31
0.0
  0
LINE
  8
0
 62
     0
 10
306.988
 20
137.906
 30
0.0
 11
306.448
 21
137.82
 31
0.0
  0
LINE
  8
0
 62
     0
 10
407.081
 20
137.82
 30
0.0
 11
406.591
 21
137.571
 31
0.0
  0
LINE
  8
0
 62
     0
 10
406.591
 20
137.571
 30
0.0
 11
406.206
 21
137.185
 31
0.0
  0
LINE
  8
0
 62
     0
 10
406.206
 20
137.185
 30
0.0
 11
405.955
 21
136.696
 31
0.0
  0
LINE
  8
0
 62
     0
 10
405.955
 20
136.696
 30
0.0
 11
405.871
 21
136.156
 31
0.0
  0
LINE
  8
0
 62
     0
 10
405.871
 20
136.156
 30
0.0
 11
405.955
 21
135.616
 31
0.0
  0
LINE
  8
0
 62
     0
 10
405.955
 20
135.616
 30
0.0
 11
406.206
 21
135.128
 31
0.0
  0
LINE
  8
0
 62
     0
 10
406.206
 20
135.128
 30
0.0
 11
406.591
 21
134.74
 31
0.0
  0
LINE
  8
0
 62
     0
 10
406.591
 20
134.74
 30
0.0
 11
407.081
 21
134.491
 31
0.0
  0
LINE
  8
0
 62
     0
 10
407.081
 20
134.491
 30
0.0
 11
407.621
 21
134.406
 31
0.0
  0
LINE
  8
0
 62
     0
 10
407.621
 20
134.406
 30
0.0
 11
408.16
 21
134.491
 31
0.0
  0
LINE
  8
0
 62
     0
 10
408.16
 20
134.491
 30
0.0
 11
408.651
 21
134.74
 31
0.0
  0
LINE
  8
0
 62
     0
 10
408.651
 20
134.74
 30
0.0
 11
409.035
 21
135.128
 31
0.0
  0
LINE
  8
0
 62
     0
 10
409.035
 20
135.128
 30
0.0
 11
409.286
 21
135.616
 31
0.0
  0
LINE
  8
0
 62
     0
 10
409.286
 20
135.616
 30
0.0
 11
409.37
 21
136.156
 31
0.0
  0
LINE
  8
0
 62
     0
 10
409.37
 20
136.156
 30
0.0
 11
409.286
 21
136.696
 31
0.0
  0
LINE
  8
0
 62
     0
 10
409.286
 20
136.696
 30
0.0
 11
409.035
 21
137.185
 31
0.0
  0
LINE
  8
0
 62
     0
 10
409.035
 20
137.185
 30
0.0
 11
408.651
 21
137.571
 31
0.0
  0
LINE
  8
0
 62
     0
 10
408.651
 20
137.571
 30
0.0
 11
408.16
 21
137.82
 31
0.0
  0
LINE
  8
0
 62
     0
 10
408.16
 20
137.82
 30
0.0
 11
407.621
 21
137.906
 31
0.0
  0
LINE
  8
0
 62
     0
 10
407.621
 20
137.906
 30
0.0
 11
407.081
 21
137.82
 31
0.0
  0
LINE
  8
0
 62
     0
 10
4.55443
 20
137.82
 30
0.0
 11
4.0652
 21
137.571
 31
0.0
  0
LINE
  8
0
 62
     0
 10
4.0652
 20
137.571
 30
0.0
 11
3.67937
 21
137.185
 31
0.0
  0
LINE
  8
0
 62
     0
 10
3.67937
 20
137.185
 30
0.0
 11
3.42994
 21
136.696
 31
0.0
  0
LINE
  8
0
 62
     0
 10
3.42994
 20
136.696
 30
0.0
 11
3.34312
 21
136.156
 31
0.0
  0
LINE
  8
0
 62
     0
 10
3.34312
 20
136.156
 30
0.0
 11
3.42994
 21
135.616
 31
0.0
  0
LINE
  8
0
 62
     0
 10
3.42994
 20
135.616
 30
0.0
 11
3.67937
 21
135.128
 31
0.0
  0
LINE
  8
0
 62
     0
 10
3.67937
 20
135.128
 30
0.0
 11
4.0652
 21
134.74
 31
0.0
  0
LINE
  8
0
 62
     0
 10
4.0652
 20
134.74
 30
0.0
 11
4.55443
 21
134.491
 31
0.0
  0
LINE
  8
0
 62
     0
 10
4.55443
 20
134.491
 30
0.0
 11
5.09323
 21
134.406
 31
0.0
  0
LINE
  8
0
 62
     0
 10
5.09323
 20
134.406
 30
0.0
 11
5.63481
 21
134.491
 31
0.0
  0
LINE
  8
0
 62
     0
 10
5.63481
 20
134.491
 30
0.0
 11
6.12263
 21
134.74
 31
0.0
  0
LINE
  8
0
 62
     0
 10
6.12263
 20
134.74
 30
0.0
 11
6.50984
 21
135.128
 31
0.0
  0
LINE
  8
0
 62
     0
 10
6.50984
 20
135.128
 30
0.0
 11
6.75929
 21
135.616
 31
0.0
  0
LINE
  8
0
 62
     0
 10
6.75929
 20
135.616
 30
0.0
 11
6.84332
 21
136.156
 31
0.0
  0
LINE
  8
0
 62
     0
 10
6.84332
 20
136.156
 30
0.0
 11
6.75929
 21
136.696
 31
0.0
  0
LINE
  8
0
 62
     0
 10
6.75929
 20
136.696
 30
0.0
 11
6.50984
 21
137.185
 31
0.0
  0
LINE
  8
0
 62
     0
 10
6.50984
 20
137.185
 30
0.0
 11
6.12263
 21
137.571
 31
0.0
  0
LINE
  8
0
 62
     0
 10
6.12263
 20
137.571
 30
0.0
 11
5.63481
 21
137.82
 31
0.0
  0
LINE
  8
0
 62
     0
 10
5.63481
 20
137.82
 30
0.0
 11
5.09323
 21
137.906
 31
0.0
  0
LINE
  8
0
 62
     0
 10
5.09323
 20
137.906
 30
0.0
 11
4.55443
 21
137.82
 31
0.0
  0
ENDSEC
  0
EOF
