  0
SECTION
  2
HEADER
  9
$ACADVER
  1
AC1009
  9
$EXTMIN
 10
0.0
 20
0.0
 30
0.0
  9
$EXTMAX
 10
1000.0
 20
1000.0
 30
0.0
  9
$FILLMODE
 70
 0
  9
$SPLFRAME
 70
 1
  0
ENDSEC
  0
SECTION
  2
TABLES
  0
TABLE
  2
LAYER
 70
1
  0
LAYER
  2
0
 70
     0
 62
     7
  6
CONTINUOUS
  0
ENDTAB
  0
ENDSEC
  0
SECTION
  2
ENTITIES
  0
LINE
  8
0
 62
     0
 10
407.621
 20
141.155
 30
0.0
 11
408.012
 21
141.14
 31
0.0
  0
LINE
  8
0
 62
     0
 10
408.012
 20
141.14
 30
0.0
 11
408.404
 21
141.095
 31
0.0
  0
LINE
  8
0
 62
     0
 10
408.404
 20
141.095
 30
0.0
 11
408.788
 21
141.017
 31
0.0
  0
LINE
  8
0
 62
     0
 10
408.788
 20
141.017
 30
0.0
 11
409.166
 21
140.911
 31
0.0
  0
LINE
  8
0
 62
     0
 10
409.166
 20
140.911
 30
0.0
 11
409.533
 21
140.775
 31
0.0
  0
LINE
  8
0
 62
     0
 10
409.533
 20
140.775
 30
0.0
 11
409.889
 21
140.611
 31
0.0
  0
LINE
  8
0
 62
     0
 10
409.889
 20
140.611
 30
0.0
 11
410.231
 21
140.419
 31
0.0
  0
LINE
  8
0
 62
     0
 10
410.231
 20
140.419
 30
0.0
 11
410.559
 21
140.202
 31
0.0
  0
LINE
  8
0
 62
     0
 10
410.559
 20
140.202
 30
0.0
 11
410.866
 21
139.959
 31
0.0
  0
LINE
  8
0
 62
     0
 10
410.866
 20
139.959
 30
0.0
 11
411.155
 21
139.692
 31
0.0
  0
LINE
  8
0
 62
     0
 10
411.155
 20
139.692
 30
0.0
 11
411.424
 21
139.404
 31
0.0
  0
LINE
  8
0
 62
     0
 10
411.424
 20
139.404
 30
0.0
 11
411.667
 21
139.095
 31
0.0
  0
LINE
  8
0
 62
     0
 10
411.667
 20
139.095
 30
0.0
 11
411.882
 21
138.768
 31
0.0
  0
LINE
  8
0
 62
     0
 10
411.882
 20
138.768
 30
0.0
 11
412.076
 21
138.425
 31
0.0
  0
LINE
  8
0
 62
     0
 10
412.076
 20
138.425
 30
0.0
 11
412.238
 21
138.07
 31
0.0
  0
LINE
  8
0
 62
     0
 10
412.238
 20
138.07
 30
0.0
 11
412.376
 21
137.702
 31
0.0
  0
LINE
  8
0
 62
     0
 10
412.376
 20
137.702
 30
0.0
 11
412.482
 21
137.323
 31
0.0
  0
LINE
  8
0
 62
     0
 10
412.482
 20
137.323
 30
0.0
 11
412.559
 21
136.938
 31
0.0
  0
LINE
  8
0
 62
     0
 10
412.559
 20
136.938
 30
0.0
 11
412.605
 21
136.548
 31
0.0
  0
LINE
  8
0
 62
     0
 10
412.605
 20
136.548
 30
0.0
 11
412.619
 21
136.156
 31
0.0
  0
LINE
  8
0
 62
     0
 10
412.619
 20
136.156
 30
0.0
 11
412.619
 21
5.09323
 31
0.0
  0
LINE
  8
0
 62
     0
 10
412.619
 20
5.09323
 30
0.0
 11
412.605
 21
4.70048
 31
0.0
  0
LINE
  8
0
 62
     0
 10
412.605
 20
4.70048
 30
0.0
 11
412.559
 21
4.31052
 31
0.0
  0
LINE
  8
0
 62
     0
 10
412.559
 20
4.31052
 30
0.0
 11
412.482
 21
3.92603
 31
0.0
  0
LINE
  8
0
 62
     0
 10
412.482
 20
3.92603
 30
0.0
 11
412.376
 21
3.54707
 31
0.0
  0
LINE
  8
0
 62
     0
 10
412.376
 20
3.54707
 30
0.0
 11
412.238
 21
3.17913
 31
0.0
  0
LINE
  8
0
 62
     0
 10
412.238
 20
3.17913
 30
0.0
 11
412.076
 21
2.82222
 31
0.0
  0
LINE
  8
0
 62
     0
 10
412.076
 20
2.82222
 30
0.0
 11
411.882
 21
2.48047
 31
0.0
  0
LINE
  8
0
 62
     0
 10
411.882
 20
2.48047
 30
0.0
 11
411.667
 21
2.15387
 31
0.0
  0
LINE
  8
0
 62
     0
 10
411.667
 20
2.15387
 30
0.0
 11
411.424
 21
1.84519
 31
0.0
  0
LINE
  8
0
 62
     0
 10
411.424
 20
1.84519
 30
0.0
 11
411.155
 21
1.55718
 31
0.0
  0
LINE
  8
0
 62
     0
 10
411.155
 20
1.55718
 30
0.0
 11
410.866
 21
1.29122
 31
0.0
  0
LINE
  8
0
 62
     0
 10
410.866
 20
1.29122
 30
0.0
 11
410.559
 21
1.04731
 31
0.0
  0
LINE
  8
0
 62
     0
 10
410.559
 20
1.04731
 30
0.0
 11
410.231
 21
0.829578
 31
0.0
  0
LINE
  8
0
 62
     0
 10
410.231
 20
0.829578
 30
0.0
 11
409.889
 21
0.63803
 31
0.0
  0
LINE
  8
0
 62
     0
 10
409.889
 20
0.63803
 30
0.0
 11
409.533
 21
0.474045
 31
0.0
  0
LINE
  8
0
 62
     0
 10
409.533
 20
0.474045
 30
0.0
 11
409.166
 21
0.337619
 31
0.0
  0
LINE
  8
0
 62
     0
 10
409.166
 20
0.337619
 30
0.0
 11
408.788
 21
0.230132
 31
0.0
  0
LINE
  8
0
 62
     0
 10
408.788
 20
0.230132
 30
0.0
 11
408.404
 21
0.15434
 31
0.0
  0
LINE
  8
0
 62
     0
 10
408.404
 20
0.15434
 30
0.0
 11
408.012
 21
0.107487
 31
0.0
  0
LINE
  8
0
 62
     0
 10
408.012
 20
0.107487
 30
0.0
 11
407.621
 21
0.0923286
 31
0.0
  0
LINE
  8
0
 62
     0
 10
407.621
 20
0.0923286
 30
0.0
 11
5.0946
 21
0.0923286
 31
0.0
  0
LINE
  8
0
 62
     0
 10
5.0946
 20
0.0923286
 30
0.0
 11
4.70186
 21
0.107487
 31
0.0
  0
LINE
  8
0
 62
     0
 10
4.70186
 20
0.107487
 30
0.0
 11
4.3119
 21
0.15434
 31
0.0
  0
LINE
  8
0
 62
     0
 10
4.3119
 20
0.15434
 30
0.0
 11
3.9274
 21
0.230132
 31
0.0
  0
LINE
  8
0
 62
     0
 10
3.9274
 20
0.230132
 30
0.0
 11
3.54845
 21
0.337619
 31
0.0
  0
LINE
  8
0
 62
     0
 10
3.54845
 20
0.337619
 30
0.0
 11
3.18051
 21
0.474045
 31
0.0
  0
LINE
  8
0
 62
     0
 10
3.18051
 20
0.474045
 30
0.0
 11
2.82498
 21
0.63803
 31
0.0
  0
LINE
  8
0
 62
     0
 10
2.82498
 20
0.63803
 30
0.0
 11
2.48185
 21
0.829578
 31
0.0
  0
LINE
  8
0
 62
     0
 10
2.48185
 20
0.829578
 30
0.0
 11
2.15525
 21
1.04731
 31
0.0
  0
LINE
  8
0
 62
     0
 10
2.15525
 20
1.04731
 30
0.0
 11
1.84657
 21
1.29122
 31
0.0
  0
LINE
  8
0
 62
     0
 10
1.84657
 20
1.29122
 30
0.0
 11
1.55856
 21
1.55718
 31
0.0
  0
LINE
  8
0
 62
     0
 10
1.55856
 20
1.55718
 30
0.0
 11
1.29122
 21
1.84519
 31
0.0
  0
LINE
  8
0
 62
     0
 10
1.29122
 20
1.84519
 30
0.0
 11
1.04869
 21
2.15387
 31
0.0
  0
LINE
  8
0
 62
     0
 10
1.04869
 20
2.15387
 30
0.0
 11
0.830957
 21
2.48047
 31
0.0
  0
LINE
  8
0
 62
     0
 10
0.830957
 20
2.48047
 30
0.0
 11
0.63941
 21
2.82222
 31
0.0
  0
LINE
  8
0
 62
     0
 10
0.63941
 20
2.82222
 30
0.0
 11
0.475424
 21
3.17913
 31
0.0
  0
LINE
  8
0
 62
     0
 10
0.475424
 20
3.17913
 30
0.0
 11
0.338998
 21
3.54707
 31
0.0
  0
LINE
  8
0
 62
     0
 10
0.338998
 20
3.54707
 30
0.0
 11
0.232888
 21
3.92603
 31
0.0
  0
LINE
  8
0
 62
     0
 10
0.232888
 20
3.92603
 30
0.0
 11
0.155718
 21
4.31052
 31
0.0
  0
LINE
  8
0
 62
     0
 10
0.155718
 20
4.31052
 30
0.0
 11
0.110243
 21
4.70048
 31
0.0
  0
LINE
  8
0
 62
     0
 10
0.110243
 20
4.70048
 30
0.0
 11
0.0937066
 21
5.09323
 31
0.0
  0
LINE
  8
0
 62
     0
 10
0.0937066
 20
5.09323
 30
0.0
 11
0.0950846
 21
136.156
 31
0.0
  0
LINE
  8
0
 62
     0
 10
0.0950846
 20
136.156
 30
0.0
 11
0.110243
 21
136.548
 31
0.0
  0
LINE
  8
0
 62
     0
 10
0.110243
 20
136.548
 30
0.0
 11
0.155718
 21
136.938
 31
0.0
  0
LINE
  8
0
 62
     0
 10
0.155718
 20
136.938
 30
0.0
 11
0.232888
 21
137.323
 31
0.0
  0
LINE
  8
0
 62
     0
 10
0.232888
 20
137.323
 30
0.0
 11
0.338998
 21
137.702
 31
0.0
  0
LINE
  8
0
 62
     0
 10
0.338998
 20
137.702
 30
0.0
 11
0.475424
 21
138.07
 31
0.0
  0
LINE
  8
0
 62
     0
 10
0.475424
 20
138.07
 30
0.0
 11
0.63941
 21
138.425
 31
0.0
  0
LINE
  8
0
 62
     0
 10
0.63941
 20
138.425
 30
0.0
 11
0.830957
 21
138.768
 31
0.0
  0
LINE
  8
0
 62
     0
 10
0.830957
 20
138.768
 30
0.0
 11
1.04869
 21
139.095
 31
0.0
  0
LINE
  8
0
 62
     0
 10
1.04869
 20
139.095
 30
0.0
 11
1.29122
 21
139.404
 31
0.0
  0
LINE
  8
0
 62
     0
 10
1.29122
 20
139.404
 30
0.0
 11
1.55856
 21
139.692
 31
0.0
  0
LINE
  8
0
 62
     0
 10
1.55856
 20
139.692
 30
0.0
 11
1.84657
 21
139.959
 31
0.0
  0
LINE
  8
0
 62
     0
 10
1.84657
 20
139.959
 30
0.0
 11
2.15525
 21
140.202
 31
0.0
  0
LINE
  8
0
 62
     0
 10
2.15525
 20
140.202
 30
0.0
 11
2.48185
 21
140.419
 31
0.0
  0
LINE
  8
0
 62
     0
 10
2.48185
 20
140.419
 30
0.0
 11
2.82498
 21
140.611
 31
0.0
  0
LINE
  8
0
 62
     0
 10
2.82498
 20
140.611
 30
0.0
 11
3.18051
 21
140.775
 31
0.0
  0
LINE
  8
0
 62
     0
 10
3.18051
 20
140.775
 30
0.0
 11
3.54845
 21
140.911
 31
0.0
  0
LINE
  8
0
 62
     0
 10
3.54845
 20
140.911
 30
0.0
 11
3.9274
 21
141.017
 31
0.0
  0
LINE
  8
0
 62
     0
 10
3.9274
 20
141.017
 30
0.0
 11
4.3119
 21
141.095
 31
0.0
  0
LINE
  8
0
 62
     0
 10
4.3119
 20
141.095
 30
0.0
 11
4.70186
 21
141.14
 31
0.0
  0
LINE
  8
0
 62
     0
 10
4.70186
 20
141.14
 30
0.0
 11
5.0946
 21
141.157
 31
0.0
  0
LINE
  8
0
 62
     0
 10
5.0946
 20
141.157
 30
0.0
 11
407.621
 21
141.155
 31
0.0
  0
LINE
  8
0
 62
     0
 10
407.081
 20
6.75651
 30
0.0
 11
406.591
 21
6.50847
 31
0.0
  0
LINE
  8
0
 62
     0
 10
406.591
 20
6.50847
 30
0.0
 11
406.206
 21
6.12126
 31
0.0
  0
LINE
  8
0
 62
     0
 10
406.206
 20
6.12126
 30
0.0
 11
405.955
 21
5.63344
 31
0.0
  0
LINE
  8
0
 62
     0
 10
405.955
 20
5.63344
 30
0.0
 11
405.871
 21
5.09323
 31
0.0
  0
LINE
  8
0
 62
     0
 10
405.871
 20
5.09323
 30
0.0
 11
405.955
 21
4.55164
 31
0.0
  0
LINE
  8
0
 62
     0
 10
405.955
 20
4.55164
 30
0.0
 11
406.206
 21
4.06382
 31
0.0
  0
LINE
  8
0
 62
     0
 10
406.206
 20
4.06382
 30
0.0
 11
406.591
 21
3.67661
 31
0.0
  0
LINE
  8
0
 62
     0
 10
406.591
 20
3.67661
 30
0.0
 11
407.081
 21
3.42856
 31
0.0
  0
LINE
  8
0
 62
     0
 10
407.081
 20
3.42856
 30
0.0
 11
407.621
 21
3.34312
 31
0.0
  0
LINE
  8
0
 62
     0
 10
407.621
 20
3.34312
 30
0.0
 11
408.16
 21
3.42856
 31
0.0
  0
LINE
  8
0
 62
     0
 10
408.16
 20
3.42856
 30
0.0
 11
408.651
 21
3.67661
 31
0.0
  0
LINE
  8
0
 62
     0
 10
408.651
 20
3.67661
 30
0.0
 11
409.035
 21
4.06382
 31
0.0
  0
LINE
  8
0
 62
     0
 10
409.035
 20
4.06382
 30
0.0
 11
409.286
 21
4.55164
 31
0.0
  0
LINE
  8
0
 62
     0
 10
409.286
 20
4.55164
 30
0.0
 11
409.37
 21
5.09323
 31
0.0
  0
LINE
  8
0
 62
     0
 10
409.37
 20
5.09323
 30
0.0
 11
409.286
 21
5.63344
 31
0.0
  0
LINE
  8
0
 62
     0
 10
409.286
 20
5.63344
 30
0.0
 11
409.035
 21
6.12126
 31
0.0
  0
LINE
  8
0
 62
     0
 10
409.035
 20
6.12126
 30
0.0
 11
408.651
 21
6.50847
 31
0.0
  0
LINE
  8
0
 62
     0
 10
408.651
 20
6.50847
 30
0.0
 11
408.16
 21
6.75651
 31
0.0
  0
LINE
  8
0
 62
     0
 10
408.16
 20
6.75651
 30
0.0
 11
407.621
 21
6.84195
 31
0.0
  0
LINE
  8
0
 62
     0
 10
407.621
 20
6.84195
 30
0.0
 11
407.081
 21
6.75651
 31
0.0
  0
LINE
  8
0
 62
     0
 10
306.448
 20
6.75651
 30
0.0
 11
305.96
 21
6.50847
 31
0.0
  0
LINE
  8
0
 62
     0
 10
305.96
 20
6.50847
 30
0.0
 11
305.573
 21
6.12126
 31
0.0
  0
LINE
  8
0
 62
     0
 10
305.573
 20
6.12126
 30
0.0
 11
305.325
 21
5.63344
 31
0.0
  0
LINE
  8
0
 62
     0
 10
305.325
 20
5.63344
 30
0.0
 11
305.238
 21
5.09323
 31
0.0
  0
LINE
  8
0
 62
     0
 10
305.238
 20
5.09323
 30
0.0
 11
305.325
 21
4.55164
 31
0.0
  0
LINE
  8
0
 62
     0
 10
305.325
 20
4.55164
 30
0.0
 11
305.573
 21
4.06382
 31
0.0
  0
LINE
  8
0
 62
     0
 10
305.573
 20
4.06382
 30
0.0
 11
305.96
 21
3.67661
 31
0.0
  0
LINE
  8
0
 62
     0
 10
305.96
 20
3.67661
 30
0.0
 11
306.448
 21
3.42856
 31
0.0
  0
LINE
  8
0
 62
     0
 10
306.448
 20
3.42856
 30
0.0
 11
306.988
 21
3.34312
 31
0.0
  0
LINE
  8
0
 62
     0
 10
306.988
 20
3.34312
 30
0.0
 11
307.53
 21
3.42856
 31
0.0
  0
LINE
  8
0
 62
     0
 10
307.53
 20
3.42856
 30
0.0
 11
308.018
 21
3.67661
 31
0.0
  0
LINE
  8
0
 62
     0
 10
308.018
 20
3.67661
 30
0.0
 11
308.405
 21
4.06382
 31
0.0
  0
LINE
  8
0
 62
     0
 10
308.405
 20
4.06382
 30
0.0
 11
308.653
 21
4.55164
 31
0.0
  0
LINE
  8
0
 62
     0
 10
308.653
 20
4.55164
 30
0.0
 11
308.738
 21
5.09323
 31
0.0
  0
LINE
  8
0
 62
     0
 10
308.738
 20
5.09323
 30
0.0
 11
308.653
 21
5.63344
 31
0.0
  0
LINE
  8
0
 62
     0
 10
308.653
 20
5.63344
 30
0.0
 11
308.405
 21
6.12126
 31
0.0
  0
LINE
  8
0
 62
     0
 10
308.405
 20
6.12126
 30
0.0
 11
308.018
 21
6.50847
 31
0.0
  0
LINE
  8
0
 62
     0
 10
308.018
 20
6.50847
 30
0.0
 11
307.53
 21
6.75651
 31
0.0
  0
LINE
  8
0
 62
     0
 10
307.53
 20
6.75651
 30
0.0
 11
306.988
 21
6.84195
 31
0.0
  0
LINE
  8
0
 62
     0
 10
306.988
 20
6.84195
 30
0.0
 11
306.448
 21
6.75651
 31
0.0
  0
LINE
  8
0
 62
     0
 10
205.817
 20
6.75651
 30
0.0
 11
205.329
 21
6.50847
 31
0.0
  0
LINE
  8
0
 62
     0
 10
205.329
 20
6.50847
 30
0.0
 11
204.942
 21
6.12126
 31
0.0
  0
LINE
  8
0
 62
     0
 10
204.942
 20
6.12126
 30
0.0
 11
204.692
 21
5.63344
 31
0.0
  0
LINE
  8
0
 62
     0
 10
204.692
 20
5.63344
 30
0.0
 11
204.608
 21
5.09323
 31
0.0
  0
LINE
  8
0
 62
     0
 10
204.608
 20
5.09323
 30
0.0
 11
204.692
 21
4.55164
 31
0.0
  0
LINE
  8
0
 62
     0
 10
204.692
 20
4.55164
 30
0.0
 11
204.942
 21
4.06382
 31
0.0
  0
LINE
  8
0
 62
     0
 10
204.942
 20
4.06382
 30
0.0
 11
205.329
 21
3.67661
 31
0.0
  0
LINE
  8
0
 62
     0
 10
205.329
 20
3.67661
 30
0.0
 11
205.817
 21
3.42856
 31
0.0
  0
LINE
  8
0
 62
     0
 10
205.817
 20
3.42856
 30
0.0
 11
206.357
 21
3.34312
 31
0.0
  0
LINE
  8
0
 62
     0
 10
206.357
 20
3.34312
 30
0.0
 11
206.897
 21
3.42856
 31
0.0
  0
LINE
  8
0
 62
     0
 10
206.897
 20
3.42856
 30
0.0
 11
207.385
 21
3.67661
 31
0.0
  0
LINE
  8
0
 62
     0
 10
207.385
 20
3.67661
 30
0.0
 11
207.772
 21
4.06382
 31
0.0
  0
LINE
  8
0
 62
     0
 10
207.772
 20
4.06382
 30
0.0
 11
208.022
 21
4.55164
 31
0.0
  0
LINE
  8
0
 62
     0
 10
208.022
 20
4.55164
 30
0.0
 11
208.107
 21
5.09323
 31
0.0
  0
LINE
  8
0
 62
     0
 10
208.107
 20
5.09323
 30
0.0
 11
208.022
 21
5.63344
 31
0.0
  0
LINE
  8
0
 62
     0
 10
208.022
 20
5.63344
 30
0.0
 11
207.772
 21
6.12126
 31
0.0
  0
LINE
  8
0
 62
     0
 10
207.772
 20
6.12126
 30
0.0
 11
207.385
 21
6.50847
 31
0.0
  0
LINE
  8
0
 62
     0
 10
207.385
 20
6.50847
 30
0.0
 11
206.897
 21
6.75651
 31
0.0
  0
LINE
  8
0
 62
     0
 10
206.897
 20
6.75651
 30
0.0
 11
206.357
 21
6.84195
 31
0.0
  0
LINE
  8
0
 62
     0
 10
206.357
 20
6.84195
 30
0.0
 11
205.817
 21
6.75651
 31
0.0
  0
LINE
  8
0
 62
     0
 10
105.184
 20
6.75651
 30
0.0
 11
104.696
 21
6.50847
 31
0.0
  0
LINE
  8
0
 62
     0
 10
104.696
 20
6.50847
 30
0.0
 11
104.309
 21
6.12126
 31
0.0
  0
LINE
  8
0
 62
     0
 10
104.309
 20
6.12126
 30
0.0
 11
104.061
 21
5.63344
 31
0.0
  0
LINE
  8
0
 62
     0
 10
104.061
 20
5.63344
 30
0.0
 11
103.976
 21
5.09323
 31
0.0
  0
LINE
  8
0
 62
     0
 10
103.976
 20
5.09323
 30
0.0
 11
104.061
 21
4.55164
 31
0.0
  0
LINE
  8
0
 62
     0
 10
104.061
 20
4.55164
 30
0.0
 11
104.309
 21
4.06382
 31
0.0
  0
LINE
  8
0
 62
     0
 10
104.309
 20
4.06382
 30
0.0
 11
104.696
 21
3.67661
 31
0.0
  0
LINE
  8
0
 62
     0
 10
104.696
 20
3.67661
 30
0.0
 11
105.184
 21
3.42856
 31
0.0
  0
LINE
  8
0
 62
     0
 10
105.184
 20
3.42856
 30
0.0
 11
105.726
 21
3.34312
 31
0.0
  0
LINE
  8
0
 62
     0
 10
105.726
 20
3.34312
 30
0.0
 11
106.267
 21
3.42856
 31
0.0
  0
LINE
  8
0
 62
     0
 10
106.267
 20
3.42856
 30
0.0
 11
106.755
 21
3.67661
 31
0.0
  0
LINE
  8
0
 62
     0
 10
106.755
 20
3.67661
 30
0.0
 11
107.141
 21
4.06382
 31
0.0
  0
LINE
  8
0
 62
     0
 10
107.141
 20
4.06382
 30
0.0
 11
107.389
 21
4.55164
 31
0.0
  0
LINE
  8
0
 62
     0
 10
107.389
 20
4.55164
 30
0.0
 11
107.476
 21
5.09323
 31
0.0
  0
LINE
  8
0
 62
     0
 10
107.476
 20
5.09323
 30
0.0
 11
107.389
 21
5.63344
 31
0.0
  0
LINE
  8
0
 62
     0
 10
107.389
 20
5.63344
 30
0.0
 11
107.141
 21
6.12126
 31
0.0
  0
LINE
  8
0
 62
     0
 10
107.141
 20
6.12126
 30
0.0
 11
106.755
 21
6.50847
 31
0.0
  0
LINE
  8
0
 62
     0
 10
106.755
 20
6.50847
 30
0.0
 11
106.267
 21
6.75651
 31
0.0
  0
LINE
  8
0
 62
     0
 10
106.267
 20
6.75651
 30
0.0
 11
105.726
 21
6.84195
 31
0.0
  0
LINE
  8
0
 62
     0
 10
105.726
 20
6.84195
 30
0.0
 11
105.184
 21
6.75651
 31
0.0
  0
LINE
  8
0
 62
     0
 10
4.55443
 20
6.75651
 30
0.0
 11
4.0652
 21
6.50847
 31
0.0
  0
LINE
  8
0
 62
     0
 10
4.0652
 20
6.50847
 30
0.0
 11
3.67937
 21
6.12126
 31
0.0
  0
LINE
  8
0
 62
     0
 10
3.67937
 20
6.12126
 30
0.0
 11
3.42994
 21
5.63344
 31
0.0
  0
LINE
  8
0
 62
     0
 10
3.42994
 20
5.63344
 30
0.0
 11
3.34312
 21
5.09323
 31
0.0
  0
LINE
  8
0
 62
     0
 10
3.34312
 20
5.09323
 30
0.0
 11
3.42994
 21
4.55164
 31
0.0
  0
LINE
  8
0
 62
     0
 10
3.42994
 20
4.55164
 30
0.0
 11
3.67937
 21
4.06382
 31
0.0
  0
LINE
  8
0
 62
     0
 10
3.67937
 20
4.06382
 30
0.0
 11
4.0652
 21
3.67661
 31
0.0
  0
LINE
  8
0
 62
     0
 10
4.0652
 20
3.67661
 30
0.0
 11
4.55443
 21
3.42856
 31
0.0
  0
LINE
  8
0
 62
     0
 10
4.55443
 20
3.42856
 30
0.0
 11
5.09323
 21
3.34312
 31
0.0
  0
LINE
  8
0
 62
     0
 10
5.09323
 20
3.34312
 30
0.0
 11
5.63481
 21
3.42856
 31
0.0
  0
LINE
  8
0
 62
     0
 10
5.63481
 20
3.42856
 30
0.0
 11
6.12263
 21
3.67661
 31
0.0
  0
LINE
  8
0
 62
     0
 10
6.12263
 20
3.67661
 30
0.0
 11
6.50984
 21
4.06382
 31
0.0
  0
LINE
  8
0
 62
     0
 10
6.50984
 20
4.06382
 30
0.0
 11
6.75929
 21
4.55164
 31
0.0
  0
LINE
  8
0
 62
     0
 10
6.75929
 20
4.55164
 30
0.0
 11
6.84332
 21
5.09323
 31
0.0
  0
LINE
  8
0
 62
     0
 10
6.84332
 20
5.09323
 30
0.0
 11
6.75929
 21
5.63344
 31
0.0
  0
LINE
  8
0
 62
     0
 10
6.75929
 20
5.63344
 30
0.0
 11
6.50984
 21
6.12126
 31
0.0
  0
LINE
  8
0
 62
     0
 10
6.50984
 20
6.12126
 30
0.0
 11
6.12263
 21
6.50847
 31
0.0
  0
LINE
  8
0
 62
     0
 10
6.12263
 20
6.50847
 30
0.0
 11
5.63481
 21
6.75651
 31
0.0
  0
LINE
  8
0
 62
     0
 10
5.63481
 20
6.75651
 30
0.0
 11
5.09323
 21
6.84195
 31
0.0
  0
LINE
  8
0
 62
     0
 10
5.09323
 20
6.84195
 30
0.0
 11
4.55443
 21
6.75651
 31
0.0
  0
LINE
  8
0
 62
     0
 10
196.975
 20
27.6187
 30
0.0
 11
196.975
 21
22.9181
 31
0.0
  0
LINE
  8
0
 62
     0
 10
196.975
 20
22.9181
 30
0.0
 11
157.351
 21
22.9181
 31
0.0
  0
LINE
  8
0
 62
     0
 10
157.351
 20
22.9181
 30
0.0
 11
157.351
 21
26.1483
 31
0.0
  0
LINE
  8
0
 62
     0
 10
157.351
 20
26.1483
 30
0.0
 11
150.6
 21
26.1483
 31
0.0
  0
LINE
  8
0
 62
     0
 10
150.6
 20
26.1483
 30
0.0
 11
150.6
 21
22.9181
 31
0.0
  0
LINE
  8
0
 62
     0
 10
150.6
 20
22.9181
 30
0.0
 11
149.776
 21
22.9181
 31
0.0
  0
LINE
  8
0
 62
     0
 10
149.776
 20
22.9181
 30
0.0
 11
149.776
 21
20.118
 31
0.0
  0
LINE
  8
0
 62
     0
 10
149.776
 20
20.118
 30
0.0
 11
150.6
 21
20.118
 31
0.0
  0
LINE
  8
0
 62
     0
 10
150.6
 20
20.118
 30
0.0
 11
150.6
 21
13.8479
 31
0.0
  0
LINE
  8
0
 62
     0
 10
150.6
 20
13.8479
 30
0.0
 11
152.326
 21
13.8479
 31
0.0
  0
LINE
  8
0
 62
     0
 10
152.326
 20
13.8479
 30
0.0
 11
152.326
 21
12.649
 31
0.0
  0
LINE
  8
0
 62
     0
 10
152.326
 20
12.649
 30
0.0
 11
155.626
 21
12.649
 31
0.0
  0
LINE
  8
0
 62
     0
 10
155.626
 20
12.649
 30
0.0
 11
155.626
 21
13.8479
 31
0.0
  0
LINE
  8
0
 62
     0
 10
155.626
 20
13.8479
 30
0.0
 11
157.351
 21
13.8479
 31
0.0
  0
LINE
  8
0
 62
     0
 10
157.351
 20
13.8479
 30
0.0
 11
157.351
 21
18.3183
 31
0.0
  0
LINE
  8
0
 62
     0
 10
157.351
 20
18.3183
 30
0.0
 11
196.975
 21
18.3183
 31
0.0
  0
LINE
  8
0
 62
     0
 10
196.975
 20
18.3183
 30
0.0
 11
196.975
 21
13.6192
 31
0.0
  0
LINE
  8
0
 62
     0
 10
196.975
 20
13.6192
 30
0.0
 11
210.976
 21
13.6192
 31
0.0
  0
LINE
  8
0
 62
     0
 10
210.976
 20
13.6192
 30
0.0
 11
210.976
 21
18.3183
 31
0.0
  0
LINE
  8
0
 62
     0
 10
210.976
 20
18.3183
 30
0.0
 11
250.6
 21
18.3183
 31
0.0
  0
LINE
  8
0
 62
     0
 10
250.6
 20
18.3183
 30
0.0
 11
250.6
 21
13.8479
 31
0.0
  0
LINE
  8
0
 62
     0
 10
250.6
 20
13.8479
 30
0.0
 11
252.326
 21
13.8479
 31
0.0
  0
LINE
  8
0
 62
     0
 10
252.326
 20
13.8479
 30
0.0
 11
252.326
 21
12.649
 31
0.0
  0
LINE
  8
0
 62
     0
 10
252.326
 20
12.649
 30
0.0
 11
255.626
 21
12.649
 31
0.0
  0
LINE
  8
0
 62
     0
 10
255.626
 20
12.649
 30
0.0
 11
255.626
 21
13.8479
 31
0.0
  0
LINE
  8
0
 62
     0
 10
255.626
 20
13.8479
 30
0.0
 11
257.351
 21
13.8479
 31
0.0
  0
LINE
  8
0
 62
     0
 10
257.351
 20
13.8479
 30
0.0
 11
257.351
 21
20.118
 31
0.0
  0
LINE
  8
0
 62
     0
 10
257.351
 20
20.118
 30
0.0
 11
258.175
 21
20.118
 31
0.0
  0
LINE
  8
0
 62
     0
 10
258.175
 20
20.118
 30
0.0
 11
258.175
 21
22.9181
 31
0.0
  0
LINE
  8
0
 62
     0
 10
258.175
 20
22.9181
 30
0.0
 11
257.351
 21
22.9181
 31
0.0
  0
LINE
  8
0
 62
     0
 10
257.351
 20
22.9181
 30
0.0
 11
257.351
 21
26.1483
 31
0.0
  0
LINE
  8
0
 62
     0
 10
257.351
 20
26.1483
 30
0.0
 11
250.6
 21
26.1483
 31
0.0
  0
LINE
  8
0
 62
     0
 10
250.6
 20
26.1483
 30
0.0
 11
250.6
 21
22.9181
 31
0.0
  0
LINE
  8
0
 62
     0
 10
250.6
 20
22.9181
 30
0.0
 11
210.976
 21
22.9181
 31
0.0
  0
LINE
  8
0
 62
     0
 10
210.976
 20
22.9181
 30
0.0
 11
210.976
 21
27.6187
 31
0.0
  0
LINE
  8
0
 62
     0
 10
210.976
 20
27.6187
 30
0.0
 11
196.975
 21
27.6187
 31
0.0
  0
LINE
  8
0
 62
     0
 10
13.6192
 20
27.6187
 30
0.0
 11
27.62
 21
27.6187
 31
0.0
  0
LINE
  8
0
 62
     0
 10
27.62
 20
27.6187
 30
0.0
 11
27.62
 21
13.6192
 31
0.0
  0
LINE
  8
0
 62
     0
 10
27.62
 20
13.6192
 30
0.0
 11
13.6192
 21
13.6192
 31
0.0
  0
LINE
  8
0
 62
     0
 10
13.6192
 20
13.6192
 30
0.0
 11
13.6192
 21
27.6187
 31
0.0
  0
LINE
  8
0
 62
     0
 10
32.6692
 20
27.6187
 30
0.0
 11
46.67
 21
27.6187
 31
0.0
  0
LINE
  8
0
 62
     0
 10
46.67
 20
27.6187
 30
0.0
 11
46.67
 21
13.6192
 31
0.0
  0
LINE
  8
0
 62
     0
 10
46.67
 20
13.6192
 30
0.0
 11
32.6692
 21
13.6192
 31
0.0
  0
LINE
  8
0
 62
     0
 10
32.6692
 20
13.6192
 30
0.0
 11
32.6692
 21
27.6187
 31
0.0
  0
LINE
  8
0
 62
     0
 10
51.719
 20
27.6187
 30
0.0
 11
65.72
 21
27.6187
 31
0.0
  0
LINE
  8
0
 62
     0
 10
65.72
 20
27.6187
 30
0.0
 11
65.72
 21
13.6192
 31
0.0
  0
LINE
  8
0
 62
     0
 10
65.72
 20
13.6192
 30
0.0
 11
51.719
 21
13.6192
 31
0.0
  0
LINE
  8
0
 62
     0
 10
51.719
 20
13.6192
 30
0.0
 11
51.719
 21
27.6187
 31
0.0
  0
LINE
  8
0
 62
     0
 10
77.9127
 20
27.6187
 30
0.0
 11
91.9124
 21
27.6187
 31
0.0
  0
LINE
  8
0
 62
     0
 10
91.9124
 20
27.6187
 30
0.0
 11
91.9124
 21
13.6192
 31
0.0
  0
LINE
  8
0
 62
     0
 10
91.9124
 20
13.6192
 30
0.0
 11
77.9127
 21
13.6192
 31
0.0
  0
LINE
  8
0
 62
     0
 10
77.9127
 20
13.6192
 30
0.0
 11
77.9127
 21
27.6187
 31
0.0
  0
LINE
  8
0
 62
     0
 10
101.725
 20
27.6187
 30
0.0
 11
115.726
 21
27.6187
 31
0.0
  0
LINE
  8
0
 62
     0
 10
115.726
 20
27.6187
 30
0.0
 11
115.726
 21
13.6192
 31
0.0
  0
LINE
  8
0
 62
     0
 10
115.726
 20
13.6192
 30
0.0
 11
101.725
 21
13.6192
 31
0.0
  0
LINE
  8
0
 62
     0
 10
101.725
 20
13.6192
 30
0.0
 11
101.725
 21
27.6187
 31
0.0
  0
LINE
  8
0
 62
     0
 10
125.538
 20
27.6187
 30
0.0
 11
139.537
 21
27.6187
 31
0.0
  0
LINE
  8
0
 62
     0
 10
139.537
 20
27.6187
 30
0.0
 11
139.537
 21
13.6192
 31
0.0
  0
LINE
  8
0
 62
     0
 10
139.537
 20
13.6192
 30
0.0
 11
125.538
 21
13.6192
 31
0.0
  0
LINE
  8
0
 62
     0
 10
125.538
 20
13.6192
 30
0.0
 11
125.538
 21
27.6187
 31
0.0
  0
LINE
  8
0
 62
     0
 10
268.413
 20
27.6187
 30
0.0
 11
282.412
 21
27.6187
 31
0.0
  0
LINE
  8
0
 62
     0
 10
282.412
 20
27.6187
 30
0.0
 11
282.412
 21
13.6192
 31
0.0
  0
LINE
  8
0
 62
     0
 10
282.412
 20
13.6192
 30
0.0
 11
268.413
 21
13.6192
 31
0.0
  0
LINE
  8
0
 62
     0
 10
268.413
 20
13.6192
 30
0.0
 11
268.413
 21
27.6187
 31
0.0
  0
LINE
  8
0
 62
     0
 10
292.225
 20
27.6187
 30
0.0
 11
306.226
 21
27.6187
 31
0.0
  0
LINE
  8
0
 62
     0
 10
306.226
 20
27.6187
 30
0.0
 11
306.226
 21
13.6192
 31
0.0
  0
LINE
  8
0
 62
     0
 10
306.226
 20
13.6192
 30
0.0
 11
292.225
 21
13.6192
 31
0.0
  0
LINE
  8
0
 62
     0
 10
292.225
 20
13.6192
 30
0.0
 11
292.225
 21
27.6187
 31
0.0
  0
LINE
  8
0
 62
     0
 10
316.038
 20
27.6187
 30
0.0
 11
330.037
 21
27.6187
 31
0.0
  0
LINE
  8
0
 62
     0
 10
330.037
 20
27.6187
 30
0.0
 11
330.037
 21
13.6192
 31
0.0
  0
LINE
  8
0
 62
     0
 10
330.037
 20
13.6192
 30
0.0
 11
316.038
 21
13.6192
 31
0.0
  0
LINE
  8
0
 62
     0
 10
316.038
 20
13.6192
 30
0.0
 11
316.038
 21
27.6187
 31
0.0
  0
LINE
  8
0
 62
     0
 10
346.994
 20
27.6187
 30
0.0
 11
360.994
 21
27.6187
 31
0.0
  0
LINE
  8
0
 62
     0
 10
360.994
 20
27.6187
 30
0.0
 11
360.994
 21
13.6192
 31
0.0
  0
LINE
  8
0
 62
     0
 10
360.994
 20
13.6192
 30
0.0
 11
346.994
 21
13.6192
 31
0.0
  0
LINE
  8
0
 62
     0
 10
346.994
 20
13.6192
 30
0.0
 11
346.994
 21
27.6187
 31
0.0
  0
LINE
  8
0
 62
     0
 10
366.046
 20
27.6187
 30
0.0
 11
380.044
 21
27.6187
 31
0.0
  0
LINE
  8
0
 62
     0
 10
380.044
 20
27.6187
 30
0.0
 11
380.044
 21
13.6192
 31
0.0
  0
LINE
  8
0
 62
     0
 10
380.044
 20
13.6192
 30
0.0
 11
366.046
 21
13.6192
 31
0.0
  0
LINE
  8
0
 62
     0
 10
366.046
 20
13.6192
 30
0.0
 11
366.046
 21
27.6187
 31
0.0
  0
LINE
  8
0
 62
     0
 10
385.096
 20
27.6187
 30
0.0
 11
399.094
 21
27.6187
 31
0.0
  0
LINE
  8
0
 62
     0
 10
399.094
 20
27.6187
 30
0.0
 11
399.094
 21
13.6192
 31
0.0
  0
LINE
  8
0
 62
     0
 10
399.094
 20
13.6192
 30
0.0
 11
385.096
 21
13.6192
 31
0.0
  0
LINE
  8
0
 62
     0
 10
385.096
 20
13.6192
 30
0.0
 11
385.096
 21
27.6187
 31
0.0
  0
LINE
  8
0
 62
     0
 10
325.563
 20
46.6686
 30
0.0
 11
325.563
 21
41.9682
 31
0.0
  0
LINE
  8
0
 62
     0
 10
325.563
 20
41.9682
 30
0.0
 11
324.037
 21
41.9682
 31
0.0
  0
LINE
  8
0
 62
     0
 10
324.037
 20
41.9682
 30
0.0
 11
324.037
 21
45.1982
 31
0.0
  0
LINE
  8
0
 62
     0
 10
324.037
 20
45.1982
 30
0.0
 11
317.288
 21
45.1982
 31
0.0
  0
LINE
  8
0
 62
     0
 10
317.288
 20
45.1982
 30
0.0
 11
317.288
 21
41.9682
 31
0.0
  0
LINE
  8
0
 62
     0
 10
317.288
 20
41.9682
 30
0.0
 11
316.462
 21
41.9682
 31
0.0
  0
LINE
  8
0
 62
     0
 10
316.462
 20
41.9682
 30
0.0
 11
316.462
 21
39.1679
 31
0.0
  0
LINE
  8
0
 62
     0
 10
316.462
 20
39.1679
 30
0.0
 11
317.288
 21
39.1679
 31
0.0
  0
LINE
  8
0
 62
     0
 10
317.288
 20
39.1679
 30
0.0
 11
317.288
 21
32.8979
 31
0.0
  0
LINE
  8
0
 62
     0
 10
317.288
 20
32.8979
 30
0.0
 11
319.013
 21
32.8979
 31
0.0
  0
LINE
  8
0
 62
     0
 10
319.013
 20
32.8979
 30
0.0
 11
319.013
 21
31.699
 31
0.0
  0
LINE
  8
0
 62
     0
 10
319.013
 20
31.699
 30
0.0
 11
322.312
 21
31.699
 31
0.0
  0
LINE
  8
0
 62
     0
 10
322.312
 20
31.699
 30
0.0
 11
322.312
 21
32.8979
 31
0.0
  0
LINE
  8
0
 62
     0
 10
322.312
 20
32.8979
 30
0.0
 11
324.037
 21
32.8979
 31
0.0
  0
LINE
  8
0
 62
     0
 10
324.037
 20
32.8979
 30
0.0
 11
324.037
 21
37.3683
 31
0.0
  0
LINE
  8
0
 62
     0
 10
324.037
 20
37.3683
 30
0.0
 11
325.563
 21
37.3683
 31
0.0
  0
LINE
  8
0
 62
     0
 10
325.563
 20
37.3683
 30
0.0
 11
325.563
 21
32.6692
 31
0.0
  0
LINE
  8
0
 62
     0
 10
325.563
 20
32.6692
 30
0.0
 11
339.562
 21
32.6692
 31
0.0
  0
LINE
  8
0
 62
     0
 10
339.562
 20
32.6692
 30
0.0
 11
339.562
 21
37.3683
 31
0.0
  0
LINE
  8
0
 62
     0
 10
339.562
 20
37.3683
 30
0.0
 11
341.088
 21
37.3683
 31
0.0
  0
LINE
  8
0
 62
     0
 10
341.088
 20
37.3683
 30
0.0
 11
341.088
 21
32.8979
 31
0.0
  0
LINE
  8
0
 62
     0
 10
341.088
 20
32.8979
 30
0.0
 11
342.813
 21
32.8979
 31
0.0
  0
LINE
  8
0
 62
     0
 10
342.813
 20
32.8979
 30
0.0
 11
342.813
 21
31.699
 31
0.0
  0
LINE
  8
0
 62
     0
 10
342.813
 20
31.699
 30
0.0
 11
346.112
 21
31.699
 31
0.0
  0
LINE
  8
0
 62
     0
 10
346.112
 20
31.699
 30
0.0
 11
346.112
 21
32.8979
 31
0.0
  0
LINE
  8
0
 62
     0
 10
346.112
 20
32.8979
 30
0.0
 11
347.837
 21
32.8979
 31
0.0
  0
LINE
  8
0
 62
     0
 10
347.837
 20
32.8979
 30
0.0
 11
347.837
 21
39.1679
 31
0.0
  0
LINE
  8
0
 62
     0
 10
347.837
 20
39.1679
 30
0.0
 11
348.663
 21
39.1679
 31
0.0
  0
LINE
  8
0
 62
     0
 10
348.663
 20
39.1679
 30
0.0
 11
348.663
 21
41.9682
 31
0.0
  0
LINE
  8
0
 62
     0
 10
348.663
 20
41.9682
 30
0.0
 11
347.837
 21
41.9682
 31
0.0
  0
LINE
  8
0
 62
     0
 10
347.837
 20
41.9682
 30
0.0
 11
347.837
 21
45.1982
 31
0.0
  0
LINE
  8
0
 62
     0
 10
347.837
 20
45.1982
 30
0.0
 11
341.088
 21
45.1982
 31
0.0
  0
LINE
  8
0
 62
     0
 10
341.088
 20
45.1982
 30
0.0
 11
341.088
 21
41.9682
 31
0.0
  0
LINE
  8
0
 62
     0
 10
341.088
 20
41.9682
 30
0.0
 11
339.562
 21
41.9682
 31
0.0
  0
LINE
  8
0
 62
     0
 10
339.562
 20
41.9682
 30
0.0
 11
339.562
 21
46.6686
 31
0.0
  0
LINE
  8
0
 62
     0
 10
339.562
 20
46.6686
 30
0.0
 11
325.563
 21
46.6686
 31
0.0
  0
LINE
  8
0
 62
     0
 10
13.6192
 20
46.6686
 30
0.0
 11
27.62
 21
46.6686
 31
0.0
  0
LINE
  8
0
 62
     0
 10
27.62
 20
46.6686
 30
0.0
 11
27.62
 21
32.6692
 31
0.0
  0
LINE
  8
0
 62
     0
 10
27.62
 20
32.6692
 30
0.0
 11
13.6192
 21
32.6692
 31
0.0
  0
LINE
  8
0
 62
     0
 10
13.6192
 20
32.6692
 30
0.0
 11
13.6192
 21
46.6686
 31
0.0
  0
LINE
  8
0
 62
     0
 10
32.6692
 20
46.6686
 30
0.0
 11
46.67
 21
46.6686
 31
0.0
  0
LINE
  8
0
 62
     0
 10
46.67
 20
46.6686
 30
0.0
 11
46.67
 21
32.6692
 31
0.0
  0
LINE
  8
0
 62
     0
 10
46.67
 20
32.6692
 30
0.0
 11
32.6692
 21
32.6692
 31
0.0
  0
LINE
  8
0
 62
     0
 10
32.6692
 20
32.6692
 30
0.0
 11
32.6692
 21
46.6686
 31
0.0
  0
LINE
  8
0
 62
     0
 10
51.719
 20
46.6686
 30
0.0
 11
65.72
 21
46.6686
 31
0.0
  0
LINE
  8
0
 62
     0
 10
65.72
 20
46.6686
 30
0.0
 11
65.72
 21
32.6692
 31
0.0
  0
LINE
  8
0
 62
     0
 10
65.72
 20
32.6692
 30
0.0
 11
51.719
 21
32.6692
 31
0.0
  0
LINE
  8
0
 62
     0
 10
51.719
 20
32.6692
 30
0.0
 11
51.719
 21
46.6686
 31
0.0
  0
LINE
  8
0
 62
     0
 10
77.9127
 20
46.6686
 30
0.0
 11
91.9124
 21
46.6686
 31
0.0
  0
LINE
  8
0
 62
     0
 10
91.9124
 20
46.6686
 30
0.0
 11
91.9124
 21
32.6692
 31
0.0
  0
LINE
  8
0
 62
     0
 10
91.9124
 20
32.6692
 30
0.0
 11
77.9127
 21
32.6692
 31
0.0
  0
LINE
  8
0
 62
     0
 10
77.9127
 20
32.6692
 30
0.0
 11
77.9127
 21
46.6686
 31
0.0
  0
LINE
  8
0
 62
     0
 10
99.344
 20
46.6686
 30
0.0
 11
113.345
 21
46.6686
 31
0.0
  0
LINE
  8
0
 62
     0
 10
113.345
 20
46.6686
 30
0.0
 11
113.345
 21
32.6692
 31
0.0
  0
LINE
  8
0
 62
     0
 10
113.345
 20
32.6692
 30
0.0
 11
99.344
 21
32.6692
 31
0.0
  0
LINE
  8
0
 62
     0
 10
99.344
 20
32.6692
 30
0.0
 11
99.344
 21
46.6686
 31
0.0
  0
LINE
  8
0
 62
     0
 10
118.394
 20
46.6686
 30
0.0
 11
132.395
 21
46.6686
 31
0.0
  0
LINE
  8
0
 62
     0
 10
132.395
 20
46.6686
 30
0.0
 11
132.395
 21
32.6692
 31
0.0
  0
LINE
  8
0
 62
     0
 10
132.395
 20
32.6692
 30
0.0
 11
118.394
 21
32.6692
 31
0.0
  0
LINE
  8
0
 62
     0
 10
118.394
 20
32.6692
 30
0.0
 11
118.394
 21
46.6686
 31
0.0
  0
LINE
  8
0
 62
     0
 10
137.444
 20
46.6686
 30
0.0
 11
151.445
 21
46.6686
 31
0.0
  0
LINE
  8
0
 62
     0
 10
151.445
 20
46.6686
 30
0.0
 11
151.445
 21
32.6692
 31
0.0
  0
LINE
  8
0
 62
     0
 10
151.445
 20
32.6692
 30
0.0
 11
137.444
 21
32.6692
 31
0.0
  0
LINE
  8
0
 62
     0
 10
137.444
 20
32.6692
 30
0.0
 11
137.444
 21
46.6686
 31
0.0
  0
LINE
  8
0
 62
     0
 10
156.494
 20
46.6686
 30
0.0
 11
170.495
 21
46.6686
 31
0.0
  0
LINE
  8
0
 62
     0
 10
170.495
 20
46.6686
 30
0.0
 11
170.495
 21
32.6692
 31
0.0
  0
LINE
  8
0
 62
     0
 10
170.495
 20
32.6692
 30
0.0
 11
156.494
 21
32.6692
 31
0.0
  0
LINE
  8
0
 62
     0
 10
156.494
 20
32.6692
 30
0.0
 11
156.494
 21
46.6686
 31
0.0
  0
LINE
  8
0
 62
     0
 10
175.544
 20
46.6686
 30
0.0
 11
189.545
 21
46.6686
 31
0.0
  0
LINE
  8
0
 62
     0
 10
189.545
 20
46.6686
 30
0.0
 11
189.545
 21
32.6692
 31
0.0
  0
LINE
  8
0
 62
     0
 10
189.545
 20
32.6692
 30
0.0
 11
175.544
 21
32.6692
 31
0.0
  0
LINE
  8
0
 62
     0
 10
175.544
 20
32.6692
 30
0.0
 11
175.544
 21
46.6686
 31
0.0
  0
LINE
  8
0
 62
     0
 10
194.594
 20
46.6686
 30
0.0
 11
208.595
 21
46.6686
 31
0.0
  0
LINE
  8
0
 62
     0
 10
208.595
 20
46.6686
 30
0.0
 11
208.595
 21
32.6692
 31
0.0
  0
LINE
  8
0
 62
     0
 10
208.595
 20
32.6692
 30
0.0
 11
194.594
 21
32.6692
 31
0.0
  0
LINE
  8
0
 62
     0
 10
194.594
 20
32.6692
 30
0.0
 11
194.594
 21
46.6686
 31
0.0
  0
LINE
  8
0
 62
     0
 10
213.644
 20
46.6686
 30
0.0
 11
227.645
 21
46.6686
 31
0.0
  0
LINE
  8
0
 62
     0
 10
227.645
 20
46.6686
 30
0.0
 11
227.645
 21
32.6692
 31
0.0
  0
LINE
  8
0
 62
     0
 10
227.645
 20
32.6692
 30
0.0
 11
213.644
 21
32.6692
 31
0.0
  0
LINE
  8
0
 62
     0
 10
213.644
 20
32.6692
 30
0.0
 11
213.644
 21
46.6686
 31
0.0
  0
LINE
  8
0
 62
     0
 10
232.694
 20
46.6686
 30
0.0
 11
246.695
 21
46.6686
 31
0.0
  0
LINE
  8
0
 62
     0
 10
246.695
 20
46.6686
 30
0.0
 11
246.695
 21
32.6692
 31
0.0
  0
LINE
  8
0
 62
     0
 10
246.695
 20
32.6692
 30
0.0
 11
232.694
 21
32.6692
 31
0.0
  0
LINE
  8
0
 62
     0
 10
232.694
 20
32.6692
 30
0.0
 11
232.694
 21
46.6686
 31
0.0
  0
LINE
  8
0
 62
     0
 10
251.744
 20
46.6686
 30
0.0
 11
265.745
 21
46.6686
 31
0.0
  0
LINE
  8
0
 62
     0
 10
265.745
 20
46.6686
 30
0.0
 11
265.745
 21
32.6692
 31
0.0
  0
LINE
  8
0
 62
     0
 10
265.745
 20
32.6692
 30
0.0
 11
251.744
 21
32.6692
 31
0.0
  0
LINE
  8
0
 62
     0
 10
251.744
 20
32.6692
 30
0.0
 11
251.744
 21
46.6686
 31
0.0
  0
LINE
  8
0
 62
     0
 10
270.794
 20
46.6686
 30
0.0
 11
284.795
 21
46.6686
 31
0.0
  0
LINE
  8
0
 62
     0
 10
284.795
 20
46.6686
 30
0.0
 11
284.795
 21
32.6692
 31
0.0
  0
LINE
  8
0
 62
     0
 10
284.795
 20
32.6692
 30
0.0
 11
270.794
 21
32.6692
 31
0.0
  0
LINE
  8
0
 62
     0
 10
270.794
 20
32.6692
 30
0.0
 11
270.794
 21
46.6686
 31
0.0
  0
LINE
  8
0
 62
     0
 10
289.844
 20
46.6686
 30
0.0
 11
303.845
 21
46.6686
 31
0.0
  0
LINE
  8
0
 62
     0
 10
303.845
 20
46.6686
 30
0.0
 11
303.845
 21
32.6692
 31
0.0
  0
LINE
  8
0
 62
     0
 10
303.845
 20
32.6692
 30
0.0
 11
289.844
 21
32.6692
 31
0.0
  0
LINE
  8
0
 62
     0
 10
289.844
 20
32.6692
 30
0.0
 11
289.844
 21
46.6686
 31
0.0
  0
LINE
  8
0
 62
     0
 10
366.046
 20
46.6686
 30
0.0
 11
380.044
 21
46.6686
 31
0.0
  0
LINE
  8
0
 62
     0
 10
380.044
 20
46.6686
 30
0.0
 11
380.044
 21
32.6692
 31
0.0
  0
LINE
  8
0
 62
     0
 10
380.044
 20
32.6692
 30
0.0
 11
366.046
 21
32.6692
 31
0.0
  0
LINE
  8
0
 62
     0
 10
366.046
 20
32.6692
 30
0.0
 11
366.046
 21
46.6686
 31
0.0
  0
LINE
  8
0
 62
     0
 10
13.6192
 20
65.7186
 30
0.0
 11
27.62
 21
65.7186
 31
0.0
  0
LINE
  8
0
 62
     0
 10
27.62
 20
65.7186
 30
0.0
 11
27.62
 21
51.719
 31
0.0
  0
LINE
  8
0
 62
     0
 10
27.62
 20
51.719
 30
0.0
 11
13.6192
 21
51.719
 31
0.0
  0
LINE
  8
0
 62
     0
 10
13.6192
 20
51.719
 30
0.0
 11
13.6192
 21
65.7186
 31
0.0
  0
LINE
  8
0
 62
     0
 10
32.6692
 20
65.7186
 30
0.0
 11
46.67
 21
65.7186
 31
0.0
  0
LINE
  8
0
 62
     0
 10
46.67
 20
65.7186
 30
0.0
 11
46.67
 21
51.719
 31
0.0
  0
LINE
  8
0
 62
     0
 10
46.67
 20
51.719
 30
0.0
 11
32.6692
 21
51.719
 31
0.0
  0
LINE
  8
0
 62
     0
 10
32.6692
 20
51.719
 30
0.0
 11
32.6692
 21
65.7186
 31
0.0
  0
LINE
  8
0
 62
     0
 10
51.719
 20
65.7186
 30
0.0
 11
65.72
 21
65.7186
 31
0.0
  0
LINE
  8
0
 62
     0
 10
65.72
 20
65.7186
 30
0.0
 11
65.72
 21
51.719
 31
0.0
  0
LINE
  8
0
 62
     0
 10
65.72
 20
51.719
 30
0.0
 11
51.719
 21
51.719
 31
0.0
  0
LINE
  8
0
 62
     0
 10
51.719
 20
51.719
 30
0.0
 11
51.719
 21
65.7186
 31
0.0
  0
LINE
  8
0
 62
     0
 10
82.6752
 20
65.7186
 30
0.0
 11
96.6763
 21
65.7186
 31
0.0
  0
LINE
  8
0
 62
     0
 10
96.6763
 20
65.7186
 30
0.0
 11
96.6763
 21
51.719
 31
0.0
  0
LINE
  8
0
 62
     0
 10
96.6763
 20
51.719
 30
0.0
 11
82.6752
 21
51.719
 31
0.0
  0
LINE
  8
0
 62
     0
 10
82.6752
 20
51.719
 30
0.0
 11
82.6752
 21
65.7186
 31
0.0
  0
LINE
  8
0
 62
     0
 10
108.869
 20
65.7186
 30
0.0
 11
122.87
 21
65.7186
 31
0.0
  0
LINE
  8
0
 62
     0
 10
122.87
 20
65.7186
 30
0.0
 11
122.87
 21
51.719
 31
0.0
  0
LINE
  8
0
 62
     0
 10
122.87
 20
51.719
 30
0.0
 11
108.869
 21
51.719
 31
0.0
  0
LINE
  8
0
 62
     0
 10
108.869
 20
51.719
 30
0.0
 11
108.869
 21
65.7186
 31
0.0
  0
LINE
  8
0
 62
     0
 10
127.919
 20
65.7186
 30
0.0
 11
141.92
 21
65.7186
 31
0.0
  0
LINE
  8
0
 62
     0
 10
141.92
 20
65.7186
 30
0.0
 11
141.92
 21
51.719
 31
0.0
  0
LINE
  8
0
 62
     0
 10
141.92
 20
51.719
 30
0.0
 11
127.919
 21
51.719
 31
0.0
  0
LINE
  8
0
 62
     0
 10
127.919
 20
51.719
 30
0.0
 11
127.919
 21
65.7186
 31
0.0
  0
LINE
  8
0
 62
     0
 10
146.969
 20
65.7186
 30
0.0
 11
160.97
 21
65.7186
 31
0.0
  0
LINE
  8
0
 62
     0
 10
160.97
 20
65.7186
 30
0.0
 11
160.97
 21
51.719
 31
0.0
  0
LINE
  8
0
 62
     0
 10
160.97
 20
51.719
 30
0.0
 11
146.969
 21
51.719
 31
0.0
  0
LINE
  8
0
 62
     0
 10
146.969
 20
51.719
 30
0.0
 11
146.969
 21
65.7186
 31
0.0
  0
LINE
  8
0
 62
     0
 10
166.019
 20
65.7186
 30
0.0
 11
180.02
 21
65.7186
 31
0.0
  0
LINE
  8
0
 62
     0
 10
180.02
 20
65.7186
 30
0.0
 11
180.02
 21
51.719
 31
0.0
  0
LINE
  8
0
 62
     0
 10
180.02
 20
51.719
 30
0.0
 11
166.019
 21
51.719
 31
0.0
  0
LINE
  8
0
 62
     0
 10
166.019
 20
51.719
 30
0.0
 11
166.019
 21
65.7186
 31
0.0
  0
LINE
  8
0
 62
     0
 10
185.069
 20
65.7186
 30
0.0
 11
199.07
 21
65.7186
 31
0.0
  0
LINE
  8
0
 62
     0
 10
199.07
 20
65.7186
 30
0.0
 11
199.07
 21
51.719
 31
0.0
  0
LINE
  8
0
 62
     0
 10
199.07
 20
51.719
 30
0.0
 11
185.069
 21
51.719
 31
0.0
  0
LINE
  8
0
 62
     0
 10
185.069
 20
51.719
 30
0.0
 11
185.069
 21
65.7186
 31
0.0
  0
LINE
  8
0
 62
     0
 10
204.119
 20
65.7186
 30
0.0
 11
218.12
 21
65.7186
 31
0.0
  0
LINE
  8
0
 62
     0
 10
218.12
 20
65.7186
 30
0.0
 11
218.12
 21
51.719
 31
0.0
  0
LINE
  8
0
 62
     0
 10
218.12
 20
51.719
 30
0.0
 11
204.119
 21
51.719
 31
0.0
  0
LINE
  8
0
 62
     0
 10
204.119
 20
51.719
 30
0.0
 11
204.119
 21
65.7186
 31
0.0
  0
LINE
  8
0
 62
     0
 10
223.169
 20
65.7186
 30
0.0
 11
237.17
 21
65.7186
 31
0.0
  0
LINE
  8
0
 62
     0
 10
237.17
 20
65.7186
 30
0.0
 11
237.17
 21
51.719
 31
0.0
  0
LINE
  8
0
 62
     0
 10
237.17
 20
51.719
 30
0.0
 11
223.169
 21
51.719
 31
0.0
  0
LINE
  8
0
 62
     0
 10
223.169
 20
51.719
 30
0.0
 11
223.169
 21
65.7186
 31
0.0
  0
LINE
  8
0
 62
     0
 10
242.219
 20
65.7186
 30
0.0
 11
256.22
 21
65.7186
 31
0.0
  0
LINE
  8
0
 62
     0
 10
256.22
 20
65.7186
 30
0.0
 11
256.22
 21
51.719
 31
0.0
  0
LINE
  8
0
 62
     0
 10
256.22
 20
51.719
 30
0.0
 11
242.219
 21
51.719
 31
0.0
  0
LINE
  8
0
 62
     0
 10
242.219
 20
51.719
 30
0.0
 11
242.219
 21
65.7186
 31
0.0
  0
LINE
  8
0
 62
     0
 10
261.269
 20
65.7186
 30
0.0
 11
275.27
 21
65.7186
 31
0.0
  0
LINE
  8
0
 62
     0
 10
275.27
 20
65.7186
 30
0.0
 11
275.27
 21
51.719
 31
0.0
  0
LINE
  8
0
 62
     0
 10
275.27
 20
51.719
 30
0.0
 11
261.269
 21
51.719
 31
0.0
  0
LINE
  8
0
 62
     0
 10
261.269
 20
51.719
 30
0.0
 11
261.269
 21
65.7186
 31
0.0
  0
LINE
  8
0
 62
     0
 10
280.319
 20
65.7186
 30
0.0
 11
294.32
 21
65.7186
 31
0.0
  0
LINE
  8
0
 62
     0
 10
294.32
 20
65.7186
 30
0.0
 11
294.32
 21
51.719
 31
0.0
  0
LINE
  8
0
 62
     0
 10
294.32
 20
51.719
 30
0.0
 11
280.319
 21
51.719
 31
0.0
  0
LINE
  8
0
 62
     0
 10
280.319
 20
51.719
 30
0.0
 11
280.319
 21
65.7186
 31
0.0
  0
LINE
  8
0
 62
     0
 10
299.369
 20
65.7186
 30
0.0
 11
313.37
 21
65.7186
 31
0.0
  0
LINE
  8
0
 62
     0
 10
313.37
 20
65.7186
 30
0.0
 11
313.37
 21
51.719
 31
0.0
  0
LINE
  8
0
 62
     0
 10
313.37
 20
51.719
 30
0.0
 11
299.369
 21
51.719
 31
0.0
  0
LINE
  8
0
 62
     0
 10
299.369
 20
51.719
 30
0.0
 11
299.369
 21
65.7186
 31
0.0
  0
LINE
  8
0
 62
     0
 10
318.419
 20
65.7186
 30
0.0
 11
332.42
 21
65.7186
 31
0.0
  0
LINE
  8
0
 62
     0
 10
332.42
 20
65.7186
 30
0.0
 11
332.42
 21
51.719
 31
0.0
  0
LINE
  8
0
 62
     0
 10
332.42
 20
51.719
 30
0.0
 11
318.419
 21
51.719
 31
0.0
  0
LINE
  8
0
 62
     0
 10
318.419
 20
51.719
 30
0.0
 11
318.419
 21
65.7186
 31
0.0
  0
LINE
  8
0
 62
     0
 10
366.046
 20
65.7186
 30
0.0
 11
380.044
 21
65.7186
 31
0.0
  0
LINE
  8
0
 62
     0
 10
380.044
 20
65.7186
 30
0.0
 11
380.044
 21
51.719
 31
0.0
  0
LINE
  8
0
 62
     0
 10
380.044
 20
51.719
 30
0.0
 11
366.046
 21
51.719
 31
0.0
  0
LINE
  8
0
 62
     0
 10
366.046
 20
51.719
 30
0.0
 11
366.046
 21
65.7186
 31
0.0
  0
LINE
  8
0
 62
     0
 10
385.096
 20
65.7186
 30
0.0
 11
399.094
 21
65.7186
 31
0.0
  0
LINE
  8
0
 62
     0
 10
399.094
 20
65.7186
 30
0.0
 11
399.094
 21
51.719
 31
0.0
  0
LINE
  8
0
 62
     0
 10
399.094
 20
51.719
 30
0.0
 11
385.096
 21
51.719
 31
0.0
  0
LINE
  8
0
 62
     0
 10
385.096
 20
51.719
 30
0.0
 11
385.096
 21
65.7186
 31
0.0
  0
LINE
  8
0
 62
     0
 10
346.351
 20
84.3442
 30
0.0
 11
346.351
 21
83.5187
 31
0.0
  0
LINE
  8
0
 62
     0
 10
346.351
 20
83.5187
 30
0.0
 11
340.081
 21
83.5187
 31
0.0
  0
LINE
  8
0
 62
     0
 10
340.081
 20
83.5187
 30
0.0
 11
340.081
 21
81.7947
 31
0.0
  0
LINE
  8
0
 62
     0
 10
340.081
 20
81.7947
 30
0.0
 11
338.88
 21
81.7947
 31
0.0
  0
LINE
  8
0
 62
     0
 10
338.88
 20
81.7947
 30
0.0
 11
338.88
 21
78.4931
 31
0.0
  0
LINE
  8
0
 62
     0
 10
338.88
 20
78.4931
 30
0.0
 11
340.081
 21
78.4931
 31
0.0
  0
LINE
  8
0
 62
     0
 10
340.081
 20
78.4931
 30
0.0
 11
340.081
 21
76.769
 31
0.0
  0
LINE
  8
0
 62
     0
 10
340.081
 20
76.769
 30
0.0
 11
344.551
 21
76.769
 31
0.0
  0
LINE
  8
0
 62
     0
 10
344.551
 20
76.769
 30
0.0
 11
344.551
 21
75.2436
 31
0.0
  0
LINE
  8
0
 62
     0
 10
344.551
 20
75.2436
 30
0.0
 11
339.85
 21
75.2436
 31
0.0
  0
LINE
  8
0
 62
     0
 10
339.85
 20
75.2436
 30
0.0
 11
339.85
 21
61.244
 31
0.0
  0
LINE
  8
0
 62
     0
 10
339.85
 20
61.244
 30
0.0
 11
344.551
 21
61.244
 31
0.0
  0
LINE
  8
0
 62
     0
 10
344.551
 20
61.244
 30
0.0
 11
344.551
 21
59.7186
 31
0.0
  0
LINE
  8
0
 62
     0
 10
344.551
 20
59.7186
 30
0.0
 11
340.081
 21
59.7186
 31
0.0
  0
LINE
  8
0
 62
     0
 10
340.081
 20
59.7186
 30
0.0
 11
340.081
 21
57.9935
 31
0.0
  0
LINE
  8
0
 62
     0
 10
340.081
 20
57.9935
 30
0.0
 11
338.88
 21
57.9935
 31
0.0
  0
LINE
  8
0
 62
     0
 10
338.88
 20
57.9935
 30
0.0
 11
338.88
 21
54.6929
 31
0.0
  0
LINE
  8
0
 62
     0
 10
338.88
 20
54.6929
 30
0.0
 11
340.081
 21
54.6929
 31
0.0
  0
LINE
  8
0
 62
     0
 10
340.081
 20
54.6929
 30
0.0
 11
340.081
 21
52.9689
 31
0.0
  0
LINE
  8
0
 62
     0
 10
340.081
 20
52.9689
 30
0.0
 11
346.351
 21
52.9689
 31
0.0
  0
LINE
  8
0
 62
     0
 10
346.351
 20
52.9689
 30
0.0
 11
346.351
 21
52.1437
 31
0.0
  0
LINE
  8
0
 62
     0
 10
346.351
 20
52.1437
 30
0.0
 11
349.151
 21
52.1437
 31
0.0
  0
LINE
  8
0
 62
     0
 10
349.151
 20
52.1437
 30
0.0
 11
349.151
 21
52.9689
 31
0.0
  0
LINE
  8
0
 62
     0
 10
349.151
 20
52.9689
 30
0.0
 11
352.381
 21
52.9689
 31
0.0
  0
LINE
  8
0
 62
     0
 10
352.381
 20
52.9689
 30
0.0
 11
352.381
 21
59.7186
 31
0.0
  0
LINE
  8
0
 62
     0
 10
352.381
 20
59.7186
 30
0.0
 11
349.151
 21
59.7186
 31
0.0
  0
LINE
  8
0
 62
     0
 10
349.151
 20
59.7186
 30
0.0
 11
349.151
 21
61.244
 31
0.0
  0
LINE
  8
0
 62
     0
 10
349.151
 20
61.244
 30
0.0
 11
353.85
 21
61.244
 31
0.0
  0
LINE
  8
0
 62
     0
 10
353.85
 20
61.244
 30
0.0
 11
353.85
 21
75.2436
 31
0.0
  0
LINE
  8
0
 62
     0
 10
353.85
 20
75.2436
 30
0.0
 11
349.151
 21
75.2436
 31
0.0
  0
LINE
  8
0
 62
     0
 10
349.151
 20
75.2436
 30
0.0
 11
349.151
 21
76.769
 31
0.0
  0
LINE
  8
0
 62
     0
 10
349.151
 20
76.769
 30
0.0
 11
352.381
 21
76.769
 31
0.0
  0
LINE
  8
0
 62
     0
 10
352.381
 20
76.769
 30
0.0
 11
352.381
 21
83.5187
 31
0.0
  0
LINE
  8
0
 62
     0
 10
352.381
 20
83.5187
 30
0.0
 11
349.151
 21
83.5187
 31
0.0
  0
LINE
  8
0
 62
     0
 10
349.151
 20
83.5187
 30
0.0
 11
349.151
 21
84.3442
 31
0.0
  0
LINE
  8
0
 62
     0
 10
349.151
 20
84.3442
 30
0.0
 11
346.351
 21
84.3442
 31
0.0
  0
LINE
  8
0
 62
     0
 10
13.6192
 20
84.7686
 30
0.0
 11
27.62
 21
84.7686
 31
0.0
  0
LINE
  8
0
 62
     0
 10
27.62
 20
84.7686
 30
0.0
 11
27.62
 21
70.769
 31
0.0
  0
LINE
  8
0
 62
     0
 10
27.62
 20
70.769
 30
0.0
 11
13.6192
 21
70.769
 31
0.0
  0
LINE
  8
0
 62
     0
 10
13.6192
 20
70.769
 30
0.0
 11
13.6192
 21
84.7686
 31
0.0
  0
LINE
  8
0
 62
     0
 10
32.6692
 20
84.7686
 30
0.0
 11
46.67
 21
84.7686
 31
0.0
  0
LINE
  8
0
 62
     0
 10
46.67
 20
84.7686
 30
0.0
 11
46.67
 21
70.769
 31
0.0
  0
LINE
  8
0
 62
     0
 10
46.67
 20
70.769
 30
0.0
 11
32.6692
 21
70.769
 31
0.0
  0
LINE
  8
0
 62
     0
 10
32.6692
 20
70.769
 30
0.0
 11
32.6692
 21
84.7686
 31
0.0
  0
LINE
  8
0
 62
     0
 10
51.719
 20
84.7686
 30
0.0
 11
65.72
 21
84.7686
 31
0.0
  0
LINE
  8
0
 62
     0
 10
65.72
 20
84.7686
 30
0.0
 11
65.72
 21
70.769
 31
0.0
  0
LINE
  8
0
 62
     0
 10
65.72
 20
70.769
 30
0.0
 11
51.719
 21
70.769
 31
0.0
  0
LINE
  8
0
 62
     0
 10
51.719
 20
70.769
 30
0.0
 11
51.719
 21
84.7686
 31
0.0
  0
LINE
  8
0
 62
     0
 10
80.294
 20
84.7686
 30
0.0
 11
94.295
 21
84.7686
 31
0.0
  0
LINE
  8
0
 62
     0
 10
94.295
 20
84.7686
 30
0.0
 11
94.295
 21
70.769
 31
0.0
  0
LINE
  8
0
 62
     0
 10
94.295
 20
70.769
 30
0.0
 11
80.294
 21
70.769
 31
0.0
  0
LINE
  8
0
 62
     0
 10
80.294
 20
70.769
 30
0.0
 11
80.294
 21
84.7686
 31
0.0
  0
LINE
  8
0
 62
     0
 10
104.106
 20
84.7686
 30
0.0
 11
118.106
 21
84.7686
 31
0.0
  0
LINE
  8
0
 62
     0
 10
118.106
 20
84.7686
 30
0.0
 11
118.106
 21
70.769
 31
0.0
  0
LINE
  8
0
 62
     0
 10
118.106
 20
70.769
 30
0.0
 11
104.106
 21
70.769
 31
0.0
  0
LINE
  8
0
 62
     0
 10
104.106
 20
70.769
 30
0.0
 11
104.106
 21
84.7686
 31
0.0
  0
LINE
  8
0
 62
     0
 10
123.156
 20
84.7686
 30
0.0
 11
137.156
 21
84.7686
 31
0.0
  0
LINE
  8
0
 62
     0
 10
137.156
 20
84.7686
 30
0.0
 11
137.156
 21
70.769
 31
0.0
  0
LINE
  8
0
 62
     0
 10
137.156
 20
70.769
 30
0.0
 11
123.156
 21
70.769
 31
0.0
  0
LINE
  8
0
 62
     0
 10
123.156
 20
70.769
 30
0.0
 11
123.156
 21
84.7686
 31
0.0
  0
LINE
  8
0
 62
     0
 10
142.206
 20
84.7686
 30
0.0
 11
156.206
 21
84.7686
 31
0.0
  0
LINE
  8
0
 62
     0
 10
156.206
 20
84.7686
 30
0.0
 11
156.206
 21
70.769
 31
0.0
  0
LINE
  8
0
 62
     0
 10
156.206
 20
70.769
 30
0.0
 11
142.206
 21
70.769
 31
0.0
  0
LINE
  8
0
 62
     0
 10
142.206
 20
70.769
 30
0.0
 11
142.206
 21
84.7686
 31
0.0
  0
LINE
  8
0
 62
     0
 10
161.256
 20
84.7686
 30
0.0
 11
175.256
 21
84.7686
 31
0.0
  0
LINE
  8
0
 62
     0
 10
175.256
 20
84.7686
 30
0.0
 11
175.256
 21
70.769
 31
0.0
  0
LINE
  8
0
 62
     0
 10
175.256
 20
70.769
 30
0.0
 11
161.256
 21
70.769
 31
0.0
  0
LINE
  8
0
 62
     0
 10
161.256
 20
70.769
 30
0.0
 11
161.256
 21
84.7686
 31
0.0
  0
LINE
  8
0
 62
     0
 10
180.306
 20
84.7686
 30
0.0
 11
194.306
 21
84.7686
 31
0.0
  0
LINE
  8
0
 62
     0
 10
194.306
 20
84.7686
 30
0.0
 11
194.306
 21
70.769
 31
0.0
  0
LINE
  8
0
 62
     0
 10
194.306
 20
70.769
 30
0.0
 11
180.306
 21
70.769
 31
0.0
  0
LINE
  8
0
 62
     0
 10
180.306
 20
70.769
 30
0.0
 11
180.306
 21
84.7686
 31
0.0
  0
LINE
  8
0
 62
     0
 10
199.356
 20
84.7686
 30
0.0
 11
213.356
 21
84.7686
 31
0.0
  0
LINE
  8
0
 62
     0
 10
213.356
 20
84.7686
 30
0.0
 11
213.356
 21
70.769
 31
0.0
  0
LINE
  8
0
 62
     0
 10
213.356
 20
70.769
 30
0.0
 11
199.356
 21
70.769
 31
0.0
  0
LINE
  8
0
 62
     0
 10
199.356
 20
70.769
 30
0.0
 11
199.356
 21
84.7686
 31
0.0
  0
LINE
  8
0
 62
     0
 10
218.406
 20
84.7686
 30
0.0
 11
232.406
 21
84.7686
 31
0.0
  0
LINE
  8
0
 62
     0
 10
232.406
 20
84.7686
 30
0.0
 11
232.406
 21
70.769
 31
0.0
  0
LINE
  8
0
 62
     0
 10
232.406
 20
70.769
 30
0.0
 11
218.406
 21
70.769
 31
0.0
  0
LINE
  8
0
 62
     0
 10
218.406
 20
70.769
 30
0.0
 11
218.406
 21
84.7686
 31
0.0
  0
LINE
  8
0
 62
     0
 10
237.456
 20
84.7686
 30
0.0
 11
251.456
 21
84.7686
 31
0.0
  0
LINE
  8
0
 62
     0
 10
251.456
 20
84.7686
 30
0.0
 11
251.456
 21
70.769
 31
0.0
  0
LINE
  8
0
 62
     0
 10
251.456
 20
70.769
 30
0.0
 11
237.456
 21
70.769
 31
0.0
  0
LINE
  8
0
 62
     0
 10
237.456
 20
70.769
 30
0.0
 11
237.456
 21
84.7686
 31
0.0
  0
LINE
  8
0
 62
     0
 10
256.505
 20
84.7686
 30
0.0
 11
270.506
 21
84.7686
 31
0.0
  0
LINE
  8
0
 62
     0
 10
270.506
 20
84.7686
 30
0.0
 11
270.506
 21
70.769
 31
0.0
  0
LINE
  8
0
 62
     0
 10
270.506
 20
70.769
 30
0.0
 11
256.505
 21
70.769
 31
0.0
  0
LINE
  8
0
 62
     0
 10
256.505
 20
70.769
 30
0.0
 11
256.505
 21
84.7686
 31
0.0
  0
LINE
  8
0
 62
     0
 10
275.556
 20
84.7686
 30
0.0
 11
289.556
 21
84.7686
 31
0.0
  0
LINE
  8
0
 62
     0
 10
289.556
 20
84.7686
 30
0.0
 11
289.556
 21
70.769
 31
0.0
  0
LINE
  8
0
 62
     0
 10
289.556
 20
70.769
 30
0.0
 11
275.556
 21
70.769
 31
0.0
  0
LINE
  8
0
 62
     0
 10
275.556
 20
70.769
 30
0.0
 11
275.556
 21
84.7686
 31
0.0
  0
LINE
  8
0
 62
     0
 10
294.606
 20
84.7686
 30
0.0
 11
308.606
 21
84.7686
 31
0.0
  0
LINE
  8
0
 62
     0
 10
308.606
 20
84.7686
 30
0.0
 11
308.606
 21
70.769
 31
0.0
  0
LINE
  8
0
 62
     0
 10
308.606
 20
70.769
 30
0.0
 11
294.606
 21
70.769
 31
0.0
  0
LINE
  8
0
 62
     0
 10
294.606
 20
70.769
 30
0.0
 11
294.606
 21
84.7686
 31
0.0
  0
LINE
  8
0
 62
     0
 10
313.656
 20
84.7686
 30
0.0
 11
327.656
 21
84.7686
 31
0.0
  0
LINE
  8
0
 62
     0
 10
327.656
 20
84.7686
 30
0.0
 11
327.656
 21
70.769
 31
0.0
  0
LINE
  8
0
 62
     0
 10
327.656
 20
70.769
 30
0.0
 11
313.656
 21
70.769
 31
0.0
  0
LINE
  8
0
 62
     0
 10
313.656
 20
70.769
 30
0.0
 11
313.656
 21
84.7686
 31
0.0
  0
LINE
  8
0
 62
     0
 10
366.046
 20
84.7686
 30
0.0
 11
380.044
 21
84.7686
 31
0.0
  0
LINE
  8
0
 62
     0
 10
380.044
 20
84.7686
 30
0.0
 11
380.044
 21
70.769
 31
0.0
  0
LINE
  8
0
 62
     0
 10
380.044
 20
70.769
 30
0.0
 11
366.046
 21
70.769
 31
0.0
  0
LINE
  8
0
 62
     0
 10
366.046
 20
70.769
 30
0.0
 11
366.046
 21
84.7686
 31
0.0
  0
LINE
  8
0
 62
     0
 10
385.096
 20
84.7686
 30
0.0
 11
399.094
 21
84.7686
 31
0.0
  0
LINE
  8
0
 62
     0
 10
399.094
 20
84.7686
 30
0.0
 11
399.094
 21
70.769
 31
0.0
  0
LINE
  8
0
 62
     0
 10
399.094
 20
70.769
 30
0.0
 11
385.096
 21
70.769
 31
0.0
  0
LINE
  8
0
 62
     0
 10
385.096
 20
70.769
 30
0.0
 11
385.096
 21
84.7686
 31
0.0
  0
LINE
  8
0
 62
     0
 10
332.706
 20
103.819
 30
0.0
 11
332.706
 21
99.1182
 31
0.0
  0
LINE
  8
0
 62
     0
 10
332.706
 20
99.1182
 30
0.0
 11
331.181
 21
99.1182
 31
0.0
  0
LINE
  8
0
 62
     0
 10
331.181
 20
99.1182
 30
0.0
 11
331.181
 21
102.348
 31
0.0
  0
LINE
  8
0
 62
     0
 10
331.181
 20
102.348
 30
0.0
 11
324.431
 21
102.348
 31
0.0
  0
LINE
  8
0
 62
     0
 10
324.431
 20
102.348
 30
0.0
 11
324.431
 21
99.1182
 31
0.0
  0
LINE
  8
0
 62
     0
 10
324.431
 20
99.1182
 30
0.0
 11
323.606
 21
99.1182
 31
0.0
  0
LINE
  8
0
 62
     0
 10
323.606
 20
99.1182
 30
0.0
 11
323.606
 21
96.3179
 31
0.0
  0
LINE
  8
0
 62
     0
 10
323.606
 20
96.3179
 30
0.0
 11
324.431
 21
96.3179
 31
0.0
  0
LINE
  8
0
 62
     0
 10
324.431
 20
96.3179
 30
0.0
 11
324.431
 21
90.0479
 31
0.0
  0
LINE
  8
0
 62
     0
 10
324.431
 20
90.0479
 30
0.0
 11
326.157
 21
90.0479
 31
0.0
  0
LINE
  8
0
 62
     0
 10
326.157
 20
90.0479
 30
0.0
 11
326.157
 21
88.8488
 31
0.0
  0
LINE
  8
0
 62
     0
 10
326.157
 20
88.8488
 30
0.0
 11
329.457
 21
88.8488
 31
0.0
  0
LINE
  8
0
 62
     0
 10
329.457
 20
88.8488
 30
0.0
 11
329.457
 21
90.0479
 31
0.0
  0
LINE
  8
0
 62
     0
 10
329.457
 20
90.0479
 30
0.0
 11
331.181
 21
90.0479
 31
0.0
  0
LINE
  8
0
 62
     0
 10
331.181
 20
90.0479
 30
0.0
 11
331.181
 21
94.5183
 31
0.0
  0
LINE
  8
0
 62
     0
 10
331.181
 20
94.5183
 30
0.0
 11
332.706
 21
94.5183
 31
0.0
  0
LINE
  8
0
 62
     0
 10
332.706
 20
94.5183
 30
0.0
 11
332.706
 21
89.819
 31
0.0
  0
LINE
  8
0
 62
     0
 10
332.706
 20
89.819
 30
0.0
 11
346.706
 21
89.819
 31
0.0
  0
LINE
  8
0
 62
     0
 10
346.706
 20
89.819
 30
0.0
 11
346.706
 21
94.5183
 31
0.0
  0
LINE
  8
0
 62
     0
 10
346.706
 20
94.5183
 30
0.0
 11
348.232
 21
94.5183
 31
0.0
  0
LINE
  8
0
 62
     0
 10
348.232
 20
94.5183
 30
0.0
 11
348.232
 21
90.0479
 31
0.0
  0
LINE
  8
0
 62
     0
 10
348.232
 20
90.0479
 30
0.0
 11
349.957
 21
90.0479
 31
0.0
  0
LINE
  8
0
 62
     0
 10
349.957
 20
90.0479
 30
0.0
 11
349.957
 21
88.8488
 31
0.0
  0
LINE
  8
0
 62
     0
 10
349.957
 20
88.8488
 30
0.0
 11
353.258
 21
88.8488
 31
0.0
  0
LINE
  8
0
 62
     0
 10
353.258
 20
88.8488
 30
0.0
 11
353.258
 21
90.0479
 31
0.0
  0
LINE
  8
0
 62
     0
 10
353.258
 20
90.0479
 30
0.0
 11
354.983
 21
90.0479
 31
0.0
  0
LINE
  8
0
 62
     0
 10
354.983
 20
90.0479
 30
0.0
 11
354.983
 21
96.3179
 31
0.0
  0
LINE
  8
0
 62
     0
 10
354.983
 20
96.3179
 30
0.0
 11
355.808
 21
96.3179
 31
0.0
  0
LINE
  8
0
 62
     0
 10
355.808
 20
96.3179
 30
0.0
 11
355.808
 21
99.1182
 31
0.0
  0
LINE
  8
0
 62
     0
 10
355.808
 20
99.1182
 30
0.0
 11
354.983
 21
99.1182
 31
0.0
  0
LINE
  8
0
 62
     0
 10
354.983
 20
99.1182
 30
0.0
 11
354.983
 21
102.348
 31
0.0
  0
LINE
  8
0
 62
     0
 10
354.983
 20
102.348
 30
0.0
 11
348.232
 21
102.348
 31
0.0
  0
LINE
  8
0
 62
     0
 10
348.232
 20
102.348
 30
0.0
 11
348.232
 21
99.1182
 31
0.0
  0
LINE
  8
0
 62
     0
 10
348.232
 20
99.1182
 30
0.0
 11
346.706
 21
99.1182
 31
0.0
  0
LINE
  8
0
 62
     0
 10
346.706
 20
99.1182
 30
0.0
 11
346.706
 21
103.819
 31
0.0
  0
LINE
  8
0
 62
     0
 10
346.706
 20
103.819
 30
0.0
 11
332.706
 21
103.819
 31
0.0
  0
LINE
  8
0
 62
     0
 10
13.6192
 20
103.819
 30
0.0
 11
27.62
 21
103.819
 31
0.0
  0
LINE
  8
0
 62
     0
 10
27.62
 20
103.819
 30
0.0
 11
27.62
 21
89.819
 31
0.0
  0
LINE
  8
0
 62
     0
 10
27.62
 20
89.819
 30
0.0
 11
13.6192
 21
89.819
 31
0.0
  0
LINE
  8
0
 62
     0
 10
13.6192
 20
89.819
 30
0.0
 11
13.6192
 21
103.819
 31
0.0
  0
LINE
  8
0
 62
     0
 10
32.6692
 20
103.819
 30
0.0
 11
46.67
 21
103.819
 31
0.0
  0
LINE
  8
0
 62
     0
 10
46.67
 20
103.819
 30
0.0
 11
46.67
 21
89.819
 31
0.0
  0
LINE
  8
0
 62
     0
 10
46.67
 20
89.819
 30
0.0
 11
32.6692
 21
89.819
 31
0.0
  0
LINE
  8
0
 62
     0
 10
32.6692
 20
89.819
 30
0.0
 11
32.6692
 21
103.819
 31
0.0
  0
LINE
  8
0
 62
     0
 10
51.719
 20
103.819
 30
0.0
 11
65.72
 21
103.819
 31
0.0
  0
LINE
  8
0
 62
     0
 10
65.72
 20
103.819
 30
0.0
 11
65.72
 21
89.819
 31
0.0
  0
LINE
  8
0
 62
     0
 10
65.72
 20
89.819
 30
0.0
 11
51.719
 21
89.819
 31
0.0
  0
LINE
  8
0
 62
     0
 10
51.719
 20
89.819
 30
0.0
 11
51.719
 21
103.819
 31
0.0
  0
LINE
  8
0
 62
     0
 10
75.5315
 20
103.819
 30
0.0
 11
89.5311
 21
103.819
 31
0.0
  0
LINE
  8
0
 62
     0
 10
89.5311
 20
103.819
 30
0.0
 11
89.5311
 21
89.819
 31
0.0
  0
LINE
  8
0
 62
     0
 10
89.5311
 20
89.819
 30
0.0
 11
75.5315
 21
89.819
 31
0.0
  0
LINE
  8
0
 62
     0
 10
75.5315
 20
89.819
 30
0.0
 11
75.5315
 21
103.819
 31
0.0
  0
LINE
  8
0
 62
     0
 10
94.5815
 20
103.819
 30
0.0
 11
108.581
 21
103.819
 31
0.0
  0
LINE
  8
0
 62
     0
 10
108.581
 20
103.819
 30
0.0
 11
108.581
 21
89.819
 31
0.0
  0
LINE
  8
0
 62
     0
 10
108.581
 20
89.819
 30
0.0
 11
94.5815
 21
89.819
 31
0.0
  0
LINE
  8
0
 62
     0
 10
94.5815
 20
89.819
 30
0.0
 11
94.5815
 21
103.819
 31
0.0
  0
LINE
  8
0
 62
     0
 10
113.631
 20
103.819
 30
0.0
 11
127.631
 21
103.819
 31
0.0
  0
LINE
  8
0
 62
     0
 10
127.631
 20
103.819
 30
0.0
 11
127.631
 21
89.819
 31
0.0
  0
LINE
  8
0
 62
     0
 10
127.631
 20
89.819
 30
0.0
 11
113.631
 21
89.819
 31
0.0
  0
LINE
  8
0
 62
     0
 10
113.631
 20
89.819
 30
0.0
 11
113.631
 21
103.819
 31
0.0
  0
LINE
  8
0
 62
     0
 10
132.681
 20
103.819
 30
0.0
 11
146.681
 21
103.819
 31
0.0
  0
LINE
  8
0
 62
     0
 10
146.681
 20
103.819
 30
0.0
 11
146.681
 21
89.819
 31
0.0
  0
LINE
  8
0
 62
     0
 10
146.681
 20
89.819
 30
0.0
 11
132.681
 21
89.819
 31
0.0
  0
LINE
  8
0
 62
     0
 10
132.681
 20
89.819
 30
0.0
 11
132.681
 21
103.819
 31
0.0
  0
LINE
  8
0
 62
     0
 10
151.731
 20
103.819
 30
0.0
 11
165.731
 21
103.819
 31
0.0
  0
LINE
  8
0
 62
     0
 10
165.731
 20
103.819
 30
0.0
 11
165.731
 21
89.819
 31
0.0
  0
LINE
  8
0
 62
     0
 10
165.731
 20
89.819
 30
0.0
 11
151.731
 21
89.819
 31
0.0
  0
LINE
  8
0
 62
     0
 10
151.731
 20
89.819
 30
0.0
 11
151.731
 21
103.819
 31
0.0
  0
LINE
  8
0
 62
     0
 10
170.781
 20
103.819
 30
0.0
 11
184.781
 21
103.819
 31
0.0
  0
LINE
  8
0
 62
     0
 10
184.781
 20
103.819
 30
0.0
 11
184.781
 21
89.819
 31
0.0
  0
LINE
  8
0
 62
     0
 10
184.781
 20
89.819
 30
0.0
 11
170.781
 21
89.819
 31
0.0
  0
LINE
  8
0
 62
     0
 10
170.781
 20
89.819
 30
0.0
 11
170.781
 21
103.819
 31
0.0
  0
LINE
  8
0
 62
     0
 10
189.831
 20
103.819
 30
0.0
 11
203.831
 21
103.819
 31
0.0
  0
LINE
  8
0
 62
     0
 10
203.831
 20
103.819
 30
0.0
 11
203.831
 21
89.819
 31
0.0
  0
LINE
  8
0
 62
     0
 10
203.831
 20
89.819
 30
0.0
 11
189.831
 21
89.819
 31
0.0
  0
LINE
  8
0
 62
     0
 10
189.831
 20
89.819
 30
0.0
 11
189.831
 21
103.819
 31
0.0
  0
LINE
  8
0
 62
     0
 10
208.881
 20
103.819
 30
0.0
 11
222.881
 21
103.819
 31
0.0
  0
LINE
  8
0
 62
     0
 10
222.881
 20
103.819
 30
0.0
 11
222.881
 21
89.819
 31
0.0
  0
LINE
  8
0
 62
     0
 10
222.881
 20
89.819
 30
0.0
 11
208.881
 21
89.819
 31
0.0
  0
LINE
  8
0
 62
     0
 10
208.881
 20
89.819
 30
0.0
 11
208.881
 21
103.819
 31
0.0
  0
LINE
  8
0
 62
     0
 10
227.931
 20
103.819
 30
0.0
 11
241.931
 21
103.819
 31
0.0
  0
LINE
  8
0
 62
     0
 10
241.931
 20
103.819
 30
0.0
 11
241.931
 21
89.819
 31
0.0
  0
LINE
  8
0
 62
     0
 10
241.931
 20
89.819
 30
0.0
 11
227.931
 21
89.819
 31
0.0
  0
LINE
  8
0
 62
     0
 10
227.931
 20
89.819
 30
0.0
 11
227.931
 21
103.819
 31
0.0
  0
LINE
  8
0
 62
     0
 10
246.981
 20
103.819
 30
0.0
 11
260.981
 21
103.819
 31
0.0
  0
LINE
  8
0
 62
     0
 10
260.981
 20
103.819
 30
0.0
 11
260.981
 21
89.819
 31
0.0
  0
LINE
  8
0
 62
     0
 10
260.981
 20
89.819
 30
0.0
 11
246.981
 21
89.819
 31
0.0
  0
LINE
  8
0
 62
     0
 10
246.981
 20
89.819
 30
0.0
 11
246.981
 21
103.819
 31
0.0
  0
LINE
  8
0
 62
     0
 10
266.031
 20
103.819
 30
0.0
 11
280.031
 21
103.819
 31
0.0
  0
LINE
  8
0
 62
     0
 10
280.031
 20
103.819
 30
0.0
 11
280.031
 21
89.819
 31
0.0
  0
LINE
  8
0
 62
     0
 10
280.031
 20
89.819
 30
0.0
 11
266.031
 21
89.819
 31
0.0
  0
LINE
  8
0
 62
     0
 10
266.031
 20
89.819
 30
0.0
 11
266.031
 21
103.819
 31
0.0
  0
LINE
  8
0
 62
     0
 10
285.081
 20
103.819
 30
0.0
 11
299.081
 21
103.819
 31
0.0
  0
LINE
  8
0
 62
     0
 10
299.081
 20
103.819
 30
0.0
 11
299.081
 21
89.819
 31
0.0
  0
LINE
  8
0
 62
     0
 10
299.081
 20
89.819
 30
0.0
 11
285.081
 21
89.819
 31
0.0
  0
LINE
  8
0
 62
     0
 10
285.081
 20
89.819
 30
0.0
 11
285.081
 21
103.819
 31
0.0
  0
LINE
  8
0
 62
     0
 10
304.131
 20
103.819
 30
0.0
 11
318.131
 21
103.819
 31
0.0
  0
LINE
  8
0
 62
     0
 10
318.131
 20
103.819
 30
0.0
 11
318.131
 21
89.819
 31
0.0
  0
LINE
  8
0
 62
     0
 10
318.131
 20
89.819
 30
0.0
 11
304.131
 21
89.819
 31
0.0
  0
LINE
  8
0
 62
     0
 10
304.131
 20
89.819
 30
0.0
 11
304.131
 21
103.819
 31
0.0
  0
LINE
  8
0
 62
     0
 10
366.046
 20
103.819
 30
0.0
 11
380.044
 21
103.819
 31
0.0
  0
LINE
  8
0
 62
     0
 10
380.044
 20
103.819
 30
0.0
 11
380.044
 21
89.819
 31
0.0
  0
LINE
  8
0
 62
     0
 10
380.044
 20
89.819
 30
0.0
 11
366.046
 21
89.819
 31
0.0
  0
LINE
  8
0
 62
     0
 10
366.046
 20
89.819
 30
0.0
 11
366.046
 21
103.819
 31
0.0
  0
LINE
  8
0
 62
     0
 10
385.096
 20
103.819
 30
0.0
 11
399.094
 21
103.819
 31
0.0
  0
LINE
  8
0
 62
     0
 10
399.094
 20
103.819
 30
0.0
 11
399.094
 21
89.819
 31
0.0
  0
LINE
  8
0
 62
     0
 10
399.094
 20
89.819
 30
0.0
 11
385.096
 21
89.819
 31
0.0
  0
LINE
  8
0
 62
     0
 10
385.096
 20
89.819
 30
0.0
 11
385.096
 21
103.819
 31
0.0
  0
LINE
  8
0
 62
     0
 10
13.6192
 20
127.631
 30
0.0
 11
27.62
 21
127.631
 31
0.0
  0
LINE
  8
0
 62
     0
 10
27.62
 20
127.631
 30
0.0
 11
27.62
 21
113.63
 31
0.0
  0
LINE
  8
0
 62
     0
 10
27.62
 20
113.63
 30
0.0
 11
13.6192
 21
113.63
 31
0.0
  0
LINE
  8
0
 62
     0
 10
13.6192
 20
113.63
 30
0.0
 11
13.6192
 21
127.631
 31
0.0
  0
LINE
  8
0
 62
     0
 10
32.6692
 20
127.631
 30
0.0
 11
46.67
 21
127.631
 31
0.0
  0
LINE
  8
0
 62
     0
 10
46.67
 20
127.631
 30
0.0
 11
46.67
 21
113.63
 31
0.0
  0
LINE
  8
0
 62
     0
 10
46.67
 20
113.63
 30
0.0
 11
32.6692
 21
113.63
 31
0.0
  0
LINE
  8
0
 62
     0
 10
32.6692
 20
113.63
 30
0.0
 11
32.6692
 21
127.631
 31
0.0
  0
LINE
  8
0
 62
     0
 10
51.719
 20
127.631
 30
0.0
 11
65.72
 21
127.631
 31
0.0
  0
LINE
  8
0
 62
     0
 10
65.72
 20
127.631
 30
0.0
 11
65.72
 21
113.63
 31
0.0
  0
LINE
  8
0
 62
     0
 10
65.72
 20
113.63
 30
0.0
 11
51.719
 21
113.63
 31
0.0
  0
LINE
  8
0
 62
     0
 10
51.719
 20
113.63
 30
0.0
 11
51.719
 21
127.631
 31
0.0
  0
LINE
  8
0
 62
     0
 10
75.5315
 20
127.631
 30
0.0
 11
89.5311
 21
127.631
 31
0.0
  0
LINE
  8
0
 62
     0
 10
89.5311
 20
127.631
 30
0.0
 11
89.5311
 21
113.63
 31
0.0
  0
LINE
  8
0
 62
     0
 10
89.5311
 20
113.63
 30
0.0
 11
75.5315
 21
113.63
 31
0.0
  0
LINE
  8
0
 62
     0
 10
75.5315
 20
113.63
 30
0.0
 11
75.5315
 21
127.631
 31
0.0
  0
LINE
  8
0
 62
     0
 10
113.631
 20
127.631
 30
0.0
 11
127.631
 21
127.631
 31
0.0
  0
LINE
  8
0
 62
     0
 10
127.631
 20
127.631
 30
0.0
 11
127.631
 21
113.63
 31
0.0
  0
LINE
  8
0
 62
     0
 10
127.631
 20
113.63
 30
0.0
 11
113.631
 21
113.63
 31
0.0
  0
LINE
  8
0
 62
     0
 10
113.631
 20
113.63
 30
0.0
 11
113.631
 21
127.631
 31
0.0
  0
LINE
  8
0
 62
     0
 10
132.681
 20
127.631
 30
0.0
 11
146.681
 21
127.631
 31
0.0
  0
LINE
  8
0
 62
     0
 10
146.681
 20
127.631
 30
0.0
 11
146.681
 21
113.63
 31
0.0
  0
LINE
  8
0
 62
     0
 10
146.681
 20
113.63
 30
0.0
 11
132.681
 21
113.63
 31
0.0
  0
LINE
  8
0
 62
     0
 10
132.681
 20
113.63
 30
0.0
 11
132.681
 21
127.631
 31
0.0
  0
LINE
  8
0
 62
     0
 10
151.731
 20
127.631
 30
0.0
 11
165.731
 21
127.631
 31
0.0
  0
LINE
  8
0
 62
     0
 10
165.731
 20
127.631
 30
0.0
 11
165.731
 21
113.63
 31
0.0
  0
LINE
  8
0
 62
     0
 10
165.731
 20
113.63
 30
0.0
 11
151.731
 21
113.63
 31
0.0
  0
LINE
  8
0
 62
     0
 10
151.731
 20
113.63
 30
0.0
 11
151.731
 21
127.631
 31
0.0
  0
LINE
  8
0
 62
     0
 10
170.781
 20
127.631
 30
0.0
 11
184.781
 21
127.631
 31
0.0
  0
LINE
  8
0
 62
     0
 10
184.781
 20
127.631
 30
0.0
 11
184.781
 21
113.63
 31
0.0
  0
LINE
  8
0
 62
     0
 10
184.781
 20
113.63
 30
0.0
 11
170.781
 21
113.63
 31
0.0
  0
LINE
  8
0
 62
     0
 10
170.781
 20
113.63
 30
0.0
 11
170.781
 21
127.631
 31
0.0
  0
LINE
  8
0
 62
     0
 10
199.356
 20
127.631
 30
0.0
 11
213.356
 21
127.631
 31
0.0
  0
LINE
  8
0
 62
     0
 10
213.356
 20
127.631
 30
0.0
 11
213.356
 21
113.63
 31
0.0
  0
LINE
  8
0
 62
     0
 10
213.356
 20
113.63
 30
0.0
 11
199.356
 21
113.63
 31
0.0
  0
LINE
  8
0
 62
     0
 10
199.356
 20
113.63
 30
0.0
 11
199.356
 21
127.631
 31
0.0
  0
LINE
  8
0
 62
     0
 10
218.406
 20
127.631
 30
0.0
 11
232.406
 21
127.631
 31
0.0
  0
LINE
  8
0
 62
     0
 10
232.406
 20
127.631
 30
0.0
 11
232.406
 21
113.63
 31
0.0
  0
LINE
  8
0
 62
     0
 10
232.406
 20
113.63
 30
0.0
 11
218.406
 21
113.63
 31
0.0
  0
LINE
  8
0
 62
     0
 10
218.406
 20
113.63
 30
0.0
 11
218.406
 21
127.631
 31
0.0
  0
LINE
  8
0
 62
     0
 10
237.456
 20
127.631
 30
0.0
 11
251.456
 21
127.631
 31
0.0
  0
LINE
  8
0
 62
     0
 10
251.456
 20
127.631
 30
0.0
 11
251.456
 21
113.63
 31
0.0
  0
LINE
  8
0
 62
     0
 10
251.456
 20
113.63
 30
0.0
 11
237.456
 21
113.63
 31
0.0
  0
LINE
  8
0
 62
     0
 10
237.456
 20
113.63
 30
0.0
 11
237.456
 21
127.631
 31
0.0
  0
LINE
  8
0
 62
     0
 10
256.505
 20
127.631
 30
0.0
 11
270.506
 21
127.631
 31
0.0
  0
LINE
  8
0
 62
     0
 10
270.506
 20
127.631
 30
0.0
 11
270.506
 21
113.63
 31
0.0
  0
LINE
  8
0
 62
     0
 10
270.506
 20
113.63
 30
0.0
 11
256.505
 21
113.63
 31
0.0
  0
LINE
  8
0
 62
     0
 10
256.505
 20
113.63
 30
0.0
 11
256.505
 21
127.631
 31
0.0
  0
LINE
  8
0
 62
     0
 10
285.081
 20
127.631
 30
0.0
 11
299.081
 21
127.631
 31
0.0
  0
LINE
  8
0
 62
     0
 10
299.081
 20
127.631
 30
0.0
 11
299.081
 21
113.63
 31
0.0
  0
LINE
  8
0
 62
     0
 10
299.081
 20
113.63
 30
0.0
 11
285.081
 21
113.63
 31
0.0
  0
LINE
  8
0
 62
     0
 10
285.081
 20
113.63
 30
0.0
 11
285.081
 21
127.631
 31
0.0
  0
LINE
  8
0
 62
     0
 10
304.131
 20
127.631
 30
0.0
 11
318.131
 21
127.631
 31
0.0
  0
LINE
  8
0
 62
     0
 10
318.131
 20
127.631
 30
0.0
 11
318.131
 21
113.63
 31
0.0
  0
LINE
  8
0
 62
     0
 10
318.131
 20
113.63
 30
0.0
 11
304.131
 21
113.63
 31
0.0
  0
LINE
  8
0
 62
     0
 10
304.131
 20
113.63
 30
0.0
 11
304.131
 21
127.631
 31
0.0
  0
LINE
  8
0
 62
     0
 10
323.181
 20
127.631
 30
0.0
 11
337.181
 21
127.631
 31
0.0
  0
LINE
  8
0
 62
     0
 10
337.181
 20
127.631
 30
0.0
 11
337.181
 21
113.63
 31
0.0
  0
LINE
  8
0
 62
     0
 10
337.181
 20
113.63
 30
0.0
 11
323.181
 21
113.63
 31
0.0
  0
LINE
  8
0
 62
     0
 10
323.181
 20
113.63
 30
0.0
 11
323.181
 21
127.631
 31
0.0
  0
LINE
  8
0
 62
     0
 10
342.231
 20
127.631
 30
0.0
 11
356.231
 21
127.631
 31
0.0
  0
LINE
  8
0
 62
     0
 10
356.231
 20
127.631
 30
0.0
 11
356.231
 21
113.63
 31
0.0
  0
LINE
  8
0
 62
     0
 10
356.231
 20
113.63
 30
0.0
 11
342.231
 21
113.63
 31
0.0
  0
LINE
  8
0
 62
     0
 10
342.231
 20
113.63
 30
0.0
 11
342.231
 21
127.631
 31
0.0
  0
LINE
  8
0
 62
     0
 10
366.046
 20
127.631
 30
0.0
 11
380.044
 21
127.631
 31
0.0
  0
LINE
  8
0
 62
     0
 10
380.044
 20
127.631
 30
0.0
 11
380.044
 21
113.63
 31
0.0
  0
LINE
  8
0
 62
     0
 10
380.044
 20
113.63
 30
0.0
 11
366.046
 21
113.63
 31
0.0
  0
LINE
  8
0
 62
     0
 10
366.046
 20
113.63
 30
0.0
 11
366.046
 21
127.631
 31
0.0
  0
LINE
  8
0
 62
     0
 10
385.096
 20
127.631
 30
0.0
 11
399.094
 21
127.631
 31
0.0
  0
LINE
  8
0
 62
     0
 10
399.094
 20
127.631
 30
0.0
 11
399.094
 21
113.63
 31
0.0
  0
LINE
  8
0
 62
     0
 10
399.094
 20
113.63
 30
0.0
 11
385.096
 21
113.63
 31
0.0
  0
LINE
  8
0
 62
     0
 10
385.096
 20
113.63
 30
0.0
 11
385.096
 21
127.631
 31
0.0
  0
LINE
  8
0
 62
     0
 10
105.184
 20
137.82
 30
0.0
 11
104.696
 21
137.571
 31
0.0
  0
LINE
  8
0
 62
     0
 10
104.696
 20
137.571
 30
0.0
 11
104.309
 21
137.185
 31
0.0
  0
LINE
  8
0
 62
     0
 10
104.309
 20
137.185
 30
0.0
 11
104.061
 21
136.696
 31
0.0
  0
LINE
  8
0
 62
     0
 10
104.061
 20
136.696
 30
0.0
 11
103.976
 21
136.156
 31
0.0
  0
LINE
  8
0
 62
     0
 10
103.976
 20
136.156
 30
0.0
 11
104.061
 21
135.616
 31
0.0
  0
LINE
  8
0
 62
     0
 10
104.061
 20
135.616
 30
0.0
 11
104.309
 21
135.128
 31
0.0
  0
LINE
  8
0
 62
     0
 10
104.309
 20
135.128
 30
0.0
 11
104.696
 21
134.74
 31
0.0
  0
LINE
  8
0
 62
     0
 10
104.696
 20
134.74
 30
0.0
 11
105.184
 21
134.491
 31
0.0
  0
LINE
  8
0
 62
     0
 10
105.184
 20
134.491
 30
0.0
 11
105.726
 21
134.406
 31
0.0
  0
LINE
  8
0
 62
     0
 10
105.726
 20
134.406
 30
0.0
 11
106.267
 21
134.491
 31
0.0
  0
LINE
  8
0
 62
     0
 10
106.267
 20
134.491
 30
0.0
 11
106.755
 21
134.74
 31
0.0
  0
LINE
  8
0
 62
     0
 10
106.755
 20
134.74
 30
0.0
 11
107.141
 21
135.128
 31
0.0
  0
LINE
  8
0
 62
     0
 10
107.141
 20
135.128
 30
0.0
 11
107.389
 21
135.616
 31
0.0
  0
LINE
  8
0
 62
     0
 10
107.389
 20
135.616
 30
0.0
 11
107.476
 21
136.156
 31
0.0
  0
LINE
  8
0
 62
     0
 10
107.476
 20
136.156
 30
0.0
 11
107.389
 21
136.696
 31
0.0
  0
LINE
  8
0
 62
     0
 10
107.389
 20
136.696
 30
0.0
 11
107.141
 21
137.185
 31
0.0
  0
LINE
  8
0
 62
     0
 10
107.141
 20
137.185
 30
0.0
 11
106.755
 21
137.571
 31
0.0
  0
LINE
  8
0
 62
     0
 10
106.755
 20
137.571
 30
0.0
 11
106.267
 21
137.82
 31
0.0
  0
LINE
  8
0
 62
     0
 10
106.267
 20
137.82
 30
0.0
 11
105.726
 21
137.906
 31
0.0
  0
LINE
  8
0
 62
     0
 10
105.726
 20
137.906
 30
0.0
 11
105.184
 21
137.82
 31
0.0
  0
LINE
  8
0
 62
     0
 10
205.817
 20
137.82
 30
0.0
 11
205.329
 21
137.571
 31
0.0
  0
LINE
  8
0
 62
     0
 10
205.329
 20
137.571
 30
0.0
 11
204.942
 21
137.185
 31
0.0
  0
LINE
  8
0
 62
     0
 10
204.942
 20
137.185
 30
0.0
 11
204.692
 21
136.696
 31
0.0
  0
LINE
  8
0
 62
     0
 10
204.692
 20
136.696
 30
0.0
 11
204.608
 21
136.156
 31
0.0
  0
LINE
  8
0
 62
     0
 10
204.608
 20
136.156
 30
0.0
 11
204.692
 21
135.616
 31
0.0
  0
LINE
  8
0
 62
     0
 10
204.692
 20
135.616
 30
0.0
 11
204.942
 21
135.128
 31
0.0
  0
LINE
  8
0
 62
     0
 10
204.942
 20
135.128
 30
0.0
 11
205.329
 21
134.74
 31
0.0
  0
LINE
  8
0
 62
     0
 10
205.329
 20
134.74
 30
0.0
 11
205.817
 21
134.491
 31
0.0
  0
LINE
  8
0
 62
     0
 10
205.817
 20
134.491
 30
0.0
 11
206.357
 21
134.406
 31
0.0
  0
LINE
  8
0
 62
     0
 10
206.357
 20
134.406
 30
0.0
 11
206.897
 21
134.491
 31
0.0
  0
LINE
  8
0
 62
     0
 10
206.897
 20
134.491
 30
0.0
 11
207.385
 21
134.74
 31
0.0
  0
LINE
  8
0
 62
     0
 10
207.385
 20
134.74
 30
0.0
 11
207.772
 21
135.128
 31
0.0
  0
LINE
  8
0
 62
     0
 10
207.772
 20
135.128
 30
0.0
 11
208.022
 21
135.616
 31
0.0
  0
LINE
  8
0
 62
     0
 10
208.022
 20
135.616
 30
0.0
 11
208.107
 21
136.156
 31
0.0
  0
LINE
  8
0
 62
     0
 10
208.107
 20
136.156
 30
0.0
 11
208.022
 21
136.696
 31
0.0
  0
LINE
  8
0
 62
     0
 10
208.022
 20
136.696
 30
0.0
 11
207.772
 21
137.185
 31
0.0
  0
LINE
  8
0
 62
     0
 10
207.772
 20
137.185
 30
0.0
 11
207.385
 21
137.571
 31
0.0
  0
LINE
  8
0
 62
     0
 10
207.385
 20
137.571
 30
0.0
 11
206.897
 21
137.82
 31
0.0
  0
LINE
  8
0
 62
     0
 10
206.897
 20
137.82
 30
0.0
 11
206.357
 21
137.906
 31
0.0
  0
LINE
  8
0
 62
     0
 10
206.357
 20
137.906
 30
0.0
 11
205.817
 21
137.82
 31
0.0
  0
LINE
  8
0
 62
     0
 10
306.448
 20
137.82
 30
0.0
 11
305.96
 21
137.571
 31
0.0
  0
LINE
  8
0
 62
     0
 10
305.96
 20
137.571
 30
0.0
 11
305.573
 21
137.185
 31
0.0
  0
LINE
  8
0
 62
     0
 10
305.573
 20
137.185
 30
0.0
 11
305.325
 21
136.696
 31
0.0
  0
LINE
  8
0
 62
     0
 10
305.325
 20
136.696
 30
0.0
 11
305.238
 21
136.156
 31
0.0
  0
LINE
  8
0
 62
     0
 10
305.238
 20
136.156
 30
0.0
 11
305.325
 21
135.616
 31
0.0
  0
LINE
  8
0
 62
     0
 10
305.325
 20
135.616
 30
0.0
 11
305.573
 21
135.128
 31
0.0
  0
LINE
  8
0
 62
     0
 10
305.573
 20
135.128
 30
0.0
 11
305.96
 21
134.74
 31
0.0
  0
LINE
  8
0
 62
     0
 10
305.96
 20
134.74
 30
0.0
 11
306.448
 21
134.491
 31
0.0
  0
LINE
  8
0
 62
     0
 10
306.448
 20
134.491
 30
0.0
 11
306.988
 21
134.406
 31
0.0
  0
LINE
  8
0
 62
     0
 10
306.988
 20
134.406
 30
0.0
 11
307.53
 21
134.491
 31
0.0
  0
LINE
  8
0
 62
     0
 10
307.53
 20
134.491
 30
0.0
 11
308.018
 21
134.74
 31
0.0
  0
LINE
  8
0
 62
     0
 10
308.018
 20
134.74
 30
0.0
 11
308.405
 21
135.128
 31
0.0
  0
LINE
  8
0
 62
     0
 10
308.405
 20
135.128
 30
0.0
 11
308.653
 21
135.616
 31
0.0
  0
LINE
  8
0
 62
     0
 10
308.653
 20
135.616
 30
0.0
 11
308.738
 21
136.156
 31
0.0
  0
LINE
  8
0
 62
     0
 10
308.738
 20
136.156
 30
0.0
 11
308.653
 21
136.696
 31
0.0
  0
LINE
  8
0
 62
     0
 10
308.653
 20
136.696
 30
0.0
 11
308.405
 21
137.185
 31
0.0
  0
LINE
  8
0
 62
     0
 10
308.405
 20
137.185
 30
0.0
 11
308.018
 21
137.571
 31
0.0
  0
LINE
  8
0
 62
     0
 10
308.018
 20
137.571
 30
0.0
 11
307.53
 21
137.82
 31
0.0
  0
LINE
  8
0
 62
     0
 10
307.53
 20
137.82
 30
0.0
 11
306.988
 21
137.906
 31
0.0
  0
LINE
  8
0
 62
     0
 10
306.988
 20
137.906
 30
0.0
 11
306.448
 21
137.82
 31
0.0
  0
LINE
  8
0
 62
     0
 10
407.081
 20
137.82
 30
0.0
 11
406.591
 21
137.571
 31
0.0
  0
LINE
  8
0
 62
     0
 10
406.591
 20
137.571
 30
0.0
 11
406.206
 21
137.185
 31
0.0
  0
LINE
  8
0
 62
     0
 10
406.206
 20
137.185
 30
0.0
 11
405.955
 21
136.696
 31
0.0
  0
LINE
  8
0
 62
     0
 10
405.955
 20
136.696
 30
0.0
 11
405.871
 21
136.156
 31
0.0
  0
LINE
  8
0
 62
     0
 10
405.871
 20
136.156
 30
0.0
 11
405.955
 21
135.616
 31
0.0
  0
LINE
  8
0
 62
     0
 10
405.955
 20
135.616
 30
0.0
 11
406.206
 21
135.128
 31
0.0
  0
LINE
  8
0
 62
     0
 10
406.206
 20
135.128
 30
0.0
 11
406.591
 21
134.74
 31
0.0
  0
LINE
  8
0
 62
     0
 10
406.591
 20
134.74
 30
0.0
 11
407.081
 21
134.491
 31
0.0
  0
LINE
  8
0
 62
     0
 10
407.081
 20
134.491
 30
0.0
 11
407.621
 21
134.406
 31
0.0
  0
LINE
  8
0
 62
     0
 10
407.621
 20
134.406
 30
0.0
 11
408.16
 21
134.491
 31
0.0
  0
LINE
  8
0
 62
     0
 10
408.16
 20
134.491
 30
0.0
 11
408.651
 21
134.74
 31
0.0
  0
LINE
  8
0
 62
     0
 10
408.651
 20
134.74
 30
0.0
 11
409.035
 21
135.128
 31
0.0
  0
LINE
  8
0
 62
     0
 10
409.035
 20
135.128
 30
0.0
 11
409.286
 21
135.616
 31
0.0
  0
LINE
  8
0
 62
     0
 10
409.286
 20
135.616
 30
0.0
 11
409.37
 21
136.156
 31
0.0
  0
LINE
  8
0
 62
     0
 10
409.37
 20
136.156
 30
0.0
 11
409.286
 21
136.696
 31
0.0
  0
LINE
  8
0
 62
     0
 10
409.286
 20
136.696
 30
0.0
 11
409.035
 21
137.185
 31
0.0
  0
LINE
  8
0
 62
     0
 10
409.035
 20
137.185
 30
0.0
 11
408.651
 21
137.571
 31
0.0
  0
LINE
  8
0
 62
     0
 10
408.651
 20
137.571
 30
0.0
 11
408.16
 21
137.82
 31
0.0
  0
LINE
  8
0
 62
     0
 10
408.16
 20
137.82
 30
0.0
 11
407.621
 21
137.906
 31
0.0
  0
LINE
  8
0
 62
     0
 10
407.621
 20
137.906
 30
0.0
 11
407.081
 21
137.82
 31
0.0
  0
LINE
  8
0
 62
     0
 10
4.55443
 20
137.82
 30
0.0
 11
4.0652
 21
137.571
 31
0.0
  0
LINE
  8
0
 62
     0
 10
4.0652
 20
137.571
 30
0.0
 11
3.67937
 21
137.185
 31
0.0
  0
LINE
  8
0
 62
     0
 10
3.67937
 20
137.185
 30
0.0
 11
3.42994
 21
136.696
 31
0.0
  0
LINE
  8
0
 62
     0
 10
3.42994
 20
136.696
 30
0.0
 11
3.34312
 21
136.156
 31
0.0
  0
LINE
  8
0
 62
     0
 10
3.34312
 20
136.156
 30
0.0
 11
3.42994
 21
135.616
 31
0.0
  0
LINE
  8
0
 62
     0
 10
3.42994
 20
135.616
 30
0.0
 11
3.67937
 21
135.128
 31
0.0
  0
LINE
  8
0
 62
     0
 10
3.67937
 20
135.128
 30
0.0
 11
4.0652
 21
134.74
 31
0.0
  0
LINE
  8
0
 62
     0
 10
4.0652
 20
134.74
 30
0.0
 11
4.55443
 21
134.491
 31
0.0
  0
LINE
  8
0
 62
     0
 10
4.55443
 20
134.491
 30
0.0
 11
5.09323
 21
134.406
 31
0.0
  0
LINE
  8
0
 62
     0
 10
5.09323
 20
134.406
 30
0.0
 11
5.63481
 21
134.491
 31
0.0
  0
LINE
  8
0
 62
     0
 10
5.63481
 20
134.491
 30
0.0
 11
6.12263
 21
134.74
 31
0.0
  0
LINE
  8
0
 62
     0
 10
6.12263
 20
134.74
 30
0.0
 11
6.50984
 21
135.128
 31
0.0
  0
LINE
  8
0
 62
     0
 10
6.50984
 20
135.128
 30
0.0
 11
6.75929
 21
135.616
 31
0.0
  0
LINE
  8
0
 62
     0
 10
6.75929
 20
135.616
 30
0.0
 11
6.84332
 21
136.156
 31
0.0
  0
LINE
  8
0
 62
     0
 10
6.84332
 20
136.156
 30
0.0
 11
6.75929
 21
136.696
 31
0.0
  0
LINE
  8
0
 62
     0
 10
6.75929
 20
136.696
 30
0.0
 11
6.50984
 21
137.185
 31
0.0
  0
LINE
  8
0
 62
     0
 10
6.50984
 20
137.185
 30
0.0
 11
6.12263
 21
137.571
 31
0.0
  0
LINE
  8
0
 62
     0
 10
6.12263
 20
137.571
 30
0.0
 11
5.63481
 21
137.82
 31
0.0
  0
LINE
  8
0
 62
     0
 10
5.63481
 20
137.82
 30
0.0
 11
5.09323
 21
137.906
 31
0.0
  0
LINE
  8
0
 62
     0
 10
5.09323
 20
137.906
 30
0.0
 11
4.55443
 21
137.82
 31
0.0
  0
ENDSEC
  0
EOF
