  0
SECTION
  2
HEADER
  9
$ANGBASE
  50
0.0
  9
$ANGDIR
  70
  1
  9
$MEASUREMENT
  70
0
  0
ENDSEC
  0
SECTION
  2
TABLES
  0
TABLE
  2
LTYPE
  70
4
  0
LTYPE
  5
40F
  2
CONTINUOUS
  70
0
  3
Solid line
  72
65
  73
0
  40
0.0
  0
LTYPE
  5
410
  2
DASHDOT
 70
0
  3
Dash Dot ____ _ ____ _
 72
65
 73
4
 40
2.0
 49
1.25
 49
-0.25
 49
0.25
 49
-0.25
  0
LTYPE
  5
411
  2
DASHED
 70
0
  3
Dashed __ __ __ __ __
 72
65
 73
2
 40
0.75
 49
0.5
 49
-0.25
  0
LTYPE
  5
43B
  2
DOTTED
 70
0
  3
Dotted .  .  .  .
 72
65
 73
2
 40
0.2
 49
0.0
 49
-0.2
  0
ENDTAB
  0
TABLE
  2
STYLE
  70
4
  0
STYLE
  2
KICAD
  70
0
  40
0
  41
1
  42
1
  50
0
  71
0
  3
isocp.shx
  0
STYLE
  2
KICADB
  70
0
  40
0
  41
1
  42
1
  50
0
  71
0
  3
isocp.shx
  0
STYLE
  2
KICADI
  70
0
  40
0
  41
1
  42
1
  50
15
  71
0
  3
isocp.shx
  0
STYLE
  2
KICADBI
  70
0
  40
0
  41
1
  42
1
  50
15
  71
0
  3
isocp.shx
  0
ENDTAB
  0
TABLE
  2
LAYER
  70
30
  0
LAYER
  2
BLACK
  70
0
  62
7
  6
CONTINUOUS
  0
LAYER
  2
GRAY1
  70
0
  62
251
  6
CONTINUOUS
  0
LAYER
  2
GRAY2
  70
0
  62
8
  6
CONTINUOUS
  0
LAYER
  2
GRAY3
  70
0
  62
9
  6
CONTINUOUS
  0
LAYER
  2
WHITE
  70
0
  62
7
  6
CONTINUOUS
  0
LAYER
  2
LYELLOW
  70
0
  62
51
  6
CONTINUOUS
  0
LAYER
  2
BLUE1
  70
0
  62
178
  6
CONTINUOUS
  0
LAYER
  2
GREEN1
  70
0
  62
98
  6
CONTINUOUS
  0
LAYER
  2
CYAN1
  70
0
  62
138
  6
CONTINUOUS
  0
LAYER
  2
RED1
  70
0
  62
18
  6
CONTINUOUS
  0
LAYER
  2
MAGENTA1
  70
0
  62
228
  6
CONTINUOUS
  0
LAYER
  2
BROWN1
  70
0
  62
58
  6
CONTINUOUS
  0
LAYER
  2
BLUE2
  70
0
  62
5
  6
CONTINUOUS
  0
LAYER
  2
GREEN2
  70
0
  62
3
  6
CONTINUOUS
  0
LAYER
  2
CYAN2
  70
0
  62
4
  6
CONTINUOUS
  0
LAYER
  2
RED2
  70
0
  62
1
  6
CONTINUOUS
  0
LAYER
  2
MAGENTA2
  70
0
  62
6
  6
CONTINUOUS
  0
LAYER
  2
BROWN2
  70
0
  62
54
  6
CONTINUOUS
  0
LAYER
  2
BLUE3
  70
0
  62
171
  6
CONTINUOUS
  0
LAYER
  2
GREEN3
  70
0
  62
91
  6
CONTINUOUS
  0
LAYER
  2
CYAN3
  70
0
  62
131
  6
CONTINUOUS
  0
LAYER
  2
RED3
  70
0
  62
11
  6
CONTINUOUS
  0
LAYER
  2
MAGENTA3
  70
0
  62
221
  6
CONTINUOUS
  0
LAYER
  2
YELLOW3
  70
0
  62
2
  6
CONTINUOUS
  0
LAYER
  2
BLUE4
  70
0
  62
5
  6
CONTINUOUS
  0
LAYER
  2
GREEN4
  70
0
  62
3
  6
CONTINUOUS
  0
LAYER
  2
CYAN4
  70
0
  62
4
  6
CONTINUOUS
  0
LAYER
  2
RED4
  70
0
  62
1
  6
CONTINUOUS
  0
LAYER
  2
MAGENTA4
  70
0
  62
6
  6
CONTINUOUS
  0
LAYER
  2
YELLOW4
  70
0
  62
2
  6
CONTINUOUS
  0
ENDTAB
  0
ENDSEC
  0
SECTION
  2
ENTITIES
0
LINE
8
BLACK
6
CONTINUOUS
10
382.56
20
115.035
11
382.562
21
115.034
0
LINE
8
BLACK
6
CONTINUOUS
10
382.562
20
115.034
11
382.564
21
115.033
0
LINE
8
BLACK
6
CONTINUOUS
10
382.564
20
115.033
11
382.995
21
114.804
0
LINE
8
BLACK
6
CONTINUOUS
10
382.995
20
114.804
11
382.995
21
114.804
0
LINE
8
BLACK
6
CONTINUOUS
10
382.995
20
114.804
11
382.995
21
114.804
0
LINE
8
BLACK
6
CONTINUOUS
10
382.995
20
114.804
11
382.996
21
114.804
0
LINE
8
BLACK
6
CONTINUOUS
10
382.996
20
114.804
11
382.997
21
114.803
0
LINE
8
BLACK
6
CONTINUOUS
10
382.997
20
114.803
11
382.999
21
114.802
0
LINE
8
BLACK
6
CONTINUOUS
10
382.999
20
114.802
11
383.377
21
114.493
0
LINE
8
BLACK
6
CONTINUOUS
10
383.377
20
114.493
11
383.377
21
114.493
0
LINE
8
BLACK
6
CONTINUOUS
10
383.377
20
114.493
11
383.377
21
114.493
0
LINE
8
BLACK
6
CONTINUOUS
10
383.377
20
114.493
11
383.378
21
114.493
0
LINE
8
BLACK
6
CONTINUOUS
10
383.378
20
114.493
11
383.379
21
114.491
0
LINE
8
BLACK
6
CONTINUOUS
10
383.379
20
114.491
11
383.381
21
114.49
0
LINE
8
BLACK
6
CONTINUOUS
10
383.381
20
114.49
11
383.692
21
114.114
0
LINE
8
BLACK
6
CONTINUOUS
10
383.692
20
114.114
11
383.692
21
114.114
0
LINE
8
BLACK
6
CONTINUOUS
10
383.692
20
114.114
11
383.692
21
114.114
0
LINE
8
BLACK
6
CONTINUOUS
10
383.692
20
114.114
11
383.692
21
114.114
0
LINE
8
BLACK
6
CONTINUOUS
10
383.692
20
114.114
11
383.693
21
114.112
0
LINE
8
BLACK
6
CONTINUOUS
10
383.693
20
114.112
11
383.695
21
114.11
0
LINE
8
BLACK
6
CONTINUOUS
10
383.695
20
114.11
11
383.927
21
113.681
0
LINE
8
BLACK
6
CONTINUOUS
10
383.927
20
113.681
11
383.927
21
113.68
0
LINE
8
BLACK
6
CONTINUOUS
10
383.927
20
113.68
11
383.928
21
113.678
0
LINE
8
BLACK
6
CONTINUOUS
10
383.928
20
113.678
11
383.929
21
113.676
0
LINE
8
BLACK
6
CONTINUOUS
10
383.929
20
113.676
11
384.073
21
113.21
0
LINE
8
BLACK
6
CONTINUOUS
10
384.073
20
113.21
11
384.073
21
113.21
0
LINE
8
BLACK
6
CONTINUOUS
10
384.073
20
113.21
11
384.073
21
113.208
0
LINE
8
BLACK
6
CONTINUOUS
10
384.073
20
113.208
11
384.074
21
113.205
0
LINE
8
BLACK
6
CONTINUOUS
10
384.074
20
113.205
11
384.125
21
112.72
0
LINE
8
BLACK
6
CONTINUOUS
10
384.125
20
112.72
11
384.125
21
112.72
0
LINE
8
BLACK
6
CONTINUOUS
10
384.125
20
112.72
11
384.125
21
112.719
0
LINE
8
BLACK
6
CONTINUOUS
10
384.125
20
112.719
11
384.125
21
112.718
0
LINE
8
BLACK
6
CONTINUOUS
10
384.125
20
112.718
11
384.125
21
112.701
0
LINE
8
BLACK
6
CONTINUOUS
10
384.125
20
112.701
11
384.125
21
112.701
0
LINE
8
BLACK
6
CONTINUOUS
10
384.125
20
112.701
11
384.125
21
-6.20122
0
LINE
8
BLACK
6
CONTINUOUS
10
384.125
20
-6.20122
11
384.125
21
-6.20242
0
LINE
8
BLACK
6
CONTINUOUS
10
384.125
20
-6.20242
11
384.125
21
-6.20244
0
LINE
8
BLACK
6
CONTINUOUS
10
384.125
20
-6.20244
11
384.077
21
-6.68803
0
LINE
8
BLACK
6
CONTINUOUS
10
384.077
20
-6.68803
11
384.077
21
-6.68837
0
LINE
8
BLACK
6
CONTINUOUS
10
384.077
20
-6.68837
11
384.077
21
-6.69061
0
LINE
8
BLACK
6
CONTINUOUS
10
384.077
20
-6.69061
11
384.076
21
-6.69281
0
LINE
8
BLACK
6
CONTINUOUS
10
384.076
20
-6.69281
11
383.935
21
-7.1599
0
LINE
8
BLACK
6
CONTINUOUS
10
383.935
20
-7.1599
11
383.935
21
-7.16023
0
LINE
8
BLACK
6
CONTINUOUS
10
383.935
20
-7.16023
11
383.934
21
-7.16234
0
LINE
8
BLACK
6
CONTINUOUS
10
383.934
20
-7.16234
11
383.933
21
-7.16441
0
LINE
8
BLACK
6
CONTINUOUS
10
383.933
20
-7.16441
11
383.704
21
-7.59522
0
LINE
8
BLACK
6
CONTINUOUS
10
383.704
20
-7.59522
11
383.704
21
-7.59552
0
LINE
8
BLACK
6
CONTINUOUS
10
383.704
20
-7.59552
11
383.703
21
-7.59741
0
LINE
8
BLACK
6
CONTINUOUS
10
383.703
20
-7.59741
11
383.702
21
-7.59928
0
LINE
8
BLACK
6
CONTINUOUS
10
383.702
20
-7.59928
11
383.393
21
-7.97739
0
LINE
8
BLACK
6
CONTINUOUS
10
383.393
20
-7.97739
11
383.393
21
-7.97766
0
LINE
8
BLACK
6
CONTINUOUS
10
383.393
20
-7.97766
11
383.391
21
-7.97925
0
LINE
8
BLACK
6
CONTINUOUS
10
383.391
20
-7.97925
11
383.39
21
-7.98085
0
LINE
8
BLACK
6
CONTINUOUS
10
383.39
20
-7.98085
11
383.014
21
-8.29186
0
LINE
8
BLACK
6
CONTINUOUS
10
383.014
20
-8.29186
11
383.014
21
-8.29208
0
LINE
8
BLACK
6
CONTINUOUS
10
383.014
20
-8.29208
11
383.012
21
-8.29333
0
LINE
8
BLACK
6
CONTINUOUS
10
383.012
20
-8.29333
11
383.01
21
-8.29458
0
LINE
8
BLACK
6
CONTINUOUS
10
383.01
20
-8.29458
11
382.581
21
-8.52665
0
LINE
8
BLACK
6
CONTINUOUS
10
382.581
20
-8.52665
11
382.58
21
-8.52681
0
LINE
8
BLACK
6
CONTINUOUS
10
382.58
20
-8.52681
11
382.578
21
-8.52767
0
LINE
8
BLACK
6
CONTINUOUS
10
382.578
20
-8.52767
11
382.576
21
-8.52854
0
LINE
8
BLACK
6
CONTINUOUS
10
382.576
20
-8.52854
11
382.11
21
-8.67282
0
LINE
8
BLACK
6
CONTINUOUS
10
382.11
20
-8.67282
11
382.11
21
-8.67292
0
LINE
8
BLACK
6
CONTINUOUS
10
382.11
20
-8.67292
11
382.108
21
-8.67335
0
LINE
8
BLACK
6
CONTINUOUS
10
382.108
20
-8.67335
11
382.105
21
-8.6738
0
LINE
8
BLACK
6
CONTINUOUS
10
382.105
20
-8.6738
11
381.62
21
-8.7248
0
LINE
8
BLACK
6
CONTINUOUS
10
381.62
20
-8.7248
11
381.62
21
-8.72484
0
LINE
8
BLACK
6
CONTINUOUS
10
381.62
20
-8.72484
11
381.619
21
-8.72483
0
LINE
8
BLACK
6
CONTINUOUS
10
381.619
20
-8.72483
11
381.618
21
-8.72494
0
LINE
8
BLACK
6
CONTINUOUS
10
381.618
20
-8.72494
11
381.601
21
-8.725
0
LINE
8
BLACK
6
CONTINUOUS
10
381.601
20
-8.725
11
381.601
21
-8.725
0
LINE
8
BLACK
6
CONTINUOUS
10
381.601
20
-8.725
11
381.6
21
-8.725
0
LINE
8
BLACK
6
CONTINUOUS
10
381.6
20
-8.725
11
-8.70122
21
-8.625
0
LINE
8
BLACK
6
CONTINUOUS
10
-8.70122
20
-8.625
11
-8.70242
21
-8.62488
0
LINE
8
BLACK
6
CONTINUOUS
10
-8.70242
20
-8.62488
11
-8.70244
21
-8.62488
0
LINE
8
BLACK
6
CONTINUOUS
10
-8.70244
20
-8.62488
11
-9.18803
21
-8.57727
0
LINE
8
BLACK
6
CONTINUOUS
10
-9.18803
20
-8.57727
11
-9.18837
21
-8.57723
0
LINE
8
BLACK
6
CONTINUOUS
10
-9.18837
20
-8.57723
11
-9.19061
21
-8.57676
0
LINE
8
BLACK
6
CONTINUOUS
10
-9.19061
20
-8.57676
11
-9.19281
21
-8.57632
0
LINE
8
BLACK
6
CONTINUOUS
10
-9.19281
20
-8.57632
11
-9.6599
21
-8.4353
0
LINE
8
BLACK
6
CONTINUOUS
10
-9.6599
20
-8.4353
11
-9.66024
21
-8.4352
0
LINE
8
BLACK
6
CONTINUOUS
10
-9.66024
20
-8.4352
11
-9.66234
21
-8.43429
0
LINE
8
BLACK
6
CONTINUOUS
10
-9.66234
20
-8.43429
11
-9.66441
21
-8.43344
0
LINE
8
BLACK
6
CONTINUOUS
10
-9.66441
20
-8.43344
11
-10.0952
21
-8.20438
0
LINE
8
BLACK
6
CONTINUOUS
10
-10.0952
20
-8.20438
11
-10.0955
21
-8.20421
0
LINE
8
BLACK
6
CONTINUOUS
10
-10.0955
20
-8.20421
11
-10.0974
21
-8.20292
0
LINE
8
BLACK
6
CONTINUOUS
10
-10.0974
20
-8.20292
11
-10.0993
21
-8.20168
0
LINE
8
BLACK
6
CONTINUOUS
10
-10.0993
20
-8.20168
11
-10.4774
21
-7.8933
0
LINE
8
BLACK
6
CONTINUOUS
10
-10.4774
20
-7.8933
11
-10.4777
21
-7.89308
0
LINE
8
BLACK
6
CONTINUOUS
10
-10.4777
20
-7.89308
11
-10.4792
21
-7.89145
0
LINE
8
BLACK
6
CONTINUOUS
10
-10.4792
20
-7.89145
11
-10.4808
21
-7.88986
0
LINE
8
BLACK
6
CONTINUOUS
10
-10.4808
20
-7.88986
11
-10.7919
21
-7.51392
0
LINE
8
BLACK
6
CONTINUOUS
10
-10.7919
20
-7.51392
11
-10.7921
21
-7.51365
0
LINE
8
BLACK
6
CONTINUOUS
10
-10.7921
20
-7.51365
11
-10.7933
21
-7.51174
0
LINE
8
BLACK
6
CONTINUOUS
10
-10.7933
20
-7.51174
11
-10.7946
21
-7.50987
0
LINE
8
BLACK
6
CONTINUOUS
10
-10.7946
20
-7.50987
11
-11.0266
21
-7.08068
0
LINE
8
BLACK
6
CONTINUOUS
10
-11.0266
20
-7.08068
11
-11.0268
21
-7.08037
0
LINE
8
BLACK
6
CONTINUOUS
10
-11.0268
20
-7.08037
11
-11.0277
21
-7.07825
0
LINE
8
BLACK
6
CONTINUOUS
10
-11.0277
20
-7.07825
11
-11.0285
21
-7.07618
0
LINE
8
BLACK
6
CONTINUOUS
10
-11.0285
20
-7.07618
11
-11.1728
21
-6.61009
0
LINE
8
BLACK
6
CONTINUOUS
10
-11.1728
20
-6.61009
11
-11.1729
21
-6.60975
0
LINE
8
BLACK
6
CONTINUOUS
10
-11.1729
20
-6.60975
11
-11.1733
21
-6.60752
0
LINE
8
BLACK
6
CONTINUOUS
10
-11.1733
20
-6.60752
11
-11.1738
21
-6.60531
0
LINE
8
BLACK
6
CONTINUOUS
10
-11.1738
20
-6.60531
11
-11.2248
21
-6.12007
0
LINE
8
BLACK
6
CONTINUOUS
10
-11.2248
20
-6.12007
11
-11.2248
21
-6.11972
0
LINE
8
BLACK
6
CONTINUOUS
10
-11.2248
20
-6.11972
11
-11.2248
21
-6.11862
0
LINE
8
BLACK
6
CONTINUOUS
10
-11.2248
20
-6.11862
11
-11.2249
21
-6.11754
0
LINE
8
BLACK
6
CONTINUOUS
10
-11.2249
20
-6.11754
11
-11.225
21
-6.10125
0
LINE
8
BLACK
6
CONTINUOUS
10
-11.225
20
-6.10125
11
-11.225
21
-6.10122
0
LINE
8
BLACK
6
CONTINUOUS
10
-11.225
20
-6.10122
11
-11.225
21
-6.10037
0
LINE
8
BLACK
6
CONTINUOUS
10
-11.225
20
-6.10037
11
-11.225
21
-6.10009
0
LINE
8
BLACK
6
CONTINUOUS
10
-11.225
20
-6.10009
11
-11.225
21
-6.09974
0
LINE
8
BLACK
6
CONTINUOUS
10
-11.225
20
-6.09974
11
-11.225
21
112.701
0
LINE
8
BLACK
6
CONTINUOUS
10
-11.225
20
112.701
11
-11.2249
21
112.702
0
LINE
8
BLACK
6
CONTINUOUS
10
-11.2249
20
112.702
11
-11.2249
21
112.702
0
LINE
8
BLACK
6
CONTINUOUS
10
-11.2249
20
112.702
11
-11.1773
21
113.188
0
LINE
8
BLACK
6
CONTINUOUS
10
-11.1773
20
113.188
11
-11.1772
21
113.188
0
LINE
8
BLACK
6
CONTINUOUS
10
-11.1772
20
113.188
11
-11.1768
21
113.191
0
LINE
8
BLACK
6
CONTINUOUS
10
-11.1768
20
113.191
11
-11.1763
21
113.193
0
LINE
8
BLACK
6
CONTINUOUS
10
-11.1763
20
113.193
11
-11.0353
21
113.66
0
LINE
8
BLACK
6
CONTINUOUS
10
-11.0353
20
113.66
11
-11.0352
21
113.66
0
LINE
8
BLACK
6
CONTINUOUS
10
-11.0352
20
113.66
11
-11.0343
21
113.662
0
LINE
8
BLACK
6
CONTINUOUS
10
-11.0343
20
113.662
11
-11.0334
21
113.664
0
LINE
8
BLACK
6
CONTINUOUS
10
-11.0334
20
113.664
11
-10.8044
21
114.095
0
LINE
8
BLACK
6
CONTINUOUS
10
-10.8044
20
114.095
11
-10.8044
21
114.095
0
LINE
8
BLACK
6
CONTINUOUS
10
-10.8044
20
114.095
11
-10.8044
21
114.095
0
LINE
8
BLACK
6
CONTINUOUS
10
-10.8044
20
114.095
11
-10.8042
21
114.096
0
LINE
8
BLACK
6
CONTINUOUS
10
-10.8042
20
114.096
11
-10.8029
21
114.097
0
LINE
8
BLACK
6
CONTINUOUS
10
-10.8029
20
114.097
11
-10.8017
21
114.099
0
LINE
8
BLACK
6
CONTINUOUS
10
-10.8017
20
114.099
11
-10.4933
21
114.477
0
LINE
8
BLACK
6
CONTINUOUS
10
-10.4933
20
114.477
11
-10.4933
21
114.477
0
LINE
8
BLACK
6
CONTINUOUS
10
-10.4933
20
114.477
11
-10.4933
21
114.477
0
LINE
8
BLACK
6
CONTINUOUS
10
-10.4933
20
114.477
11
-10.4931
21
114.478
0
LINE
8
BLACK
6
CONTINUOUS
10
-10.4931
20
114.478
11
-10.4915
21
114.479
0
LINE
8
BLACK
6
CONTINUOUS
10
-10.4915
20
114.479
11
-10.4899
21
114.481
0
LINE
8
BLACK
6
CONTINUOUS
10
-10.4899
20
114.481
11
-10.1139
21
114.792
0
LINE
8
BLACK
6
CONTINUOUS
10
-10.1139
20
114.792
11
-10.1139
21
114.792
0
LINE
8
BLACK
6
CONTINUOUS
10
-10.1139
20
114.792
11
-10.1139
21
114.792
0
LINE
8
BLACK
6
CONTINUOUS
10
-10.1139
20
114.792
11
-10.1136
21
114.792
0
LINE
8
BLACK
6
CONTINUOUS
10
-10.1136
20
114.792
11
-10.1117
21
114.793
0
LINE
8
BLACK
6
CONTINUOUS
10
-10.1117
20
114.793
11
-10.1099
21
114.795
0
LINE
8
BLACK
6
CONTINUOUS
10
-10.1099
20
114.795
11
-9.68068
21
115.027
0
LINE
8
BLACK
6
CONTINUOUS
10
-9.68068
20
115.027
11
-9.68037
21
115.027
0
LINE
8
BLACK
6
CONTINUOUS
10
-9.68037
20
115.027
11
-9.67826
21
115.028
0
LINE
8
BLACK
6
CONTINUOUS
10
-9.67826
20
115.028
11
-9.67618
21
115.029
0
LINE
8
BLACK
6
CONTINUOUS
10
-9.67618
20
115.029
11
-9.21009
21
115.173
0
LINE
8
BLACK
6
CONTINUOUS
10
-9.21009
20
115.173
11
-9.20975
21
115.173
0
LINE
8
BLACK
6
CONTINUOUS
10
-9.20975
20
115.173
11
-9.20752
21
115.173
0
LINE
8
BLACK
6
CONTINUOUS
10
-9.20752
20
115.173
11
-9.20531
21
115.174
0
LINE
8
BLACK
6
CONTINUOUS
10
-9.20531
20
115.174
11
-8.72007
21
115.225
0
LINE
8
BLACK
6
CONTINUOUS
10
-8.72007
20
115.225
11
-8.71972
21
115.225
0
LINE
8
BLACK
6
CONTINUOUS
10
-8.71972
20
115.225
11
-8.71862
21
115.225
0
LINE
8
BLACK
6
CONTINUOUS
10
-8.71862
20
115.225
11
-8.71754
21
115.225
0
LINE
8
BLACK
6
CONTINUOUS
10
-8.71754
20
115.225
11
-8.70126
21
115.225
0
LINE
8
BLACK
6
CONTINUOUS
10
-8.70126
20
115.225
11
-8.70122
21
115.225
0
LINE
8
BLACK
6
CONTINUOUS
10
-8.70122
20
115.225
11
381.601
21
115.225
0
LINE
8
BLACK
6
CONTINUOUS
10
381.601
20
115.225
11
381.602
21
115.225
0
LINE
8
BLACK
6
CONTINUOUS
10
381.602
20
115.225
11
381.602
21
115.225
0
LINE
8
BLACK
6
CONTINUOUS
10
381.602
20
115.225
11
382.088
21
115.177
0
LINE
8
BLACK
6
CONTINUOUS
10
382.088
20
115.177
11
382.088
21
115.177
0
LINE
8
BLACK
6
CONTINUOUS
10
382.088
20
115.177
11
382.091
21
115.177
0
LINE
8
BLACK
6
CONTINUOUS
10
382.091
20
115.177
11
382.093
21
115.176
0
LINE
8
BLACK
6
CONTINUOUS
10
382.093
20
115.176
11
382.56
21
115.035
0
LINE
8
BLACK
6
CONTINUOUS
10
382.56
20
115.035
11
382.56
21
115.035
0
LINE
8
BLACK
6
CONTINUOUS
10
382.56
20
115.035
11
382.56
21
115.035
0
LINE
8
BLACK
6
CONTINUOUS
10
-8.69991
20
115.175
11
-8.7161
21
115.175
0
LINE
8
BLACK
6
CONTINUOUS
10
-8.7161
20
115.175
11
-9.19764
21
115.124
0
LINE
8
BLACK
6
CONTINUOUS
10
-9.19764
20
115.124
11
-9.65906
21
114.981
0
LINE
8
BLACK
6
CONTINUOUS
10
-9.65906
20
114.981
11
-10.0839
21
114.752
0
LINE
8
BLACK
6
CONTINUOUS
10
-10.0839
20
114.752
11
-10.4561
21
114.444
0
LINE
8
BLACK
6
CONTINUOUS
10
-10.4561
20
114.444
11
-10.7614
21
114.07
0
LINE
8
BLACK
6
CONTINUOUS
10
-10.7614
20
114.07
11
-10.9881
21
113.643
0
LINE
8
BLACK
6
CONTINUOUS
10
-10.9881
20
113.643
11
-11.1277
21
113.181
0
LINE
8
BLACK
6
CONTINUOUS
10
-11.1277
20
113.181
11
-11.175
21
112.699
0
LINE
8
BLACK
6
CONTINUOUS
10
-11.175
20
112.699
11
-11.175
21
-6.09991
0
LINE
8
BLACK
6
CONTINUOUS
10
-11.175
20
-6.09991
11
-11.1749
21
-6.1161
0
LINE
8
BLACK
6
CONTINUOUS
10
-11.1749
20
-6.1161
11
-11.1243
21
-6.59764
0
LINE
8
BLACK
6
CONTINUOUS
10
-11.1243
20
-6.59764
11
-10.9815
21
-7.05905
0
LINE
8
BLACK
6
CONTINUOUS
10
-10.9815
20
-7.05905
11
-10.7518
21
-7.48393
0
LINE
8
BLACK
6
CONTINUOUS
10
-10.7518
20
-7.48393
11
-10.4439
21
-7.8561
0
LINE
8
BLACK
6
CONTINUOUS
10
-10.4439
20
-7.8561
11
-10.0696
21
-8.16138
0
LINE
8
BLACK
6
CONTINUOUS
10
-10.0696
20
-8.16138
11
-9.64311
21
-8.38814
0
LINE
8
BLACK
6
CONTINUOUS
10
-9.64311
20
-8.38814
11
-9.18071
21
-8.52775
0
LINE
8
BLACK
6
CONTINUOUS
10
-9.18071
20
-8.52775
11
-8.69877
21
-8.575
0
LINE
8
BLACK
6
CONTINUOUS
10
-8.69877
20
-8.575
11
381.6
21
-8.675
0
LINE
8
BLACK
6
CONTINUOUS
10
381.6
20
-8.675
11
381.616
21
-8.67494
0
LINE
8
BLACK
6
CONTINUOUS
10
381.616
20
-8.67494
11
382.098
21
-8.62433
0
LINE
8
BLACK
6
CONTINUOUS
10
382.098
20
-8.62433
11
382.559
21
-8.4815
0
LINE
8
BLACK
6
CONTINUOUS
10
382.559
20
-8.4815
11
382.984
21
-8.25177
0
LINE
8
BLACK
6
CONTINUOUS
10
382.984
20
-8.25177
11
383.356
21
-7.94389
0
LINE
8
BLACK
6
CONTINUOUS
10
383.356
20
-7.94389
11
383.661
21
-7.56958
0
LINE
8
BLACK
6
CONTINUOUS
10
383.661
20
-7.56958
11
383.888
21
-7.14311
0
LINE
8
BLACK
6
CONTINUOUS
10
383.888
20
-7.14311
11
384.028
21
-6.68071
0
LINE
8
BLACK
6
CONTINUOUS
10
384.028
20
-6.68071
11
384.075
21
-6.19877
0
LINE
8
BLACK
6
CONTINUOUS
10
384.075
20
-6.19877
11
384.075
21
112.7
0
LINE
8
BLACK
6
CONTINUOUS
10
384.075
20
112.7
11
384.075
21
112.7
0
LINE
8
BLACK
6
CONTINUOUS
10
384.075
20
112.7
11
384.075
21
112.716
0
LINE
8
BLACK
6
CONTINUOUS
10
384.075
20
112.716
11
384.024
21
113.198
0
LINE
8
BLACK
6
CONTINUOUS
10
384.024
20
113.198
11
383.881
21
113.659
0
LINE
8
BLACK
6
CONTINUOUS
10
383.881
20
113.659
11
383.652
21
114.084
0
LINE
8
BLACK
6
CONTINUOUS
10
383.652
20
114.084
11
383.344
21
114.456
0
LINE
8
BLACK
6
CONTINUOUS
10
383.344
20
114.456
11
382.97
21
114.761
0
LINE
8
BLACK
6
CONTINUOUS
10
382.97
20
114.761
11
382.543
21
114.988
0
LINE
8
BLACK
6
CONTINUOUS
10
382.543
20
114.988
11
382.081
21
115.128
0
LINE
8
BLACK
6
CONTINUOUS
10
382.081
20
115.128
11
381.599
21
115.175
0
LINE
8
BLACK
6
CONTINUOUS
10
381.599
20
115.175
11
-8.69991
21
115.175
  0
ENDSEC
  0
EOF
