  0
SECTION
  2
HEADER
  9
$ANGBASE
  50
0.0
  9
$ANGDIR
  70
  1
  9
$MEASUREMENT
  70
0
  0
ENDSEC
  0
SECTION
  2
TABLES
  0
TABLE
  2
LTYPE
  70
4
  0
LTYPE
  5
40F
  2
CONTINUOUS
  70
0
  3
Solid line
  72
65
  73
0
  40
0.0
  0
LTYPE
  5
410
  2
DASHDOT
 70
0
  3
Dash Dot ____ _ ____ _
 72
65
 73
4
 40
2.0
 49
1.25
 49
-0.25
 49
0.25
 49
-0.25
  0
LTYPE
  5
411
  2
DASHED
 70
0
  3
Dashed __ __ __ __ __
 72
65
 73
2
 40
0.75
 49
0.5
 49
-0.25
  0
LTYPE
  5
43B
  2
DOTTED
 70
0
  3
Dotted .  .  .  .
 72
65
 73
2
 40
0.2
 49
0.0
 49
-0.2
  0
ENDTAB
  0
TABLE
  2
STYLE
  70
4
  0
STYLE
  2
KICAD
  70
0
  40
0
  41
1
  42
1
  50
0
  71
0
  3
isocp.shx
  0
STYLE
  2
KICADB
  70
0
  40
0
  41
1
  42
1
  50
0
  71
0
  3
isocp.shx
  0
STYLE
  2
KICADI
  70
0
  40
0
  41
1
  42
1
  50
15
  71
0
  3
isocp.shx
  0
STYLE
  2
KICADBI
  70
0
  40
0
  41
1
  42
1
  50
15
  71
0
  3
isocp.shx
  0
ENDTAB
  0
TABLE
  2
LAYER
  70
30
  0
LAYER
  2
BLACK
  70
0
  62
7
  6
CONTINUOUS
  0
LAYER
  2
GRAY1
  70
0
  62
251
  6
CONTINUOUS
  0
LAYER
  2
GRAY2
  70
0
  62
8
  6
CONTINUOUS
  0
LAYER
  2
GRAY3
  70
0
  62
9
  6
CONTINUOUS
  0
LAYER
  2
WHITE
  70
0
  62
7
  6
CONTINUOUS
  0
LAYER
  2
LYELLOW
  70
0
  62
51
  6
CONTINUOUS
  0
LAYER
  2
BLUE1
  70
0
  62
178
  6
CONTINUOUS
  0
LAYER
  2
GREEN1
  70
0
  62
98
  6
CONTINUOUS
  0
LAYER
  2
CYAN1
  70
0
  62
138
  6
CONTINUOUS
  0
LAYER
  2
RED1
  70
0
  62
18
  6
CONTINUOUS
  0
LAYER
  2
MAGENTA1
  70
0
  62
228
  6
CONTINUOUS
  0
LAYER
  2
BROWN1
  70
0
  62
58
  6
CONTINUOUS
  0
LAYER
  2
BLUE2
  70
0
  62
5
  6
CONTINUOUS
  0
LAYER
  2
GREEN2
  70
0
  62
3
  6
CONTINUOUS
  0
LAYER
  2
CYAN2
  70
0
  62
4
  6
CONTINUOUS
  0
LAYER
  2
RED2
  70
0
  62
1
  6
CONTINUOUS
  0
LAYER
  2
MAGENTA2
  70
0
  62
6
  6
CONTINUOUS
  0
LAYER
  2
BROWN2
  70
0
  62
54
  6
CONTINUOUS
  0
LAYER
  2
BLUE3
  70
0
  62
171
  6
CONTINUOUS
  0
LAYER
  2
GREEN3
  70
0
  62
91
  6
CONTINUOUS
  0
LAYER
  2
CYAN3
  70
0
  62
131
  6
CONTINUOUS
  0
LAYER
  2
RED3
  70
0
  62
11
  6
CONTINUOUS
  0
LAYER
  2
MAGENTA3
  70
0
  62
221
  6
CONTINUOUS
  0
LAYER
  2
YELLOW3
  70
0
  62
2
  6
CONTINUOUS
  0
LAYER
  2
BLUE4
  70
0
  62
5
  6
CONTINUOUS
  0
LAYER
  2
GREEN4
  70
0
  62
3
  6
CONTINUOUS
  0
LAYER
  2
CYAN4
  70
0
  62
4
  6
CONTINUOUS
  0
LAYER
  2
RED4
  70
0
  62
1
  6
CONTINUOUS
  0
LAYER
  2
MAGENTA4
  70
0
  62
6
  6
CONTINUOUS
  0
LAYER
  2
YELLOW4
  70
0
  62
2
  6
CONTINUOUS
  0
ENDTAB
  0
ENDSEC
  0
SECTION
  2
ENTITIES
0
LINE
8
BLACK
6
CONTINUOUS
10
129.999
20
-4.8298
11
130.046
21
-4.84403
0
LINE
8
BLACK
6
CONTINUOUS
10
130.046
20
-4.84403
11
130.089
21
-4.86713
0
LINE
8
BLACK
6
CONTINUOUS
10
130.089
20
-4.86713
11
130.127
21
-4.89822
0
LINE
8
BLACK
6
CONTINUOUS
10
130.127
20
-4.89822
11
130.158
21
-4.93611
0
LINE
8
BLACK
6
CONTINUOUS
10
130.158
20
-4.93611
11
130.181
21
-4.97933
0
LINE
8
BLACK
6
CONTINUOUS
10
130.181
20
-4.97933
11
130.195
21
-5.02623
0
LINE
8
BLACK
6
CONTINUOUS
10
130.195
20
-5.02623
11
130.2
21
-5.075
0
LINE
8
BLACK
6
CONTINUOUS
10
130.2
20
-5.075
11
130.2
21
-5.725
0
LINE
8
BLACK
6
CONTINUOUS
10
130.2
20
-5.725
11
130.195
21
-5.77377
0
LINE
8
BLACK
6
CONTINUOUS
10
130.195
20
-5.77377
11
130.181
21
-5.82067
0
LINE
8
BLACK
6
CONTINUOUS
10
130.181
20
-5.82067
11
130.158
21
-5.86389
0
LINE
8
BLACK
6
CONTINUOUS
10
130.158
20
-5.86389
11
130.127
21
-5.90178
0
LINE
8
BLACK
6
CONTINUOUS
10
130.127
20
-5.90178
11
130.089
21
-5.93287
0
LINE
8
BLACK
6
CONTINUOUS
10
130.089
20
-5.93287
11
130.046
21
-5.95597
0
LINE
8
BLACK
6
CONTINUOUS
10
130.046
20
-5.95597
11
129.999
21
-5.9702
0
LINE
8
BLACK
6
CONTINUOUS
10
129.999
20
-5.9702
11
129.95
21
-5.975
0
LINE
8
BLACK
6
CONTINUOUS
10
129.95
20
-5.975
11
129.05
21
-5.975
0
LINE
8
BLACK
6
CONTINUOUS
10
129.05
20
-5.975
11
129.001
21
-5.9702
0
LINE
8
BLACK
6
CONTINUOUS
10
129.001
20
-5.9702
11
128.954
21
-5.95597
0
LINE
8
BLACK
6
CONTINUOUS
10
128.954
20
-5.95597
11
128.911
21
-5.93287
0
LINE
8
BLACK
6
CONTINUOUS
10
128.911
20
-5.93287
11
128.873
21
-5.90178
0
LINE
8
BLACK
6
CONTINUOUS
10
128.873
20
-5.90178
11
128.842
21
-5.86389
0
LINE
8
BLACK
6
CONTINUOUS
10
128.842
20
-5.86389
11
128.819
21
-5.82067
0
LINE
8
BLACK
6
CONTINUOUS
10
128.819
20
-5.82067
11
128.805
21
-5.77377
0
LINE
8
BLACK
6
CONTINUOUS
10
128.805
20
-5.77377
11
128.8
21
-5.725
0
LINE
8
BLACK
6
CONTINUOUS
10
128.8
20
-5.725
11
128.8
21
-5.075
0
LINE
8
BLACK
6
CONTINUOUS
10
128.8
20
-5.075
11
128.805
21
-5.02623
0
LINE
8
BLACK
6
CONTINUOUS
10
128.805
20
-5.02623
11
128.819
21
-4.97933
0
LINE
8
BLACK
6
CONTINUOUS
10
128.819
20
-4.97933
11
128.842
21
-4.93611
0
LINE
8
BLACK
6
CONTINUOUS
10
128.842
20
-4.93611
11
128.873
21
-4.89822
0
LINE
8
BLACK
6
CONTINUOUS
10
128.873
20
-4.89822
11
128.911
21
-4.86713
0
LINE
8
BLACK
6
CONTINUOUS
10
128.911
20
-4.86713
11
128.954
21
-4.84403
0
LINE
8
BLACK
6
CONTINUOUS
10
128.954
20
-4.84403
11
129.001
21
-4.8298
0
LINE
8
BLACK
6
CONTINUOUS
10
129.001
20
-4.8298
11
129.05
21
-4.825
0
LINE
8
BLACK
6
CONTINUOUS
10
129.05
20
-4.825
11
129.95
21
-4.825
0
LINE
8
BLACK
6
CONTINUOUS
10
129.95
20
-4.825
11
129.999
21
-4.8298
0
LINE
8
BLACK
6
CONTINUOUS
10
141.124
20
-4.0048
11
141.171
21
-4.01903
0
LINE
8
BLACK
6
CONTINUOUS
10
141.171
20
-4.01903
11
141.214
21
-4.04213
0
LINE
8
BLACK
6
CONTINUOUS
10
141.214
20
-4.04213
11
141.252
21
-4.07322
0
LINE
8
BLACK
6
CONTINUOUS
10
141.252
20
-4.07322
11
141.283
21
-4.11111
0
LINE
8
BLACK
6
CONTINUOUS
10
141.283
20
-4.11111
11
141.306
21
-4.15433
0
LINE
8
BLACK
6
CONTINUOUS
10
141.306
20
-4.15433
11
141.32
21
-4.20123
0
LINE
8
BLACK
6
CONTINUOUS
10
141.32
20
-4.20123
11
141.325
21
-4.25
0
LINE
8
BLACK
6
CONTINUOUS
10
141.325
20
-4.25
11
141.325
21
-5.15
0
LINE
8
BLACK
6
CONTINUOUS
10
141.325
20
-5.15
11
141.32
21
-5.19877
0
LINE
8
BLACK
6
CONTINUOUS
10
141.32
20
-5.19877
11
141.306
21
-5.24567
0
LINE
8
BLACK
6
CONTINUOUS
10
141.306
20
-5.24567
11
141.283
21
-5.28889
0
LINE
8
BLACK
6
CONTINUOUS
10
141.283
20
-5.28889
11
141.252
21
-5.32678
0
LINE
8
BLACK
6
CONTINUOUS
10
141.252
20
-5.32678
11
141.214
21
-5.35787
0
LINE
8
BLACK
6
CONTINUOUS
10
141.214
20
-5.35787
11
141.171
21
-5.38097
0
LINE
8
BLACK
6
CONTINUOUS
10
141.171
20
-5.38097
11
141.124
21
-5.3952
0
LINE
8
BLACK
6
CONTINUOUS
10
141.124
20
-5.3952
11
141.075
21
-5.4
0
LINE
8
BLACK
6
CONTINUOUS
10
141.075
20
-5.4
11
140.425
21
-5.4
0
LINE
8
BLACK
6
CONTINUOUS
10
140.425
20
-5.4
11
140.376
21
-5.3952
0
LINE
8
BLACK
6
CONTINUOUS
10
140.376
20
-5.3952
11
140.329
21
-5.38097
0
LINE
8
BLACK
6
CONTINUOUS
10
140.329
20
-5.38097
11
140.286
21
-5.35787
0
LINE
8
BLACK
6
CONTINUOUS
10
140.286
20
-5.35787
11
140.248
21
-5.32678
0
LINE
8
BLACK
6
CONTINUOUS
10
140.248
20
-5.32678
11
140.217
21
-5.28889
0
LINE
8
BLACK
6
CONTINUOUS
10
140.217
20
-5.28889
11
140.194
21
-5.24567
0
LINE
8
BLACK
6
CONTINUOUS
10
140.194
20
-5.24567
11
140.18
21
-5.19877
0
LINE
8
BLACK
6
CONTINUOUS
10
140.18
20
-5.19877
11
140.175
21
-5.15
0
LINE
8
BLACK
6
CONTINUOUS
10
140.175
20
-5.15
11
140.175
21
-4.25
0
LINE
8
BLACK
6
CONTINUOUS
10
140.175
20
-4.25
11
140.18
21
-4.20123
0
LINE
8
BLACK
6
CONTINUOUS
10
140.18
20
-4.20123
11
140.194
21
-4.15433
0
LINE
8
BLACK
6
CONTINUOUS
10
140.194
20
-4.15433
11
140.217
21
-4.11111
0
LINE
8
BLACK
6
CONTINUOUS
10
140.217
20
-4.11111
11
140.248
21
-4.07322
0
LINE
8
BLACK
6
CONTINUOUS
10
140.248
20
-4.07322
11
140.286
21
-4.04213
0
LINE
8
BLACK
6
CONTINUOUS
10
140.286
20
-4.04213
11
140.329
21
-4.01903
0
LINE
8
BLACK
6
CONTINUOUS
10
140.329
20
-4.01903
11
140.376
21
-4.0048
0
LINE
8
BLACK
6
CONTINUOUS
10
140.376
20
-4.0048
11
140.425
21
-4
0
LINE
8
BLACK
6
CONTINUOUS
10
140.425
20
-4
11
141.075
21
-4
0
LINE
8
BLACK
6
CONTINUOUS
10
141.075
20
-4
11
141.124
21
-4.0048
0
LINE
8
BLACK
6
CONTINUOUS
10
143.174
20
-4.0048
11
143.221
21
-4.01903
0
LINE
8
BLACK
6
CONTINUOUS
10
143.221
20
-4.01903
11
143.264
21
-4.04213
0
LINE
8
BLACK
6
CONTINUOUS
10
143.264
20
-4.04213
11
143.302
21
-4.07322
0
LINE
8
BLACK
6
CONTINUOUS
10
143.302
20
-4.07322
11
143.333
21
-4.11111
0
LINE
8
BLACK
6
CONTINUOUS
10
143.333
20
-4.11111
11
143.356
21
-4.15433
0
LINE
8
BLACK
6
CONTINUOUS
10
143.356
20
-4.15433
11
143.37
21
-4.20123
0
LINE
8
BLACK
6
CONTINUOUS
10
143.37
20
-4.20123
11
143.375
21
-4.25
0
LINE
8
BLACK
6
CONTINUOUS
10
143.375
20
-4.25
11
143.375
21
-5.15
0
LINE
8
BLACK
6
CONTINUOUS
10
143.375
20
-5.15
11
143.37
21
-5.19877
0
LINE
8
BLACK
6
CONTINUOUS
10
143.37
20
-5.19877
11
143.356
21
-5.24567
0
LINE
8
BLACK
6
CONTINUOUS
10
143.356
20
-5.24567
11
143.333
21
-5.28889
0
LINE
8
BLACK
6
CONTINUOUS
10
143.333
20
-5.28889
11
143.302
21
-5.32678
0
LINE
8
BLACK
6
CONTINUOUS
10
143.302
20
-5.32678
11
143.264
21
-5.35787
0
LINE
8
BLACK
6
CONTINUOUS
10
143.264
20
-5.35787
11
143.221
21
-5.38097
0
LINE
8
BLACK
6
CONTINUOUS
10
143.221
20
-5.38097
11
143.174
21
-5.3952
0
LINE
8
BLACK
6
CONTINUOUS
10
143.174
20
-5.3952
11
143.125
21
-5.4
0
LINE
8
BLACK
6
CONTINUOUS
10
143.125
20
-5.4
11
142.475
21
-5.4
0
LINE
8
BLACK
6
CONTINUOUS
10
142.475
20
-5.4
11
142.426
21
-5.3952
0
LINE
8
BLACK
6
CONTINUOUS
10
142.426
20
-5.3952
11
142.379
21
-5.38097
0
LINE
8
BLACK
6
CONTINUOUS
10
142.379
20
-5.38097
11
142.336
21
-5.35787
0
LINE
8
BLACK
6
CONTINUOUS
10
142.336
20
-5.35787
11
142.298
21
-5.32678
0
LINE
8
BLACK
6
CONTINUOUS
10
142.298
20
-5.32678
11
142.267
21
-5.28889
0
LINE
8
BLACK
6
CONTINUOUS
10
142.267
20
-5.28889
11
142.244
21
-5.24567
0
LINE
8
BLACK
6
CONTINUOUS
10
142.244
20
-5.24567
11
142.23
21
-5.19877
0
LINE
8
BLACK
6
CONTINUOUS
10
142.23
20
-5.19877
11
142.225
21
-5.15
0
LINE
8
BLACK
6
CONTINUOUS
10
142.225
20
-5.15
11
142.225
21
-4.25
0
LINE
8
BLACK
6
CONTINUOUS
10
142.225
20
-4.25
11
142.23
21
-4.20123
0
LINE
8
BLACK
6
CONTINUOUS
10
142.23
20
-4.20123
11
142.244
21
-4.15433
0
LINE
8
BLACK
6
CONTINUOUS
10
142.244
20
-4.15433
11
142.267
21
-4.11111
0
LINE
8
BLACK
6
CONTINUOUS
10
142.267
20
-4.11111
11
142.298
21
-4.07322
0
LINE
8
BLACK
6
CONTINUOUS
10
142.298
20
-4.07322
11
142.336
21
-4.04213
0
LINE
8
BLACK
6
CONTINUOUS
10
142.336
20
-4.04213
11
142.379
21
-4.01903
0
LINE
8
BLACK
6
CONTINUOUS
10
142.379
20
-4.01903
11
142.426
21
-4.0048
0
LINE
8
BLACK
6
CONTINUOUS
10
142.426
20
-4.0048
11
142.475
21
-4
0
LINE
8
BLACK
6
CONTINUOUS
10
142.475
20
-4
11
143.125
21
-4
0
LINE
8
BLACK
6
CONTINUOUS
10
143.125
20
-4
11
143.174
21
-4.0048
0
LINE
8
BLACK
6
CONTINUOUS
10
148.774
20
-3.9048
11
148.821
21
-3.91903
0
LINE
8
BLACK
6
CONTINUOUS
10
148.821
20
-3.91903
11
148.864
21
-3.94213
0
LINE
8
BLACK
6
CONTINUOUS
10
148.864
20
-3.94213
11
148.902
21
-3.97322
0
LINE
8
BLACK
6
CONTINUOUS
10
148.902
20
-3.97322
11
148.933
21
-4.01111
0
LINE
8
BLACK
6
CONTINUOUS
10
148.933
20
-4.01111
11
148.956
21
-4.05433
0
LINE
8
BLACK
6
CONTINUOUS
10
148.956
20
-4.05433
11
148.97
21
-4.10123
0
LINE
8
BLACK
6
CONTINUOUS
10
148.97
20
-4.10123
11
148.975
21
-4.15
0
LINE
8
BLACK
6
CONTINUOUS
10
148.975
20
-4.15
11
148.975
21
-5.05
0
LINE
8
BLACK
6
CONTINUOUS
10
148.975
20
-5.05
11
148.97
21
-5.09877
0
LINE
8
BLACK
6
CONTINUOUS
10
148.97
20
-5.09877
11
148.956
21
-5.14567
0
LINE
8
BLACK
6
CONTINUOUS
10
148.956
20
-5.14567
11
148.933
21
-5.18889
0
LINE
8
BLACK
6
CONTINUOUS
10
148.933
20
-5.18889
11
148.902
21
-5.22678
0
LINE
8
BLACK
6
CONTINUOUS
10
148.902
20
-5.22678
11
148.864
21
-5.25787
0
LINE
8
BLACK
6
CONTINUOUS
10
148.864
20
-5.25787
11
148.821
21
-5.28097
0
LINE
8
BLACK
6
CONTINUOUS
10
148.821
20
-5.28097
11
148.774
21
-5.2952
0
LINE
8
BLACK
6
CONTINUOUS
10
148.774
20
-5.2952
11
148.725
21
-5.3
0
LINE
8
BLACK
6
CONTINUOUS
10
148.725
20
-5.3
11
148.075
21
-5.3
0
LINE
8
BLACK
6
CONTINUOUS
10
148.075
20
-5.3
11
148.026
21
-5.2952
0
LINE
8
BLACK
6
CONTINUOUS
10
148.026
20
-5.2952
11
147.979
21
-5.28097
0
LINE
8
BLACK
6
CONTINUOUS
10
147.979
20
-5.28097
11
147.936
21
-5.25787
0
LINE
8
BLACK
6
CONTINUOUS
10
147.936
20
-5.25787
11
147.898
21
-5.22678
0
LINE
8
BLACK
6
CONTINUOUS
10
147.898
20
-5.22678
11
147.867
21
-5.18889
0
LINE
8
BLACK
6
CONTINUOUS
10
147.867
20
-5.18889
11
147.844
21
-5.14567
0
LINE
8
BLACK
6
CONTINUOUS
10
147.844
20
-5.14567
11
147.83
21
-5.09877
0
LINE
8
BLACK
6
CONTINUOUS
10
147.83
20
-5.09877
11
147.825
21
-5.05
0
LINE
8
BLACK
6
CONTINUOUS
10
147.825
20
-5.05
11
147.825
21
-4.15
0
LINE
8
BLACK
6
CONTINUOUS
10
147.825
20
-4.15
11
147.83
21
-4.10123
0
LINE
8
BLACK
6
CONTINUOUS
10
147.83
20
-4.10123
11
147.844
21
-4.05433
0
LINE
8
BLACK
6
CONTINUOUS
10
147.844
20
-4.05433
11
147.867
21
-4.01111
0
LINE
8
BLACK
6
CONTINUOUS
10
147.867
20
-4.01111
11
147.898
21
-3.97322
0
LINE
8
BLACK
6
CONTINUOUS
10
147.898
20
-3.97322
11
147.936
21
-3.94213
0
LINE
8
BLACK
6
CONTINUOUS
10
147.936
20
-3.94213
11
147.979
21
-3.91903
0
LINE
8
BLACK
6
CONTINUOUS
10
147.979
20
-3.91903
11
148.026
21
-3.9048
0
LINE
8
BLACK
6
CONTINUOUS
10
148.026
20
-3.9048
11
148.075
21
-3.9
0
LINE
8
BLACK
6
CONTINUOUS
10
148.075
20
-3.9
11
148.725
21
-3.9
0
LINE
8
BLACK
6
CONTINUOUS
10
148.725
20
-3.9
11
148.774
21
-3.9048
0
LINE
8
BLACK
6
CONTINUOUS
10
150.824
20
-3.9048
11
150.871
21
-3.91903
0
LINE
8
BLACK
6
CONTINUOUS
10
150.871
20
-3.91903
11
150.914
21
-3.94213
0
LINE
8
BLACK
6
CONTINUOUS
10
150.914
20
-3.94213
11
150.952
21
-3.97322
0
LINE
8
BLACK
6
CONTINUOUS
10
150.952
20
-3.97322
11
150.983
21
-4.01111
0
LINE
8
BLACK
6
CONTINUOUS
10
150.983
20
-4.01111
11
151.006
21
-4.05433
0
LINE
8
BLACK
6
CONTINUOUS
10
151.006
20
-4.05433
11
151.02
21
-4.10123
0
LINE
8
BLACK
6
CONTINUOUS
10
151.02
20
-4.10123
11
151.025
21
-4.15
0
LINE
8
BLACK
6
CONTINUOUS
10
151.025
20
-4.15
11
151.025
21
-5.05
0
LINE
8
BLACK
6
CONTINUOUS
10
151.025
20
-5.05
11
151.02
21
-5.09877
0
LINE
8
BLACK
6
CONTINUOUS
10
151.02
20
-5.09877
11
151.006
21
-5.14567
0
LINE
8
BLACK
6
CONTINUOUS
10
151.006
20
-5.14567
11
150.983
21
-5.18889
0
LINE
8
BLACK
6
CONTINUOUS
10
150.983
20
-5.18889
11
150.952
21
-5.22678
0
LINE
8
BLACK
6
CONTINUOUS
10
150.952
20
-5.22678
11
150.914
21
-5.25787
0
LINE
8
BLACK
6
CONTINUOUS
10
150.914
20
-5.25787
11
150.871
21
-5.28097
0
LINE
8
BLACK
6
CONTINUOUS
10
150.871
20
-5.28097
11
150.824
21
-5.2952
0
LINE
8
BLACK
6
CONTINUOUS
10
150.824
20
-5.2952
11
150.775
21
-5.3
0
LINE
8
BLACK
6
CONTINUOUS
10
150.775
20
-5.3
11
150.125
21
-5.3
0
LINE
8
BLACK
6
CONTINUOUS
10
150.125
20
-5.3
11
150.076
21
-5.2952
0
LINE
8
BLACK
6
CONTINUOUS
10
150.076
20
-5.2952
11
150.029
21
-5.28097
0
LINE
8
BLACK
6
CONTINUOUS
10
150.029
20
-5.28097
11
149.986
21
-5.25787
0
LINE
8
BLACK
6
CONTINUOUS
10
149.986
20
-5.25787
11
149.948
21
-5.22678
0
LINE
8
BLACK
6
CONTINUOUS
10
149.948
20
-5.22678
11
149.917
21
-5.18889
0
LINE
8
BLACK
6
CONTINUOUS
10
149.917
20
-5.18889
11
149.894
21
-5.14567
0
LINE
8
BLACK
6
CONTINUOUS
10
149.894
20
-5.14567
11
149.88
21
-5.09877
0
LINE
8
BLACK
6
CONTINUOUS
10
149.88
20
-5.09877
11
149.875
21
-5.05
0
LINE
8
BLACK
6
CONTINUOUS
10
149.875
20
-5.05
11
149.875
21
-4.15
0
LINE
8
BLACK
6
CONTINUOUS
10
149.875
20
-4.15
11
149.88
21
-4.10123
0
LINE
8
BLACK
6
CONTINUOUS
10
149.88
20
-4.10123
11
149.894
21
-4.05433
0
LINE
8
BLACK
6
CONTINUOUS
10
149.894
20
-4.05433
11
149.917
21
-4.01111
0
LINE
8
BLACK
6
CONTINUOUS
10
149.917
20
-4.01111
11
149.948
21
-3.97322
0
LINE
8
BLACK
6
CONTINUOUS
10
149.948
20
-3.97322
11
149.986
21
-3.94213
0
LINE
8
BLACK
6
CONTINUOUS
10
149.986
20
-3.94213
11
150.029
21
-3.91903
0
LINE
8
BLACK
6
CONTINUOUS
10
150.029
20
-3.91903
11
150.076
21
-3.9048
0
LINE
8
BLACK
6
CONTINUOUS
10
150.076
20
-3.9048
11
150.125
21
-3.9
0
LINE
8
BLACK
6
CONTINUOUS
10
150.125
20
-3.9
11
150.775
21
-3.9
0
LINE
8
BLACK
6
CONTINUOUS
10
150.775
20
-3.9
11
150.824
21
-3.9048
0
LINE
8
BLACK
6
CONTINUOUS
10
159.599
20
-3.9048
11
159.646
21
-3.91903
0
LINE
8
BLACK
6
CONTINUOUS
10
159.646
20
-3.91903
11
159.689
21
-3.94213
0
LINE
8
BLACK
6
CONTINUOUS
10
159.689
20
-3.94213
11
159.727
21
-3.97322
0
LINE
8
BLACK
6
CONTINUOUS
10
159.727
20
-3.97322
11
159.758
21
-4.01111
0
LINE
8
BLACK
6
CONTINUOUS
10
159.758
20
-4.01111
11
159.781
21
-4.05433
0
LINE
8
BLACK
6
CONTINUOUS
10
159.781
20
-4.05433
11
159.795
21
-4.10123
0
LINE
8
BLACK
6
CONTINUOUS
10
159.795
20
-4.10123
11
159.8
21
-4.15
0
LINE
8
BLACK
6
CONTINUOUS
10
159.8
20
-4.15
11
159.8
21
-5.05
0
LINE
8
BLACK
6
CONTINUOUS
10
159.8
20
-5.05
11
159.795
21
-5.09877
0
LINE
8
BLACK
6
CONTINUOUS
10
159.795
20
-5.09877
11
159.781
21
-5.14567
0
LINE
8
BLACK
6
CONTINUOUS
10
159.781
20
-5.14567
11
159.758
21
-5.18889
0
LINE
8
BLACK
6
CONTINUOUS
10
159.758
20
-5.18889
11
159.727
21
-5.22678
0
LINE
8
BLACK
6
CONTINUOUS
10
159.727
20
-5.22678
11
159.689
21
-5.25787
0
LINE
8
BLACK
6
CONTINUOUS
10
159.689
20
-5.25787
11
159.646
21
-5.28097
0
LINE
8
BLACK
6
CONTINUOUS
10
159.646
20
-5.28097
11
159.599
21
-5.2952
0
LINE
8
BLACK
6
CONTINUOUS
10
159.599
20
-5.2952
11
159.55
21
-5.3
0
LINE
8
BLACK
6
CONTINUOUS
10
159.55
20
-5.3
11
158.9
21
-5.3
0
LINE
8
BLACK
6
CONTINUOUS
10
158.9
20
-5.3
11
158.851
21
-5.2952
0
LINE
8
BLACK
6
CONTINUOUS
10
158.851
20
-5.2952
11
158.804
21
-5.28097
0
LINE
8
BLACK
6
CONTINUOUS
10
158.804
20
-5.28097
11
158.761
21
-5.25787
0
LINE
8
BLACK
6
CONTINUOUS
10
158.761
20
-5.25787
11
158.723
21
-5.22678
0
LINE
8
BLACK
6
CONTINUOUS
10
158.723
20
-5.22678
11
158.692
21
-5.18889
0
LINE
8
BLACK
6
CONTINUOUS
10
158.692
20
-5.18889
11
158.669
21
-5.14567
0
LINE
8
BLACK
6
CONTINUOUS
10
158.669
20
-5.14567
11
158.655
21
-5.09877
0
LINE
8
BLACK
6
CONTINUOUS
10
158.655
20
-5.09877
11
158.65
21
-5.05
0
LINE
8
BLACK
6
CONTINUOUS
10
158.65
20
-5.05
11
158.65
21
-4.15
0
LINE
8
BLACK
6
CONTINUOUS
10
158.65
20
-4.15
11
158.655
21
-4.10123
0
LINE
8
BLACK
6
CONTINUOUS
10
158.655
20
-4.10123
11
158.669
21
-4.05433
0
LINE
8
BLACK
6
CONTINUOUS
10
158.669
20
-4.05433
11
158.692
21
-4.01111
0
LINE
8
BLACK
6
CONTINUOUS
10
158.692
20
-4.01111
11
158.723
21
-3.97322
0
LINE
8
BLACK
6
CONTINUOUS
10
158.723
20
-3.97322
11
158.761
21
-3.94213
0
LINE
8
BLACK
6
CONTINUOUS
10
158.761
20
-3.94213
11
158.804
21
-3.91903
0
LINE
8
BLACK
6
CONTINUOUS
10
158.804
20
-3.91903
11
158.851
21
-3.9048
0
LINE
8
BLACK
6
CONTINUOUS
10
158.851
20
-3.9048
11
158.9
21
-3.9
0
LINE
8
BLACK
6
CONTINUOUS
10
158.9
20
-3.9
11
159.55
21
-3.9
0
LINE
8
BLACK
6
CONTINUOUS
10
159.55
20
-3.9
11
159.599
21
-3.9048
0
LINE
8
BLACK
6
CONTINUOUS
10
157.549
20
-3.9048
11
157.596
21
-3.91903
0
LINE
8
BLACK
6
CONTINUOUS
10
157.596
20
-3.91903
11
157.639
21
-3.94213
0
LINE
8
BLACK
6
CONTINUOUS
10
157.639
20
-3.94213
11
157.677
21
-3.97322
0
LINE
8
BLACK
6
CONTINUOUS
10
157.677
20
-3.97322
11
157.708
21
-4.01111
0
LINE
8
BLACK
6
CONTINUOUS
10
157.708
20
-4.01111
11
157.731
21
-4.05433
0
LINE
8
BLACK
6
CONTINUOUS
10
157.731
20
-4.05433
11
157.745
21
-4.10123
0
LINE
8
BLACK
6
CONTINUOUS
10
157.745
20
-4.10123
11
157.75
21
-4.15
0
LINE
8
BLACK
6
CONTINUOUS
10
157.75
20
-4.15
11
157.75
21
-5.05
0
LINE
8
BLACK
6
CONTINUOUS
10
157.75
20
-5.05
11
157.745
21
-5.09877
0
LINE
8
BLACK
6
CONTINUOUS
10
157.745
20
-5.09877
11
157.731
21
-5.14567
0
LINE
8
BLACK
6
CONTINUOUS
10
157.731
20
-5.14567
11
157.708
21
-5.18889
0
LINE
8
BLACK
6
CONTINUOUS
10
157.708
20
-5.18889
11
157.677
21
-5.22678
0
LINE
8
BLACK
6
CONTINUOUS
10
157.677
20
-5.22678
11
157.639
21
-5.25787
0
LINE
8
BLACK
6
CONTINUOUS
10
157.639
20
-5.25787
11
157.596
21
-5.28097
0
LINE
8
BLACK
6
CONTINUOUS
10
157.596
20
-5.28097
11
157.549
21
-5.2952
0
LINE
8
BLACK
6
CONTINUOUS
10
157.549
20
-5.2952
11
157.5
21
-5.3
0
LINE
8
BLACK
6
CONTINUOUS
10
157.5
20
-5.3
11
156.85
21
-5.3
0
LINE
8
BLACK
6
CONTINUOUS
10
156.85
20
-5.3
11
156.801
21
-5.2952
0
LINE
8
BLACK
6
CONTINUOUS
10
156.801
20
-5.2952
11
156.754
21
-5.28097
0
LINE
8
BLACK
6
CONTINUOUS
10
156.754
20
-5.28097
11
156.711
21
-5.25787
0
LINE
8
BLACK
6
CONTINUOUS
10
156.711
20
-5.25787
11
156.673
21
-5.22678
0
LINE
8
BLACK
6
CONTINUOUS
10
156.673
20
-5.22678
11
156.642
21
-5.18889
0
LINE
8
BLACK
6
CONTINUOUS
10
156.642
20
-5.18889
11
156.619
21
-5.14567
0
LINE
8
BLACK
6
CONTINUOUS
10
156.619
20
-5.14567
11
156.605
21
-5.09877
0
LINE
8
BLACK
6
CONTINUOUS
10
156.605
20
-5.09877
11
156.6
21
-5.05
0
LINE
8
BLACK
6
CONTINUOUS
10
156.6
20
-5.05
11
156.6
21
-4.15
0
LINE
8
BLACK
6
CONTINUOUS
10
156.6
20
-4.15
11
156.605
21
-4.10123
0
LINE
8
BLACK
6
CONTINUOUS
10
156.605
20
-4.10123
11
156.619
21
-4.05433
0
LINE
8
BLACK
6
CONTINUOUS
10
156.619
20
-4.05433
11
156.642
21
-4.01111
0
LINE
8
BLACK
6
CONTINUOUS
10
156.642
20
-4.01111
11
156.673
21
-3.97322
0
LINE
8
BLACK
6
CONTINUOUS
10
156.673
20
-3.97322
11
156.711
21
-3.94213
0
LINE
8
BLACK
6
CONTINUOUS
10
156.711
20
-3.94213
11
156.754
21
-3.91903
0
LINE
8
BLACK
6
CONTINUOUS
10
156.754
20
-3.91903
11
156.801
21
-3.9048
0
LINE
8
BLACK
6
CONTINUOUS
10
156.801
20
-3.9048
11
156.85
21
-3.9
0
LINE
8
BLACK
6
CONTINUOUS
10
156.85
20
-3.9
11
157.5
21
-3.9
0
LINE
8
BLACK
6
CONTINUOUS
10
157.5
20
-3.9
11
157.549
21
-3.9048
0
LINE
8
BLACK
6
CONTINUOUS
10
155.099
20
-3.9048
11
155.146
21
-3.91903
0
LINE
8
BLACK
6
CONTINUOUS
10
155.146
20
-3.91903
11
155.189
21
-3.94213
0
LINE
8
BLACK
6
CONTINUOUS
10
155.189
20
-3.94213
11
155.227
21
-3.97322
0
LINE
8
BLACK
6
CONTINUOUS
10
155.227
20
-3.97322
11
155.258
21
-4.01111
0
LINE
8
BLACK
6
CONTINUOUS
10
155.258
20
-4.01111
11
155.281
21
-4.05433
0
LINE
8
BLACK
6
CONTINUOUS
10
155.281
20
-4.05433
11
155.295
21
-4.10123
0
LINE
8
BLACK
6
CONTINUOUS
10
155.295
20
-4.10123
11
155.3
21
-4.15
0
LINE
8
BLACK
6
CONTINUOUS
10
155.3
20
-4.15
11
155.3
21
-5.05
0
LINE
8
BLACK
6
CONTINUOUS
10
155.3
20
-5.05
11
155.295
21
-5.09877
0
LINE
8
BLACK
6
CONTINUOUS
10
155.295
20
-5.09877
11
155.281
21
-5.14567
0
LINE
8
BLACK
6
CONTINUOUS
10
155.281
20
-5.14567
11
155.258
21
-5.18889
0
LINE
8
BLACK
6
CONTINUOUS
10
155.258
20
-5.18889
11
155.227
21
-5.22678
0
LINE
8
BLACK
6
CONTINUOUS
10
155.227
20
-5.22678
11
155.189
21
-5.25787
0
LINE
8
BLACK
6
CONTINUOUS
10
155.189
20
-5.25787
11
155.146
21
-5.28097
0
LINE
8
BLACK
6
CONTINUOUS
10
155.146
20
-5.28097
11
155.099
21
-5.2952
0
LINE
8
BLACK
6
CONTINUOUS
10
155.099
20
-5.2952
11
155.05
21
-5.3
0
LINE
8
BLACK
6
CONTINUOUS
10
155.05
20
-5.3
11
154.4
21
-5.3
0
LINE
8
BLACK
6
CONTINUOUS
10
154.4
20
-5.3
11
154.351
21
-5.2952
0
LINE
8
BLACK
6
CONTINUOUS
10
154.351
20
-5.2952
11
154.304
21
-5.28097
0
LINE
8
BLACK
6
CONTINUOUS
10
154.304
20
-5.28097
11
154.261
21
-5.25787
0
LINE
8
BLACK
6
CONTINUOUS
10
154.261
20
-5.25787
11
154.223
21
-5.22678
0
LINE
8
BLACK
6
CONTINUOUS
10
154.223
20
-5.22678
11
154.192
21
-5.18889
0
LINE
8
BLACK
6
CONTINUOUS
10
154.192
20
-5.18889
11
154.169
21
-5.14567
0
LINE
8
BLACK
6
CONTINUOUS
10
154.169
20
-5.14567
11
154.155
21
-5.09877
0
LINE
8
BLACK
6
CONTINUOUS
10
154.155
20
-5.09877
11
154.15
21
-5.05
0
LINE
8
BLACK
6
CONTINUOUS
10
154.15
20
-5.05
11
154.15
21
-4.15
0
LINE
8
BLACK
6
CONTINUOUS
10
154.15
20
-4.15
11
154.155
21
-4.10123
0
LINE
8
BLACK
6
CONTINUOUS
10
154.155
20
-4.10123
11
154.169
21
-4.05433
0
LINE
8
BLACK
6
CONTINUOUS
10
154.169
20
-4.05433
11
154.192
21
-4.01111
0
LINE
8
BLACK
6
CONTINUOUS
10
154.192
20
-4.01111
11
154.223
21
-3.97322
0
LINE
8
BLACK
6
CONTINUOUS
10
154.223
20
-3.97322
11
154.261
21
-3.94213
0
LINE
8
BLACK
6
CONTINUOUS
10
154.261
20
-3.94213
11
154.304
21
-3.91903
0
LINE
8
BLACK
6
CONTINUOUS
10
154.304
20
-3.91903
11
154.351
21
-3.9048
0
LINE
8
BLACK
6
CONTINUOUS
10
154.351
20
-3.9048
11
154.4
21
-3.9
0
LINE
8
BLACK
6
CONTINUOUS
10
154.4
20
-3.9
11
155.05
21
-3.9
0
LINE
8
BLACK
6
CONTINUOUS
10
155.05
20
-3.9
11
155.099
21
-3.9048
0
LINE
8
BLACK
6
CONTINUOUS
10
153.049
20
-3.9048
11
153.096
21
-3.91903
0
LINE
8
BLACK
6
CONTINUOUS
10
153.096
20
-3.91903
11
153.139
21
-3.94213
0
LINE
8
BLACK
6
CONTINUOUS
10
153.139
20
-3.94213
11
153.177
21
-3.97322
0
LINE
8
BLACK
6
CONTINUOUS
10
153.177
20
-3.97322
11
153.208
21
-4.01111
0
LINE
8
BLACK
6
CONTINUOUS
10
153.208
20
-4.01111
11
153.231
21
-4.05433
0
LINE
8
BLACK
6
CONTINUOUS
10
153.231
20
-4.05433
11
153.245
21
-4.10123
0
LINE
8
BLACK
6
CONTINUOUS
10
153.245
20
-4.10123
11
153.25
21
-4.15
0
LINE
8
BLACK
6
CONTINUOUS
10
153.25
20
-4.15
11
153.25
21
-5.05
0
LINE
8
BLACK
6
CONTINUOUS
10
153.25
20
-5.05
11
153.245
21
-5.09877
0
LINE
8
BLACK
6
CONTINUOUS
10
153.245
20
-5.09877
11
153.231
21
-5.14567
0
LINE
8
BLACK
6
CONTINUOUS
10
153.231
20
-5.14567
11
153.208
21
-5.18889
0
LINE
8
BLACK
6
CONTINUOUS
10
153.208
20
-5.18889
11
153.177
21
-5.22678
0
LINE
8
BLACK
6
CONTINUOUS
10
153.177
20
-5.22678
11
153.139
21
-5.25787
0
LINE
8
BLACK
6
CONTINUOUS
10
153.139
20
-5.25787
11
153.096
21
-5.28097
0
LINE
8
BLACK
6
CONTINUOUS
10
153.096
20
-5.28097
11
153.049
21
-5.2952
0
LINE
8
BLACK
6
CONTINUOUS
10
153.049
20
-5.2952
11
153
21
-5.3
0
LINE
8
BLACK
6
CONTINUOUS
10
153
20
-5.3
11
152.35
21
-5.3
0
LINE
8
BLACK
6
CONTINUOUS
10
152.35
20
-5.3
11
152.301
21
-5.2952
0
LINE
8
BLACK
6
CONTINUOUS
10
152.301
20
-5.2952
11
152.254
21
-5.28097
0
LINE
8
BLACK
6
CONTINUOUS
10
152.254
20
-5.28097
11
152.211
21
-5.25787
0
LINE
8
BLACK
6
CONTINUOUS
10
152.211
20
-5.25787
11
152.173
21
-5.22678
0
LINE
8
BLACK
6
CONTINUOUS
10
152.173
20
-5.22678
11
152.142
21
-5.18889
0
LINE
8
BLACK
6
CONTINUOUS
10
152.142
20
-5.18889
11
152.119
21
-5.14567
0
LINE
8
BLACK
6
CONTINUOUS
10
152.119
20
-5.14567
11
152.105
21
-5.09877
0
LINE
8
BLACK
6
CONTINUOUS
10
152.105
20
-5.09877
11
152.1
21
-5.05
0
LINE
8
BLACK
6
CONTINUOUS
10
152.1
20
-5.05
11
152.1
21
-4.15
0
LINE
8
BLACK
6
CONTINUOUS
10
152.1
20
-4.15
11
152.105
21
-4.10123
0
LINE
8
BLACK
6
CONTINUOUS
10
152.105
20
-4.10123
11
152.119
21
-4.05433
0
LINE
8
BLACK
6
CONTINUOUS
10
152.119
20
-4.05433
11
152.142
21
-4.01111
0
LINE
8
BLACK
6
CONTINUOUS
10
152.142
20
-4.01111
11
152.173
21
-3.97322
0
LINE
8
BLACK
6
CONTINUOUS
10
152.173
20
-3.97322
11
152.211
21
-3.94213
0
LINE
8
BLACK
6
CONTINUOUS
10
152.211
20
-3.94213
11
152.254
21
-3.91903
0
LINE
8
BLACK
6
CONTINUOUS
10
152.254
20
-3.91903
11
152.301
21
-3.9048
0
LINE
8
BLACK
6
CONTINUOUS
10
152.301
20
-3.9048
11
152.35
21
-3.9
0
LINE
8
BLACK
6
CONTINUOUS
10
152.35
20
-3.9
11
153
21
-3.9
0
LINE
8
BLACK
6
CONTINUOUS
10
153
20
-3.9
11
153.049
21
-3.9048
0
LINE
8
BLACK
6
CONTINUOUS
10
166.524
20
-3.9048
11
166.571
21
-3.91903
0
LINE
8
BLACK
6
CONTINUOUS
10
166.571
20
-3.91903
11
166.614
21
-3.94213
0
LINE
8
BLACK
6
CONTINUOUS
10
166.614
20
-3.94213
11
166.652
21
-3.97322
0
LINE
8
BLACK
6
CONTINUOUS
10
166.652
20
-3.97322
11
166.683
21
-4.01111
0
LINE
8
BLACK
6
CONTINUOUS
10
166.683
20
-4.01111
11
166.706
21
-4.05433
0
LINE
8
BLACK
6
CONTINUOUS
10
166.706
20
-4.05433
11
166.72
21
-4.10123
0
LINE
8
BLACK
6
CONTINUOUS
10
166.72
20
-4.10123
11
166.725
21
-4.15
0
LINE
8
BLACK
6
CONTINUOUS
10
166.725
20
-4.15
11
166.725
21
-5.05
0
LINE
8
BLACK
6
CONTINUOUS
10
166.725
20
-5.05
11
166.72
21
-5.09877
0
LINE
8
BLACK
6
CONTINUOUS
10
166.72
20
-5.09877
11
166.706
21
-5.14567
0
LINE
8
BLACK
6
CONTINUOUS
10
166.706
20
-5.14567
11
166.683
21
-5.18889
0
LINE
8
BLACK
6
CONTINUOUS
10
166.683
20
-5.18889
11
166.652
21
-5.22678
0
LINE
8
BLACK
6
CONTINUOUS
10
166.652
20
-5.22678
11
166.614
21
-5.25787
0
LINE
8
BLACK
6
CONTINUOUS
10
166.614
20
-5.25787
11
166.571
21
-5.28097
0
LINE
8
BLACK
6
CONTINUOUS
10
166.571
20
-5.28097
11
166.524
21
-5.2952
0
LINE
8
BLACK
6
CONTINUOUS
10
166.524
20
-5.2952
11
166.475
21
-5.3
0
LINE
8
BLACK
6
CONTINUOUS
10
166.475
20
-5.3
11
165.825
21
-5.3
0
LINE
8
BLACK
6
CONTINUOUS
10
165.825
20
-5.3
11
165.776
21
-5.2952
0
LINE
8
BLACK
6
CONTINUOUS
10
165.776
20
-5.2952
11
165.729
21
-5.28097
0
LINE
8
BLACK
6
CONTINUOUS
10
165.729
20
-5.28097
11
165.686
21
-5.25787
0
LINE
8
BLACK
6
CONTINUOUS
10
165.686
20
-5.25787
11
165.648
21
-5.22678
0
LINE
8
BLACK
6
CONTINUOUS
10
165.648
20
-5.22678
11
165.617
21
-5.18889
0
LINE
8
BLACK
6
CONTINUOUS
10
165.617
20
-5.18889
11
165.594
21
-5.14567
0
LINE
8
BLACK
6
CONTINUOUS
10
165.594
20
-5.14567
11
165.58
21
-5.09877
0
LINE
8
BLACK
6
CONTINUOUS
10
165.58
20
-5.09877
11
165.575
21
-5.05
0
LINE
8
BLACK
6
CONTINUOUS
10
165.575
20
-5.05
11
165.575
21
-4.15
0
LINE
8
BLACK
6
CONTINUOUS
10
165.575
20
-4.15
11
165.58
21
-4.10123
0
LINE
8
BLACK
6
CONTINUOUS
10
165.58
20
-4.10123
11
165.594
21
-4.05433
0
LINE
8
BLACK
6
CONTINUOUS
10
165.594
20
-4.05433
11
165.617
21
-4.01111
0
LINE
8
BLACK
6
CONTINUOUS
10
165.617
20
-4.01111
11
165.648
21
-3.97322
0
LINE
8
BLACK
6
CONTINUOUS
10
165.648
20
-3.97322
11
165.686
21
-3.94213
0
LINE
8
BLACK
6
CONTINUOUS
10
165.686
20
-3.94213
11
165.729
21
-3.91903
0
LINE
8
BLACK
6
CONTINUOUS
10
165.729
20
-3.91903
11
165.776
21
-3.9048
0
LINE
8
BLACK
6
CONTINUOUS
10
165.776
20
-3.9048
11
165.825
21
-3.9
0
LINE
8
BLACK
6
CONTINUOUS
10
165.825
20
-3.9
11
166.475
21
-3.9
0
LINE
8
BLACK
6
CONTINUOUS
10
166.475
20
-3.9
11
166.524
21
-3.9048
0
LINE
8
BLACK
6
CONTINUOUS
10
168.574
20
-3.9048
11
168.621
21
-3.91903
0
LINE
8
BLACK
6
CONTINUOUS
10
168.621
20
-3.91903
11
168.664
21
-3.94213
0
LINE
8
BLACK
6
CONTINUOUS
10
168.664
20
-3.94213
11
168.702
21
-3.97322
0
LINE
8
BLACK
6
CONTINUOUS
10
168.702
20
-3.97322
11
168.733
21
-4.01111
0
LINE
8
BLACK
6
CONTINUOUS
10
168.733
20
-4.01111
11
168.756
21
-4.05433
0
LINE
8
BLACK
6
CONTINUOUS
10
168.756
20
-4.05433
11
168.77
21
-4.10123
0
LINE
8
BLACK
6
CONTINUOUS
10
168.77
20
-4.10123
11
168.775
21
-4.15
0
LINE
8
BLACK
6
CONTINUOUS
10
168.775
20
-4.15
11
168.775
21
-5.05
0
LINE
8
BLACK
6
CONTINUOUS
10
168.775
20
-5.05
11
168.77
21
-5.09877
0
LINE
8
BLACK
6
CONTINUOUS
10
168.77
20
-5.09877
11
168.756
21
-5.14567
0
LINE
8
BLACK
6
CONTINUOUS
10
168.756
20
-5.14567
11
168.733
21
-5.18889
0
LINE
8
BLACK
6
CONTINUOUS
10
168.733
20
-5.18889
11
168.702
21
-5.22678
0
LINE
8
BLACK
6
CONTINUOUS
10
168.702
20
-5.22678
11
168.664
21
-5.25787
0
LINE
8
BLACK
6
CONTINUOUS
10
168.664
20
-5.25787
11
168.621
21
-5.28097
0
LINE
8
BLACK
6
CONTINUOUS
10
168.621
20
-5.28097
11
168.574
21
-5.2952
0
LINE
8
BLACK
6
CONTINUOUS
10
168.574
20
-5.2952
11
168.525
21
-5.3
0
LINE
8
BLACK
6
CONTINUOUS
10
168.525
20
-5.3
11
167.875
21
-5.3
0
LINE
8
BLACK
6
CONTINUOUS
10
167.875
20
-5.3
11
167.826
21
-5.2952
0
LINE
8
BLACK
6
CONTINUOUS
10
167.826
20
-5.2952
11
167.779
21
-5.28097
0
LINE
8
BLACK
6
CONTINUOUS
10
167.779
20
-5.28097
11
167.736
21
-5.25787
0
LINE
8
BLACK
6
CONTINUOUS
10
167.736
20
-5.25787
11
167.698
21
-5.22678
0
LINE
8
BLACK
6
CONTINUOUS
10
167.698
20
-5.22678
11
167.667
21
-5.18889
0
LINE
8
BLACK
6
CONTINUOUS
10
167.667
20
-5.18889
11
167.644
21
-5.14567
0
LINE
8
BLACK
6
CONTINUOUS
10
167.644
20
-5.14567
11
167.63
21
-5.09877
0
LINE
8
BLACK
6
CONTINUOUS
10
167.63
20
-5.09877
11
167.625
21
-5.05
0
LINE
8
BLACK
6
CONTINUOUS
10
167.625
20
-5.05
11
167.625
21
-4.15
0
LINE
8
BLACK
6
CONTINUOUS
10
167.625
20
-4.15
11
167.63
21
-4.10123
0
LINE
8
BLACK
6
CONTINUOUS
10
167.63
20
-4.10123
11
167.644
21
-4.05433
0
LINE
8
BLACK
6
CONTINUOUS
10
167.644
20
-4.05433
11
167.667
21
-4.01111
0
LINE
8
BLACK
6
CONTINUOUS
10
167.667
20
-4.01111
11
167.698
21
-3.97322
0
LINE
8
BLACK
6
CONTINUOUS
10
167.698
20
-3.97322
11
167.736
21
-3.94213
0
LINE
8
BLACK
6
CONTINUOUS
10
167.736
20
-3.94213
11
167.779
21
-3.91903
0
LINE
8
BLACK
6
CONTINUOUS
10
167.779
20
-3.91903
11
167.826
21
-3.9048
0
LINE
8
BLACK
6
CONTINUOUS
10
167.826
20
-3.9048
11
167.875
21
-3.9
0
LINE
8
BLACK
6
CONTINUOUS
10
167.875
20
-3.9
11
168.525
21
-3.9
0
LINE
8
BLACK
6
CONTINUOUS
10
168.525
20
-3.9
11
168.574
21
-3.9048
0
LINE
8
BLACK
6
CONTINUOUS
10
129.999
20
-2.7798
11
130.046
21
-2.79403
0
LINE
8
BLACK
6
CONTINUOUS
10
130.046
20
-2.79403
11
130.089
21
-2.81713
0
LINE
8
BLACK
6
CONTINUOUS
10
130.089
20
-2.81713
11
130.127
21
-2.84822
0
LINE
8
BLACK
6
CONTINUOUS
10
130.127
20
-2.84822
11
130.158
21
-2.88611
0
LINE
8
BLACK
6
CONTINUOUS
10
130.158
20
-2.88611
11
130.181
21
-2.92933
0
LINE
8
BLACK
6
CONTINUOUS
10
130.181
20
-2.92933
11
130.195
21
-2.97623
0
LINE
8
BLACK
6
CONTINUOUS
10
130.195
20
-2.97623
11
130.2
21
-3.025
0
LINE
8
BLACK
6
CONTINUOUS
10
130.2
20
-3.025
11
130.2
21
-3.675
0
LINE
8
BLACK
6
CONTINUOUS
10
130.2
20
-3.675
11
130.195
21
-3.72377
0
LINE
8
BLACK
6
CONTINUOUS
10
130.195
20
-3.72377
11
130.181
21
-3.77067
0
LINE
8
BLACK
6
CONTINUOUS
10
130.181
20
-3.77067
11
130.158
21
-3.81389
0
LINE
8
BLACK
6
CONTINUOUS
10
130.158
20
-3.81389
11
130.127
21
-3.85178
0
LINE
8
BLACK
6
CONTINUOUS
10
130.127
20
-3.85178
11
130.089
21
-3.88287
0
LINE
8
BLACK
6
CONTINUOUS
10
130.089
20
-3.88287
11
130.046
21
-3.90597
0
LINE
8
BLACK
6
CONTINUOUS
10
130.046
20
-3.90597
11
129.999
21
-3.9202
0
LINE
8
BLACK
6
CONTINUOUS
10
129.999
20
-3.9202
11
129.95
21
-3.925
0
LINE
8
BLACK
6
CONTINUOUS
10
129.95
20
-3.925
11
129.05
21
-3.925
0
LINE
8
BLACK
6
CONTINUOUS
10
129.05
20
-3.925
11
129.001
21
-3.9202
0
LINE
8
BLACK
6
CONTINUOUS
10
129.001
20
-3.9202
11
128.954
21
-3.90597
0
LINE
8
BLACK
6
CONTINUOUS
10
128.954
20
-3.90597
11
128.911
21
-3.88287
0
LINE
8
BLACK
6
CONTINUOUS
10
128.911
20
-3.88287
11
128.873
21
-3.85178
0
LINE
8
BLACK
6
CONTINUOUS
10
128.873
20
-3.85178
11
128.842
21
-3.81389
0
LINE
8
BLACK
6
CONTINUOUS
10
128.842
20
-3.81389
11
128.819
21
-3.77067
0
LINE
8
BLACK
6
CONTINUOUS
10
128.819
20
-3.77067
11
128.805
21
-3.72377
0
LINE
8
BLACK
6
CONTINUOUS
10
128.805
20
-3.72377
11
128.8
21
-3.675
0
LINE
8
BLACK
6
CONTINUOUS
10
128.8
20
-3.675
11
128.8
21
-3.025
0
LINE
8
BLACK
6
CONTINUOUS
10
128.8
20
-3.025
11
128.805
21
-2.97623
0
LINE
8
BLACK
6
CONTINUOUS
10
128.805
20
-2.97623
11
128.819
21
-2.92933
0
LINE
8
BLACK
6
CONTINUOUS
10
128.819
20
-2.92933
11
128.842
21
-2.88611
0
LINE
8
BLACK
6
CONTINUOUS
10
128.842
20
-2.88611
11
128.873
21
-2.84822
0
LINE
8
BLACK
6
CONTINUOUS
10
128.873
20
-2.84822
11
128.911
21
-2.81713
0
LINE
8
BLACK
6
CONTINUOUS
10
128.911
20
-2.81713
11
128.954
21
-2.79403
0
LINE
8
BLACK
6
CONTINUOUS
10
128.954
20
-2.79403
11
129.001
21
-2.7798
0
LINE
8
BLACK
6
CONTINUOUS
10
129.001
20
-2.7798
11
129.05
21
-2.775
0
LINE
8
BLACK
6
CONTINUOUS
10
129.05
20
-2.775
11
129.95
21
-2.775
0
LINE
8
BLACK
6
CONTINUOUS
10
129.95
20
-2.775
11
129.999
21
-2.7798
0
LINE
8
BLACK
6
CONTINUOUS
10
143.324
20
1.3952
11
143.371
21
1.38097
0
LINE
8
BLACK
6
CONTINUOUS
10
143.371
20
1.38097
11
143.414
21
1.35787
0
LINE
8
BLACK
6
CONTINUOUS
10
143.414
20
1.35787
11
143.452
21
1.32678
0
LINE
8
BLACK
6
CONTINUOUS
10
143.452
20
1.32678
11
143.483
21
1.28889
0
LINE
8
BLACK
6
CONTINUOUS
10
143.483
20
1.28889
11
143.506
21
1.24567
0
LINE
8
BLACK
6
CONTINUOUS
10
143.506
20
1.24567
11
143.52
21
1.19877
0
LINE
8
BLACK
6
CONTINUOUS
10
143.52
20
1.19877
11
143.525
21
1.15
0
LINE
8
BLACK
6
CONTINUOUS
10
143.525
20
1.15
11
143.525
21
0.249999
0
LINE
8
BLACK
6
CONTINUOUS
10
143.525
20
0.249999
11
143.52
21
0.201227
0
LINE
8
BLACK
6
CONTINUOUS
10
143.52
20
0.201227
11
143.506
21
0.154329
0
LINE
8
BLACK
6
CONTINUOUS
10
143.506
20
0.154329
11
143.483
21
0.111107
0
LINE
8
BLACK
6
CONTINUOUS
10
143.483
20
0.111107
11
143.452
21
0.073223
0
LINE
8
BLACK
6
CONTINUOUS
10
143.452
20
0.073223
11
143.414
21
0.042132
0
LINE
8
BLACK
6
CONTINUOUS
10
143.414
20
0.042132
11
143.371
21
0.01903
0
LINE
8
BLACK
6
CONTINUOUS
10
143.371
20
0.01903
11
143.324
21
0.004804
0
LINE
8
BLACK
6
CONTINUOUS
10
143.324
20
0.004804
11
143.275
21
0
0
LINE
8
BLACK
6
CONTINUOUS
10
143.275
20
0
11
142.625
21
0
0
LINE
8
BLACK
6
CONTINUOUS
10
142.625
20
0
11
142.576
21
0.004804
0
LINE
8
BLACK
6
CONTINUOUS
10
142.576
20
0.004804
11
142.529
21
0.01903
0
LINE
8
BLACK
6
CONTINUOUS
10
142.529
20
0.01903
11
142.486
21
0.042132
0
LINE
8
BLACK
6
CONTINUOUS
10
142.486
20
0.042132
11
142.448
21
0.073223
0
LINE
8
BLACK
6
CONTINUOUS
10
142.448
20
0.073223
11
142.417
21
0.111107
0
LINE
8
BLACK
6
CONTINUOUS
10
142.417
20
0.111107
11
142.394
21
0.154329
0
LINE
8
BLACK
6
CONTINUOUS
10
142.394
20
0.154329
11
142.38
21
0.201227
0
LINE
8
BLACK
6
CONTINUOUS
10
142.38
20
0.201227
11
142.375
21
0.249999
0
LINE
8
BLACK
6
CONTINUOUS
10
142.375
20
0.249999
11
142.375
21
1.15
0
LINE
8
BLACK
6
CONTINUOUS
10
142.375
20
1.15
11
142.38
21
1.19877
0
LINE
8
BLACK
6
CONTINUOUS
10
142.38
20
1.19877
11
142.394
21
1.24567
0
LINE
8
BLACK
6
CONTINUOUS
10
142.394
20
1.24567
11
142.417
21
1.28889
0
LINE
8
BLACK
6
CONTINUOUS
10
142.417
20
1.28889
11
142.448
21
1.32678
0
LINE
8
BLACK
6
CONTINUOUS
10
142.448
20
1.32678
11
142.486
21
1.35787
0
LINE
8
BLACK
6
CONTINUOUS
10
142.486
20
1.35787
11
142.529
21
1.38097
0
LINE
8
BLACK
6
CONTINUOUS
10
142.529
20
1.38097
11
142.576
21
1.3952
0
LINE
8
BLACK
6
CONTINUOUS
10
142.576
20
1.3952
11
142.625
21
1.4
0
LINE
8
BLACK
6
CONTINUOUS
10
142.625
20
1.4
11
143.275
21
1.4
0
LINE
8
BLACK
6
CONTINUOUS
10
143.275
20
1.4
11
143.324
21
1.3952
0
LINE
8
BLACK
6
CONTINUOUS
10
141.274
20
1.3952
11
141.321
21
1.38097
0
LINE
8
BLACK
6
CONTINUOUS
10
141.321
20
1.38097
11
141.364
21
1.35787
0
LINE
8
BLACK
6
CONTINUOUS
10
141.364
20
1.35787
11
141.402
21
1.32678
0
LINE
8
BLACK
6
CONTINUOUS
10
141.402
20
1.32678
11
141.433
21
1.28889
0
LINE
8
BLACK
6
CONTINUOUS
10
141.433
20
1.28889
11
141.456
21
1.24567
0
LINE
8
BLACK
6
CONTINUOUS
10
141.456
20
1.24567
11
141.47
21
1.19877
0
LINE
8
BLACK
6
CONTINUOUS
10
141.47
20
1.19877
11
141.475
21
1.15
0
LINE
8
BLACK
6
CONTINUOUS
10
141.475
20
1.15
11
141.475
21
0.249999
0
LINE
8
BLACK
6
CONTINUOUS
10
141.475
20
0.249999
11
141.47
21
0.201227
0
LINE
8
BLACK
6
CONTINUOUS
10
141.47
20
0.201227
11
141.456
21
0.154329
0
LINE
8
BLACK
6
CONTINUOUS
10
141.456
20
0.154329
11
141.433
21
0.111107
0
LINE
8
BLACK
6
CONTINUOUS
10
141.433
20
0.111107
11
141.402
21
0.073223
0
LINE
8
BLACK
6
CONTINUOUS
10
141.402
20
0.073223
11
141.364
21
0.042132
0
LINE
8
BLACK
6
CONTINUOUS
10
141.364
20
0.042132
11
141.321
21
0.01903
0
LINE
8
BLACK
6
CONTINUOUS
10
141.321
20
0.01903
11
141.274
21
0.004804
0
LINE
8
BLACK
6
CONTINUOUS
10
141.274
20
0.004804
11
141.225
21
0
0
LINE
8
BLACK
6
CONTINUOUS
10
141.225
20
0
11
140.575
21
0
0
LINE
8
BLACK
6
CONTINUOUS
10
140.575
20
0
11
140.526
21
0.004804
0
LINE
8
BLACK
6
CONTINUOUS
10
140.526
20
0.004804
11
140.479
21
0.01903
0
LINE
8
BLACK
6
CONTINUOUS
10
140.479
20
0.01903
11
140.436
21
0.042132
0
LINE
8
BLACK
6
CONTINUOUS
10
140.436
20
0.042132
11
140.398
21
0.073223
0
LINE
8
BLACK
6
CONTINUOUS
10
140.398
20
0.073223
11
140.367
21
0.111107
0
LINE
8
BLACK
6
CONTINUOUS
10
140.367
20
0.111107
11
140.344
21
0.154329
0
LINE
8
BLACK
6
CONTINUOUS
10
140.344
20
0.154329
11
140.33
21
0.201227
0
LINE
8
BLACK
6
CONTINUOUS
10
140.33
20
0.201227
11
140.325
21
0.249999
0
LINE
8
BLACK
6
CONTINUOUS
10
140.325
20
0.249999
11
140.325
21
1.15
0
LINE
8
BLACK
6
CONTINUOUS
10
140.325
20
1.15
11
140.33
21
1.19877
0
LINE
8
BLACK
6
CONTINUOUS
10
140.33
20
1.19877
11
140.344
21
1.24567
0
LINE
8
BLACK
6
CONTINUOUS
10
140.344
20
1.24567
11
140.367
21
1.28889
0
LINE
8
BLACK
6
CONTINUOUS
10
140.367
20
1.28889
11
140.398
21
1.32678
0
LINE
8
BLACK
6
CONTINUOUS
10
140.398
20
1.32678
11
140.436
21
1.35787
0
LINE
8
BLACK
6
CONTINUOUS
10
140.436
20
1.35787
11
140.479
21
1.38097
0
LINE
8
BLACK
6
CONTINUOUS
10
140.479
20
1.38097
11
140.526
21
1.3952
0
LINE
8
BLACK
6
CONTINUOUS
10
140.526
20
1.3952
11
140.575
21
1.4
0
LINE
8
BLACK
6
CONTINUOUS
10
140.575
20
1.4
11
141.225
21
1.4
0
LINE
8
BLACK
6
CONTINUOUS
10
141.225
20
1.4
11
141.274
21
1.3952
0
LINE
8
BLACK
6
CONTINUOUS
10
157.83
20
0.175001
11
157.28
21
0.175001
0
LINE
8
BLACK
6
CONTINUOUS
10
157.28
20
0.175001
11
157.28
21
1.675
0
LINE
8
BLACK
6
CONTINUOUS
10
157.28
20
1.675
11
157.83
21
1.675
0
LINE
8
BLACK
6
CONTINUOUS
10
157.83
20
1.675
11
157.83
21
0.175001
0
LINE
8
BLACK
6
CONTINUOUS
10
158.63
20
0.175001
11
158.08
21
0.175001
0
LINE
8
BLACK
6
CONTINUOUS
10
158.08
20
0.175001
11
158.08
21
1.675
0
LINE
8
BLACK
6
CONTINUOUS
10
158.08
20
1.675
11
158.63
21
1.675
0
LINE
8
BLACK
6
CONTINUOUS
10
158.63
20
1.675
11
158.63
21
0.175001
0
LINE
8
BLACK
6
CONTINUOUS
10
150.63
20
0.175001
11
150.08
21
0.175001
0
LINE
8
BLACK
6
CONTINUOUS
10
150.08
20
0.175001
11
150.08
21
1.675
0
LINE
8
BLACK
6
CONTINUOUS
10
150.08
20
1.675
11
150.63
21
1.675
0
LINE
8
BLACK
6
CONTINUOUS
10
150.63
20
1.675
11
150.63
21
0.175001
0
LINE
8
BLACK
6
CONTINUOUS
10
151.43
20
0.175001
11
150.88
21
0.175001
0
LINE
8
BLACK
6
CONTINUOUS
10
150.88
20
0.175001
11
150.88
21
1.675
0
LINE
8
BLACK
6
CONTINUOUS
10
150.88
20
1.675
11
151.43
21
1.675
0
LINE
8
BLACK
6
CONTINUOUS
10
151.43
20
1.675
11
151.43
21
0.175001
0
LINE
8
BLACK
6
CONTINUOUS
10
152.23
20
0.175001
11
151.68
21
0.175001
0
LINE
8
BLACK
6
CONTINUOUS
10
151.68
20
0.175001
11
151.68
21
1.675
0
LINE
8
BLACK
6
CONTINUOUS
10
151.68
20
1.675
11
152.23
21
1.675
0
LINE
8
BLACK
6
CONTINUOUS
10
152.23
20
1.675
11
152.23
21
0.175001
0
LINE
8
BLACK
6
CONTINUOUS
10
153.03
20
0.175001
11
152.48
21
0.175001
0
LINE
8
BLACK
6
CONTINUOUS
10
152.48
20
0.175001
11
152.48
21
1.675
0
LINE
8
BLACK
6
CONTINUOUS
10
152.48
20
1.675
11
153.03
21
1.675
0
LINE
8
BLACK
6
CONTINUOUS
10
153.03
20
1.675
11
153.03
21
0.175001
0
LINE
8
BLACK
6
CONTINUOUS
10
153.83
20
0.175001
11
153.28
21
0.175001
0
LINE
8
BLACK
6
CONTINUOUS
10
153.28
20
0.175001
11
153.28
21
1.675
0
LINE
8
BLACK
6
CONTINUOUS
10
153.28
20
1.675
11
153.83
21
1.675
0
LINE
8
BLACK
6
CONTINUOUS
10
153.83
20
1.675
11
153.83
21
0.175001
0
LINE
8
BLACK
6
CONTINUOUS
10
154.63
20
0.175001
11
154.08
21
0.175001
0
LINE
8
BLACK
6
CONTINUOUS
10
154.08
20
0.175001
11
154.08
21
1.675
0
LINE
8
BLACK
6
CONTINUOUS
10
154.08
20
1.675
11
154.63
21
1.675
0
LINE
8
BLACK
6
CONTINUOUS
10
154.63
20
1.675
11
154.63
21
0.175001
0
LINE
8
BLACK
6
CONTINUOUS
10
155.43
20
0.175001
11
154.88
21
0.175001
0
LINE
8
BLACK
6
CONTINUOUS
10
154.88
20
0.175001
11
154.88
21
1.675
0
LINE
8
BLACK
6
CONTINUOUS
10
154.88
20
1.675
11
155.43
21
1.675
0
LINE
8
BLACK
6
CONTINUOUS
10
155.43
20
1.675
11
155.43
21
0.175001
0
LINE
8
BLACK
6
CONTINUOUS
10
156.23
20
0.175001
11
155.68
21
0.175001
0
LINE
8
BLACK
6
CONTINUOUS
10
155.68
20
0.175001
11
155.68
21
1.675
0
LINE
8
BLACK
6
CONTINUOUS
10
155.68
20
1.675
11
156.23
21
1.675
0
LINE
8
BLACK
6
CONTINUOUS
10
156.23
20
1.675
11
156.23
21
0.175001
0
LINE
8
BLACK
6
CONTINUOUS
10
157.03
20
0.175001
11
156.48
21
0.175001
0
LINE
8
BLACK
6
CONTINUOUS
10
156.48
20
0.175001
11
156.48
21
1.675
0
LINE
8
BLACK
6
CONTINUOUS
10
156.48
20
1.675
11
157.03
21
1.675
0
LINE
8
BLACK
6
CONTINUOUS
10
157.03
20
1.675
11
157.03
21
0.175001
0
LINE
8
BLACK
6
CONTINUOUS
10
130.099
20
1.4452
11
130.146
21
1.43097
0
LINE
8
BLACK
6
CONTINUOUS
10
130.146
20
1.43097
11
130.189
21
1.40787
0
LINE
8
BLACK
6
CONTINUOUS
10
130.189
20
1.40787
11
130.227
21
1.37678
0
LINE
8
BLACK
6
CONTINUOUS
10
130.227
20
1.37678
11
130.258
21
1.33889
0
LINE
8
BLACK
6
CONTINUOUS
10
130.258
20
1.33889
11
130.281
21
1.29567
0
LINE
8
BLACK
6
CONTINUOUS
10
130.281
20
1.29567
11
130.295
21
1.24877
0
LINE
8
BLACK
6
CONTINUOUS
10
130.295
20
1.24877
11
130.3
21
1.2
0
LINE
8
BLACK
6
CONTINUOUS
10
130.3
20
1.2
11
130.3
21
0.549999
0
LINE
8
BLACK
6
CONTINUOUS
10
130.3
20
0.549999
11
130.295
21
0.501227
0
LINE
8
BLACK
6
CONTINUOUS
10
130.295
20
0.501227
11
130.281
21
0.454329
0
LINE
8
BLACK
6
CONTINUOUS
10
130.281
20
0.454329
11
130.258
21
0.411107
0
LINE
8
BLACK
6
CONTINUOUS
10
130.258
20
0.411107
11
130.227
21
0.373223
0
LINE
8
BLACK
6
CONTINUOUS
10
130.227
20
0.373223
11
130.189
21
0.342132
0
LINE
8
BLACK
6
CONTINUOUS
10
130.189
20
0.342132
11
130.146
21
0.31903
0
LINE
8
BLACK
6
CONTINUOUS
10
130.146
20
0.31903
11
130.099
21
0.304804
0
LINE
8
BLACK
6
CONTINUOUS
10
130.099
20
0.304804
11
130.05
21
0.3
0
LINE
8
BLACK
6
CONTINUOUS
10
130.05
20
0.3
11
129.15
21
0.3
0
LINE
8
BLACK
6
CONTINUOUS
10
129.15
20
0.3
11
129.101
21
0.304804
0
LINE
8
BLACK
6
CONTINUOUS
10
129.101
20
0.304804
11
129.054
21
0.31903
0
LINE
8
BLACK
6
CONTINUOUS
10
129.054
20
0.31903
11
129.011
21
0.342132
0
LINE
8
BLACK
6
CONTINUOUS
10
129.011
20
0.342132
11
128.973
21
0.373223
0
LINE
8
BLACK
6
CONTINUOUS
10
128.973
20
0.373223
11
128.942
21
0.411107
0
LINE
8
BLACK
6
CONTINUOUS
10
128.942
20
0.411107
11
128.919
21
0.454329
0
LINE
8
BLACK
6
CONTINUOUS
10
128.919
20
0.454329
11
128.905
21
0.501227
0
LINE
8
BLACK
6
CONTINUOUS
10
128.905
20
0.501227
11
128.9
21
0.549999
0
LINE
8
BLACK
6
CONTINUOUS
10
128.9
20
0.549999
11
128.9
21
1.2
0
LINE
8
BLACK
6
CONTINUOUS
10
128.9
20
1.2
11
128.905
21
1.24877
0
LINE
8
BLACK
6
CONTINUOUS
10
128.905
20
1.24877
11
128.919
21
1.29567
0
LINE
8
BLACK
6
CONTINUOUS
10
128.919
20
1.29567
11
128.942
21
1.33889
0
LINE
8
BLACK
6
CONTINUOUS
10
128.942
20
1.33889
11
128.973
21
1.37678
0
LINE
8
BLACK
6
CONTINUOUS
10
128.973
20
1.37678
11
129.011
21
1.40787
0
LINE
8
BLACK
6
CONTINUOUS
10
129.011
20
1.40787
11
129.054
21
1.43097
0
LINE
8
BLACK
6
CONTINUOUS
10
129.054
20
1.43097
11
129.101
21
1.4452
0
LINE
8
BLACK
6
CONTINUOUS
10
129.101
20
1.4452
11
129.15
21
1.45
0
LINE
8
BLACK
6
CONTINUOUS
10
129.15
20
1.45
11
130.05
21
1.45
0
LINE
8
BLACK
6
CONTINUOUS
10
130.05
20
1.45
11
130.099
21
1.4452
0
LINE
8
BLACK
6
CONTINUOUS
10
130.099
20
3.4952
11
130.146
21
3.48097
0
LINE
8
BLACK
6
CONTINUOUS
10
130.146
20
3.48097
11
130.189
21
3.45787
0
LINE
8
BLACK
6
CONTINUOUS
10
130.189
20
3.45787
11
130.227
21
3.42678
0
LINE
8
BLACK
6
CONTINUOUS
10
130.227
20
3.42678
11
130.258
21
3.38889
0
LINE
8
BLACK
6
CONTINUOUS
10
130.258
20
3.38889
11
130.281
21
3.34567
0
LINE
8
BLACK
6
CONTINUOUS
10
130.281
20
3.34567
11
130.295
21
3.29877
0
LINE
8
BLACK
6
CONTINUOUS
10
130.295
20
3.29877
11
130.3
21
3.25
0
LINE
8
BLACK
6
CONTINUOUS
10
130.3
20
3.25
11
130.3
21
2.6
0
LINE
8
BLACK
6
CONTINUOUS
10
130.3
20
2.6
11
130.295
21
2.55123
0
LINE
8
BLACK
6
CONTINUOUS
10
130.295
20
2.55123
11
130.281
21
2.50433
0
LINE
8
BLACK
6
CONTINUOUS
10
130.281
20
2.50433
11
130.258
21
2.46111
0
LINE
8
BLACK
6
CONTINUOUS
10
130.258
20
2.46111
11
130.227
21
2.42322
0
LINE
8
BLACK
6
CONTINUOUS
10
130.227
20
2.42322
11
130.189
21
2.39213
0
LINE
8
BLACK
6
CONTINUOUS
10
130.189
20
2.39213
11
130.146
21
2.36903
0
LINE
8
BLACK
6
CONTINUOUS
10
130.146
20
2.36903
11
130.099
21
2.3548
0
LINE
8
BLACK
6
CONTINUOUS
10
130.099
20
2.3548
11
130.05
21
2.35
0
LINE
8
BLACK
6
CONTINUOUS
10
130.05
20
2.35
11
129.15
21
2.35
0
LINE
8
BLACK
6
CONTINUOUS
10
129.15
20
2.35
11
129.101
21
2.3548
0
LINE
8
BLACK
6
CONTINUOUS
10
129.101
20
2.3548
11
129.054
21
2.36903
0
LINE
8
BLACK
6
CONTINUOUS
10
129.054
20
2.36903
11
129.011
21
2.39213
0
LINE
8
BLACK
6
CONTINUOUS
10
129.011
20
2.39213
11
128.973
21
2.42322
0
LINE
8
BLACK
6
CONTINUOUS
10
128.973
20
2.42322
11
128.942
21
2.46111
0
LINE
8
BLACK
6
CONTINUOUS
10
128.942
20
2.46111
11
128.919
21
2.50433
0
LINE
8
BLACK
6
CONTINUOUS
10
128.919
20
2.50433
11
128.905
21
2.55123
0
LINE
8
BLACK
6
CONTINUOUS
10
128.905
20
2.55123
11
128.9
21
2.6
0
LINE
8
BLACK
6
CONTINUOUS
10
128.9
20
2.6
11
128.9
21
3.25
0
LINE
8
BLACK
6
CONTINUOUS
10
128.9
20
3.25
11
128.905
21
3.29877
0
LINE
8
BLACK
6
CONTINUOUS
10
128.905
20
3.29877
11
128.919
21
3.34567
0
LINE
8
BLACK
6
CONTINUOUS
10
128.919
20
3.34567
11
128.942
21
3.38889
0
LINE
8
BLACK
6
CONTINUOUS
10
128.942
20
3.38889
11
128.973
21
3.42678
0
LINE
8
BLACK
6
CONTINUOUS
10
128.973
20
3.42678
11
129.011
21
3.45787
0
LINE
8
BLACK
6
CONTINUOUS
10
129.011
20
3.45787
11
129.054
21
3.48097
0
LINE
8
BLACK
6
CONTINUOUS
10
129.054
20
3.48097
11
129.101
21
3.4952
0
LINE
8
BLACK
6
CONTINUOUS
10
129.101
20
3.4952
11
129.15
21
3.5
0
LINE
8
BLACK
6
CONTINUOUS
10
129.15
20
3.5
11
130.05
21
3.5
0
LINE
8
BLACK
6
CONTINUOUS
10
130.05
20
3.5
11
130.099
21
3.4952
0
LINE
8
BLACK
6
CONTINUOUS
10
149.405
20
2.35
11
147.905
21
2.35
0
LINE
8
BLACK
6
CONTINUOUS
10
147.905
20
2.35
11
147.905
21
2.9
0
LINE
8
BLACK
6
CONTINUOUS
10
147.905
20
2.9
11
149.405
21
2.9
0
LINE
8
BLACK
6
CONTINUOUS
10
149.405
20
2.9
11
149.405
21
2.35
0
LINE
8
BLACK
6
CONTINUOUS
10
160.805
20
2.35
11
159.305
21
2.35
0
LINE
8
BLACK
6
CONTINUOUS
10
159.305
20
2.35
11
159.305
21
2.9
0
LINE
8
BLACK
6
CONTINUOUS
10
159.305
20
2.9
11
160.805
21
2.9
0
LINE
8
BLACK
6
CONTINUOUS
10
160.805
20
2.9
11
160.805
21
2.35
0
LINE
8
BLACK
6
CONTINUOUS
10
170.7
20
3
11
169.7
21
3
0
LINE
8
BLACK
6
CONTINUOUS
10
169.7
20
3
11
169.7
21
4.7
0
LINE
8
BLACK
6
CONTINUOUS
10
169.7
20
4.7
11
170.7
21
4.7
0
LINE
8
BLACK
6
CONTINUOUS
10
170.7
20
4.7
11
170.7
21
3
0
LINE
8
BLACK
6
CONTINUOUS
10
166.9
20
3
11
165.9
21
3
0
LINE
8
BLACK
6
CONTINUOUS
10
165.9
20
3
11
165.9
21
4.7
0
LINE
8
BLACK
6
CONTINUOUS
10
165.9
20
4.7
11
166.9
21
4.7
0
LINE
8
BLACK
6
CONTINUOUS
10
166.9
20
4.7
11
166.9
21
3
0
LINE
8
BLACK
6
CONTINUOUS
10
160.805
20
3.15
11
159.305
21
3.15
0
LINE
8
BLACK
6
CONTINUOUS
10
159.305
20
3.15
11
159.305
21
3.7
0
LINE
8
BLACK
6
CONTINUOUS
10
159.305
20
3.7
11
160.805
21
3.7
0
LINE
8
BLACK
6
CONTINUOUS
10
160.805
20
3.7
11
160.805
21
3.15
0
LINE
8
BLACK
6
CONTINUOUS
10
149.405
20
3.15
11
147.905
21
3.15
0
LINE
8
BLACK
6
CONTINUOUS
10
147.905
20
3.15
11
147.905
21
3.7
0
LINE
8
BLACK
6
CONTINUOUS
10
147.905
20
3.7
11
149.405
21
3.7
0
LINE
8
BLACK
6
CONTINUOUS
10
149.405
20
3.7
11
149.405
21
3.15
0
LINE
8
BLACK
6
CONTINUOUS
10
149.405
20
3.95
11
147.905
21
3.95
0
LINE
8
BLACK
6
CONTINUOUS
10
147.905
20
3.95
11
147.905
21
4.5
0
LINE
8
BLACK
6
CONTINUOUS
10
147.905
20
4.5
11
149.405
21
4.5
0
LINE
8
BLACK
6
CONTINUOUS
10
149.405
20
4.5
11
149.405
21
3.95
0
LINE
8
BLACK
6
CONTINUOUS
10
160.805
20
3.95
11
159.305
21
3.95
0
LINE
8
BLACK
6
CONTINUOUS
10
159.305
20
3.95
11
159.305
21
4.5
0
LINE
8
BLACK
6
CONTINUOUS
10
159.305
20
4.5
11
160.805
21
4.5
0
LINE
8
BLACK
6
CONTINUOUS
10
160.805
20
4.5
11
160.805
21
3.95
0
LINE
8
BLACK
6
CONTINUOUS
10
143.067
20
5.17972
11
142.218
21
4.33119
0
LINE
8
BLACK
6
CONTINUOUS
10
142.218
20
4.33119
11
141.228
21
5.32114
0
LINE
8
BLACK
6
CONTINUOUS
10
141.228
20
5.32114
11
142.077
21
6.16967
0
LINE
8
BLACK
6
CONTINUOUS
10
142.077
20
6.16967
11
143.067
21
5.17972
0
LINE
8
BLACK
6
CONTINUOUS
10
149.405
20
4.75
11
147.905
21
4.75
0
LINE
8
BLACK
6
CONTINUOUS
10
147.905
20
4.75
11
147.905
21
5.3
0
LINE
8
BLACK
6
CONTINUOUS
10
147.905
20
5.3
11
149.405
21
5.3
0
LINE
8
BLACK
6
CONTINUOUS
10
149.405
20
5.3
11
149.405
21
4.75
0
LINE
8
BLACK
6
CONTINUOUS
10
160.805
20
4.75
11
159.305
21
4.75
0
LINE
8
BLACK
6
CONTINUOUS
10
159.305
20
4.75
11
159.305
21
5.3
0
LINE
8
BLACK
6
CONTINUOUS
10
159.305
20
5.3
11
160.805
21
5.3
0
LINE
8
BLACK
6
CONTINUOUS
10
160.805
20
5.3
11
160.805
21
4.75
0
LINE
8
BLACK
6
CONTINUOUS
10
144.269
20
6.3818
11
143.42
21
5.53327
0
LINE
8
BLACK
6
CONTINUOUS
10
143.42
20
5.53327
11
142.43
21
6.52322
0
LINE
8
BLACK
6
CONTINUOUS
10
142.43
20
6.52322
11
143.279
21
7.37175
0
LINE
8
BLACK
6
CONTINUOUS
10
143.279
20
7.37175
11
144.269
21
6.3818
0
LINE
8
BLACK
6
CONTINUOUS
10
149.405
20
5.55
11
147.905
21
5.55
0
LINE
8
BLACK
6
CONTINUOUS
10
147.905
20
5.55
11
147.905
21
6.1
0
LINE
8
BLACK
6
CONTINUOUS
10
147.905
20
6.1
11
149.405
21
6.1
0
LINE
8
BLACK
6
CONTINUOUS
10
149.405
20
6.1
11
149.405
21
5.55
0
LINE
8
BLACK
6
CONTINUOUS
10
160.805
20
5.55
11
159.305
21
5.55
0
LINE
8
BLACK
6
CONTINUOUS
10
159.305
20
5.55
11
159.305
21
6.1
0
LINE
8
BLACK
6
CONTINUOUS
10
159.305
20
6.1
11
160.805
21
6.1
0
LINE
8
BLACK
6
CONTINUOUS
10
160.805
20
6.1
11
160.805
21
5.55
0
LINE
8
BLACK
6
CONTINUOUS
10
141.37
20
6.87678
11
140.521
21
6.02825
0
LINE
8
BLACK
6
CONTINUOUS
10
140.521
20
6.02825
11
139.531
21
7.0182
0
LINE
8
BLACK
6
CONTINUOUS
10
139.531
20
7.0182
11
140.38
21
7.86673
0
LINE
8
BLACK
6
CONTINUOUS
10
140.38
20
7.86673
11
141.37
21
6.87678
0
LINE
8
BLACK
6
CONTINUOUS
10
160.805
20
6.35
11
159.305
21
6.35
0
LINE
8
BLACK
6
CONTINUOUS
10
159.305
20
6.35
11
159.305
21
6.9
0
LINE
8
BLACK
6
CONTINUOUS
10
159.305
20
6.9
11
160.805
21
6.9
0
LINE
8
BLACK
6
CONTINUOUS
10
160.805
20
6.9
11
160.805
21
6.35
0
LINE
8
BLACK
6
CONTINUOUS
10
149.405
20
6.35
11
147.905
21
6.35
0
LINE
8
BLACK
6
CONTINUOUS
10
147.905
20
6.35
11
147.905
21
6.9
0
LINE
8
BLACK
6
CONTINUOUS
10
147.905
20
6.9
11
149.405
21
6.9
0
LINE
8
BLACK
6
CONTINUOUS
10
149.405
20
6.9
11
149.405
21
6.35
0
LINE
8
BLACK
6
CONTINUOUS
10
160.805
20
7.15
11
159.305
21
7.15
0
LINE
8
BLACK
6
CONTINUOUS
10
159.305
20
7.15
11
159.305
21
7.7
0
LINE
8
BLACK
6
CONTINUOUS
10
159.305
20
7.7
11
160.805
21
7.7
0
LINE
8
BLACK
6
CONTINUOUS
10
160.805
20
7.7
11
160.805
21
7.15
0
LINE
8
BLACK
6
CONTINUOUS
10
149.405
20
7.15
11
147.905
21
7.15
0
LINE
8
BLACK
6
CONTINUOUS
10
147.905
20
7.15
11
147.905
21
7.7
0
LINE
8
BLACK
6
CONTINUOUS
10
147.905
20
7.7
11
149.405
21
7.7
0
LINE
8
BLACK
6
CONTINUOUS
10
149.405
20
7.7
11
149.405
21
7.15
0
LINE
8
BLACK
6
CONTINUOUS
10
142.572
20
8.07886
11
141.723
21
7.23033
0
LINE
8
BLACK
6
CONTINUOUS
10
141.723
20
7.23033
11
140.733
21
8.22028
0
LINE
8
BLACK
6
CONTINUOUS
10
140.733
20
8.22028
11
141.582
21
9.06881
0
LINE
8
BLACK
6
CONTINUOUS
10
141.582
20
9.06881
11
142.572
21
8.07886
0
LINE
8
BLACK
6
CONTINUOUS
10
160.805
20
7.95
11
159.305
21
7.95
0
LINE
8
BLACK
6
CONTINUOUS
10
159.305
20
7.95
11
159.305
21
8.5
0
LINE
8
BLACK
6
CONTINUOUS
10
159.305
20
8.5
11
160.805
21
8.5
0
LINE
8
BLACK
6
CONTINUOUS
10
160.805
20
8.5
11
160.805
21
7.95
0
LINE
8
BLACK
6
CONTINUOUS
10
149.405
20
7.95
11
147.905
21
7.95
0
LINE
8
BLACK
6
CONTINUOUS
10
147.905
20
7.95
11
147.905
21
8.5
0
LINE
8
BLACK
6
CONTINUOUS
10
147.905
20
8.5
11
149.405
21
8.5
0
LINE
8
BLACK
6
CONTINUOUS
10
149.405
20
8.5
11
149.405
21
7.95
0
LINE
8
BLACK
6
CONTINUOUS
10
160.805
20
8.75
11
159.305
21
8.75
0
LINE
8
BLACK
6
CONTINUOUS
10
159.305
20
8.75
11
159.305
21
9.3
0
LINE
8
BLACK
6
CONTINUOUS
10
159.305
20
9.3
11
160.805
21
9.3
0
LINE
8
BLACK
6
CONTINUOUS
10
160.805
20
9.3
11
160.805
21
8.75
0
LINE
8
BLACK
6
CONTINUOUS
10
149.405
20
8.75
11
147.905
21
8.75
0
LINE
8
BLACK
6
CONTINUOUS
10
147.905
20
8.75
11
147.905
21
9.3
0
LINE
8
BLACK
6
CONTINUOUS
10
147.905
20
9.3
11
149.405
21
9.3
0
LINE
8
BLACK
6
CONTINUOUS
10
149.405
20
9.3
11
149.405
21
8.75
0
LINE
8
BLACK
6
CONTINUOUS
10
166.9
20
9.3
11
165.9
21
9.3
0
LINE
8
BLACK
6
CONTINUOUS
10
165.9
20
9.3
11
165.9
21
11
0
LINE
8
BLACK
6
CONTINUOUS
10
165.9
20
11
11
166.9
21
11
0
LINE
8
BLACK
6
CONTINUOUS
10
166.9
20
11
11
166.9
21
9.3
0
LINE
8
BLACK
6
CONTINUOUS
10
170.7
20
9.3
11
169.7
21
9.3
0
LINE
8
BLACK
6
CONTINUOUS
10
169.7
20
9.3
11
169.7
21
11
0
LINE
8
BLACK
6
CONTINUOUS
10
169.7
20
11
11
170.7
21
11
0
LINE
8
BLACK
6
CONTINUOUS
10
170.7
20
11
11
170.7
21
9.3
0
LINE
8
BLACK
6
CONTINUOUS
10
160.805
20
9.55
11
159.305
21
9.55
0
LINE
8
BLACK
6
CONTINUOUS
10
159.305
20
9.55
11
159.305
21
10.1
0
LINE
8
BLACK
6
CONTINUOUS
10
159.305
20
10.1
11
160.805
21
10.1
0
LINE
8
BLACK
6
CONTINUOUS
10
160.805
20
10.1
11
160.805
21
9.55
0
LINE
8
BLACK
6
CONTINUOUS
10
149.405
20
9.55
11
147.905
21
9.55
0
LINE
8
BLACK
6
CONTINUOUS
10
147.905
20
9.55
11
147.905
21
10.1
0
LINE
8
BLACK
6
CONTINUOUS
10
147.905
20
10.1
11
149.405
21
10.1
0
LINE
8
BLACK
6
CONTINUOUS
10
149.405
20
10.1
11
149.405
21
9.55
0
LINE
8
BLACK
6
CONTINUOUS
10
160.805
20
10.35
11
159.305
21
10.35
0
LINE
8
BLACK
6
CONTINUOUS
10
159.305
20
10.35
11
159.305
21
10.9
0
LINE
8
BLACK
6
CONTINUOUS
10
159.305
20
10.9
11
160.805
21
10.9
0
LINE
8
BLACK
6
CONTINUOUS
10
160.805
20
10.9
11
160.805
21
10.35
0
LINE
8
BLACK
6
CONTINUOUS
10
149.405
20
10.35
11
147.905
21
10.35
0
LINE
8
BLACK
6
CONTINUOUS
10
147.905
20
10.35
11
147.905
21
10.9
0
LINE
8
BLACK
6
CONTINUOUS
10
147.905
20
10.9
11
149.405
21
10.9
0
LINE
8
BLACK
6
CONTINUOUS
10
149.405
20
10.9
11
149.405
21
10.35
0
LINE
8
BLACK
6
CONTINUOUS
10
152.23
20
11.575
11
151.68
21
11.575
0
LINE
8
BLACK
6
CONTINUOUS
10
151.68
20
11.575
11
151.68
21
13.075
0
LINE
8
BLACK
6
CONTINUOUS
10
151.68
20
13.075
11
152.23
21
13.075
0
LINE
8
BLACK
6
CONTINUOUS
10
152.23
20
13.075
11
152.23
21
11.575
0
LINE
8
BLACK
6
CONTINUOUS
10
158.63
20
11.575
11
158.08
21
11.575
0
LINE
8
BLACK
6
CONTINUOUS
10
158.08
20
11.575
11
158.08
21
13.075
0
LINE
8
BLACK
6
CONTINUOUS
10
158.08
20
13.075
11
158.63
21
13.075
0
LINE
8
BLACK
6
CONTINUOUS
10
158.63
20
13.075
11
158.63
21
11.575
0
LINE
8
BLACK
6
CONTINUOUS
10
157.83
20
11.575
11
157.28
21
11.575
0
LINE
8
BLACK
6
CONTINUOUS
10
157.28
20
11.575
11
157.28
21
13.075
0
LINE
8
BLACK
6
CONTINUOUS
10
157.28
20
13.075
11
157.83
21
13.075
0
LINE
8
BLACK
6
CONTINUOUS
10
157.83
20
13.075
11
157.83
21
11.575
0
LINE
8
BLACK
6
CONTINUOUS
10
157.03
20
11.575
11
156.48
21
11.575
0
LINE
8
BLACK
6
CONTINUOUS
10
156.48
20
11.575
11
156.48
21
13.075
0
LINE
8
BLACK
6
CONTINUOUS
10
156.48
20
13.075
11
157.03
21
13.075
0
LINE
8
BLACK
6
CONTINUOUS
10
157.03
20
13.075
11
157.03
21
11.575
0
LINE
8
BLACK
6
CONTINUOUS
10
156.23
20
11.575
11
155.68
21
11.575
0
LINE
8
BLACK
6
CONTINUOUS
10
155.68
20
11.575
11
155.68
21
13.075
0
LINE
8
BLACK
6
CONTINUOUS
10
155.68
20
13.075
11
156.23
21
13.075
0
LINE
8
BLACK
6
CONTINUOUS
10
156.23
20
13.075
11
156.23
21
11.575
0
LINE
8
BLACK
6
CONTINUOUS
10
155.43
20
11.575
11
154.88
21
11.575
0
LINE
8
BLACK
6
CONTINUOUS
10
154.88
20
11.575
11
154.88
21
13.075
0
LINE
8
BLACK
6
CONTINUOUS
10
154.88
20
13.075
11
155.43
21
13.075
0
LINE
8
BLACK
6
CONTINUOUS
10
155.43
20
13.075
11
155.43
21
11.575
0
LINE
8
BLACK
6
CONTINUOUS
10
154.63
20
11.575
11
154.08
21
11.575
0
LINE
8
BLACK
6
CONTINUOUS
10
154.08
20
11.575
11
154.08
21
13.075
0
LINE
8
BLACK
6
CONTINUOUS
10
154.08
20
13.075
11
154.63
21
13.075
0
LINE
8
BLACK
6
CONTINUOUS
10
154.63
20
13.075
11
154.63
21
11.575
0
LINE
8
BLACK
6
CONTINUOUS
10
153.83
20
11.575
11
153.28
21
11.575
0
LINE
8
BLACK
6
CONTINUOUS
10
153.28
20
11.575
11
153.28
21
13.075
0
LINE
8
BLACK
6
CONTINUOUS
10
153.28
20
13.075
11
153.83
21
13.075
0
LINE
8
BLACK
6
CONTINUOUS
10
153.83
20
13.075
11
153.83
21
11.575
0
LINE
8
BLACK
6
CONTINUOUS
10
153.03
20
11.575
11
152.48
21
11.575
0
LINE
8
BLACK
6
CONTINUOUS
10
152.48
20
11.575
11
152.48
21
13.075
0
LINE
8
BLACK
6
CONTINUOUS
10
152.48
20
13.075
11
153.03
21
13.075
0
LINE
8
BLACK
6
CONTINUOUS
10
153.03
20
13.075
11
153.03
21
11.575
0
LINE
8
BLACK
6
CONTINUOUS
10
151.43
20
11.575
11
150.88
21
11.575
0
LINE
8
BLACK
6
CONTINUOUS
10
150.88
20
11.575
11
150.88
21
13.075
0
LINE
8
BLACK
6
CONTINUOUS
10
150.88
20
13.075
11
151.43
21
13.075
0
LINE
8
BLACK
6
CONTINUOUS
10
151.43
20
13.075
11
151.43
21
11.575
0
LINE
8
BLACK
6
CONTINUOUS
10
150.63
20
11.575
11
150.08
21
11.575
0
LINE
8
BLACK
6
CONTINUOUS
10
150.08
20
11.575
11
150.08
21
13.075
0
LINE
8
BLACK
6
CONTINUOUS
10
150.08
20
13.075
11
150.63
21
13.075
0
LINE
8
BLACK
6
CONTINUOUS
10
150.63
20
13.075
11
150.63
21
11.575
0
LINE
8
BLACK
6
CONTINUOUS
10
141.049
20
13.2952
11
141.096
21
13.281
0
LINE
8
BLACK
6
CONTINUOUS
10
141.096
20
13.281
11
141.139
21
13.2579
0
LINE
8
BLACK
6
CONTINUOUS
10
141.139
20
13.2579
11
141.177
21
13.2268
0
LINE
8
BLACK
6
CONTINUOUS
10
141.177
20
13.2268
11
141.208
21
13.1889
0
LINE
8
BLACK
6
CONTINUOUS
10
141.208
20
13.1889
11
141.231
21
13.1457
0
LINE
8
BLACK
6
CONTINUOUS
10
141.231
20
13.1457
11
141.245
21
13.0988
0
LINE
8
BLACK
6
CONTINUOUS
10
141.245
20
13.0988
11
141.25
21
13.05
0
LINE
8
BLACK
6
CONTINUOUS
10
141.25
20
13.05
11
141.25
21
12.15
0
LINE
8
BLACK
6
CONTINUOUS
10
141.25
20
12.15
11
141.245
21
12.1012
0
LINE
8
BLACK
6
CONTINUOUS
10
141.245
20
12.1012
11
141.231
21
12.0543
0
LINE
8
BLACK
6
CONTINUOUS
10
141.231
20
12.0543
11
141.208
21
12.0111
0
LINE
8
BLACK
6
CONTINUOUS
10
141.208
20
12.0111
11
141.177
21
11.9732
0
LINE
8
BLACK
6
CONTINUOUS
10
141.177
20
11.9732
11
141.139
21
11.9421
0
LINE
8
BLACK
6
CONTINUOUS
10
141.139
20
11.9421
11
141.096
21
11.919
0
LINE
8
BLACK
6
CONTINUOUS
10
141.096
20
11.919
11
141.049
21
11.9048
0
LINE
8
BLACK
6
CONTINUOUS
10
141.049
20
11.9048
11
141
21
11.9
0
LINE
8
BLACK
6
CONTINUOUS
10
141
20
11.9
11
140.35
21
11.9
0
LINE
8
BLACK
6
CONTINUOUS
10
140.35
20
11.9
11
140.301
21
11.9048
0
LINE
8
BLACK
6
CONTINUOUS
10
140.301
20
11.9048
11
140.254
21
11.919
0
LINE
8
BLACK
6
CONTINUOUS
10
140.254
20
11.919
11
140.211
21
11.9421
0
LINE
8
BLACK
6
CONTINUOUS
10
140.211
20
11.9421
11
140.173
21
11.9732
0
LINE
8
BLACK
6
CONTINUOUS
10
140.173
20
11.9732
11
140.142
21
12.0111
0
LINE
8
BLACK
6
CONTINUOUS
10
140.142
20
12.0111
11
140.119
21
12.0543
0
LINE
8
BLACK
6
CONTINUOUS
10
140.119
20
12.0543
11
140.105
21
12.1012
0
LINE
8
BLACK
6
CONTINUOUS
10
140.105
20
12.1012
11
140.1
21
12.15
0
LINE
8
BLACK
6
CONTINUOUS
10
140.1
20
12.15
11
140.1
21
13.05
0
LINE
8
BLACK
6
CONTINUOUS
10
140.1
20
13.05
11
140.105
21
13.0988
0
LINE
8
BLACK
6
CONTINUOUS
10
140.105
20
13.0988
11
140.119
21
13.1457
0
LINE
8
BLACK
6
CONTINUOUS
10
140.119
20
13.1457
11
140.142
21
13.1889
0
LINE
8
BLACK
6
CONTINUOUS
10
140.142
20
13.1889
11
140.173
21
13.2268
0
LINE
8
BLACK
6
CONTINUOUS
10
140.173
20
13.2268
11
140.211
21
13.2579
0
LINE
8
BLACK
6
CONTINUOUS
10
140.211
20
13.2579
11
140.254
21
13.281
0
LINE
8
BLACK
6
CONTINUOUS
10
140.254
20
13.281
11
140.301
21
13.2952
0
LINE
8
BLACK
6
CONTINUOUS
10
140.301
20
13.2952
11
140.35
21
13.3
0
LINE
8
BLACK
6
CONTINUOUS
10
140.35
20
13.3
11
141
21
13.3
0
LINE
8
BLACK
6
CONTINUOUS
10
141
20
13.3
11
141.049
21
13.2952
0
LINE
8
BLACK
6
CONTINUOUS
10
143.099
20
13.2952
11
143.146
21
13.281
0
LINE
8
BLACK
6
CONTINUOUS
10
143.146
20
13.281
11
143.189
21
13.2579
0
LINE
8
BLACK
6
CONTINUOUS
10
143.189
20
13.2579
11
143.227
21
13.2268
0
LINE
8
BLACK
6
CONTINUOUS
10
143.227
20
13.2268
11
143.258
21
13.1889
0
LINE
8
BLACK
6
CONTINUOUS
10
143.258
20
13.1889
11
143.281
21
13.1457
0
LINE
8
BLACK
6
CONTINUOUS
10
143.281
20
13.1457
11
143.295
21
13.0988
0
LINE
8
BLACK
6
CONTINUOUS
10
143.295
20
13.0988
11
143.3
21
13.05
0
LINE
8
BLACK
6
CONTINUOUS
10
143.3
20
13.05
11
143.3
21
12.15
0
LINE
8
BLACK
6
CONTINUOUS
10
143.3
20
12.15
11
143.295
21
12.1012
0
LINE
8
BLACK
6
CONTINUOUS
10
143.295
20
12.1012
11
143.281
21
12.0543
0
LINE
8
BLACK
6
CONTINUOUS
10
143.281
20
12.0543
11
143.258
21
12.0111
0
LINE
8
BLACK
6
CONTINUOUS
10
143.258
20
12.0111
11
143.227
21
11.9732
0
LINE
8
BLACK
6
CONTINUOUS
10
143.227
20
11.9732
11
143.189
21
11.9421
0
LINE
8
BLACK
6
CONTINUOUS
10
143.189
20
11.9421
11
143.146
21
11.919
0
LINE
8
BLACK
6
CONTINUOUS
10
143.146
20
11.919
11
143.099
21
11.9048
0
LINE
8
BLACK
6
CONTINUOUS
10
143.099
20
11.9048
11
143.05
21
11.9
0
LINE
8
BLACK
6
CONTINUOUS
10
143.05
20
11.9
11
142.4
21
11.9
0
LINE
8
BLACK
6
CONTINUOUS
10
142.4
20
11.9
11
142.351
21
11.9048
0
LINE
8
BLACK
6
CONTINUOUS
10
142.351
20
11.9048
11
142.304
21
11.919
0
LINE
8
BLACK
6
CONTINUOUS
10
142.304
20
11.919
11
142.261
21
11.9421
0
LINE
8
BLACK
6
CONTINUOUS
10
142.261
20
11.9421
11
142.223
21
11.9732
0
LINE
8
BLACK
6
CONTINUOUS
10
142.223
20
11.9732
11
142.192
21
12.0111
0
LINE
8
BLACK
6
CONTINUOUS
10
142.192
20
12.0111
11
142.169
21
12.0543
0
LINE
8
BLACK
6
CONTINUOUS
10
142.169
20
12.0543
11
142.155
21
12.1012
0
LINE
8
BLACK
6
CONTINUOUS
10
142.155
20
12.1012
11
142.15
21
12.15
0
LINE
8
BLACK
6
CONTINUOUS
10
142.15
20
12.15
11
142.15
21
13.05
0
LINE
8
BLACK
6
CONTINUOUS
10
142.15
20
13.05
11
142.155
21
13.0988
0
LINE
8
BLACK
6
CONTINUOUS
10
142.155
20
13.0988
11
142.169
21
13.1457
0
LINE
8
BLACK
6
CONTINUOUS
10
142.169
20
13.1457
11
142.192
21
13.1889
0
LINE
8
BLACK
6
CONTINUOUS
10
142.192
20
13.1889
11
142.223
21
13.2268
0
LINE
8
BLACK
6
CONTINUOUS
10
142.223
20
13.2268
11
142.261
21
13.2579
0
LINE
8
BLACK
6
CONTINUOUS
10
142.261
20
13.2579
11
142.304
21
13.281
0
LINE
8
BLACK
6
CONTINUOUS
10
142.304
20
13.281
11
142.351
21
13.2952
0
LINE
8
BLACK
6
CONTINUOUS
10
142.351
20
13.2952
11
142.4
21
13.3
0
LINE
8
BLACK
6
CONTINUOUS
10
142.4
20
13.3
11
143.05
21
13.3
0
LINE
8
BLACK
6
CONTINUOUS
10
143.05
20
13.3
11
143.099
21
13.2952
0
LINE
8
BLACK
6
CONTINUOUS
10
154.874
20
16.6952
11
154.921
21
16.681
0
LINE
8
BLACK
6
CONTINUOUS
10
154.921
20
16.681
11
154.964
21
16.6579
0
LINE
8
BLACK
6
CONTINUOUS
10
154.964
20
16.6579
11
155.002
21
16.6268
0
LINE
8
BLACK
6
CONTINUOUS
10
155.002
20
16.6268
11
155.033
21
16.5889
0
LINE
8
BLACK
6
CONTINUOUS
10
155.033
20
16.5889
11
155.056
21
16.5457
0
LINE
8
BLACK
6
CONTINUOUS
10
155.056
20
16.5457
11
155.07
21
16.4988
0
LINE
8
BLACK
6
CONTINUOUS
10
155.07
20
16.4988
11
155.075
21
16.45
0
LINE
8
BLACK
6
CONTINUOUS
10
155.075
20
16.45
11
155.075
21
15.55
0
LINE
8
BLACK
6
CONTINUOUS
10
155.075
20
15.55
11
155.07
21
15.5012
0
LINE
8
BLACK
6
CONTINUOUS
10
155.07
20
15.5012
11
155.056
21
15.4543
0
LINE
8
BLACK
6
CONTINUOUS
10
155.056
20
15.4543
11
155.033
21
15.4111
0
LINE
8
BLACK
6
CONTINUOUS
10
155.033
20
15.4111
11
155.002
21
15.3732
0
LINE
8
BLACK
6
CONTINUOUS
10
155.002
20
15.3732
11
154.964
21
15.3421
0
LINE
8
BLACK
6
CONTINUOUS
10
154.964
20
15.3421
11
154.921
21
15.319
0
LINE
8
BLACK
6
CONTINUOUS
10
154.921
20
15.319
11
154.874
21
15.3048
0
LINE
8
BLACK
6
CONTINUOUS
10
154.874
20
15.3048
11
154.825
21
15.3
0
LINE
8
BLACK
6
CONTINUOUS
10
154.825
20
15.3
11
154.175
21
15.3
0
LINE
8
BLACK
6
CONTINUOUS
10
154.175
20
15.3
11
154.126
21
15.3048
0
LINE
8
BLACK
6
CONTINUOUS
10
154.126
20
15.3048
11
154.079
21
15.319
0
LINE
8
BLACK
6
CONTINUOUS
10
154.079
20
15.319
11
154.036
21
15.3421
0
LINE
8
BLACK
6
CONTINUOUS
10
154.036
20
15.3421
11
153.998
21
15.3732
0
LINE
8
BLACK
6
CONTINUOUS
10
153.998
20
15.3732
11
153.967
21
15.4111
0
LINE
8
BLACK
6
CONTINUOUS
10
153.967
20
15.4111
11
153.944
21
15.4543
0
LINE
8
BLACK
6
CONTINUOUS
10
153.944
20
15.4543
11
153.93
21
15.5012
0
LINE
8
BLACK
6
CONTINUOUS
10
153.93
20
15.5012
11
153.925
21
15.55
0
LINE
8
BLACK
6
CONTINUOUS
10
153.925
20
15.55
11
153.925
21
16.45
0
LINE
8
BLACK
6
CONTINUOUS
10
153.925
20
16.45
11
153.93
21
16.4988
0
LINE
8
BLACK
6
CONTINUOUS
10
153.93
20
16.4988
11
153.944
21
16.5457
0
LINE
8
BLACK
6
CONTINUOUS
10
153.944
20
16.5457
11
153.967
21
16.5889
0
LINE
8
BLACK
6
CONTINUOUS
10
153.967
20
16.5889
11
153.998
21
16.6268
0
LINE
8
BLACK
6
CONTINUOUS
10
153.998
20
16.6268
11
154.036
21
16.6579
0
LINE
8
BLACK
6
CONTINUOUS
10
154.036
20
16.6579
11
154.079
21
16.681
0
LINE
8
BLACK
6
CONTINUOUS
10
154.079
20
16.681
11
154.126
21
16.6952
0
LINE
8
BLACK
6
CONTINUOUS
10
154.126
20
16.6952
11
154.175
21
16.7
0
LINE
8
BLACK
6
CONTINUOUS
10
154.175
20
16.7
11
154.825
21
16.7
0
LINE
8
BLACK
6
CONTINUOUS
10
154.825
20
16.7
11
154.874
21
16.6952
0
LINE
8
BLACK
6
CONTINUOUS
10
150.874
20
16.6952
11
150.921
21
16.681
0
LINE
8
BLACK
6
CONTINUOUS
10
150.921
20
16.681
11
150.964
21
16.6579
0
LINE
8
BLACK
6
CONTINUOUS
10
150.964
20
16.6579
11
151.002
21
16.6268
0
LINE
8
BLACK
6
CONTINUOUS
10
151.002
20
16.6268
11
151.033
21
16.5889
0
LINE
8
BLACK
6
CONTINUOUS
10
151.033
20
16.5889
11
151.056
21
16.5457
0
LINE
8
BLACK
6
CONTINUOUS
10
151.056
20
16.5457
11
151.07
21
16.4988
0
LINE
8
BLACK
6
CONTINUOUS
10
151.07
20
16.4988
11
151.075
21
16.45
0
LINE
8
BLACK
6
CONTINUOUS
10
151.075
20
16.45
11
151.075
21
15.55
0
LINE
8
BLACK
6
CONTINUOUS
10
151.075
20
15.55
11
151.07
21
15.5012
0
LINE
8
BLACK
6
CONTINUOUS
10
151.07
20
15.5012
11
151.056
21
15.4543
0
LINE
8
BLACK
6
CONTINUOUS
10
151.056
20
15.4543
11
151.033
21
15.4111
0
LINE
8
BLACK
6
CONTINUOUS
10
151.033
20
15.4111
11
151.002
21
15.3732
0
LINE
8
BLACK
6
CONTINUOUS
10
151.002
20
15.3732
11
150.964
21
15.3421
0
LINE
8
BLACK
6
CONTINUOUS
10
150.964
20
15.3421
11
150.921
21
15.319
0
LINE
8
BLACK
6
CONTINUOUS
10
150.921
20
15.319
11
150.874
21
15.3048
0
LINE
8
BLACK
6
CONTINUOUS
10
150.874
20
15.3048
11
150.825
21
15.3
0
LINE
8
BLACK
6
CONTINUOUS
10
150.825
20
15.3
11
150.175
21
15.3
0
LINE
8
BLACK
6
CONTINUOUS
10
150.175
20
15.3
11
150.126
21
15.3048
0
LINE
8
BLACK
6
CONTINUOUS
10
150.126
20
15.3048
11
150.079
21
15.319
0
LINE
8
BLACK
6
CONTINUOUS
10
150.079
20
15.319
11
150.036
21
15.3421
0
LINE
8
BLACK
6
CONTINUOUS
10
150.036
20
15.3421
11
149.998
21
15.3732
0
LINE
8
BLACK
6
CONTINUOUS
10
149.998
20
15.3732
11
149.967
21
15.4111
0
LINE
8
BLACK
6
CONTINUOUS
10
149.967
20
15.4111
11
149.944
21
15.4543
0
LINE
8
BLACK
6
CONTINUOUS
10
149.944
20
15.4543
11
149.93
21
15.5012
0
LINE
8
BLACK
6
CONTINUOUS
10
149.93
20
15.5012
11
149.925
21
15.55
0
LINE
8
BLACK
6
CONTINUOUS
10
149.925
20
15.55
11
149.925
21
16.45
0
LINE
8
BLACK
6
CONTINUOUS
10
149.925
20
16.45
11
149.93
21
16.4988
0
LINE
8
BLACK
6
CONTINUOUS
10
149.93
20
16.4988
11
149.944
21
16.5457
0
LINE
8
BLACK
6
CONTINUOUS
10
149.944
20
16.5457
11
149.967
21
16.5889
0
LINE
8
BLACK
6
CONTINUOUS
10
149.967
20
16.5889
11
149.998
21
16.6268
0
LINE
8
BLACK
6
CONTINUOUS
10
149.998
20
16.6268
11
150.036
21
16.6579
0
LINE
8
BLACK
6
CONTINUOUS
10
150.036
20
16.6579
11
150.079
21
16.681
0
LINE
8
BLACK
6
CONTINUOUS
10
150.079
20
16.681
11
150.126
21
16.6952
0
LINE
8
BLACK
6
CONTINUOUS
10
150.126
20
16.6952
11
150.175
21
16.7
0
LINE
8
BLACK
6
CONTINUOUS
10
150.175
20
16.7
11
150.825
21
16.7
0
LINE
8
BLACK
6
CONTINUOUS
10
150.825
20
16.7
11
150.874
21
16.6952
0
LINE
8
BLACK
6
CONTINUOUS
10
148.824
20
16.6952
11
148.871
21
16.681
0
LINE
8
BLACK
6
CONTINUOUS
10
148.871
20
16.681
11
148.914
21
16.6579
0
LINE
8
BLACK
6
CONTINUOUS
10
148.914
20
16.6579
11
148.952
21
16.6268
0
LINE
8
BLACK
6
CONTINUOUS
10
148.952
20
16.6268
11
148.983
21
16.5889
0
LINE
8
BLACK
6
CONTINUOUS
10
148.983
20
16.5889
11
149.006
21
16.5457
0
LINE
8
BLACK
6
CONTINUOUS
10
149.006
20
16.5457
11
149.02
21
16.4988
0
LINE
8
BLACK
6
CONTINUOUS
10
149.02
20
16.4988
11
149.025
21
16.45
0
LINE
8
BLACK
6
CONTINUOUS
10
149.025
20
16.45
11
149.025
21
15.55
0
LINE
8
BLACK
6
CONTINUOUS
10
149.025
20
15.55
11
149.02
21
15.5012
0
LINE
8
BLACK
6
CONTINUOUS
10
149.02
20
15.5012
11
149.006
21
15.4543
0
LINE
8
BLACK
6
CONTINUOUS
10
149.006
20
15.4543
11
148.983
21
15.4111
0
LINE
8
BLACK
6
CONTINUOUS
10
148.983
20
15.4111
11
148.952
21
15.3732
0
LINE
8
BLACK
6
CONTINUOUS
10
148.952
20
15.3732
11
148.914
21
15.3421
0
LINE
8
BLACK
6
CONTINUOUS
10
148.914
20
15.3421
11
148.871
21
15.319
0
LINE
8
BLACK
6
CONTINUOUS
10
148.871
20
15.319
11
148.824
21
15.3048
0
LINE
8
BLACK
6
CONTINUOUS
10
148.824
20
15.3048
11
148.775
21
15.3
0
LINE
8
BLACK
6
CONTINUOUS
10
148.775
20
15.3
11
148.125
21
15.3
0
LINE
8
BLACK
6
CONTINUOUS
10
148.125
20
15.3
11
148.076
21
15.3048
0
LINE
8
BLACK
6
CONTINUOUS
10
148.076
20
15.3048
11
148.029
21
15.319
0
LINE
8
BLACK
6
CONTINUOUS
10
148.029
20
15.319
11
147.986
21
15.3421
0
LINE
8
BLACK
6
CONTINUOUS
10
147.986
20
15.3421
11
147.948
21
15.3732
0
LINE
8
BLACK
6
CONTINUOUS
10
147.948
20
15.3732
11
147.917
21
15.4111
0
LINE
8
BLACK
6
CONTINUOUS
10
147.917
20
15.4111
11
147.894
21
15.4543
0
LINE
8
BLACK
6
CONTINUOUS
10
147.894
20
15.4543
11
147.88
21
15.5012
0
LINE
8
BLACK
6
CONTINUOUS
10
147.88
20
15.5012
11
147.875
21
15.55
0
LINE
8
BLACK
6
CONTINUOUS
10
147.875
20
15.55
11
147.875
21
16.45
0
LINE
8
BLACK
6
CONTINUOUS
10
147.875
20
16.45
11
147.88
21
16.4988
0
LINE
8
BLACK
6
CONTINUOUS
10
147.88
20
16.4988
11
147.894
21
16.5457
0
LINE
8
BLACK
6
CONTINUOUS
10
147.894
20
16.5457
11
147.917
21
16.5889
0
LINE
8
BLACK
6
CONTINUOUS
10
147.917
20
16.5889
11
147.948
21
16.6268
0
LINE
8
BLACK
6
CONTINUOUS
10
147.948
20
16.6268
11
147.986
21
16.6579
0
LINE
8
BLACK
6
CONTINUOUS
10
147.986
20
16.6579
11
148.029
21
16.681
0
LINE
8
BLACK
6
CONTINUOUS
10
148.029
20
16.681
11
148.076
21
16.6952
0
LINE
8
BLACK
6
CONTINUOUS
10
148.076
20
16.6952
11
148.125
21
16.7
0
LINE
8
BLACK
6
CONTINUOUS
10
148.125
20
16.7
11
148.775
21
16.7
0
LINE
8
BLACK
6
CONTINUOUS
10
148.775
20
16.7
11
148.824
21
16.6952
0
LINE
8
BLACK
6
CONTINUOUS
10
157.024
20
16.6952
11
157.071
21
16.681
0
LINE
8
BLACK
6
CONTINUOUS
10
157.071
20
16.681
11
157.114
21
16.6579
0
LINE
8
BLACK
6
CONTINUOUS
10
157.114
20
16.6579
11
157.152
21
16.6268
0
LINE
8
BLACK
6
CONTINUOUS
10
157.152
20
16.6268
11
157.183
21
16.5889
0
LINE
8
BLACK
6
CONTINUOUS
10
157.183
20
16.5889
11
157.206
21
16.5457
0
LINE
8
BLACK
6
CONTINUOUS
10
157.206
20
16.5457
11
157.22
21
16.4988
0
LINE
8
BLACK
6
CONTINUOUS
10
157.22
20
16.4988
11
157.225
21
16.45
0
LINE
8
BLACK
6
CONTINUOUS
10
157.225
20
16.45
11
157.225
21
15.55
0
LINE
8
BLACK
6
CONTINUOUS
10
157.225
20
15.55
11
157.22
21
15.5012
0
LINE
8
BLACK
6
CONTINUOUS
10
157.22
20
15.5012
11
157.206
21
15.4543
0
LINE
8
BLACK
6
CONTINUOUS
10
157.206
20
15.4543
11
157.183
21
15.4111
0
LINE
8
BLACK
6
CONTINUOUS
10
157.183
20
15.4111
11
157.152
21
15.3732
0
LINE
8
BLACK
6
CONTINUOUS
10
157.152
20
15.3732
11
157.114
21
15.3421
0
LINE
8
BLACK
6
CONTINUOUS
10
157.114
20
15.3421
11
157.071
21
15.319
0
LINE
8
BLACK
6
CONTINUOUS
10
157.071
20
15.319
11
157.024
21
15.3048
0
LINE
8
BLACK
6
CONTINUOUS
10
157.024
20
15.3048
11
156.975
21
15.3
0
LINE
8
BLACK
6
CONTINUOUS
10
156.975
20
15.3
11
156.325
21
15.3
0
LINE
8
BLACK
6
CONTINUOUS
10
156.325
20
15.3
11
156.276
21
15.3048
0
LINE
8
BLACK
6
CONTINUOUS
10
156.276
20
15.3048
11
156.229
21
15.319
0
LINE
8
BLACK
6
CONTINUOUS
10
156.229
20
15.319
11
156.186
21
15.3421
0
LINE
8
BLACK
6
CONTINUOUS
10
156.186
20
15.3421
11
156.148
21
15.3732
0
LINE
8
BLACK
6
CONTINUOUS
10
156.148
20
15.3732
11
156.117
21
15.4111
0
LINE
8
BLACK
6
CONTINUOUS
10
156.117
20
15.4111
11
156.094
21
15.4543
0
LINE
8
BLACK
6
CONTINUOUS
10
156.094
20
15.4543
11
156.08
21
15.5012
0
LINE
8
BLACK
6
CONTINUOUS
10
156.08
20
15.5012
11
156.075
21
15.55
0
LINE
8
BLACK
6
CONTINUOUS
10
156.075
20
15.55
11
156.075
21
16.45
0
LINE
8
BLACK
6
CONTINUOUS
10
156.075
20
16.45
11
156.08
21
16.4988
0
LINE
8
BLACK
6
CONTINUOUS
10
156.08
20
16.4988
11
156.094
21
16.5457
0
LINE
8
BLACK
6
CONTINUOUS
10
156.094
20
16.5457
11
156.117
21
16.5889
0
LINE
8
BLACK
6
CONTINUOUS
10
156.117
20
16.5889
11
156.148
21
16.6268
0
LINE
8
BLACK
6
CONTINUOUS
10
156.148
20
16.6268
11
156.186
21
16.6579
0
LINE
8
BLACK
6
CONTINUOUS
10
156.186
20
16.6579
11
156.229
21
16.681
0
LINE
8
BLACK
6
CONTINUOUS
10
156.229
20
16.681
11
156.276
21
16.6952
0
LINE
8
BLACK
6
CONTINUOUS
10
156.276
20
16.6952
11
156.325
21
16.7
0
LINE
8
BLACK
6
CONTINUOUS
10
156.325
20
16.7
11
156.975
21
16.7
0
LINE
8
BLACK
6
CONTINUOUS
10
156.975
20
16.7
11
157.024
21
16.6952
0
LINE
8
BLACK
6
CONTINUOUS
10
152.824
20
16.6952
11
152.871
21
16.681
0
LINE
8
BLACK
6
CONTINUOUS
10
152.871
20
16.681
11
152.914
21
16.6579
0
LINE
8
BLACK
6
CONTINUOUS
10
152.914
20
16.6579
11
152.952
21
16.6268
0
LINE
8
BLACK
6
CONTINUOUS
10
152.952
20
16.6268
11
152.983
21
16.5889
0
LINE
8
BLACK
6
CONTINUOUS
10
152.983
20
16.5889
11
153.006
21
16.5457
0
LINE
8
BLACK
6
CONTINUOUS
10
153.006
20
16.5457
11
153.02
21
16.4988
0
LINE
8
BLACK
6
CONTINUOUS
10
153.02
20
16.4988
11
153.025
21
16.45
0
LINE
8
BLACK
6
CONTINUOUS
10
153.025
20
16.45
11
153.025
21
15.55
0
LINE
8
BLACK
6
CONTINUOUS
10
153.025
20
15.55
11
153.02
21
15.5012
0
LINE
8
BLACK
6
CONTINUOUS
10
153.02
20
15.5012
11
153.006
21
15.4543
0
LINE
8
BLACK
6
CONTINUOUS
10
153.006
20
15.4543
11
152.983
21
15.4111
0
LINE
8
BLACK
6
CONTINUOUS
10
152.983
20
15.4111
11
152.952
21
15.3732
0
LINE
8
BLACK
6
CONTINUOUS
10
152.952
20
15.3732
11
152.914
21
15.3421
0
LINE
8
BLACK
6
CONTINUOUS
10
152.914
20
15.3421
11
152.871
21
15.319
0
LINE
8
BLACK
6
CONTINUOUS
10
152.871
20
15.319
11
152.824
21
15.3048
0
LINE
8
BLACK
6
CONTINUOUS
10
152.824
20
15.3048
11
152.775
21
15.3
0
LINE
8
BLACK
6
CONTINUOUS
10
152.775
20
15.3
11
152.125
21
15.3
0
LINE
8
BLACK
6
CONTINUOUS
10
152.125
20
15.3
11
152.076
21
15.3048
0
LINE
8
BLACK
6
CONTINUOUS
10
152.076
20
15.3048
11
152.029
21
15.319
0
LINE
8
BLACK
6
CONTINUOUS
10
152.029
20
15.319
11
151.986
21
15.3421
0
LINE
8
BLACK
6
CONTINUOUS
10
151.986
20
15.3421
11
151.948
21
15.3732
0
LINE
8
BLACK
6
CONTINUOUS
10
151.948
20
15.3732
11
151.917
21
15.4111
0
LINE
8
BLACK
6
CONTINUOUS
10
151.917
20
15.4111
11
151.894
21
15.4543
0
LINE
8
BLACK
6
CONTINUOUS
10
151.894
20
15.4543
11
151.88
21
15.5012
0
LINE
8
BLACK
6
CONTINUOUS
10
151.88
20
15.5012
11
151.875
21
15.55
0
LINE
8
BLACK
6
CONTINUOUS
10
151.875
20
15.55
11
151.875
21
16.45
0
LINE
8
BLACK
6
CONTINUOUS
10
151.875
20
16.45
11
151.88
21
16.4988
0
LINE
8
BLACK
6
CONTINUOUS
10
151.88
20
16.4988
11
151.894
21
16.5457
0
LINE
8
BLACK
6
CONTINUOUS
10
151.894
20
16.5457
11
151.917
21
16.5889
0
LINE
8
BLACK
6
CONTINUOUS
10
151.917
20
16.5889
11
151.948
21
16.6268
0
LINE
8
BLACK
6
CONTINUOUS
10
151.948
20
16.6268
11
151.986
21
16.6579
0
LINE
8
BLACK
6
CONTINUOUS
10
151.986
20
16.6579
11
152.029
21
16.681
0
LINE
8
BLACK
6
CONTINUOUS
10
152.029
20
16.681
11
152.076
21
16.6952
0
LINE
8
BLACK
6
CONTINUOUS
10
152.076
20
16.6952
11
152.125
21
16.7
0
LINE
8
BLACK
6
CONTINUOUS
10
152.125
20
16.7
11
152.775
21
16.7
0
LINE
8
BLACK
6
CONTINUOUS
10
152.775
20
16.7
11
152.824
21
16.6952
0
LINE
8
BLACK
6
CONTINUOUS
10
159.074
20
16.6952
11
159.121
21
16.681
0
LINE
8
BLACK
6
CONTINUOUS
10
159.121
20
16.681
11
159.164
21
16.6579
0
LINE
8
BLACK
6
CONTINUOUS
10
159.164
20
16.6579
11
159.202
21
16.6268
0
LINE
8
BLACK
6
CONTINUOUS
10
159.202
20
16.6268
11
159.233
21
16.5889
0
LINE
8
BLACK
6
CONTINUOUS
10
159.233
20
16.5889
11
159.256
21
16.5457
0
LINE
8
BLACK
6
CONTINUOUS
10
159.256
20
16.5457
11
159.27
21
16.4988
0
LINE
8
BLACK
6
CONTINUOUS
10
159.27
20
16.4988
11
159.275
21
16.45
0
LINE
8
BLACK
6
CONTINUOUS
10
159.275
20
16.45
11
159.275
21
15.55
0
LINE
8
BLACK
6
CONTINUOUS
10
159.275
20
15.55
11
159.27
21
15.5012
0
LINE
8
BLACK
6
CONTINUOUS
10
159.27
20
15.5012
11
159.256
21
15.4543
0
LINE
8
BLACK
6
CONTINUOUS
10
159.256
20
15.4543
11
159.233
21
15.4111
0
LINE
8
BLACK
6
CONTINUOUS
10
159.233
20
15.4111
11
159.202
21
15.3732
0
LINE
8
BLACK
6
CONTINUOUS
10
159.202
20
15.3732
11
159.164
21
15.3421
0
LINE
8
BLACK
6
CONTINUOUS
10
159.164
20
15.3421
11
159.121
21
15.319
0
LINE
8
BLACK
6
CONTINUOUS
10
159.121
20
15.319
11
159.074
21
15.3048
0
LINE
8
BLACK
6
CONTINUOUS
10
159.074
20
15.3048
11
159.025
21
15.3
0
LINE
8
BLACK
6
CONTINUOUS
10
159.025
20
15.3
11
158.375
21
15.3
0
LINE
8
BLACK
6
CONTINUOUS
10
158.375
20
15.3
11
158.326
21
15.3048
0
LINE
8
BLACK
6
CONTINUOUS
10
158.326
20
15.3048
11
158.279
21
15.319
0
LINE
8
BLACK
6
CONTINUOUS
10
158.279
20
15.319
11
158.236
21
15.3421
0
LINE
8
BLACK
6
CONTINUOUS
10
158.236
20
15.3421
11
158.198
21
15.3732
0
LINE
8
BLACK
6
CONTINUOUS
10
158.198
20
15.3732
11
158.167
21
15.4111
0
LINE
8
BLACK
6
CONTINUOUS
10
158.167
20
15.4111
11
158.144
21
15.4543
0
LINE
8
BLACK
6
CONTINUOUS
10
158.144
20
15.4543
11
158.13
21
15.5012
0
LINE
8
BLACK
6
CONTINUOUS
10
158.13
20
15.5012
11
158.125
21
15.55
0
LINE
8
BLACK
6
CONTINUOUS
10
158.125
20
15.55
11
158.125
21
16.45
0
LINE
8
BLACK
6
CONTINUOUS
10
158.125
20
16.45
11
158.13
21
16.4988
0
LINE
8
BLACK
6
CONTINUOUS
10
158.13
20
16.4988
11
158.144
21
16.5457
0
LINE
8
BLACK
6
CONTINUOUS
10
158.144
20
16.5457
11
158.167
21
16.5889
0
LINE
8
BLACK
6
CONTINUOUS
10
158.167
20
16.5889
11
158.198
21
16.6268
0
LINE
8
BLACK
6
CONTINUOUS
10
158.198
20
16.6268
11
158.236
21
16.6579
0
LINE
8
BLACK
6
CONTINUOUS
10
158.236
20
16.6579
11
158.279
21
16.681
0
LINE
8
BLACK
6
CONTINUOUS
10
158.279
20
16.681
11
158.326
21
16.6952
0
LINE
8
BLACK
6
CONTINUOUS
10
158.326
20
16.6952
11
158.375
21
16.7
0
LINE
8
BLACK
6
CONTINUOUS
10
158.375
20
16.7
11
159.025
21
16.7
0
LINE
8
BLACK
6
CONTINUOUS
10
159.025
20
16.7
11
159.074
21
16.6952
0
LINE
8
BLACK
6
CONTINUOUS
10
49.05
20
105.3
11
48.55
21
105.3
0
LINE
8
BLACK
6
CONTINUOUS
10
48.55
20
105.3
11
48.55
21
106.7
0
LINE
8
BLACK
6
CONTINUOUS
10
48.55
20
106.7
11
49.05
21
106.7
0
LINE
8
BLACK
6
CONTINUOUS
10
49.05
20
106.7
11
49.05
21
105.3
0
LINE
8
BLACK
6
CONTINUOUS
10
49.85
20
105.3
11
49.35
21
105.3
0
LINE
8
BLACK
6
CONTINUOUS
10
49.35
20
105.3
11
49.35
21
106.7
0
LINE
8
BLACK
6
CONTINUOUS
10
49.35
20
106.7
11
49.85
21
106.7
0
LINE
8
BLACK
6
CONTINUOUS
10
49.85
20
106.7
11
49.85
21
105.3
0
LINE
8
BLACK
6
CONTINUOUS
10
50.65
20
105.3
11
50.15
21
105.3
0
LINE
8
BLACK
6
CONTINUOUS
10
50.15
20
105.3
11
50.15
21
106.7
0
LINE
8
BLACK
6
CONTINUOUS
10
50.15
20
106.7
11
50.65
21
106.7
0
LINE
8
BLACK
6
CONTINUOUS
10
50.65
20
106.7
11
50.65
21
105.3
0
LINE
8
BLACK
6
CONTINUOUS
10
51.45
20
105.3
11
50.95
21
105.3
0
LINE
8
BLACK
6
CONTINUOUS
10
50.95
20
105.3
11
50.95
21
106.7
0
LINE
8
BLACK
6
CONTINUOUS
10
50.95
20
106.7
11
51.45
21
106.7
0
LINE
8
BLACK
6
CONTINUOUS
10
51.45
20
106.7
11
51.45
21
105.3
0
LINE
8
BLACK
6
CONTINUOUS
10
52.25
20
105.3
11
51.75
21
105.3
0
LINE
8
BLACK
6
CONTINUOUS
10
51.75
20
105.3
11
51.75
21
106.7
0
LINE
8
BLACK
6
CONTINUOUS
10
51.75
20
106.7
11
52.25
21
106.7
0
LINE
8
BLACK
6
CONTINUOUS
10
52.25
20
106.7
11
52.25
21
105.3
0
LINE
8
BLACK
6
CONTINUOUS
10
46.897
20
110.389
11
47.0384
21
110.346
0
LINE
8
BLACK
6
CONTINUOUS
10
47.0384
20
110.346
11
47.1687
21
110.277
0
LINE
8
BLACK
6
CONTINUOUS
10
47.1687
20
110.277
11
47.2829
21
110.183
0
LINE
8
BLACK
6
CONTINUOUS
10
47.2829
20
110.183
11
47.3766
21
110.069
0
LINE
8
BLACK
6
CONTINUOUS
10
47.3766
20
110.069
11
47.4463
21
109.938
0
LINE
8
BLACK
6
CONTINUOUS
10
47.4463
20
109.938
11
47.4891
21
109.797
0
LINE
8
BLACK
6
CONTINUOUS
10
47.4891
20
109.797
11
47.5
21
109.687
0
LINE
8
BLACK
6
CONTINUOUS
10
47.5
20
109.687
11
47.5
21
107.113
0
LINE
8
BLACK
6
CONTINUOUS
10
47.5
20
107.113
11
47.4891
21
107.003
0
LINE
8
BLACK
6
CONTINUOUS
10
47.4891
20
107.003
11
47.4463
21
106.862
0
LINE
8
BLACK
6
CONTINUOUS
10
47.4463
20
106.862
11
47.3766
21
106.731
0
LINE
8
BLACK
6
CONTINUOUS
10
47.3766
20
106.731
11
47.2829
21
106.617
0
LINE
8
BLACK
6
CONTINUOUS
10
47.2829
20
106.617
11
47.1687
21
106.523
0
LINE
8
BLACK
6
CONTINUOUS
10
47.1687
20
106.523
11
47.0384
21
106.454
0
LINE
8
BLACK
6
CONTINUOUS
10
47.0384
20
106.454
11
46.897
21
106.411
0
LINE
8
BLACK
6
CONTINUOUS
10
46.897
20
106.411
11
46.75
21
106.396
0
LINE
8
BLACK
6
CONTINUOUS
10
46.75
20
106.396
11
46.603
21
106.411
0
LINE
8
BLACK
6
CONTINUOUS
10
46.603
20
106.411
11
46.4616
21
106.454
0
LINE
8
BLACK
6
CONTINUOUS
10
46.4616
20
106.454
11
46.3313
21
106.523
0
LINE
8
BLACK
6
CONTINUOUS
10
46.3313
20
106.523
11
46.2171
21
106.617
0
LINE
8
BLACK
6
CONTINUOUS
10
46.2171
20
106.617
11
46.1234
21
106.731
0
LINE
8
BLACK
6
CONTINUOUS
10
46.1234
20
106.731
11
46.0537
21
106.862
0
LINE
8
BLACK
6
CONTINUOUS
10
46.0537
20
106.862
11
46.0109
21
107.003
0
LINE
8
BLACK
6
CONTINUOUS
10
46.0109
20
107.003
11
46
21
107.113
0
LINE
8
BLACK
6
CONTINUOUS
10
46
20
107.113
11
46
21
109.687
0
LINE
8
BLACK
6
CONTINUOUS
10
46
20
109.687
11
46.0109
21
109.797
0
LINE
8
BLACK
6
CONTINUOUS
10
46.0109
20
109.797
11
46.0537
21
109.938
0
LINE
8
BLACK
6
CONTINUOUS
10
46.0537
20
109.938
11
46.1234
21
110.069
0
LINE
8
BLACK
6
CONTINUOUS
10
46.1234
20
110.069
11
46.2171
21
110.183
0
LINE
8
BLACK
6
CONTINUOUS
10
46.2171
20
110.183
11
46.3313
21
110.277
0
LINE
8
BLACK
6
CONTINUOUS
10
46.3313
20
110.277
11
46.4616
21
110.346
0
LINE
8
BLACK
6
CONTINUOUS
10
46.4616
20
110.346
11
46.603
21
110.389
0
LINE
8
BLACK
6
CONTINUOUS
10
46.603
20
110.389
11
46.75
21
110.404
0
LINE
8
BLACK
6
CONTINUOUS
10
46.75
20
110.404
11
46.897
21
110.389
0
LINE
8
BLACK
6
CONTINUOUS
10
54.197
20
110.389
11
54.3384
21
110.346
0
LINE
8
BLACK
6
CONTINUOUS
10
54.3384
20
110.346
11
54.4687
21
110.277
0
LINE
8
BLACK
6
CONTINUOUS
10
54.4687
20
110.277
11
54.5829
21
110.183
0
LINE
8
BLACK
6
CONTINUOUS
10
54.5829
20
110.183
11
54.6766
21
110.069
0
LINE
8
BLACK
6
CONTINUOUS
10
54.6766
20
110.069
11
54.7463
21
109.938
0
LINE
8
BLACK
6
CONTINUOUS
10
54.7463
20
109.938
11
54.7891
21
109.797
0
LINE
8
BLACK
6
CONTINUOUS
10
54.7891
20
109.797
11
54.8
21
109.687
0
LINE
8
BLACK
6
CONTINUOUS
10
54.8
20
109.687
11
54.8
21
107.113
0
LINE
8
BLACK
6
CONTINUOUS
10
54.8
20
107.113
11
54.7891
21
107.003
0
LINE
8
BLACK
6
CONTINUOUS
10
54.7891
20
107.003
11
54.7463
21
106.862
0
LINE
8
BLACK
6
CONTINUOUS
10
54.7463
20
106.862
11
54.6766
21
106.731
0
LINE
8
BLACK
6
CONTINUOUS
10
54.6766
20
106.731
11
54.5829
21
106.617
0
LINE
8
BLACK
6
CONTINUOUS
10
54.5829
20
106.617
11
54.4687
21
106.523
0
LINE
8
BLACK
6
CONTINUOUS
10
54.4687
20
106.523
11
54.3384
21
106.454
0
LINE
8
BLACK
6
CONTINUOUS
10
54.3384
20
106.454
11
54.197
21
106.411
0
LINE
8
BLACK
6
CONTINUOUS
10
54.197
20
106.411
11
54.05
21
106.396
0
LINE
8
BLACK
6
CONTINUOUS
10
54.05
20
106.396
11
53.903
21
106.411
0
LINE
8
BLACK
6
CONTINUOUS
10
53.903
20
106.411
11
53.7616
21
106.454
0
LINE
8
BLACK
6
CONTINUOUS
10
53.7616
20
106.454
11
53.6313
21
106.523
0
LINE
8
BLACK
6
CONTINUOUS
10
53.6313
20
106.523
11
53.5171
21
106.617
0
LINE
8
BLACK
6
CONTINUOUS
10
53.5171
20
106.617
11
53.4234
21
106.731
0
LINE
8
BLACK
6
CONTINUOUS
10
53.4234
20
106.731
11
53.3537
21
106.862
0
LINE
8
BLACK
6
CONTINUOUS
10
53.3537
20
106.862
11
53.3109
21
107.003
0
LINE
8
BLACK
6
CONTINUOUS
10
53.3109
20
107.003
11
53.3
21
107.113
0
LINE
8
BLACK
6
CONTINUOUS
10
53.3
20
107.113
11
53.3
21
109.687
0
LINE
8
BLACK
6
CONTINUOUS
10
53.3
20
109.687
11
53.3109
21
109.797
0
LINE
8
BLACK
6
CONTINUOUS
10
53.3109
20
109.797
11
53.3537
21
109.938
0
LINE
8
BLACK
6
CONTINUOUS
10
53.3537
20
109.938
11
53.4234
21
110.069
0
LINE
8
BLACK
6
CONTINUOUS
10
53.4234
20
110.069
11
53.5171
21
110.183
0
LINE
8
BLACK
6
CONTINUOUS
10
53.5171
20
110.183
11
53.6313
21
110.277
0
LINE
8
BLACK
6
CONTINUOUS
10
53.6313
20
110.277
11
53.7616
21
110.346
0
LINE
8
BLACK
6
CONTINUOUS
10
53.7616
20
110.346
11
53.903
21
110.389
0
LINE
8
BLACK
6
CONTINUOUS
10
53.903
20
110.389
11
54.05
21
110.404
0
LINE
8
BLACK
6
CONTINUOUS
10
54.05
20
110.404
11
54.197
21
110.389
0
LINE
8
BLACK
6
CONTINUOUS
10
48.9
20
110.8
11
46.55
21
110.8
0
LINE
8
BLACK
6
CONTINUOUS
10
46.55
20
110.8
11
46.55
21
111.6
0
LINE
8
BLACK
6
CONTINUOUS
10
46.55
20
111.6
11
48.9
21
111.6
0
LINE
8
BLACK
6
CONTINUOUS
10
48.9
20
111.6
11
48.9
21
110.8
0
LINE
8
BLACK
6
CONTINUOUS
10
54.25
20
110.8
11
51.9
21
110.8
0
LINE
8
BLACK
6
CONTINUOUS
10
51.9
20
110.8
11
51.9
21
111.6
0
LINE
8
BLACK
6
CONTINUOUS
10
51.9
20
111.6
11
54.25
21
111.6
0
LINE
8
BLACK
6
CONTINUOUS
10
54.25
20
111.6
11
54.25
21
110.8
  0
ENDSEC
  0
EOF
