  0
SECTION
  2
HEADER
  9
$ANGBASE
  50
0.0
  9
$ANGDIR
  70
  1
  9
$MEASUREMENT
  70
0
  0
ENDSEC
  0
SECTION
  2
TABLES
  0
TABLE
  2
LTYPE
  70
4
  0
LTYPE
  5
40F
  2
CONTINUOUS
  70
0
  3
Solid line
  72
65
  73
0
  40
0.0
  0
LTYPE
  5
410
  2
DASHDOT
 70
0
  3
Dash Dot ____ _ ____ _
 72
65
 73
4
 40
2.0
 49
1.25
 49
-0.25
 49
0.25
 49
-0.25
  0
LTYPE
  5
411
  2
DASHED
 70
0
  3
Dashed __ __ __ __ __
 72
65
 73
2
 40
0.75
 49
0.5
 49
-0.25
  0
LTYPE
  5
43B
  2
DOTTED
 70
0
  3
Dotted .  .  .  .
 72
65
 73
2
 40
0.2
 49
0.0
 49
-0.2
  0
ENDTAB
  0
TABLE
  2
STYLE
  70
4
  0
STYLE
  2
KICAD
  70
0
  40
0
  41
1
  42
1
  50
0
  71
0
  3
isocp.shx
  0
STYLE
  2
KICADB
  70
0
  40
0
  41
1
  42
1
  50
0
  71
0
  3
isocp.shx
  0
STYLE
  2
KICADI
  70
0
  40
0
  41
1
  42
1
  50
15
  71
0
  3
isocp.shx
  0
STYLE
  2
KICADBI
  70
0
  40
0
  41
1
  42
1
  50
15
  71
0
  3
isocp.shx
  0
ENDTAB
  0
TABLE
  2
LAYER
  70
30
  0
LAYER
  2
BLACK
  70
0
  62
7
  6
CONTINUOUS
  0
LAYER
  2
GRAY1
  70
0
  62
251
  6
CONTINUOUS
  0
LAYER
  2
GRAY2
  70
0
  62
8
  6
CONTINUOUS
  0
LAYER
  2
GRAY3
  70
0
  62
9
  6
CONTINUOUS
  0
LAYER
  2
WHITE
  70
0
  62
7
  6
CONTINUOUS
  0
LAYER
  2
LYELLOW
  70
0
  62
51
  6
CONTINUOUS
  0
LAYER
  2
BLUE1
  70
0
  62
178
  6
CONTINUOUS
  0
LAYER
  2
GREEN1
  70
0
  62
98
  6
CONTINUOUS
  0
LAYER
  2
CYAN1
  70
0
  62
138
  6
CONTINUOUS
  0
LAYER
  2
RED1
  70
0
  62
18
  6
CONTINUOUS
  0
LAYER
  2
MAGENTA1
  70
0
  62
228
  6
CONTINUOUS
  0
LAYER
  2
BROWN1
  70
0
  62
58
  6
CONTINUOUS
  0
LAYER
  2
BLUE2
  70
0
  62
5
  6
CONTINUOUS
  0
LAYER
  2
GREEN2
  70
0
  62
3
  6
CONTINUOUS
  0
LAYER
  2
CYAN2
  70
0
  62
4
  6
CONTINUOUS
  0
LAYER
  2
RED2
  70
0
  62
1
  6
CONTINUOUS
  0
LAYER
  2
MAGENTA2
  70
0
  62
6
  6
CONTINUOUS
  0
LAYER
  2
BROWN2
  70
0
  62
54
  6
CONTINUOUS
  0
LAYER
  2
BLUE3
  70
0
  62
171
  6
CONTINUOUS
  0
LAYER
  2
GREEN3
  70
0
  62
91
  6
CONTINUOUS
  0
LAYER
  2
CYAN3
  70
0
  62
131
  6
CONTINUOUS
  0
LAYER
  2
RED3
  70
0
  62
11
  6
CONTINUOUS
  0
LAYER
  2
MAGENTA3
  70
0
  62
221
  6
CONTINUOUS
  0
LAYER
  2
YELLOW3
  70
0
  62
2
  6
CONTINUOUS
  0
LAYER
  2
BLUE4
  70
0
  62
5
  6
CONTINUOUS
  0
LAYER
  2
GREEN4
  70
0
  62
3
  6
CONTINUOUS
  0
LAYER
  2
CYAN4
  70
0
  62
4
  6
CONTINUOUS
  0
LAYER
  2
RED4
  70
0
  62
1
  6
CONTINUOUS
  0
LAYER
  2
MAGENTA4
  70
0
  62
6
  6
CONTINUOUS
  0
LAYER
  2
YELLOW4
  70
0
  62
2
  6
CONTINUOUS
  0
ENDTAB
  0
ENDSEC
  0
SECTION
  2
ENTITIES
0
LINE
8
BLACK
6
CONTINUOUS
10
371.225
20
-1.61
11
370.025
21
-1.61
0
LINE
8
BLACK
6
CONTINUOUS
10
370.025
20
-1.61
11
370.025
21
-0.41
0
LINE
8
BLACK
6
CONTINUOUS
10
370.025
20
-0.41
11
371.225
21
-0.41
0
LINE
8
BLACK
6
CONTINUOUS
10
371.225
20
-0.41
11
371.225
21
-1.61
0
LINE
8
BLACK
6
CONTINUOUS
10
-0.255
20
-1.61
11
-1.455
21
-1.61
0
LINE
8
BLACK
6
CONTINUOUS
10
-1.455
20
-1.61
11
-1.455
21
-0.41
0
LINE
8
BLACK
6
CONTINUOUS
10
-1.455
20
-0.41
11
-0.255
21
-0.41
0
LINE
8
BLACK
6
CONTINUOUS
10
-0.255
20
-0.41
11
-0.255
21
-1.61
0
LINE
8
BLACK
6
CONTINUOUS
10
2.895
20
-1.61
11
1.695
21
-1.61
0
LINE
8
BLACK
6
CONTINUOUS
10
1.695
20
-1.61
11
1.695
21
-0.41
0
LINE
8
BLACK
6
CONTINUOUS
10
1.695
20
-0.41
11
2.895
21
-0.41
0
LINE
8
BLACK
6
CONTINUOUS
10
2.895
20
-0.41
11
2.895
21
-1.61
0
LINE
8
BLACK
6
CONTINUOUS
10
18.795
20
-1.61
11
17.595
21
-1.61
0
LINE
8
BLACK
6
CONTINUOUS
10
17.595
20
-1.61
11
17.595
21
-0.41
0
LINE
8
BLACK
6
CONTINUOUS
10
17.595
20
-0.41
11
18.795
21
-0.41
0
LINE
8
BLACK
6
CONTINUOUS
10
18.795
20
-0.41
11
18.795
21
-1.61
0
LINE
8
BLACK
6
CONTINUOUS
10
21.945
20
-1.61
11
20.745
21
-1.61
0
LINE
8
BLACK
6
CONTINUOUS
10
20.745
20
-1.61
11
20.745
21
-0.41
0
LINE
8
BLACK
6
CONTINUOUS
10
20.745
20
-0.41
11
21.945
21
-0.41
0
LINE
8
BLACK
6
CONTINUOUS
10
21.945
20
-0.41
11
21.945
21
-1.61
0
LINE
8
BLACK
6
CONTINUOUS
10
40.995
20
-1.61
11
39.795
21
-1.61
0
LINE
8
BLACK
6
CONTINUOUS
10
39.795
20
-1.61
11
39.795
21
-0.41
0
LINE
8
BLACK
6
CONTINUOUS
10
39.795
20
-0.41
11
40.995
21
-0.41
0
LINE
8
BLACK
6
CONTINUOUS
10
40.995
20
-0.41
11
40.995
21
-1.61
0
LINE
8
BLACK
6
CONTINUOUS
10
37.845
20
-1.61
11
36.645
21
-1.61
0
LINE
8
BLACK
6
CONTINUOUS
10
36.645
20
-1.61
11
36.645
21
-0.41
0
LINE
8
BLACK
6
CONTINUOUS
10
36.645
20
-0.41
11
37.845
21
-0.41
0
LINE
8
BLACK
6
CONTINUOUS
10
37.845
20
-0.41
11
37.845
21
-1.61
0
LINE
8
BLACK
6
CONTINUOUS
10
67.185
20
-1.61
11
65.985
21
-1.61
0
LINE
8
BLACK
6
CONTINUOUS
10
65.985
20
-1.61
11
65.985
21
-0.41
0
LINE
8
BLACK
6
CONTINUOUS
10
65.985
20
-0.41
11
67.185
21
-0.41
0
LINE
8
BLACK
6
CONTINUOUS
10
67.185
20
-0.41
11
67.185
21
-1.61
0
LINE
8
BLACK
6
CONTINUOUS
10
64.035
20
-1.61
11
62.835
21
-1.61
0
LINE
8
BLACK
6
CONTINUOUS
10
62.835
20
-1.61
11
62.835
21
-0.41
0
LINE
8
BLACK
6
CONTINUOUS
10
62.835
20
-0.41
11
64.035
21
-0.41
0
LINE
8
BLACK
6
CONTINUOUS
10
64.035
20
-0.41
11
64.035
21
-1.61
0
LINE
8
BLACK
6
CONTINUOUS
10
87.855
20
-1.61
11
86.655
21
-1.61
0
LINE
8
BLACK
6
CONTINUOUS
10
86.655
20
-1.61
11
86.655
21
-0.41
0
LINE
8
BLACK
6
CONTINUOUS
10
86.655
20
-0.41
11
87.855
21
-0.41
0
LINE
8
BLACK
6
CONTINUOUS
10
87.855
20
-0.41
11
87.855
21
-1.61
0
LINE
8
BLACK
6
CONTINUOUS
10
91.005
20
-1.61
11
89.805
21
-1.61
0
LINE
8
BLACK
6
CONTINUOUS
10
89.805
20
-1.61
11
89.805
21
-0.41
0
LINE
8
BLACK
6
CONTINUOUS
10
89.805
20
-0.41
11
91.005
21
-0.41
0
LINE
8
BLACK
6
CONTINUOUS
10
91.005
20
-0.41
11
91.005
21
-1.61
0
LINE
8
BLACK
6
CONTINUOUS
10
111.665
20
-1.61
11
110.465
21
-1.61
0
LINE
8
BLACK
6
CONTINUOUS
10
110.465
20
-1.61
11
110.465
21
-0.41
0
LINE
8
BLACK
6
CONTINUOUS
10
110.465
20
-0.41
11
111.665
21
-0.41
0
LINE
8
BLACK
6
CONTINUOUS
10
111.665
20
-0.41
11
111.665
21
-1.61
0
LINE
8
BLACK
6
CONTINUOUS
10
114.815
20
-1.61
11
113.615
21
-1.61
0
LINE
8
BLACK
6
CONTINUOUS
10
113.615
20
-1.61
11
113.615
21
-0.41
0
LINE
8
BLACK
6
CONTINUOUS
10
113.615
20
-0.41
11
114.815
21
-0.41
0
LINE
8
BLACK
6
CONTINUOUS
10
114.815
20
-0.41
11
114.815
21
-1.61
0
LINE
8
BLACK
6
CONTINUOUS
10
186.255
20
-1.61
11
185.055
21
-1.61
0
LINE
8
BLACK
6
CONTINUOUS
10
185.055
20
-1.61
11
185.055
21
-0.41
0
LINE
8
BLACK
6
CONTINUOUS
10
185.055
20
-0.41
11
186.255
21
-0.41
0
LINE
8
BLACK
6
CONTINUOUS
10
186.255
20
-0.41
11
186.255
21
-1.61
0
LINE
8
BLACK
6
CONTINUOUS
10
257.685
20
-1.61
11
256.485
21
-1.61
0
LINE
8
BLACK
6
CONTINUOUS
10
256.485
20
-1.61
11
256.485
21
-0.41
0
LINE
8
BLACK
6
CONTINUOUS
10
256.485
20
-0.41
11
257.685
21
-0.41
0
LINE
8
BLACK
6
CONTINUOUS
10
257.685
20
-0.41
11
257.685
21
-1.61
0
LINE
8
BLACK
6
CONTINUOUS
10
183.105
20
-1.61
11
181.905
21
-1.61
0
LINE
8
BLACK
6
CONTINUOUS
10
181.905
20
-1.61
11
181.905
21
-0.41
0
LINE
8
BLACK
6
CONTINUOUS
10
181.905
20
-0.41
11
183.105
21
-0.41
0
LINE
8
BLACK
6
CONTINUOUS
10
183.105
20
-0.41
11
183.105
21
-1.61
0
LINE
8
BLACK
6
CONTINUOUS
10
374.375
20
-1.61
11
373.175
21
-1.61
0
LINE
8
BLACK
6
CONTINUOUS
10
373.175
20
-1.61
11
373.175
21
-0.41
0
LINE
8
BLACK
6
CONTINUOUS
10
373.175
20
-0.41
11
374.375
21
-0.41
0
LINE
8
BLACK
6
CONTINUOUS
10
374.375
20
-0.41
11
374.375
21
-1.61
0
LINE
8
BLACK
6
CONTINUOUS
10
355.325
20
-1.61
11
354.125
21
-1.61
0
LINE
8
BLACK
6
CONTINUOUS
10
354.125
20
-1.61
11
354.125
21
-0.41
0
LINE
8
BLACK
6
CONTINUOUS
10
354.125
20
-0.41
11
355.325
21
-0.41
0
LINE
8
BLACK
6
CONTINUOUS
10
355.325
20
-0.41
11
355.325
21
-1.61
0
LINE
8
BLACK
6
CONTINUOUS
10
352.175
20
-1.61
11
350.975
21
-1.61
0
LINE
8
BLACK
6
CONTINUOUS
10
350.975
20
-1.61
11
350.975
21
-0.41
0
LINE
8
BLACK
6
CONTINUOUS
10
350.975
20
-0.41
11
352.175
21
-0.41
0
LINE
8
BLACK
6
CONTINUOUS
10
352.175
20
-0.41
11
352.175
21
-1.61
0
LINE
8
BLACK
6
CONTINUOUS
10
336.275
20
-1.61
11
335.075
21
-1.61
0
LINE
8
BLACK
6
CONTINUOUS
10
335.075
20
-1.61
11
335.075
21
-0.41
0
LINE
8
BLACK
6
CONTINUOUS
10
335.075
20
-0.41
11
336.275
21
-0.41
0
LINE
8
BLACK
6
CONTINUOUS
10
336.275
20
-0.41
11
336.275
21
-1.61
0
LINE
8
BLACK
6
CONTINUOUS
10
333.125
20
-1.61
11
331.925
21
-1.61
0
LINE
8
BLACK
6
CONTINUOUS
10
331.925
20
-1.61
11
331.925
21
-0.41
0
LINE
8
BLACK
6
CONTINUOUS
10
331.925
20
-0.41
11
333.125
21
-0.41
0
LINE
8
BLACK
6
CONTINUOUS
10
333.125
20
-0.41
11
333.125
21
-1.61
0
LINE
8
BLACK
6
CONTINUOUS
10
302.165
20
-1.61
11
300.965
21
-1.61
0
LINE
8
BLACK
6
CONTINUOUS
10
300.965
20
-1.61
11
300.965
21
-0.41
0
LINE
8
BLACK
6
CONTINUOUS
10
300.965
20
-0.41
11
302.165
21
-0.41
0
LINE
8
BLACK
6
CONTINUOUS
10
302.165
20
-0.41
11
302.165
21
-1.61
0
LINE
8
BLACK
6
CONTINUOUS
10
305.315
20
-1.61
11
304.115
21
-1.61
0
LINE
8
BLACK
6
CONTINUOUS
10
304.115
20
-1.61
11
304.115
21
-0.41
0
LINE
8
BLACK
6
CONTINUOUS
10
304.115
20
-0.41
11
305.315
21
-0.41
0
LINE
8
BLACK
6
CONTINUOUS
10
305.315
20
-0.41
11
305.315
21
-1.61
0
LINE
8
BLACK
6
CONTINUOUS
10
281.505
20
-1.61
11
280.305
21
-1.61
0
LINE
8
BLACK
6
CONTINUOUS
10
280.305
20
-1.61
11
280.305
21
-0.41
0
LINE
8
BLACK
6
CONTINUOUS
10
280.305
20
-0.41
11
281.505
21
-0.41
0
LINE
8
BLACK
6
CONTINUOUS
10
281.505
20
-0.41
11
281.505
21
-1.61
0
LINE
8
BLACK
6
CONTINUOUS
10
278.355
20
-1.61
11
277.155
21
-1.61
0
LINE
8
BLACK
6
CONTINUOUS
10
277.155
20
-1.61
11
277.155
21
-0.41
0
LINE
8
BLACK
6
CONTINUOUS
10
277.155
20
-0.41
11
278.355
21
-0.41
0
LINE
8
BLACK
6
CONTINUOUS
10
278.355
20
-0.41
11
278.355
21
-1.61
0
LINE
8
BLACK
6
CONTINUOUS
10
254.535
20
-1.61
11
253.335
21
-1.61
0
LINE
8
BLACK
6
CONTINUOUS
10
253.335
20
-1.61
11
253.335
21
-0.41
0
LINE
8
BLACK
6
CONTINUOUS
10
253.335
20
-0.41
11
254.535
21
-0.41
0
LINE
8
BLACK
6
CONTINUOUS
10
254.535
20
-0.41
11
254.535
21
-1.61
0
LINE
8
BLACK
6
CONTINUOUS
10
161.675
20
17.44
11
160.475
21
17.44
0
LINE
8
BLACK
6
CONTINUOUS
10
160.475
20
17.44
11
160.475
21
18.64
0
LINE
8
BLACK
6
CONTINUOUS
10
160.475
20
18.64
11
161.675
21
18.64
0
LINE
8
BLACK
6
CONTINUOUS
10
161.675
20
18.64
11
161.675
21
17.44
0
LINE
8
BLACK
6
CONTINUOUS
10
145.775
20
17.44
11
144.575
21
17.44
0
LINE
8
BLACK
6
CONTINUOUS
10
144.575
20
17.44
11
144.575
21
18.64
0
LINE
8
BLACK
6
CONTINUOUS
10
144.575
20
18.64
11
145.775
21
18.64
0
LINE
8
BLACK
6
CONTINUOUS
10
145.775
20
18.64
11
145.775
21
17.44
0
LINE
8
BLACK
6
CONTINUOUS
10
142.625
20
17.44
11
141.425
21
17.44
0
LINE
8
BLACK
6
CONTINUOUS
10
141.425
20
17.44
11
141.425
21
18.64
0
LINE
8
BLACK
6
CONTINUOUS
10
141.425
20
18.64
11
142.625
21
18.64
0
LINE
8
BLACK
6
CONTINUOUS
10
142.625
20
18.64
11
142.625
21
17.44
0
LINE
8
BLACK
6
CONTINUOUS
10
123.575
20
17.44
11
122.375
21
17.44
0
LINE
8
BLACK
6
CONTINUOUS
10
122.375
20
17.44
11
122.375
21
18.64
0
LINE
8
BLACK
6
CONTINUOUS
10
122.375
20
18.64
11
123.575
21
18.64
0
LINE
8
BLACK
6
CONTINUOUS
10
123.575
20
18.64
11
123.575
21
17.44
0
LINE
8
BLACK
6
CONTINUOUS
10
126.725
20
17.44
11
125.525
21
17.44
0
LINE
8
BLACK
6
CONTINUOUS
10
125.525
20
17.44
11
125.525
21
18.64
0
LINE
8
BLACK
6
CONTINUOUS
10
125.525
20
18.64
11
126.725
21
18.64
0
LINE
8
BLACK
6
CONTINUOUS
10
126.725
20
18.64
11
126.725
21
17.44
0
LINE
8
BLACK
6
CONTINUOUS
10
107.675
20
17.44
11
106.475
21
17.44
0
LINE
8
BLACK
6
CONTINUOUS
10
106.475
20
17.44
11
106.475
21
18.64
0
LINE
8
BLACK
6
CONTINUOUS
10
106.475
20
18.64
11
107.675
21
18.64
0
LINE
8
BLACK
6
CONTINUOUS
10
107.675
20
18.64
11
107.675
21
17.44
0
LINE
8
BLACK
6
CONTINUOUS
10
104.525
20
17.44
11
103.325
21
17.44
0
LINE
8
BLACK
6
CONTINUOUS
10
103.325
20
17.44
11
103.325
21
18.64
0
LINE
8
BLACK
6
CONTINUOUS
10
103.325
20
18.64
11
104.525
21
18.64
0
LINE
8
BLACK
6
CONTINUOUS
10
104.525
20
18.64
11
104.525
21
17.44
0
LINE
8
BLACK
6
CONTINUOUS
10
85.475
20
17.44
11
84.275
21
17.44
0
LINE
8
BLACK
6
CONTINUOUS
10
84.275
20
17.44
11
84.275
21
18.64
0
LINE
8
BLACK
6
CONTINUOUS
10
84.275
20
18.64
11
85.475
21
18.64
0
LINE
8
BLACK
6
CONTINUOUS
10
85.475
20
18.64
11
85.475
21
17.44
0
LINE
8
BLACK
6
CONTINUOUS
10
64.035
20
17.44
11
62.835
21
17.44
0
LINE
8
BLACK
6
CONTINUOUS
10
62.835
20
17.44
11
62.835
21
18.64
0
LINE
8
BLACK
6
CONTINUOUS
10
62.835
20
18.64
11
64.035
21
18.64
0
LINE
8
BLACK
6
CONTINUOUS
10
64.035
20
18.64
11
64.035
21
17.44
0
LINE
8
BLACK
6
CONTINUOUS
10
67.185
20
17.44
11
65.985
21
17.44
0
LINE
8
BLACK
6
CONTINUOUS
10
65.985
20
17.44
11
65.985
21
18.64
0
LINE
8
BLACK
6
CONTINUOUS
10
65.985
20
18.64
11
67.185
21
18.64
0
LINE
8
BLACK
6
CONTINUOUS
10
67.185
20
18.64
11
67.185
21
17.44
0
LINE
8
BLACK
6
CONTINUOUS
10
37.845
20
17.44
11
36.645
21
17.44
0
LINE
8
BLACK
6
CONTINUOUS
10
36.645
20
17.44
11
36.645
21
18.64
0
LINE
8
BLACK
6
CONTINUOUS
10
36.645
20
18.64
11
37.845
21
18.64
0
LINE
8
BLACK
6
CONTINUOUS
10
37.845
20
18.64
11
37.845
21
17.44
0
LINE
8
BLACK
6
CONTINUOUS
10
40.995
20
17.44
11
39.795
21
17.44
0
LINE
8
BLACK
6
CONTINUOUS
10
39.795
20
17.44
11
39.795
21
18.64
0
LINE
8
BLACK
6
CONTINUOUS
10
39.795
20
18.64
11
40.995
21
18.64
0
LINE
8
BLACK
6
CONTINUOUS
10
40.995
20
18.64
11
40.995
21
17.44
0
LINE
8
BLACK
6
CONTINUOUS
10
21.945
20
17.44
11
20.745
21
17.44
0
LINE
8
BLACK
6
CONTINUOUS
10
20.745
20
17.44
11
20.745
21
18.64
0
LINE
8
BLACK
6
CONTINUOUS
10
20.745
20
18.64
11
21.945
21
18.64
0
LINE
8
BLACK
6
CONTINUOUS
10
21.945
20
18.64
11
21.945
21
17.44
0
LINE
8
BLACK
6
CONTINUOUS
10
18.795
20
17.44
11
17.595
21
17.44
0
LINE
8
BLACK
6
CONTINUOUS
10
17.595
20
17.44
11
17.595
21
18.64
0
LINE
8
BLACK
6
CONTINUOUS
10
17.595
20
18.64
11
18.795
21
18.64
0
LINE
8
BLACK
6
CONTINUOUS
10
18.795
20
18.64
11
18.795
21
17.44
0
LINE
8
BLACK
6
CONTINUOUS
10
-0.255
20
17.44
11
-1.455
21
17.44
0
LINE
8
BLACK
6
CONTINUOUS
10
-1.455
20
17.44
11
-1.455
21
18.64
0
LINE
8
BLACK
6
CONTINUOUS
10
-1.455
20
18.64
11
-0.255
21
18.64
0
LINE
8
BLACK
6
CONTINUOUS
10
-0.255
20
18.64
11
-0.255
21
17.44
0
LINE
8
BLACK
6
CONTINUOUS
10
2.895
20
17.44
11
1.695
21
17.44
0
LINE
8
BLACK
6
CONTINUOUS
10
1.695
20
17.44
11
1.695
21
18.64
0
LINE
8
BLACK
6
CONTINUOUS
10
1.695
20
18.64
11
2.895
21
18.64
0
LINE
8
BLACK
6
CONTINUOUS
10
2.895
20
18.64
11
2.895
21
17.44
0
LINE
8
BLACK
6
CONTINUOUS
10
88.625
20
17.44
11
87.425
21
17.44
0
LINE
8
BLACK
6
CONTINUOUS
10
87.425
20
17.44
11
87.425
21
18.64
0
LINE
8
BLACK
6
CONTINUOUS
10
87.425
20
18.64
11
88.625
21
18.64
0
LINE
8
BLACK
6
CONTINUOUS
10
88.625
20
18.64
11
88.625
21
17.44
0
LINE
8
BLACK
6
CONTINUOUS
10
180.725
20
17.44
11
179.525
21
17.44
0
LINE
8
BLACK
6
CONTINUOUS
10
179.525
20
17.44
11
179.525
21
18.64
0
LINE
8
BLACK
6
CONTINUOUS
10
179.525
20
18.64
11
180.725
21
18.64
0
LINE
8
BLACK
6
CONTINUOUS
10
180.725
20
18.64
11
180.725
21
17.44
0
LINE
8
BLACK
6
CONTINUOUS
10
164.825
20
17.44
11
163.625
21
17.44
0
LINE
8
BLACK
6
CONTINUOUS
10
163.625
20
17.44
11
163.625
21
18.64
0
LINE
8
BLACK
6
CONTINUOUS
10
163.625
20
18.64
11
164.825
21
18.64
0
LINE
8
BLACK
6
CONTINUOUS
10
164.825
20
18.64
11
164.825
21
17.44
0
LINE
8
BLACK
6
CONTINUOUS
10
352.175
20
17.44
11
350.975
21
17.44
0
LINE
8
BLACK
6
CONTINUOUS
10
350.975
20
17.44
11
350.975
21
18.64
0
LINE
8
BLACK
6
CONTINUOUS
10
350.975
20
18.64
11
352.175
21
18.64
0
LINE
8
BLACK
6
CONTINUOUS
10
352.175
20
18.64
11
352.175
21
17.44
0
LINE
8
BLACK
6
CONTINUOUS
10
355.325
20
17.44
11
354.125
21
17.44
0
LINE
8
BLACK
6
CONTINUOUS
10
354.125
20
17.44
11
354.125
21
18.64
0
LINE
8
BLACK
6
CONTINUOUS
10
354.125
20
18.64
11
355.325
21
18.64
0
LINE
8
BLACK
6
CONTINUOUS
10
355.325
20
18.64
11
355.325
21
17.44
0
LINE
8
BLACK
6
CONTINUOUS
10
311.685
20
17.44
11
310.485
21
17.44
0
LINE
8
BLACK
6
CONTINUOUS
10
310.485
20
17.44
11
310.485
21
18.64
0
LINE
8
BLACK
6
CONTINUOUS
10
310.485
20
18.64
11
311.685
21
18.64
0
LINE
8
BLACK
6
CONTINUOUS
10
311.685
20
18.64
11
311.685
21
17.44
0
LINE
8
BLACK
6
CONTINUOUS
10
314.835
20
17.44
11
313.635
21
17.44
0
LINE
8
BLACK
6
CONTINUOUS
10
313.635
20
17.44
11
313.635
21
18.64
0
LINE
8
BLACK
6
CONTINUOUS
10
313.635
20
18.64
11
314.835
21
18.64
0
LINE
8
BLACK
6
CONTINUOUS
10
314.835
20
18.64
11
314.835
21
17.44
0
LINE
8
BLACK
6
CONTINUOUS
10
279.125
20
17.44
11
277.925
21
17.44
0
LINE
8
BLACK
6
CONTINUOUS
10
277.925
20
17.44
11
277.925
21
18.64
0
LINE
8
BLACK
6
CONTINUOUS
10
277.925
20
18.64
11
279.125
21
18.64
0
LINE
8
BLACK
6
CONTINUOUS
10
279.125
20
18.64
11
279.125
21
17.44
0
LINE
8
BLACK
6
CONTINUOUS
10
275.975
20
17.44
11
274.775
21
17.44
0
LINE
8
BLACK
6
CONTINUOUS
10
274.775
20
17.44
11
274.775
21
18.64
0
LINE
8
BLACK
6
CONTINUOUS
10
274.775
20
18.64
11
275.975
21
18.64
0
LINE
8
BLACK
6
CONTINUOUS
10
275.975
20
18.64
11
275.975
21
17.44
0
LINE
8
BLACK
6
CONTINUOUS
10
260.075
20
17.44
11
258.875
21
17.44
0
LINE
8
BLACK
6
CONTINUOUS
10
258.875
20
17.44
11
258.875
21
18.64
0
LINE
8
BLACK
6
CONTINUOUS
10
258.875
20
18.64
11
260.075
21
18.64
0
LINE
8
BLACK
6
CONTINUOUS
10
260.075
20
18.64
11
260.075
21
17.44
0
LINE
8
BLACK
6
CONTINUOUS
10
256.925
20
17.44
11
255.725
21
17.44
0
LINE
8
BLACK
6
CONTINUOUS
10
255.725
20
17.44
11
255.725
21
18.64
0
LINE
8
BLACK
6
CONTINUOUS
10
255.725
20
18.64
11
256.925
21
18.64
0
LINE
8
BLACK
6
CONTINUOUS
10
256.925
20
18.64
11
256.925
21
17.44
0
LINE
8
BLACK
6
CONTINUOUS
10
237.875
20
17.44
11
236.675
21
17.44
0
LINE
8
BLACK
6
CONTINUOUS
10
236.675
20
17.44
11
236.675
21
18.64
0
LINE
8
BLACK
6
CONTINUOUS
10
236.675
20
18.64
11
237.875
21
18.64
0
LINE
8
BLACK
6
CONTINUOUS
10
237.875
20
18.64
11
237.875
21
17.44
0
LINE
8
BLACK
6
CONTINUOUS
10
241.025
20
17.44
11
239.825
21
17.44
0
LINE
8
BLACK
6
CONTINUOUS
10
239.825
20
17.44
11
239.825
21
18.64
0
LINE
8
BLACK
6
CONTINUOUS
10
239.825
20
18.64
11
241.025
21
18.64
0
LINE
8
BLACK
6
CONTINUOUS
10
241.025
20
18.64
11
241.025
21
17.44
0
LINE
8
BLACK
6
CONTINUOUS
10
221.975
20
17.44
11
220.775
21
17.44
0
LINE
8
BLACK
6
CONTINUOUS
10
220.775
20
17.44
11
220.775
21
18.64
0
LINE
8
BLACK
6
CONTINUOUS
10
220.775
20
18.64
11
221.975
21
18.64
0
LINE
8
BLACK
6
CONTINUOUS
10
221.975
20
18.64
11
221.975
21
17.44
0
LINE
8
BLACK
6
CONTINUOUS
10
218.825
20
17.44
11
217.625
21
17.44
0
LINE
8
BLACK
6
CONTINUOUS
10
217.625
20
17.44
11
217.625
21
18.64
0
LINE
8
BLACK
6
CONTINUOUS
10
217.625
20
18.64
11
218.825
21
18.64
0
LINE
8
BLACK
6
CONTINUOUS
10
218.825
20
18.64
11
218.825
21
17.44
0
LINE
8
BLACK
6
CONTINUOUS
10
202.925
20
17.44
11
201.725
21
17.44
0
LINE
8
BLACK
6
CONTINUOUS
10
201.725
20
17.44
11
201.725
21
18.64
0
LINE
8
BLACK
6
CONTINUOUS
10
201.725
20
18.64
11
202.925
21
18.64
0
LINE
8
BLACK
6
CONTINUOUS
10
202.925
20
18.64
11
202.925
21
17.44
0
LINE
8
BLACK
6
CONTINUOUS
10
199.775
20
17.44
11
198.575
21
17.44
0
LINE
8
BLACK
6
CONTINUOUS
10
198.575
20
17.44
11
198.575
21
18.64
0
LINE
8
BLACK
6
CONTINUOUS
10
198.575
20
18.64
11
199.775
21
18.64
0
LINE
8
BLACK
6
CONTINUOUS
10
199.775
20
18.64
11
199.775
21
17.44
0
LINE
8
BLACK
6
CONTINUOUS
10
183.875
20
17.44
11
182.675
21
17.44
0
LINE
8
BLACK
6
CONTINUOUS
10
182.675
20
17.44
11
182.675
21
18.64
0
LINE
8
BLACK
6
CONTINUOUS
10
182.675
20
18.64
11
183.875
21
18.64
0
LINE
8
BLACK
6
CONTINUOUS
10
183.875
20
18.64
11
183.875
21
17.44
0
LINE
8
BLACK
6
CONTINUOUS
10
228.345
20
36.49
11
227.145
21
36.49
0
LINE
8
BLACK
6
CONTINUOUS
10
227.145
20
36.49
11
227.145
21
37.69
0
LINE
8
BLACK
6
CONTINUOUS
10
227.145
20
37.69
11
228.345
21
37.69
0
LINE
8
BLACK
6
CONTINUOUS
10
228.345
20
37.69
11
228.345
21
36.49
0
LINE
8
BLACK
6
CONTINUOUS
10
174.345
20
36.49
11
173.145
21
36.49
0
LINE
8
BLACK
6
CONTINUOUS
10
173.145
20
36.49
11
173.145
21
37.69
0
LINE
8
BLACK
6
CONTINUOUS
10
173.145
20
37.69
11
174.345
21
37.69
0
LINE
8
BLACK
6
CONTINUOUS
10
174.345
20
37.69
11
174.345
21
36.49
0
LINE
8
BLACK
6
CONTINUOUS
10
152.145
20
36.49
11
150.945
21
36.49
0
LINE
8
BLACK
6
CONTINUOUS
10
150.945
20
36.49
11
150.945
21
37.69
0
LINE
8
BLACK
6
CONTINUOUS
10
150.945
20
37.69
11
152.145
21
37.69
0
LINE
8
BLACK
6
CONTINUOUS
10
152.145
20
37.69
11
152.145
21
36.49
0
LINE
8
BLACK
6
CONTINUOUS
10
155.295
20
36.49
11
154.095
21
36.49
0
LINE
8
BLACK
6
CONTINUOUS
10
154.095
20
36.49
11
154.095
21
37.69
0
LINE
8
BLACK
6
CONTINUOUS
10
154.095
20
37.69
11
155.295
21
37.69
0
LINE
8
BLACK
6
CONTINUOUS
10
155.295
20
37.69
11
155.295
21
36.49
0
LINE
8
BLACK
6
CONTINUOUS
10
136.245
20
36.49
11
135.045
21
36.49
0
LINE
8
BLACK
6
CONTINUOUS
10
135.045
20
36.49
11
135.045
21
37.69
0
LINE
8
BLACK
6
CONTINUOUS
10
135.045
20
37.69
11
136.245
21
37.69
0
LINE
8
BLACK
6
CONTINUOUS
10
136.245
20
37.69
11
136.245
21
36.49
0
LINE
8
BLACK
6
CONTINUOUS
10
171.195
20
36.49
11
169.995
21
36.49
0
LINE
8
BLACK
6
CONTINUOUS
10
169.995
20
36.49
11
169.995
21
37.69
0
LINE
8
BLACK
6
CONTINUOUS
10
169.995
20
37.69
11
171.195
21
37.69
0
LINE
8
BLACK
6
CONTINUOUS
10
171.195
20
37.69
11
171.195
21
36.49
0
LINE
8
BLACK
6
CONTINUOUS
10
133.095
20
36.49
11
131.895
21
36.49
0
LINE
8
BLACK
6
CONTINUOUS
10
131.895
20
36.49
11
131.895
21
37.69
0
LINE
8
BLACK
6
CONTINUOUS
10
131.895
20
37.69
11
133.095
21
37.69
0
LINE
8
BLACK
6
CONTINUOUS
10
133.095
20
37.69
11
133.095
21
36.49
0
LINE
8
BLACK
6
CONTINUOUS
10
117.195
20
36.49
11
115.995
21
36.49
0
LINE
8
BLACK
6
CONTINUOUS
10
115.995
20
36.49
11
115.995
21
37.69
0
LINE
8
BLACK
6
CONTINUOUS
10
115.995
20
37.69
11
117.195
21
37.69
0
LINE
8
BLACK
6
CONTINUOUS
10
117.195
20
37.69
11
117.195
21
36.49
0
LINE
8
BLACK
6
CONTINUOUS
10
114.045
20
36.49
11
112.845
21
36.49
0
LINE
8
BLACK
6
CONTINUOUS
10
112.845
20
36.49
11
112.845
21
37.69
0
LINE
8
BLACK
6
CONTINUOUS
10
112.845
20
37.69
11
114.045
21
37.69
0
LINE
8
BLACK
6
CONTINUOUS
10
114.045
20
37.69
11
114.045
21
36.49
0
LINE
8
BLACK
6
CONTINUOUS
10
94.995
20
36.49
11
93.795
21
36.49
0
LINE
8
BLACK
6
CONTINUOUS
10
93.795
20
36.49
11
93.795
21
37.69
0
LINE
8
BLACK
6
CONTINUOUS
10
93.795
20
37.69
11
94.995
21
37.69
0
LINE
8
BLACK
6
CONTINUOUS
10
94.995
20
37.69
11
94.995
21
36.49
0
LINE
8
BLACK
6
CONTINUOUS
10
98.145
20
36.49
11
96.945
21
36.49
0
LINE
8
BLACK
6
CONTINUOUS
10
96.945
20
36.49
11
96.945
21
37.69
0
LINE
8
BLACK
6
CONTINUOUS
10
96.945
20
37.69
11
98.145
21
37.69
0
LINE
8
BLACK
6
CONTINUOUS
10
98.145
20
37.69
11
98.145
21
36.49
0
LINE
8
BLACK
6
CONTINUOUS
10
68.805
20
36.49
11
67.605
21
36.49
0
LINE
8
BLACK
6
CONTINUOUS
10
67.605
20
36.49
11
67.605
21
37.69
0
LINE
8
BLACK
6
CONTINUOUS
10
67.605
20
37.69
11
68.805
21
37.69
0
LINE
8
BLACK
6
CONTINUOUS
10
68.805
20
37.69
11
68.805
21
36.49
0
LINE
8
BLACK
6
CONTINUOUS
10
71.955
20
36.49
11
70.755
21
36.49
0
LINE
8
BLACK
6
CONTINUOUS
10
70.755
20
36.49
11
70.755
21
37.69
0
LINE
8
BLACK
6
CONTINUOUS
10
70.755
20
37.69
11
71.955
21
37.69
0
LINE
8
BLACK
6
CONTINUOUS
10
71.955
20
37.69
11
71.955
21
36.49
0
LINE
8
BLACK
6
CONTINUOUS
10
40.995
20
36.49
11
39.795
21
36.49
0
LINE
8
BLACK
6
CONTINUOUS
10
39.795
20
36.49
11
39.795
21
37.69
0
LINE
8
BLACK
6
CONTINUOUS
10
39.795
20
37.69
11
40.995
21
37.69
0
LINE
8
BLACK
6
CONTINUOUS
10
40.995
20
37.69
11
40.995
21
36.49
0
LINE
8
BLACK
6
CONTINUOUS
10
37.845
20
36.49
11
36.645
21
36.49
0
LINE
8
BLACK
6
CONTINUOUS
10
36.645
20
36.49
11
36.645
21
37.69
0
LINE
8
BLACK
6
CONTINUOUS
10
36.645
20
37.69
11
37.845
21
37.69
0
LINE
8
BLACK
6
CONTINUOUS
10
37.845
20
37.69
11
37.845
21
36.49
0
LINE
8
BLACK
6
CONTINUOUS
10
18.795
20
36.49
11
17.595
21
36.49
0
LINE
8
BLACK
6
CONTINUOUS
10
17.595
20
36.49
11
17.595
21
37.69
0
LINE
8
BLACK
6
CONTINUOUS
10
17.595
20
37.69
11
18.795
21
37.69
0
LINE
8
BLACK
6
CONTINUOUS
10
18.795
20
37.69
11
18.795
21
36.49
0
LINE
8
BLACK
6
CONTINUOUS
10
21.945
20
36.49
11
20.745
21
36.49
0
LINE
8
BLACK
6
CONTINUOUS
10
20.745
20
36.49
11
20.745
21
37.69
0
LINE
8
BLACK
6
CONTINUOUS
10
20.745
20
37.69
11
21.945
21
37.69
0
LINE
8
BLACK
6
CONTINUOUS
10
21.945
20
37.69
11
21.945
21
36.49
0
LINE
8
BLACK
6
CONTINUOUS
10
-0.255
20
36.49
11
-1.455
21
36.49
0
LINE
8
BLACK
6
CONTINUOUS
10
-1.455
20
36.49
11
-1.455
21
37.69
0
LINE
8
BLACK
6
CONTINUOUS
10
-1.455
20
37.69
11
-0.255
21
37.69
0
LINE
8
BLACK
6
CONTINUOUS
10
-0.255
20
37.69
11
-0.255
21
36.49
0
LINE
8
BLACK
6
CONTINUOUS
10
2.895
20
36.49
11
1.695
21
36.49
0
LINE
8
BLACK
6
CONTINUOUS
10
1.695
20
36.49
11
1.695
21
37.69
0
LINE
8
BLACK
6
CONTINUOUS
10
1.695
20
37.69
11
2.895
21
37.69
0
LINE
8
BLACK
6
CONTINUOUS
10
2.895
20
37.69
11
2.895
21
36.49
0
LINE
8
BLACK
6
CONTINUOUS
10
193.395
20
36.49
11
192.195
21
36.49
0
LINE
8
BLACK
6
CONTINUOUS
10
192.195
20
36.49
11
192.195
21
37.69
0
LINE
8
BLACK
6
CONTINUOUS
10
192.195
20
37.69
11
193.395
21
37.69
0
LINE
8
BLACK
6
CONTINUOUS
10
193.395
20
37.69
11
193.395
21
36.49
0
LINE
8
BLACK
6
CONTINUOUS
10
371.225
20
36.49
11
370.025
21
36.49
0
LINE
8
BLACK
6
CONTINUOUS
10
370.025
20
36.49
11
370.025
21
37.69
0
LINE
8
BLACK
6
CONTINUOUS
10
370.025
20
37.69
11
371.225
21
37.69
0
LINE
8
BLACK
6
CONTINUOUS
10
371.225
20
37.69
11
371.225
21
36.49
0
LINE
8
BLACK
6
CONTINUOUS
10
374.375
20
36.49
11
373.175
21
36.49
0
LINE
8
BLACK
6
CONTINUOUS
10
373.175
20
36.49
11
373.175
21
37.69
0
LINE
8
BLACK
6
CONTINUOUS
10
373.175
20
37.69
11
374.375
21
37.69
0
LINE
8
BLACK
6
CONTINUOUS
10
374.375
20
37.69
11
374.375
21
36.49
0
LINE
8
BLACK
6
CONTINUOUS
10
352.175
20
36.49
11
350.975
21
36.49
0
LINE
8
BLACK
6
CONTINUOUS
10
350.975
20
36.49
11
350.975
21
37.69
0
LINE
8
BLACK
6
CONTINUOUS
10
350.975
20
37.69
11
352.175
21
37.69
0
LINE
8
BLACK
6
CONTINUOUS
10
352.175
20
37.69
11
352.175
21
36.49
0
LINE
8
BLACK
6
CONTINUOUS
10
355.325
20
36.49
11
354.125
21
36.49
0
LINE
8
BLACK
6
CONTINUOUS
10
354.125
20
36.49
11
354.125
21
37.69
0
LINE
8
BLACK
6
CONTINUOUS
10
354.125
20
37.69
11
355.325
21
37.69
0
LINE
8
BLACK
6
CONTINUOUS
10
355.325
20
37.69
11
355.325
21
36.49
0
LINE
8
BLACK
6
CONTINUOUS
10
304.545
20
36.49
11
303.345
21
36.49
0
LINE
8
BLACK
6
CONTINUOUS
10
303.345
20
36.49
11
303.345
21
37.69
0
LINE
8
BLACK
6
CONTINUOUS
10
303.345
20
37.69
11
304.545
21
37.69
0
LINE
8
BLACK
6
CONTINUOUS
10
304.545
20
37.69
11
304.545
21
36.49
0
LINE
8
BLACK
6
CONTINUOUS
10
307.695
20
36.49
11
306.495
21
36.49
0
LINE
8
BLACK
6
CONTINUOUS
10
306.495
20
36.49
11
306.495
21
37.69
0
LINE
8
BLACK
6
CONTINUOUS
10
306.495
20
37.69
11
307.695
21
37.69
0
LINE
8
BLACK
6
CONTINUOUS
10
307.695
20
37.69
11
307.695
21
36.49
0
LINE
8
BLACK
6
CONTINUOUS
10
288.645
20
36.49
11
287.445
21
36.49
0
LINE
8
BLACK
6
CONTINUOUS
10
287.445
20
36.49
11
287.445
21
37.69
0
LINE
8
BLACK
6
CONTINUOUS
10
287.445
20
37.69
11
288.645
21
37.69
0
LINE
8
BLACK
6
CONTINUOUS
10
288.645
20
37.69
11
288.645
21
36.49
0
LINE
8
BLACK
6
CONTINUOUS
10
285.495
20
36.49
11
284.295
21
36.49
0
LINE
8
BLACK
6
CONTINUOUS
10
284.295
20
36.49
11
284.295
21
37.69
0
LINE
8
BLACK
6
CONTINUOUS
10
284.295
20
37.69
11
285.495
21
37.69
0
LINE
8
BLACK
6
CONTINUOUS
10
285.495
20
37.69
11
285.495
21
36.49
0
LINE
8
BLACK
6
CONTINUOUS
10
269.595
20
36.49
11
268.395
21
36.49
0
LINE
8
BLACK
6
CONTINUOUS
10
268.395
20
36.49
11
268.395
21
37.69
0
LINE
8
BLACK
6
CONTINUOUS
10
268.395
20
37.69
11
269.595
21
37.69
0
LINE
8
BLACK
6
CONTINUOUS
10
269.595
20
37.69
11
269.595
21
36.49
0
LINE
8
BLACK
6
CONTINUOUS
10
266.445
20
36.49
11
265.245
21
36.49
0
LINE
8
BLACK
6
CONTINUOUS
10
265.245
20
36.49
11
265.245
21
37.69
0
LINE
8
BLACK
6
CONTINUOUS
10
265.245
20
37.69
11
266.445
21
37.69
0
LINE
8
BLACK
6
CONTINUOUS
10
266.445
20
37.69
11
266.445
21
36.49
0
LINE
8
BLACK
6
CONTINUOUS
10
247.395
20
36.49
11
246.195
21
36.49
0
LINE
8
BLACK
6
CONTINUOUS
10
246.195
20
36.49
11
246.195
21
37.69
0
LINE
8
BLACK
6
CONTINUOUS
10
246.195
20
37.69
11
247.395
21
37.69
0
LINE
8
BLACK
6
CONTINUOUS
10
247.395
20
37.69
11
247.395
21
36.49
0
LINE
8
BLACK
6
CONTINUOUS
10
250.545
20
36.49
11
249.345
21
36.49
0
LINE
8
BLACK
6
CONTINUOUS
10
249.345
20
36.49
11
249.345
21
37.69
0
LINE
8
BLACK
6
CONTINUOUS
10
249.345
20
37.69
11
250.545
21
37.69
0
LINE
8
BLACK
6
CONTINUOUS
10
250.545
20
37.69
11
250.545
21
36.49
0
LINE
8
BLACK
6
CONTINUOUS
10
231.495
20
36.49
11
230.295
21
36.49
0
LINE
8
BLACK
6
CONTINUOUS
10
230.295
20
36.49
11
230.295
21
37.69
0
LINE
8
BLACK
6
CONTINUOUS
10
230.295
20
37.69
11
231.495
21
37.69
0
LINE
8
BLACK
6
CONTINUOUS
10
231.495
20
37.69
11
231.495
21
36.49
0
LINE
8
BLACK
6
CONTINUOUS
10
212.445
20
36.49
11
211.245
21
36.49
0
LINE
8
BLACK
6
CONTINUOUS
10
211.245
20
36.49
11
211.245
21
37.69
0
LINE
8
BLACK
6
CONTINUOUS
10
211.245
20
37.69
11
212.445
21
37.69
0
LINE
8
BLACK
6
CONTINUOUS
10
212.445
20
37.69
11
212.445
21
36.49
0
LINE
8
BLACK
6
CONTINUOUS
10
209.295
20
36.49
11
208.095
21
36.49
0
LINE
8
BLACK
6
CONTINUOUS
10
208.095
20
36.49
11
208.095
21
37.69
0
LINE
8
BLACK
6
CONTINUOUS
10
208.095
20
37.69
11
209.295
21
37.69
0
LINE
8
BLACK
6
CONTINUOUS
10
209.295
20
37.69
11
209.295
21
36.49
0
LINE
8
BLACK
6
CONTINUOUS
10
190.245
20
36.49
11
189.045
21
36.49
0
LINE
8
BLACK
6
CONTINUOUS
10
189.045
20
36.49
11
189.045
21
37.69
0
LINE
8
BLACK
6
CONTINUOUS
10
189.045
20
37.69
11
190.245
21
37.69
0
LINE
8
BLACK
6
CONTINUOUS
10
190.245
20
37.69
11
190.245
21
36.49
0
LINE
8
BLACK
6
CONTINUOUS
10
329.125
20
46.01
11
327.925
21
46.01
0
LINE
8
BLACK
6
CONTINUOUS
10
327.925
20
46.01
11
327.925
21
47.21
0
LINE
8
BLACK
6
CONTINUOUS
10
327.925
20
47.21
11
329.125
21
47.21
0
LINE
8
BLACK
6
CONTINUOUS
10
329.125
20
47.21
11
329.125
21
46.01
0
LINE
8
BLACK
6
CONTINUOUS
10
325.975
20
46.01
11
324.775
21
46.01
0
LINE
8
BLACK
6
CONTINUOUS
10
324.775
20
46.01
11
324.775
21
47.21
0
LINE
8
BLACK
6
CONTINUOUS
10
324.775
20
47.21
11
325.975
21
47.21
0
LINE
8
BLACK
6
CONTINUOUS
10
325.975
20
47.21
11
325.975
21
46.01
0
LINE
8
BLACK
6
CONTINUOUS
10
302.935
20
55.54
11
301.735
21
55.54
0
LINE
8
BLACK
6
CONTINUOUS
10
301.735
20
55.54
11
301.735
21
56.74
0
LINE
8
BLACK
6
CONTINUOUS
10
301.735
20
56.74
11
302.935
21
56.74
0
LINE
8
BLACK
6
CONTINUOUS
10
302.935
20
56.74
11
302.935
21
55.54
0
LINE
8
BLACK
6
CONTINUOUS
10
371.225
20
55.54
11
370.025
21
55.54
0
LINE
8
BLACK
6
CONTINUOUS
10
370.025
20
55.54
11
370.025
21
56.74
0
LINE
8
BLACK
6
CONTINUOUS
10
370.025
20
56.74
11
371.225
21
56.74
0
LINE
8
BLACK
6
CONTINUOUS
10
371.225
20
56.74
11
371.225
21
55.54
0
LINE
8
BLACK
6
CONTINUOUS
10
374.375
20
55.54
11
373.175
21
55.54
0
LINE
8
BLACK
6
CONTINUOUS
10
373.175
20
55.54
11
373.175
21
56.74
0
LINE
8
BLACK
6
CONTINUOUS
10
373.175
20
56.74
11
374.375
21
56.74
0
LINE
8
BLACK
6
CONTINUOUS
10
374.375
20
56.74
11
374.375
21
55.54
0
LINE
8
BLACK
6
CONTINUOUS
10
352.175
20
55.54
11
350.975
21
55.54
0
LINE
8
BLACK
6
CONTINUOUS
10
350.975
20
55.54
11
350.975
21
56.74
0
LINE
8
BLACK
6
CONTINUOUS
10
350.975
20
56.74
11
352.175
21
56.74
0
LINE
8
BLACK
6
CONTINUOUS
10
352.175
20
56.74
11
352.175
21
55.54
0
LINE
8
BLACK
6
CONTINUOUS
10
355.325
20
55.54
11
354.125
21
55.54
0
LINE
8
BLACK
6
CONTINUOUS
10
354.125
20
55.54
11
354.125
21
56.74
0
LINE
8
BLACK
6
CONTINUOUS
10
354.125
20
56.74
11
355.325
21
56.74
0
LINE
8
BLACK
6
CONTINUOUS
10
355.325
20
56.74
11
355.325
21
55.54
0
LINE
8
BLACK
6
CONTINUOUS
10
299.785
20
55.54
11
298.585
21
55.54
0
LINE
8
BLACK
6
CONTINUOUS
10
298.585
20
55.54
11
298.585
21
56.74
0
LINE
8
BLACK
6
CONTINUOUS
10
298.585
20
56.74
11
299.785
21
56.74
0
LINE
8
BLACK
6
CONTINUOUS
10
299.785
20
56.74
11
299.785
21
55.54
0
LINE
8
BLACK
6
CONTINUOUS
10
280.735
20
55.54
11
279.535
21
55.54
0
LINE
8
BLACK
6
CONTINUOUS
10
279.535
20
55.54
11
279.535
21
56.74
0
LINE
8
BLACK
6
CONTINUOUS
10
279.535
20
56.74
11
280.735
21
56.74
0
LINE
8
BLACK
6
CONTINUOUS
10
280.735
20
56.74
11
280.735
21
55.54
0
LINE
8
BLACK
6
CONTINUOUS
10
-0.255
20
55.54
11
-1.455
21
55.54
0
LINE
8
BLACK
6
CONTINUOUS
10
-1.455
20
55.54
11
-1.455
21
56.74
0
LINE
8
BLACK
6
CONTINUOUS
10
-1.455
20
56.74
11
-0.255
21
56.74
0
LINE
8
BLACK
6
CONTINUOUS
10
-0.255
20
56.74
11
-0.255
21
55.54
0
LINE
8
BLACK
6
CONTINUOUS
10
2.895
20
55.54
11
1.695
21
55.54
0
LINE
8
BLACK
6
CONTINUOUS
10
1.695
20
55.54
11
1.695
21
56.74
0
LINE
8
BLACK
6
CONTINUOUS
10
1.695
20
56.74
11
2.895
21
56.74
0
LINE
8
BLACK
6
CONTINUOUS
10
2.895
20
56.74
11
2.895
21
55.54
0
LINE
8
BLACK
6
CONTINUOUS
10
21.945
20
55.54
11
20.745
21
55.54
0
LINE
8
BLACK
6
CONTINUOUS
10
20.745
20
55.54
11
20.745
21
56.74
0
LINE
8
BLACK
6
CONTINUOUS
10
20.745
20
56.74
11
21.945
21
56.74
0
LINE
8
BLACK
6
CONTINUOUS
10
21.945
20
56.74
11
21.945
21
55.54
0
LINE
8
BLACK
6
CONTINUOUS
10
18.795
20
55.54
11
17.595
21
55.54
0
LINE
8
BLACK
6
CONTINUOUS
10
17.595
20
55.54
11
17.595
21
56.74
0
LINE
8
BLACK
6
CONTINUOUS
10
17.595
20
56.74
11
18.795
21
56.74
0
LINE
8
BLACK
6
CONTINUOUS
10
18.795
20
56.74
11
18.795
21
55.54
0
LINE
8
BLACK
6
CONTINUOUS
10
37.845
20
55.54
11
36.645
21
55.54
0
LINE
8
BLACK
6
CONTINUOUS
10
36.645
20
55.54
11
36.645
21
56.74
0
LINE
8
BLACK
6
CONTINUOUS
10
36.645
20
56.74
11
37.845
21
56.74
0
LINE
8
BLACK
6
CONTINUOUS
10
37.845
20
56.74
11
37.845
21
55.54
0
LINE
8
BLACK
6
CONTINUOUS
10
40.995
20
55.54
11
39.795
21
55.54
0
LINE
8
BLACK
6
CONTINUOUS
10
39.795
20
55.54
11
39.795
21
56.74
0
LINE
8
BLACK
6
CONTINUOUS
10
39.795
20
56.74
11
40.995
21
56.74
0
LINE
8
BLACK
6
CONTINUOUS
10
40.995
20
56.74
11
40.995
21
55.54
0
LINE
8
BLACK
6
CONTINUOUS
10
66.425
20
55.54
11
65.225
21
55.54
0
LINE
8
BLACK
6
CONTINUOUS
10
65.225
20
55.54
11
65.225
21
56.74
0
LINE
8
BLACK
6
CONTINUOUS
10
65.225
20
56.74
11
66.425
21
56.74
0
LINE
8
BLACK
6
CONTINUOUS
10
66.425
20
56.74
11
66.425
21
55.54
0
LINE
8
BLACK
6
CONTINUOUS
10
69.575
20
55.54
11
68.375
21
55.54
0
LINE
8
BLACK
6
CONTINUOUS
10
68.375
20
55.54
11
68.375
21
56.74
0
LINE
8
BLACK
6
CONTINUOUS
10
68.375
20
56.74
11
69.575
21
56.74
0
LINE
8
BLACK
6
CONTINUOUS
10
69.575
20
56.74
11
69.575
21
55.54
0
LINE
8
BLACK
6
CONTINUOUS
10
90.235
20
55.54
11
89.035
21
55.54
0
LINE
8
BLACK
6
CONTINUOUS
10
89.035
20
55.54
11
89.035
21
56.74
0
LINE
8
BLACK
6
CONTINUOUS
10
89.035
20
56.74
11
90.235
21
56.74
0
LINE
8
BLACK
6
CONTINUOUS
10
90.235
20
56.74
11
90.235
21
55.54
0
LINE
8
BLACK
6
CONTINUOUS
10
93.385
20
55.54
11
92.185
21
55.54
0
LINE
8
BLACK
6
CONTINUOUS
10
92.185
20
55.54
11
92.185
21
56.74
0
LINE
8
BLACK
6
CONTINUOUS
10
92.185
20
56.74
11
93.385
21
56.74
0
LINE
8
BLACK
6
CONTINUOUS
10
93.385
20
56.74
11
93.385
21
55.54
0
LINE
8
BLACK
6
CONTINUOUS
10
109.285
20
55.54
11
108.085
21
55.54
0
LINE
8
BLACK
6
CONTINUOUS
10
108.085
20
55.54
11
108.085
21
56.74
0
LINE
8
BLACK
6
CONTINUOUS
10
108.085
20
56.74
11
109.285
21
56.74
0
LINE
8
BLACK
6
CONTINUOUS
10
109.285
20
56.74
11
109.285
21
55.54
0
LINE
8
BLACK
6
CONTINUOUS
10
112.435
20
55.54
11
111.235
21
55.54
0
LINE
8
BLACK
6
CONTINUOUS
10
111.235
20
55.54
11
111.235
21
56.74
0
LINE
8
BLACK
6
CONTINUOUS
10
111.235
20
56.74
11
112.435
21
56.74
0
LINE
8
BLACK
6
CONTINUOUS
10
112.435
20
56.74
11
112.435
21
55.54
0
LINE
8
BLACK
6
CONTINUOUS
10
131.485
20
55.54
11
130.285
21
55.54
0
LINE
8
BLACK
6
CONTINUOUS
10
130.285
20
55.54
11
130.285
21
56.74
0
LINE
8
BLACK
6
CONTINUOUS
10
130.285
20
56.74
11
131.485
21
56.74
0
LINE
8
BLACK
6
CONTINUOUS
10
131.485
20
56.74
11
131.485
21
55.54
0
LINE
8
BLACK
6
CONTINUOUS
10
128.335
20
55.54
11
127.135
21
55.54
0
LINE
8
BLACK
6
CONTINUOUS
10
127.135
20
55.54
11
127.135
21
56.74
0
LINE
8
BLACK
6
CONTINUOUS
10
127.135
20
56.74
11
128.335
21
56.74
0
LINE
8
BLACK
6
CONTINUOUS
10
128.335
20
56.74
11
128.335
21
55.54
0
LINE
8
BLACK
6
CONTINUOUS
10
147.385
20
55.54
11
146.185
21
55.54
0
LINE
8
BLACK
6
CONTINUOUS
10
146.185
20
55.54
11
146.185
21
56.74
0
LINE
8
BLACK
6
CONTINUOUS
10
146.185
20
56.74
11
147.385
21
56.74
0
LINE
8
BLACK
6
CONTINUOUS
10
147.385
20
56.74
11
147.385
21
55.54
0
LINE
8
BLACK
6
CONTINUOUS
10
166.435
20
55.54
11
165.235
21
55.54
0
LINE
8
BLACK
6
CONTINUOUS
10
165.235
20
55.54
11
165.235
21
56.74
0
LINE
8
BLACK
6
CONTINUOUS
10
165.235
20
56.74
11
166.435
21
56.74
0
LINE
8
BLACK
6
CONTINUOUS
10
166.435
20
56.74
11
166.435
21
55.54
0
LINE
8
BLACK
6
CONTINUOUS
10
150.535
20
55.54
11
149.335
21
55.54
0
LINE
8
BLACK
6
CONTINUOUS
10
149.335
20
55.54
11
149.335
21
56.74
0
LINE
8
BLACK
6
CONTINUOUS
10
149.335
20
56.74
11
150.535
21
56.74
0
LINE
8
BLACK
6
CONTINUOUS
10
150.535
20
56.74
11
150.535
21
55.54
0
LINE
8
BLACK
6
CONTINUOUS
10
283.885
20
55.54
11
282.685
21
55.54
0
LINE
8
BLACK
6
CONTINUOUS
10
282.685
20
55.54
11
282.685
21
56.74
0
LINE
8
BLACK
6
CONTINUOUS
10
282.685
20
56.74
11
283.885
21
56.74
0
LINE
8
BLACK
6
CONTINUOUS
10
283.885
20
56.74
11
283.885
21
55.54
0
LINE
8
BLACK
6
CONTINUOUS
10
261.685
20
55.54
11
260.485
21
55.54
0
LINE
8
BLACK
6
CONTINUOUS
10
260.485
20
55.54
11
260.485
21
56.74
0
LINE
8
BLACK
6
CONTINUOUS
10
260.485
20
56.74
11
261.685
21
56.74
0
LINE
8
BLACK
6
CONTINUOUS
10
261.685
20
56.74
11
261.685
21
55.54
0
LINE
8
BLACK
6
CONTINUOUS
10
264.835
20
55.54
11
263.635
21
55.54
0
LINE
8
BLACK
6
CONTINUOUS
10
263.635
20
55.54
11
263.635
21
56.74
0
LINE
8
BLACK
6
CONTINUOUS
10
263.635
20
56.74
11
264.835
21
56.74
0
LINE
8
BLACK
6
CONTINUOUS
10
264.835
20
56.74
11
264.835
21
55.54
0
LINE
8
BLACK
6
CONTINUOUS
10
245.785
20
55.54
11
244.585
21
55.54
0
LINE
8
BLACK
6
CONTINUOUS
10
244.585
20
55.54
11
244.585
21
56.74
0
LINE
8
BLACK
6
CONTINUOUS
10
244.585
20
56.74
11
245.785
21
56.74
0
LINE
8
BLACK
6
CONTINUOUS
10
245.785
20
56.74
11
245.785
21
55.54
0
LINE
8
BLACK
6
CONTINUOUS
10
242.635
20
55.54
11
241.435
21
55.54
0
LINE
8
BLACK
6
CONTINUOUS
10
241.435
20
55.54
11
241.435
21
56.74
0
LINE
8
BLACK
6
CONTINUOUS
10
241.435
20
56.74
11
242.635
21
56.74
0
LINE
8
BLACK
6
CONTINUOUS
10
242.635
20
56.74
11
242.635
21
55.54
0
LINE
8
BLACK
6
CONTINUOUS
10
226.735
20
55.54
11
225.535
21
55.54
0
LINE
8
BLACK
6
CONTINUOUS
10
225.535
20
55.54
11
225.535
21
56.74
0
LINE
8
BLACK
6
CONTINUOUS
10
225.535
20
56.74
11
226.735
21
56.74
0
LINE
8
BLACK
6
CONTINUOUS
10
226.735
20
56.74
11
226.735
21
55.54
0
LINE
8
BLACK
6
CONTINUOUS
10
223.585
20
55.54
11
222.385
21
55.54
0
LINE
8
BLACK
6
CONTINUOUS
10
222.385
20
55.54
11
222.385
21
56.74
0
LINE
8
BLACK
6
CONTINUOUS
10
222.385
20
56.74
11
223.585
21
56.74
0
LINE
8
BLACK
6
CONTINUOUS
10
223.585
20
56.74
11
223.585
21
55.54
0
LINE
8
BLACK
6
CONTINUOUS
10
204.535
20
55.54
11
203.335
21
55.54
0
LINE
8
BLACK
6
CONTINUOUS
10
203.335
20
55.54
11
203.335
21
56.74
0
LINE
8
BLACK
6
CONTINUOUS
10
203.335
20
56.74
11
204.535
21
56.74
0
LINE
8
BLACK
6
CONTINUOUS
10
204.535
20
56.74
11
204.535
21
55.54
0
LINE
8
BLACK
6
CONTINUOUS
10
207.685
20
55.54
11
206.485
21
55.54
0
LINE
8
BLACK
6
CONTINUOUS
10
206.485
20
55.54
11
206.485
21
56.74
0
LINE
8
BLACK
6
CONTINUOUS
10
206.485
20
56.74
11
207.685
21
56.74
0
LINE
8
BLACK
6
CONTINUOUS
10
207.685
20
56.74
11
207.685
21
55.54
0
LINE
8
BLACK
6
CONTINUOUS
10
188.635
20
55.54
11
187.435
21
55.54
0
LINE
8
BLACK
6
CONTINUOUS
10
187.435
20
55.54
11
187.435
21
56.74
0
LINE
8
BLACK
6
CONTINUOUS
10
187.435
20
56.74
11
188.635
21
56.74
0
LINE
8
BLACK
6
CONTINUOUS
10
188.635
20
56.74
11
188.635
21
55.54
0
LINE
8
BLACK
6
CONTINUOUS
10
185.485
20
55.54
11
184.285
21
55.54
0
LINE
8
BLACK
6
CONTINUOUS
10
184.285
20
55.54
11
184.285
21
56.74
0
LINE
8
BLACK
6
CONTINUOUS
10
184.285
20
56.74
11
185.485
21
56.74
0
LINE
8
BLACK
6
CONTINUOUS
10
185.485
20
56.74
11
185.485
21
55.54
0
LINE
8
BLACK
6
CONTINUOUS
10
169.585
20
55.54
11
168.385
21
55.54
0
LINE
8
BLACK
6
CONTINUOUS
10
168.385
20
55.54
11
168.385
21
56.74
0
LINE
8
BLACK
6
CONTINUOUS
10
168.385
20
56.74
11
169.585
21
56.74
0
LINE
8
BLACK
6
CONTINUOUS
10
169.585
20
56.74
11
169.585
21
55.54
0
LINE
8
BLACK
6
CONTINUOUS
10
175.955
20
74.59
11
174.755
21
74.59
0
LINE
8
BLACK
6
CONTINUOUS
10
174.755
20
74.59
11
174.755
21
75.79
0
LINE
8
BLACK
6
CONTINUOUS
10
174.755
20
75.79
11
175.955
21
75.79
0
LINE
8
BLACK
6
CONTINUOUS
10
175.955
20
75.79
11
175.955
21
74.59
0
LINE
8
BLACK
6
CONTINUOUS
10
156.905
20
74.59
11
155.705
21
74.59
0
LINE
8
BLACK
6
CONTINUOUS
10
155.705
20
74.59
11
155.705
21
75.79
0
LINE
8
BLACK
6
CONTINUOUS
10
155.705
20
75.79
11
156.905
21
75.79
0
LINE
8
BLACK
6
CONTINUOUS
10
156.905
20
75.79
11
156.905
21
74.59
0
LINE
8
BLACK
6
CONTINUOUS
10
137.855
20
74.59
11
136.655
21
74.59
0
LINE
8
BLACK
6
CONTINUOUS
10
136.655
20
74.59
11
136.655
21
75.79
0
LINE
8
BLACK
6
CONTINUOUS
10
136.655
20
75.79
11
137.855
21
75.79
0
LINE
8
BLACK
6
CONTINUOUS
10
137.855
20
75.79
11
137.855
21
74.59
0
LINE
8
BLACK
6
CONTINUOUS
10
141.005
20
74.59
11
139.805
21
74.59
0
LINE
8
BLACK
6
CONTINUOUS
10
139.805
20
74.59
11
139.805
21
75.79
0
LINE
8
BLACK
6
CONTINUOUS
10
139.805
20
75.79
11
141.005
21
75.79
0
LINE
8
BLACK
6
CONTINUOUS
10
141.005
20
75.79
11
141.005
21
74.59
0
LINE
8
BLACK
6
CONTINUOUS
10
121.955
20
74.59
11
120.755
21
74.59
0
LINE
8
BLACK
6
CONTINUOUS
10
120.755
20
74.59
11
120.755
21
75.79
0
LINE
8
BLACK
6
CONTINUOUS
10
120.755
20
75.79
11
121.955
21
75.79
0
LINE
8
BLACK
6
CONTINUOUS
10
121.955
20
75.79
11
121.955
21
74.59
0
LINE
8
BLACK
6
CONTINUOUS
10
118.805
20
74.59
11
117.605
21
74.59
0
LINE
8
BLACK
6
CONTINUOUS
10
117.605
20
74.59
11
117.605
21
75.79
0
LINE
8
BLACK
6
CONTINUOUS
10
117.605
20
75.79
11
118.805
21
75.79
0
LINE
8
BLACK
6
CONTINUOUS
10
118.805
20
75.79
11
118.805
21
74.59
0
LINE
8
BLACK
6
CONTINUOUS
10
102.905
20
74.59
11
101.705
21
74.59
0
LINE
8
BLACK
6
CONTINUOUS
10
101.705
20
74.59
11
101.705
21
75.79
0
LINE
8
BLACK
6
CONTINUOUS
10
101.705
20
75.79
11
102.905
21
75.79
0
LINE
8
BLACK
6
CONTINUOUS
10
102.905
20
75.79
11
102.905
21
74.59
0
LINE
8
BLACK
6
CONTINUOUS
10
99.755
20
74.59
11
98.555
21
74.59
0
LINE
8
BLACK
6
CONTINUOUS
10
98.555
20
74.59
11
98.555
21
75.79
0
LINE
8
BLACK
6
CONTINUOUS
10
98.555
20
75.79
11
99.755
21
75.79
0
LINE
8
BLACK
6
CONTINUOUS
10
99.755
20
75.79
11
99.755
21
74.59
0
LINE
8
BLACK
6
CONTINUOUS
10
80.705
20
74.59
11
79.505
21
74.59
0
LINE
8
BLACK
6
CONTINUOUS
10
79.505
20
74.59
11
79.505
21
75.79
0
LINE
8
BLACK
6
CONTINUOUS
10
79.505
20
75.79
11
80.705
21
75.79
0
LINE
8
BLACK
6
CONTINUOUS
10
80.705
20
75.79
11
80.705
21
74.59
0
LINE
8
BLACK
6
CONTINUOUS
10
83.855
20
74.59
11
82.655
21
74.59
0
LINE
8
BLACK
6
CONTINUOUS
10
82.655
20
74.59
11
82.655
21
75.79
0
LINE
8
BLACK
6
CONTINUOUS
10
82.655
20
75.79
11
83.855
21
75.79
0
LINE
8
BLACK
6
CONTINUOUS
10
83.855
20
75.79
11
83.855
21
74.59
0
LINE
8
BLACK
6
CONTINUOUS
10
61.655
20
74.59
11
60.455
21
74.59
0
LINE
8
BLACK
6
CONTINUOUS
10
60.455
20
74.59
11
60.455
21
75.79
0
LINE
8
BLACK
6
CONTINUOUS
10
60.455
20
75.79
11
61.655
21
75.79
0
LINE
8
BLACK
6
CONTINUOUS
10
61.655
20
75.79
11
61.655
21
74.59
0
LINE
8
BLACK
6
CONTINUOUS
10
64.805
20
74.59
11
63.605
21
74.59
0
LINE
8
BLACK
6
CONTINUOUS
10
63.605
20
74.59
11
63.605
21
75.79
0
LINE
8
BLACK
6
CONTINUOUS
10
63.605
20
75.79
11
64.805
21
75.79
0
LINE
8
BLACK
6
CONTINUOUS
10
64.805
20
75.79
11
64.805
21
74.59
0
LINE
8
BLACK
6
CONTINUOUS
10
37.845
20
74.59
11
36.645
21
74.59
0
LINE
8
BLACK
6
CONTINUOUS
10
36.645
20
74.59
11
36.645
21
75.79
0
LINE
8
BLACK
6
CONTINUOUS
10
36.645
20
75.79
11
37.845
21
75.79
0
LINE
8
BLACK
6
CONTINUOUS
10
37.845
20
75.79
11
37.845
21
74.59
0
LINE
8
BLACK
6
CONTINUOUS
10
40.995
20
74.59
11
39.795
21
74.59
0
LINE
8
BLACK
6
CONTINUOUS
10
39.795
20
74.59
11
39.795
21
75.79
0
LINE
8
BLACK
6
CONTINUOUS
10
39.795
20
75.79
11
40.995
21
75.79
0
LINE
8
BLACK
6
CONTINUOUS
10
40.995
20
75.79
11
40.995
21
74.59
0
LINE
8
BLACK
6
CONTINUOUS
10
21.945
20
74.59
11
20.745
21
74.59
0
LINE
8
BLACK
6
CONTINUOUS
10
20.745
20
74.59
11
20.745
21
75.79
0
LINE
8
BLACK
6
CONTINUOUS
10
20.745
20
75.79
11
21.945
21
75.79
0
LINE
8
BLACK
6
CONTINUOUS
10
21.945
20
75.79
11
21.945
21
74.59
0
LINE
8
BLACK
6
CONTINUOUS
10
18.795
20
74.59
11
17.595
21
74.59
0
LINE
8
BLACK
6
CONTINUOUS
10
17.595
20
74.59
11
17.595
21
75.79
0
LINE
8
BLACK
6
CONTINUOUS
10
17.595
20
75.79
11
18.795
21
75.79
0
LINE
8
BLACK
6
CONTINUOUS
10
18.795
20
75.79
11
18.795
21
74.59
0
LINE
8
BLACK
6
CONTINUOUS
10
-0.255
20
74.59
11
-1.455
21
74.59
0
LINE
8
BLACK
6
CONTINUOUS
10
-1.455
20
74.59
11
-1.455
21
75.79
0
LINE
8
BLACK
6
CONTINUOUS
10
-1.455
20
75.79
11
-0.255
21
75.79
0
LINE
8
BLACK
6
CONTINUOUS
10
-0.255
20
75.79
11
-0.255
21
74.59
0
LINE
8
BLACK
6
CONTINUOUS
10
2.895
20
74.59
11
1.695
21
74.59
0
LINE
8
BLACK
6
CONTINUOUS
10
1.695
20
74.59
11
1.695
21
75.79
0
LINE
8
BLACK
6
CONTINUOUS
10
1.695
20
75.79
11
2.895
21
75.79
0
LINE
8
BLACK
6
CONTINUOUS
10
2.895
20
75.79
11
2.895
21
74.59
0
LINE
8
BLACK
6
CONTINUOUS
10
160.055
20
74.59
11
158.855
21
74.59
0
LINE
8
BLACK
6
CONTINUOUS
10
158.855
20
74.59
11
158.855
21
75.79
0
LINE
8
BLACK
6
CONTINUOUS
10
158.855
20
75.79
11
160.055
21
75.79
0
LINE
8
BLACK
6
CONTINUOUS
10
160.055
20
75.79
11
160.055
21
74.59
0
LINE
8
BLACK
6
CONTINUOUS
10
198.155
20
74.59
11
196.955
21
74.59
0
LINE
8
BLACK
6
CONTINUOUS
10
196.955
20
74.59
11
196.955
21
75.79
0
LINE
8
BLACK
6
CONTINUOUS
10
196.955
20
75.79
11
198.155
21
75.79
0
LINE
8
BLACK
6
CONTINUOUS
10
198.155
20
75.79
11
198.155
21
74.59
0
LINE
8
BLACK
6
CONTINUOUS
10
371.225
20
74.59
11
370.025
21
74.59
0
LINE
8
BLACK
6
CONTINUOUS
10
370.025
20
74.59
11
370.025
21
75.79
0
LINE
8
BLACK
6
CONTINUOUS
10
370.025
20
75.79
11
371.225
21
75.79
0
LINE
8
BLACK
6
CONTINUOUS
10
371.225
20
75.79
11
371.225
21
74.59
0
LINE
8
BLACK
6
CONTINUOUS
10
374.375
20
74.59
11
373.175
21
74.59
0
LINE
8
BLACK
6
CONTINUOUS
10
373.175
20
74.59
11
373.175
21
75.79
0
LINE
8
BLACK
6
CONTINUOUS
10
373.175
20
75.79
11
374.375
21
75.79
0
LINE
8
BLACK
6
CONTINUOUS
10
374.375
20
75.79
11
374.375
21
74.59
0
LINE
8
BLACK
6
CONTINUOUS
10
355.325
20
74.59
11
354.125
21
74.59
0
LINE
8
BLACK
6
CONTINUOUS
10
354.125
20
74.59
11
354.125
21
75.79
0
LINE
8
BLACK
6
CONTINUOUS
10
354.125
20
75.79
11
355.325
21
75.79
0
LINE
8
BLACK
6
CONTINUOUS
10
355.325
20
75.79
11
355.325
21
74.59
0
LINE
8
BLACK
6
CONTINUOUS
10
352.175
20
74.59
11
350.975
21
74.59
0
LINE
8
BLACK
6
CONTINUOUS
10
350.975
20
74.59
11
350.975
21
75.79
0
LINE
8
BLACK
6
CONTINUOUS
10
350.975
20
75.79
11
352.175
21
75.79
0
LINE
8
BLACK
6
CONTINUOUS
10
352.175
20
75.79
11
352.175
21
74.59
0
LINE
8
BLACK
6
CONTINUOUS
10
318.835
20
74.59
11
317.635
21
74.59
0
LINE
8
BLACK
6
CONTINUOUS
10
317.635
20
74.59
11
317.635
21
75.79
0
LINE
8
BLACK
6
CONTINUOUS
10
317.635
20
75.79
11
318.835
21
75.79
0
LINE
8
BLACK
6
CONTINUOUS
10
318.835
20
75.79
11
318.835
21
74.59
0
LINE
8
BLACK
6
CONTINUOUS
10
321.985
20
74.59
11
320.785
21
74.59
0
LINE
8
BLACK
6
CONTINUOUS
10
320.785
20
74.59
11
320.785
21
75.79
0
LINE
8
BLACK
6
CONTINUOUS
10
320.785
20
75.79
11
321.985
21
75.79
0
LINE
8
BLACK
6
CONTINUOUS
10
321.985
20
75.79
11
321.985
21
74.59
0
LINE
8
BLACK
6
CONTINUOUS
10
290.255
20
74.59
11
289.055
21
74.59
0
LINE
8
BLACK
6
CONTINUOUS
10
289.055
20
74.59
11
289.055
21
75.79
0
LINE
8
BLACK
6
CONTINUOUS
10
289.055
20
75.79
11
290.255
21
75.79
0
LINE
8
BLACK
6
CONTINUOUS
10
290.255
20
75.79
11
290.255
21
74.59
0
LINE
8
BLACK
6
CONTINUOUS
10
293.405
20
74.59
11
292.205
21
74.59
0
LINE
8
BLACK
6
CONTINUOUS
10
292.205
20
74.59
11
292.205
21
75.79
0
LINE
8
BLACK
6
CONTINUOUS
10
292.205
20
75.79
11
293.405
21
75.79
0
LINE
8
BLACK
6
CONTINUOUS
10
293.405
20
75.79
11
293.405
21
74.59
0
LINE
8
BLACK
6
CONTINUOUS
10
274.355
20
74.59
11
273.155
21
74.59
0
LINE
8
BLACK
6
CONTINUOUS
10
273.155
20
74.59
11
273.155
21
75.79
0
LINE
8
BLACK
6
CONTINUOUS
10
273.155
20
75.79
11
274.355
21
75.79
0
LINE
8
BLACK
6
CONTINUOUS
10
274.355
20
75.79
11
274.355
21
74.59
0
LINE
8
BLACK
6
CONTINUOUS
10
255.305
20
74.59
11
254.105
21
74.59
0
LINE
8
BLACK
6
CONTINUOUS
10
254.105
20
74.59
11
254.105
21
75.79
0
LINE
8
BLACK
6
CONTINUOUS
10
254.105
20
75.79
11
255.305
21
75.79
0
LINE
8
BLACK
6
CONTINUOUS
10
255.305
20
75.79
11
255.305
21
74.59
0
LINE
8
BLACK
6
CONTINUOUS
10
271.205
20
74.59
11
270.005
21
74.59
0
LINE
8
BLACK
6
CONTINUOUS
10
270.005
20
74.59
11
270.005
21
75.79
0
LINE
8
BLACK
6
CONTINUOUS
10
270.005
20
75.79
11
271.205
21
75.79
0
LINE
8
BLACK
6
CONTINUOUS
10
271.205
20
75.79
11
271.205
21
74.59
0
LINE
8
BLACK
6
CONTINUOUS
10
195.005
20
74.59
11
193.805
21
74.59
0
LINE
8
BLACK
6
CONTINUOUS
10
193.805
20
74.59
11
193.805
21
75.79
0
LINE
8
BLACK
6
CONTINUOUS
10
193.805
20
75.79
11
195.005
21
75.79
0
LINE
8
BLACK
6
CONTINUOUS
10
195.005
20
75.79
11
195.005
21
74.59
0
LINE
8
BLACK
6
CONTINUOUS
10
179.105
20
74.59
11
177.905
21
74.59
0
LINE
8
BLACK
6
CONTINUOUS
10
177.905
20
74.59
11
177.905
21
75.79
0
LINE
8
BLACK
6
CONTINUOUS
10
177.905
20
75.79
11
179.105
21
75.79
0
LINE
8
BLACK
6
CONTINUOUS
10
179.105
20
75.79
11
179.105
21
74.59
0
LINE
8
BLACK
6
CONTINUOUS
10
214.055
20
74.59
11
212.855
21
74.59
0
LINE
8
BLACK
6
CONTINUOUS
10
212.855
20
74.59
11
212.855
21
75.79
0
LINE
8
BLACK
6
CONTINUOUS
10
212.855
20
75.79
11
214.055
21
75.79
0
LINE
8
BLACK
6
CONTINUOUS
10
214.055
20
75.79
11
214.055
21
74.59
0
LINE
8
BLACK
6
CONTINUOUS
10
217.205
20
74.59
11
216.005
21
74.59
0
LINE
8
BLACK
6
CONTINUOUS
10
216.005
20
74.59
11
216.005
21
75.79
0
LINE
8
BLACK
6
CONTINUOUS
10
216.005
20
75.79
11
217.205
21
75.79
0
LINE
8
BLACK
6
CONTINUOUS
10
217.205
20
75.79
11
217.205
21
74.59
0
LINE
8
BLACK
6
CONTINUOUS
10
233.105
20
74.59
11
231.905
21
74.59
0
LINE
8
BLACK
6
CONTINUOUS
10
231.905
20
74.59
11
231.905
21
75.79
0
LINE
8
BLACK
6
CONTINUOUS
10
231.905
20
75.79
11
233.105
21
75.79
0
LINE
8
BLACK
6
CONTINUOUS
10
233.105
20
75.79
11
233.105
21
74.59
0
LINE
8
BLACK
6
CONTINUOUS
10
236.255
20
74.59
11
235.055
21
74.59
0
LINE
8
BLACK
6
CONTINUOUS
10
235.055
20
74.59
11
235.055
21
75.79
0
LINE
8
BLACK
6
CONTINUOUS
10
235.055
20
75.79
11
236.255
21
75.79
0
LINE
8
BLACK
6
CONTINUOUS
10
236.255
20
75.79
11
236.255
21
74.59
0
LINE
8
BLACK
6
CONTINUOUS
10
252.155
20
74.59
11
250.955
21
74.59
0
LINE
8
BLACK
6
CONTINUOUS
10
250.955
20
74.59
11
250.955
21
75.79
0
LINE
8
BLACK
6
CONTINUOUS
10
250.955
20
75.79
11
252.155
21
75.79
0
LINE
8
BLACK
6
CONTINUOUS
10
252.155
20
75.79
11
252.155
21
74.59
0
LINE
8
BLACK
6
CONTINUOUS
10
207.685
20
98.4
11
206.485
21
98.4
0
LINE
8
BLACK
6
CONTINUOUS
10
206.485
20
98.4
11
206.485
21
99.6
0
LINE
8
BLACK
6
CONTINUOUS
10
206.485
20
99.6
11
207.685
21
99.6
0
LINE
8
BLACK
6
CONTINUOUS
10
207.685
20
99.6
11
207.685
21
98.4
0
LINE
8
BLACK
6
CONTINUOUS
10
188.635
20
98.4
11
187.435
21
98.4
0
LINE
8
BLACK
6
CONTINUOUS
10
187.435
20
98.4
11
187.435
21
99.6
0
LINE
8
BLACK
6
CONTINUOUS
10
187.435
20
99.6
11
188.635
21
99.6
0
LINE
8
BLACK
6
CONTINUOUS
10
188.635
20
99.6
11
188.635
21
98.4
0
LINE
8
BLACK
6
CONTINUOUS
10
185.485
20
98.4
11
184.285
21
98.4
0
LINE
8
BLACK
6
CONTINUOUS
10
184.285
20
98.4
11
184.285
21
99.6
0
LINE
8
BLACK
6
CONTINUOUS
10
184.285
20
99.6
11
185.485
21
99.6
0
LINE
8
BLACK
6
CONTINUOUS
10
185.485
20
99.6
11
185.485
21
98.4
0
LINE
8
BLACK
6
CONTINUOUS
10
160.055
20
98.4
11
158.855
21
98.4
0
LINE
8
BLACK
6
CONTINUOUS
10
158.855
20
98.4
11
158.855
21
99.6
0
LINE
8
BLACK
6
CONTINUOUS
10
158.855
20
99.6
11
160.055
21
99.6
0
LINE
8
BLACK
6
CONTINUOUS
10
160.055
20
99.6
11
160.055
21
98.4
0
LINE
8
BLACK
6
CONTINUOUS
10
156.905
20
98.4
11
155.705
21
98.4
0
LINE
8
BLACK
6
CONTINUOUS
10
155.705
20
98.4
11
155.705
21
99.6
0
LINE
8
BLACK
6
CONTINUOUS
10
155.705
20
99.6
11
156.905
21
99.6
0
LINE
8
BLACK
6
CONTINUOUS
10
156.905
20
99.6
11
156.905
21
98.4
0
LINE
8
BLACK
6
CONTINUOUS
10
137.855
20
98.4
11
136.655
21
98.4
0
LINE
8
BLACK
6
CONTINUOUS
10
136.655
20
98.4
11
136.655
21
99.6
0
LINE
8
BLACK
6
CONTINUOUS
10
136.655
20
99.6
11
137.855
21
99.6
0
LINE
8
BLACK
6
CONTINUOUS
10
137.855
20
99.6
11
137.855
21
98.4
0
LINE
8
BLACK
6
CONTINUOUS
10
141.005
20
98.4
11
139.805
21
98.4
0
LINE
8
BLACK
6
CONTINUOUS
10
139.805
20
98.4
11
139.805
21
99.6
0
LINE
8
BLACK
6
CONTINUOUS
10
139.805
20
99.6
11
141.005
21
99.6
0
LINE
8
BLACK
6
CONTINUOUS
10
141.005
20
99.6
11
141.005
21
98.4
0
LINE
8
BLACK
6
CONTINUOUS
10
118.805
20
98.4
11
117.605
21
98.4
0
LINE
8
BLACK
6
CONTINUOUS
10
117.605
20
98.4
11
117.605
21
99.6
0
LINE
8
BLACK
6
CONTINUOUS
10
117.605
20
99.6
11
118.805
21
99.6
0
LINE
8
BLACK
6
CONTINUOUS
10
118.805
20
99.6
11
118.805
21
98.4
0
LINE
8
BLACK
6
CONTINUOUS
10
121.955
20
98.4
11
120.755
21
98.4
0
LINE
8
BLACK
6
CONTINUOUS
10
120.755
20
98.4
11
120.755
21
99.6
0
LINE
8
BLACK
6
CONTINUOUS
10
120.755
20
99.6
11
121.955
21
99.6
0
LINE
8
BLACK
6
CONTINUOUS
10
121.955
20
99.6
11
121.955
21
98.4
0
LINE
8
BLACK
6
CONTINUOUS
10
102.905
20
98.4
11
101.705
21
98.4
0
LINE
8
BLACK
6
CONTINUOUS
10
101.705
20
98.4
11
101.705
21
99.6
0
LINE
8
BLACK
6
CONTINUOUS
10
101.705
20
99.6
11
102.905
21
99.6
0
LINE
8
BLACK
6
CONTINUOUS
10
102.905
20
99.6
11
102.905
21
98.4
0
LINE
8
BLACK
6
CONTINUOUS
10
99.755
20
98.4
11
98.555
21
98.4
0
LINE
8
BLACK
6
CONTINUOUS
10
98.555
20
98.4
11
98.555
21
99.6
0
LINE
8
BLACK
6
CONTINUOUS
10
98.555
20
99.6
11
99.755
21
99.6
0
LINE
8
BLACK
6
CONTINUOUS
10
99.755
20
99.6
11
99.755
21
98.4
0
LINE
8
BLACK
6
CONTINUOUS
10
64.805
20
98.4
11
63.605
21
98.4
0
LINE
8
BLACK
6
CONTINUOUS
10
63.605
20
98.4
11
63.605
21
99.6
0
LINE
8
BLACK
6
CONTINUOUS
10
63.605
20
99.6
11
64.805
21
99.6
0
LINE
8
BLACK
6
CONTINUOUS
10
64.805
20
99.6
11
64.805
21
98.4
0
LINE
8
BLACK
6
CONTINUOUS
10
61.655
20
98.4
11
60.455
21
98.4
0
LINE
8
BLACK
6
CONTINUOUS
10
60.455
20
98.4
11
60.455
21
99.6
0
LINE
8
BLACK
6
CONTINUOUS
10
60.455
20
99.6
11
61.655
21
99.6
0
LINE
8
BLACK
6
CONTINUOUS
10
61.655
20
99.6
11
61.655
21
98.4
0
LINE
8
BLACK
6
CONTINUOUS
10
40.995
20
98.4
11
39.795
21
98.4
0
LINE
8
BLACK
6
CONTINUOUS
10
39.795
20
98.4
11
39.795
21
99.6
0
LINE
8
BLACK
6
CONTINUOUS
10
39.795
20
99.6
11
40.995
21
99.6
0
LINE
8
BLACK
6
CONTINUOUS
10
40.995
20
99.6
11
40.995
21
98.4
0
LINE
8
BLACK
6
CONTINUOUS
10
37.845
20
98.4
11
36.645
21
98.4
0
LINE
8
BLACK
6
CONTINUOUS
10
36.645
20
98.4
11
36.645
21
99.6
0
LINE
8
BLACK
6
CONTINUOUS
10
36.645
20
99.6
11
37.845
21
99.6
0
LINE
8
BLACK
6
CONTINUOUS
10
37.845
20
99.6
11
37.845
21
98.4
0
LINE
8
BLACK
6
CONTINUOUS
10
18.795
20
98.4
11
17.595
21
98.4
0
LINE
8
BLACK
6
CONTINUOUS
10
17.595
20
98.4
11
17.595
21
99.6
0
LINE
8
BLACK
6
CONTINUOUS
10
17.595
20
99.6
11
18.795
21
99.6
0
LINE
8
BLACK
6
CONTINUOUS
10
18.795
20
99.6
11
18.795
21
98.4
0
LINE
8
BLACK
6
CONTINUOUS
10
21.945
20
98.4
11
20.745
21
98.4
0
LINE
8
BLACK
6
CONTINUOUS
10
20.745
20
98.4
11
20.745
21
99.6
0
LINE
8
BLACK
6
CONTINUOUS
10
20.745
20
99.6
11
21.945
21
99.6
0
LINE
8
BLACK
6
CONTINUOUS
10
21.945
20
99.6
11
21.945
21
98.4
0
LINE
8
BLACK
6
CONTINUOUS
10
-0.255
20
98.4
11
-1.455
21
98.4
0
LINE
8
BLACK
6
CONTINUOUS
10
-1.455
20
98.4
11
-1.455
21
99.6
0
LINE
8
BLACK
6
CONTINUOUS
10
-1.455
20
99.6
11
-0.255
21
99.6
0
LINE
8
BLACK
6
CONTINUOUS
10
-0.255
20
99.6
11
-0.255
21
98.4
0
LINE
8
BLACK
6
CONTINUOUS
10
309.305
20
98.4
11
308.105
21
98.4
0
LINE
8
BLACK
6
CONTINUOUS
10
308.105
20
98.4
11
308.105
21
99.6
0
LINE
8
BLACK
6
CONTINUOUS
10
308.105
20
99.6
11
309.305
21
99.6
0
LINE
8
BLACK
6
CONTINUOUS
10
309.305
20
99.6
11
309.305
21
98.4
0
LINE
8
BLACK
6
CONTINUOUS
10
2.895
20
98.4
11
1.695
21
98.4
0
LINE
8
BLACK
6
CONTINUOUS
10
1.695
20
98.4
11
1.695
21
99.6
0
LINE
8
BLACK
6
CONTINUOUS
10
1.695
20
99.6
11
2.895
21
99.6
0
LINE
8
BLACK
6
CONTINUOUS
10
2.895
20
99.6
11
2.895
21
98.4
0
LINE
8
BLACK
6
CONTINUOUS
10
371.225
20
98.4
11
370.025
21
98.4
0
LINE
8
BLACK
6
CONTINUOUS
10
370.025
20
98.4
11
370.025
21
99.6
0
LINE
8
BLACK
6
CONTINUOUS
10
370.025
20
99.6
11
371.225
21
99.6
0
LINE
8
BLACK
6
CONTINUOUS
10
371.225
20
99.6
11
371.225
21
98.4
0
LINE
8
BLACK
6
CONTINUOUS
10
374.375
20
98.4
11
373.175
21
98.4
0
LINE
8
BLACK
6
CONTINUOUS
10
373.175
20
98.4
11
373.175
21
99.6
0
LINE
8
BLACK
6
CONTINUOUS
10
373.175
20
99.6
11
374.375
21
99.6
0
LINE
8
BLACK
6
CONTINUOUS
10
374.375
20
99.6
11
374.375
21
98.4
0
LINE
8
BLACK
6
CONTINUOUS
10
355.325
20
98.4
11
354.125
21
98.4
0
LINE
8
BLACK
6
CONTINUOUS
10
354.125
20
98.4
11
354.125
21
99.6
0
LINE
8
BLACK
6
CONTINUOUS
10
354.125
20
99.6
11
355.325
21
99.6
0
LINE
8
BLACK
6
CONTINUOUS
10
355.325
20
99.6
11
355.325
21
98.4
0
LINE
8
BLACK
6
CONTINUOUS
10
352.175
20
98.4
11
350.975
21
98.4
0
LINE
8
BLACK
6
CONTINUOUS
10
350.975
20
98.4
11
350.975
21
99.6
0
LINE
8
BLACK
6
CONTINUOUS
10
350.975
20
99.6
11
352.175
21
99.6
0
LINE
8
BLACK
6
CONTINUOUS
10
352.175
20
99.6
11
352.175
21
98.4
0
LINE
8
BLACK
6
CONTINUOUS
10
331.505
20
98.4
11
330.305
21
98.4
0
LINE
8
BLACK
6
CONTINUOUS
10
330.305
20
98.4
11
330.305
21
99.6
0
LINE
8
BLACK
6
CONTINUOUS
10
330.305
20
99.6
11
331.505
21
99.6
0
LINE
8
BLACK
6
CONTINUOUS
10
331.505
20
99.6
11
331.505
21
98.4
0
LINE
8
BLACK
6
CONTINUOUS
10
328.355
20
98.4
11
327.155
21
98.4
0
LINE
8
BLACK
6
CONTINUOUS
10
327.155
20
98.4
11
327.155
21
99.6
0
LINE
8
BLACK
6
CONTINUOUS
10
327.155
20
99.6
11
328.355
21
99.6
0
LINE
8
BLACK
6
CONTINUOUS
10
328.355
20
99.6
11
328.355
21
98.4
0
LINE
8
BLACK
6
CONTINUOUS
10
312.455
20
98.4
11
311.255
21
98.4
0
LINE
8
BLACK
6
CONTINUOUS
10
311.255
20
98.4
11
311.255
21
99.6
0
LINE
8
BLACK
6
CONTINUOUS
10
311.255
20
99.6
11
312.455
21
99.6
0
LINE
8
BLACK
6
CONTINUOUS
10
312.455
20
99.6
11
312.455
21
98.4
0
LINE
8
BLACK
6
CONTINUOUS
10
204.535
20
98.4
11
203.335
21
98.4
0
LINE
8
BLACK
6
CONTINUOUS
10
203.335
20
98.4
11
203.335
21
99.6
0
LINE
8
BLACK
6
CONTINUOUS
10
203.335
20
99.6
11
204.535
21
99.6
0
LINE
8
BLACK
6
CONTINUOUS
10
204.535
20
99.6
11
204.535
21
98.4
0
LINE
8
BLACK
6
CONTINUOUS
10
290.255
20
98.4
11
289.055
21
98.4
0
LINE
8
BLACK
6
CONTINUOUS
10
289.055
20
98.4
11
289.055
21
99.6
0
LINE
8
BLACK
6
CONTINUOUS
10
289.055
20
99.6
11
290.255
21
99.6
0
LINE
8
BLACK
6
CONTINUOUS
10
290.255
20
99.6
11
290.255
21
98.4
0
LINE
8
BLACK
6
CONTINUOUS
10
293.405
20
98.4
11
292.205
21
98.4
0
LINE
8
BLACK
6
CONTINUOUS
10
292.205
20
98.4
11
292.205
21
99.6
0
LINE
8
BLACK
6
CONTINUOUS
10
292.205
20
99.6
11
293.405
21
99.6
0
LINE
8
BLACK
6
CONTINUOUS
10
293.405
20
99.6
11
293.405
21
98.4
0
LINE
8
BLACK
6
CONTINUOUS
10
271.205
20
98.4
11
270.005
21
98.4
0
LINE
8
BLACK
6
CONTINUOUS
10
270.005
20
98.4
11
270.005
21
99.6
0
LINE
8
BLACK
6
CONTINUOUS
10
270.005
20
99.6
11
271.205
21
99.6
0
LINE
8
BLACK
6
CONTINUOUS
10
271.205
20
99.6
11
271.205
21
98.4
0
LINE
8
BLACK
6
CONTINUOUS
10
274.355
20
98.4
11
273.155
21
98.4
0
LINE
8
BLACK
6
CONTINUOUS
10
273.155
20
98.4
11
273.155
21
99.6
0
LINE
8
BLACK
6
CONTINUOUS
10
273.155
20
99.6
11
274.355
21
99.6
0
LINE
8
BLACK
6
CONTINUOUS
10
274.355
20
99.6
11
274.355
21
98.4
0
LINE
8
BLACK
6
CONTINUOUS
10
245.785
20
98.4
11
244.585
21
98.4
0
LINE
8
BLACK
6
CONTINUOUS
10
244.585
20
98.4
11
244.585
21
99.6
0
LINE
8
BLACK
6
CONTINUOUS
10
244.585
20
99.6
11
245.785
21
99.6
0
LINE
8
BLACK
6
CONTINUOUS
10
245.785
20
99.6
11
245.785
21
98.4
0
LINE
8
BLACK
6
CONTINUOUS
10
242.635
20
98.4
11
241.435
21
98.4
0
LINE
8
BLACK
6
CONTINUOUS
10
241.435
20
98.4
11
241.435
21
99.6
0
LINE
8
BLACK
6
CONTINUOUS
10
241.435
20
99.6
11
242.635
21
99.6
0
LINE
8
BLACK
6
CONTINUOUS
10
242.635
20
99.6
11
242.635
21
98.4
0
LINE
8
BLACK
6
CONTINUOUS
10
223.585
20
98.4
11
222.385
21
98.4
0
LINE
8
BLACK
6
CONTINUOUS
10
222.385
20
98.4
11
222.385
21
99.6
0
LINE
8
BLACK
6
CONTINUOUS
10
222.385
20
99.6
11
223.585
21
99.6
0
LINE
8
BLACK
6
CONTINUOUS
10
223.585
20
99.6
11
223.585
21
98.4
0
LINE
8
BLACK
6
CONTINUOUS
10
226.735
20
98.4
11
225.535
21
98.4
0
LINE
8
BLACK
6
CONTINUOUS
10
225.535
20
98.4
11
225.535
21
99.6
0
LINE
8
BLACK
6
CONTINUOUS
10
225.535
20
99.6
11
226.735
21
99.6
0
LINE
8
BLACK
6
CONTINUOUS
10
226.735
20
99.6
11
226.735
21
98.4
  0
ENDSEC
  0
EOF
